<svg xmlns="http://www.w3.org/2000/svg" width="1700" height="1200" viewBox="0 0 1700 1200" font-family="Segoe UI, Arial, sans-serif">
<rect width="1700" height="1200" fill="#f8fafc"/>
<text x="20" y="32" font-size="20" font-weight="800" fill="#1a202c">HYTEK Linear Truss - full-truss simplifier diff (ENGINEERING REVIEW)</text>
<text x="20" y="54" font-size="13" fill="#4a5568">Job <tspan font-weight="700">2603191 ROCKVILLE TH-TYPE-A1-LT</tspan> | plan <tspan font-weight="700">GF-LIN-89.075</tspan> | truss <tspan font-weight="700">U1-1</tspan> | profile 89x41 lipped C 0.75mm AZ150</text>
<text x="20" y="74" font-size="12" fill="#1f2937">Legend: <tspan fill="#1e40af" font-weight="700">==== chord</tspan>  <tspan fill="#475569" font-weight="700">==== web</tspan>  <tspan fill="#fbbf24" font-weight="700">---- Box piece</tspan>  <tspan fill="#dc2626" font-weight="700">o bolt hole (orig)</tspan>  <tspan fill="#2563eb" font-weight="700">o bolt hole (simp)</tspan>  <tspan fill="#d97706" font-weight="700">[+] dimple (orig)</tspan>  <tspan fill="#16a34a" font-weight="700">[+] dimple (simp)</tspan>  <tspan fill="#a78bfa" font-weight="700">. notch</tspan>  <tspan fill="#94a3b8" font-weight="700">. swage</tspan></text>
<rect x="20" y="100" width="1660" height="503" fill="#fef2f2" stroke="#dc2626" stroke-width="2.5"/>
<rect x="20" y="100" width="1660" height="50" fill="#dc2626"/>
<text x="850.0" y="126" text-anchor="middle" font-size="18" font-weight="700" fill="white">FrameCAD ORIGINAL</text>
<text x="850.0" y="144" text-anchor="middle" font-size="11" fill="white" opacity="0.95">offset-based BOLT HOLES - produced by FrameCAD Structure (BEFORE simplification)</text>
<line x1="61.9" y1="561.1" x2="1638.1" y2="561.1" stroke="#1e40af" stroke-width="5" stroke-linecap="round"/>
<line x1="66.8" y1="558.1" x2="360.5" y2="436.4" stroke="#1e40af" stroke-width="5" stroke-linecap="round"/>
<line x1="147.5" y1="569.7" x2="147.5" y2="516.1" stroke="#475569" stroke-width="3.5" stroke-linecap="round"/>
<line x1="275.9" y1="569.7" x2="275.9" y2="462.9" stroke="#475569" stroke-width="3.5" stroke-linecap="round"/>
<line x1="293.0" y1="460.8" x2="617.9" y2="460.8" stroke="#1e40af" stroke-width="5" stroke-linecap="round"/>
<line x1="303.5" y1="564.2" x2="581.7" y2="457.7" stroke="#475569" stroke-width="3.5" stroke-linecap="round"/>
<line x1="601.4" y1="464.1" x2="1287.3" y2="180.0" stroke="#1e40af" stroke-width="5" stroke-linecap="round"/>
<line x1="609.4" y1="569.7" x2="609.4" y2="452.2" stroke="#475569" stroke-width="3.5" stroke-linecap="round"/>
<line x1="638.7" y1="566.9" x2="879.4" y2="345.8" stroke="#475569" stroke-width="3.5" stroke-linecap="round"/>
<line x1="906.0" y1="569.7" x2="906.0" y2="329.3" stroke="#475569" stroke-width="3.5" stroke-linecap="round"/>
<line x1="1173.0" y1="567.3" x2="933.0" y2="318.1" stroke="#475569" stroke-width="3.5" stroke-linecap="round"/>
<line x1="1202.7" y1="569.7" x2="1202.7" y2="206.5" stroke="#475569" stroke-width="3.5" stroke-linecap="round"/>
<line x1="1219.9" y1="204.4" x2="1638.1" y2="204.4" stroke="#1e40af" stroke-width="5" stroke-linecap="round"/>
<line x1="1234.8" y1="569.0" x2="1401.7" y2="196.5" stroke="#475569" stroke-width="3.5" stroke-linecap="round"/>
<line x1="1433.8" y1="569.7" x2="1433.8" y2="195.8" stroke="#475569" stroke-width="3.5" stroke-linecap="round"/>
<line x1="1596.2" y1="569.2" x2="1466.7" y2="196.3" stroke="#475569" stroke-width="3.5" stroke-linecap="round"/>
<line x1="1629.0" y1="573.0" x2="1629.0" y2="195.8" stroke="#475569" stroke-width="3.5" stroke-linecap="round"/>
<line x1="230.6" y1="557.3" x2="793.2" y2="557.3" stroke="#fbbf24" stroke-width="3" stroke-linecap="round" stroke-dasharray="6,3"/>
<line x1="1534.5" y1="557.3" x2="1638.1" y2="557.3" stroke="#fbbf24" stroke-width="3" stroke-linecap="round" stroke-dasharray="6,3"/>
<line x1="680.0" y1="427.8" x2="992.4" y2="298.4" stroke="#fbbf24" stroke-width="3" stroke-linecap="round" stroke-dasharray="6,3"/>
<line x1="1345.1" y1="200.6" x2="1523.1" y2="200.6" stroke="#fbbf24" stroke-width="3" stroke-linecap="round" stroke-dasharray="6,3"/>
<circle cx="83.9" cy="561.1" r="2.6" fill="#dc2626" stroke="white" stroke-width="0.5"/>
<circle cx="147.5" cy="561.1" r="2.6" fill="#dc2626" stroke="white" stroke-width="0.5"/>
<circle cx="275.9" cy="561.1" r="2.6" fill="#dc2626" stroke="white" stroke-width="0.5"/>
<circle cx="324.2" cy="561.1" r="2.6" fill="#dc2626" stroke="white" stroke-width="0.5"/>
<circle cx="609.4" cy="561.1" r="2.6" fill="#dc2626" stroke="white" stroke-width="0.5"/>
<circle cx="650.3" cy="561.1" r="2.6" fill="#dc2626" stroke="white" stroke-width="0.5"/>
<circle cx="906.0" cy="561.1" r="2.6" fill="#dc2626" stroke="white" stroke-width="0.5"/>
<circle cx="1162.4" cy="561.1" r="2.6" fill="#dc2626" stroke="white" stroke-width="0.5"/>
<circle cx="1202.7" cy="561.1" r="2.6" fill="#dc2626" stroke="white" stroke-width="0.5"/>
<circle cx="1240.5" cy="561.1" r="2.6" fill="#dc2626" stroke="white" stroke-width="0.5"/>
<circle cx="1433.8" cy="561.1" r="2.6" fill="#dc2626" stroke="white" stroke-width="0.5"/>
<circle cx="1591.7" cy="561.1" r="2.6" fill="#dc2626" stroke="white" stroke-width="0.5"/>
<circle cx="1629.0" cy="561.1" r="2.6" fill="#dc2626" stroke="white" stroke-width="0.5"/>
<rect x="230.9" y="558.6" width="5" height="5" fill="#d97706" stroke="white" stroke-width="0.6" transform="rotate(45 233.4 561.1)"/>
<rect x="509.4" y="558.6" width="5" height="5" fill="#d97706" stroke="white" stroke-width="0.6" transform="rotate(45 511.9 561.1)"/>
<rect x="787.8" y="558.6" width="5" height="5" fill="#d97706" stroke="white" stroke-width="0.6" transform="rotate(45 790.3 561.1)"/>
<rect x="1534.8" y="558.6" width="5" height="5" fill="#d97706" stroke="white" stroke-width="0.6" transform="rotate(45 1537.3 561.1)"/>
<rect x="1632.7" y="558.6" width="5" height="5" fill="#d97706" stroke="white" stroke-width="0.6" transform="rotate(45 1635.2 561.1)"/>
<rect x="230.9" y="554.8" width="5" height="5" fill="#d97706" stroke="white" stroke-width="0.6" transform="rotate(45 233.4 557.3)"/>
<rect x="509.4" y="554.8" width="5" height="5" fill="#d97706" stroke="white" stroke-width="0.6" transform="rotate(45 511.9 557.3)"/>
<rect x="787.8" y="554.8" width="5" height="5" fill="#d97706" stroke="white" stroke-width="0.6" transform="rotate(45 790.3 557.3)"/>
<rect x="1534.8" y="554.8" width="5" height="5" fill="#d97706" stroke="white" stroke-width="0.6" transform="rotate(45 1537.3 557.3)"/>
<rect x="1632.7" y="554.8" width="5" height="5" fill="#d97706" stroke="white" stroke-width="0.6" transform="rotate(45 1635.2 557.3)"/>
<circle cx="73.1" cy="555.5" r="2.6" fill="#dc2626" stroke="white" stroke-width="0.5"/>
<circle cx="82.0" cy="551.8" r="2.6" fill="#dc2626" stroke="white" stroke-width="0.5"/>
<circle cx="94.8" cy="546.5" r="2.6" fill="#dc2626" stroke="white" stroke-width="0.5"/>
<circle cx="145.7" cy="525.4" r="2.6" fill="#dc2626" stroke="white" stroke-width="0.5"/>
<circle cx="274.0" cy="472.2" r="2.6" fill="#dc2626" stroke="white" stroke-width="0.5"/>
<circle cx="315.3" cy="455.1" r="2.6" fill="#dc2626" stroke="white" stroke-width="0.5"/>
<circle cx="324.2" cy="451.5" r="2.6" fill="#dc2626" stroke="white" stroke-width="0.5"/>
<circle cx="337.0" cy="446.2" r="2.6" fill="#dc2626" stroke="white" stroke-width="0.5"/>
<circle cx="73.2" cy="555.4" r="1.2" fill="#a78bfa" opacity="0.55"/>
<circle cx="73.2" cy="555.4" r="1.2" fill="#a78bfa" opacity="0.55"/>
<circle cx="85.9" cy="550.2" r="1.2" fill="#a78bfa" opacity="0.55"/>
<circle cx="98.5" cy="544.9" r="1.2" fill="#a78bfa" opacity="0.55"/>
<circle cx="111.2" cy="539.7" r="1.2" fill="#a78bfa" opacity="0.55"/>
<circle cx="113.6" cy="538.7" r="1.2" fill="#a78bfa" opacity="0.55"/>
<circle cx="299.7" cy="461.6" r="1.2" fill="#a78bfa" opacity="0.55"/>
<circle cx="303.8" cy="459.9" r="1.2" fill="#a78bfa" opacity="0.55"/>
<circle cx="305.4" cy="459.3" r="1.2" fill="#a78bfa" opacity="0.55"/>
<circle cx="316.5" cy="454.7" r="1.2" fill="#a78bfa" opacity="0.55"/>
<circle cx="329.1" cy="449.4" r="1.2" fill="#a78bfa" opacity="0.55"/>
<circle cx="341.8" cy="444.2" r="1.2" fill="#a78bfa" opacity="0.55"/>
<circle cx="354.1" cy="439.1" r="1.2" fill="#a78bfa" opacity="0.55"/>
<circle cx="147.5" cy="556.3" r="2.6" fill="#dc2626" stroke="white" stroke-width="0.5"/>
<circle cx="147.5" cy="551.0" r="2.6" fill="#dc2626" stroke="white" stroke-width="0.5"/>
<circle cx="147.5" cy="537.7" r="2.6" fill="#dc2626" stroke="white" stroke-width="0.5"/>
<circle cx="147.5" cy="533.6" r="2.6" fill="#dc2626" stroke="white" stroke-width="0.5"/>
<circle cx="147.5" cy="529.9" r="2.6" fill="#dc2626" stroke="white" stroke-width="0.5"/>
<circle cx="147.5" cy="528.1" r="1.2" fill="#a78bfa" opacity="0.55"/>
<circle cx="147.5" cy="561.8" r="0.9" fill="#94a3b8" opacity="0.5"/>
<circle cx="147.5" cy="546.1" r="0.9" fill="#94a3b8" opacity="0.5"/>
<circle cx="147.5" cy="530.4" r="0.9" fill="#94a3b8" opacity="0.5"/>
<circle cx="147.5" cy="523.9" r="0.9" fill="#94a3b8" opacity="0.5"/>
<circle cx="275.9" cy="556.3" r="2.6" fill="#dc2626" stroke="white" stroke-width="0.5"/>
<circle cx="275.9" cy="551.0" r="2.6" fill="#dc2626" stroke="white" stroke-width="0.5"/>
<circle cx="275.9" cy="484.5" r="2.6" fill="#dc2626" stroke="white" stroke-width="0.5"/>
<circle cx="275.9" cy="480.5" r="2.6" fill="#dc2626" stroke="white" stroke-width="0.5"/>
<circle cx="275.9" cy="476.7" r="2.6" fill="#dc2626" stroke="white" stroke-width="0.5"/>
<circle cx="275.9" cy="474.9" r="1.2" fill="#a78bfa" opacity="0.55"/>
<circle cx="275.9" cy="561.8" r="0.9" fill="#94a3b8" opacity="0.5"/>
<circle cx="275.9" cy="546.1" r="0.9" fill="#94a3b8" opacity="0.5"/>
<circle cx="275.9" cy="543.4" r="0.9" fill="#94a3b8" opacity="0.5"/>
<circle cx="275.9" cy="495.5" r="0.9" fill="#94a3b8" opacity="0.5"/>
<circle cx="275.9" cy="479.8" r="0.9" fill="#94a3b8" opacity="0.5"/>
<circle cx="275.9" cy="470.8" r="0.9" fill="#94a3b8" opacity="0.5"/>
<circle cx="326.1" cy="460.8" r="2.6" fill="#dc2626" stroke="white" stroke-width="0.5"/>
<circle cx="561.0" cy="460.8" r="2.6" fill="#dc2626" stroke="white" stroke-width="0.5"/>
<circle cx="608.4" cy="460.8" r="2.6" fill="#dc2626" stroke="white" stroke-width="0.5"/>
<circle cx="609.4" cy="460.8" r="2.6" fill="#dc2626" stroke="white" stroke-width="0.5"/>
<circle cx="324.2" cy="556.3" r="2.6" fill="#dc2626" stroke="white" stroke-width="0.5"/>
<circle cx="349.9" cy="546.4" r="2.6" fill="#dc2626" stroke="white" stroke-width="0.5"/>
<circle cx="535.3" cy="475.5" r="2.6" fill="#dc2626" stroke="white" stroke-width="0.5"/>
<circle cx="561.0" cy="465.7" r="2.6" fill="#dc2626" stroke="white" stroke-width="0.5"/>
<circle cx="315.8" cy="559.5" r="1.2" fill="#a78bfa" opacity="0.55"/>
<circle cx="569.5" cy="462.4" r="1.2" fill="#a78bfa" opacity="0.55"/>
<circle cx="310.9" cy="561.4" r="0.9" fill="#94a3b8" opacity="0.5"/>
<circle cx="325.5" cy="555.8" r="0.9" fill="#94a3b8" opacity="0.5"/>
<circle cx="340.2" cy="550.1" r="0.9" fill="#94a3b8" opacity="0.5"/>
<circle cx="354.9" cy="544.5" r="0.9" fill="#94a3b8" opacity="0.5"/>
<circle cx="369.6" cy="538.9" r="0.9" fill="#94a3b8" opacity="0.5"/>
<circle cx="380.5" cy="534.7" r="0.9" fill="#94a3b8" opacity="0.5"/>
<circle cx="504.7" cy="487.2" r="0.9" fill="#94a3b8" opacity="0.5"/>
<circle cx="519.4" cy="481.6" r="0.9" fill="#94a3b8" opacity="0.5"/>
<circle cx="534.1" cy="476.0" r="0.9" fill="#94a3b8" opacity="0.5"/>
<circle cx="548.8" cy="470.4" r="0.9" fill="#94a3b8" opacity="0.5"/>
<circle cx="563.5" cy="464.7" r="0.9" fill="#94a3b8" opacity="0.5"/>
<circle cx="574.4" cy="460.6" r="0.9" fill="#94a3b8" opacity="0.5"/>
<circle cx="607.5" cy="461.6" r="2.6" fill="#dc2626" stroke="white" stroke-width="0.5"/>
<circle cx="610.3" cy="460.4" r="2.6" fill="#dc2626" stroke="white" stroke-width="0.5"/>
<circle cx="860.8" cy="356.7" r="2.6" fill="#dc2626" stroke="white" stroke-width="0.5"/>
<circle cx="904.2" cy="338.7" r="2.6" fill="#dc2626" stroke="white" stroke-width="0.5"/>
<circle cx="940.7" cy="323.6" r="2.6" fill="#dc2626" stroke="white" stroke-width="0.5"/>
<circle cx="1200.8" cy="215.8" r="2.6" fill="#dc2626" stroke="white" stroke-width="0.5"/>
<circle cx="1242.1" cy="198.7" r="2.6" fill="#dc2626" stroke="white" stroke-width="0.5"/>
<circle cx="1251.0" cy="195.0" r="2.6" fill="#dc2626" stroke="white" stroke-width="0.5"/>
<circle cx="1263.8" cy="189.7" r="2.6" fill="#dc2626" stroke="white" stroke-width="0.5"/>
<rect x="680.0" y="428.0" width="5" height="5" fill="#d97706" stroke="white" stroke-width="0.6" transform="rotate(45 682.5 430.5)"/>
<rect x="987.1" y="300.8" width="5" height="5" fill="#d97706" stroke="white" stroke-width="0.6" transform="rotate(45 989.6 303.3)"/>
<circle cx="607.8" cy="461.5" r="1.2" fill="#a78bfa" opacity="0.55"/>
<circle cx="1226.5" cy="205.2" r="1.2" fill="#a78bfa" opacity="0.55"/>
<circle cx="1230.6" cy="203.5" r="1.2" fill="#a78bfa" opacity="0.55"/>
<circle cx="1232.2" cy="202.8" r="1.2" fill="#a78bfa" opacity="0.55"/>
<circle cx="1243.3" cy="198.2" r="1.2" fill="#a78bfa" opacity="0.55"/>
<circle cx="1256.0" cy="193.0" r="1.2" fill="#a78bfa" opacity="0.55"/>
<circle cx="1268.6" cy="187.7" r="1.2" fill="#a78bfa" opacity="0.55"/>
<circle cx="1281.0" cy="182.6" r="1.2" fill="#a78bfa" opacity="0.55"/>
<rect x="680.1" y="424.2" width="5" height="5" fill="#d97706" stroke="white" stroke-width="0.6" transform="rotate(45 682.6 426.7)"/>
<rect x="987.2" y="297.0" width="5" height="5" fill="#d97706" stroke="white" stroke-width="0.6" transform="rotate(45 989.7 299.5)"/>
<circle cx="811.0" cy="377.5" r="1.2" fill="#a78bfa" opacity="0.55"/>
<circle cx="823.7" cy="372.3" r="1.2" fill="#a78bfa" opacity="0.55"/>
<circle cx="836.4" cy="367.0" r="1.2" fill="#a78bfa" opacity="0.55"/>
<circle cx="849.0" cy="361.8" r="1.2" fill="#a78bfa" opacity="0.55"/>
<circle cx="861.7" cy="356.5" r="1.2" fill="#a78bfa" opacity="0.55"/>
<circle cx="869.9" cy="353.1" r="1.2" fill="#a78bfa" opacity="0.55"/>
<circle cx="894.2" cy="343.1" r="1.2" fill="#a78bfa" opacity="0.55"/>
<circle cx="906.9" cy="337.8" r="1.2" fill="#a78bfa" opacity="0.55"/>
<circle cx="909.2" cy="336.8" r="1.2" fill="#a78bfa" opacity="0.55"/>
<circle cx="935.8" cy="325.8" r="1.2" fill="#a78bfa" opacity="0.55"/>
<circle cx="948.5" cy="320.6" r="1.2" fill="#a78bfa" opacity="0.55"/>
<circle cx="950.6" cy="319.7" r="1.2" fill="#a78bfa" opacity="0.55"/>
<circle cx="609.4" cy="556.3" r="2.6" fill="#dc2626" stroke="white" stroke-width="0.5"/>
<circle cx="609.4" cy="551.0" r="2.6" fill="#dc2626" stroke="white" stroke-width="0.5"/>
<circle cx="609.4" cy="469.8" r="2.6" fill="#dc2626" stroke="white" stroke-width="0.5"/>
<circle cx="609.4" cy="466.1" r="2.6" fill="#dc2626" stroke="white" stroke-width="0.5"/>
<circle cx="609.4" cy="465.7" r="2.6" fill="#dc2626" stroke="white" stroke-width="0.5"/>
<circle cx="609.4" cy="561.8" r="0.9" fill="#94a3b8" opacity="0.5"/>
<circle cx="609.4" cy="546.1" r="0.9" fill="#94a3b8" opacity="0.5"/>
<circle cx="609.4" cy="543.4" r="0.9" fill="#94a3b8" opacity="0.5"/>
<circle cx="609.4" cy="478.5" r="0.9" fill="#94a3b8" opacity="0.5"/>
<circle cx="609.4" cy="462.8" r="0.9" fill="#94a3b8" opacity="0.5"/>
<circle cx="609.4" cy="460.1" r="0.9" fill="#94a3b8" opacity="0.5"/>
<circle cx="650.3" cy="556.3" r="2.6" fill="#dc2626" stroke="white" stroke-width="0.5"/>
<circle cx="660.0" cy="547.4" r="2.6" fill="#dc2626" stroke="white" stroke-width="0.5"/>
<circle cx="841.5" cy="380.6" r="2.6" fill="#dc2626" stroke="white" stroke-width="0.5"/>
<circle cx="862.7" cy="361.2" r="2.6" fill="#dc2626" stroke="white" stroke-width="0.5"/>
<circle cx="646.5" cy="559.7" r="1.2" fill="#a78bfa" opacity="0.55"/>
<circle cx="869.0" cy="355.3" r="1.2" fill="#a78bfa" opacity="0.55"/>
<circle cx="644.5" cy="561.6" r="0.9" fill="#94a3b8" opacity="0.5"/>
<circle cx="656.1" cy="551.0" r="0.9" fill="#94a3b8" opacity="0.5"/>
<circle cx="667.7" cy="540.3" r="0.9" fill="#94a3b8" opacity="0.5"/>
<circle cx="672.8" cy="535.6" r="0.9" fill="#94a3b8" opacity="0.5"/>
<circle cx="816.0" cy="404.0" r="0.9" fill="#94a3b8" opacity="0.5"/>
<circle cx="827.6" cy="393.4" r="0.9" fill="#94a3b8" opacity="0.5"/>
<circle cx="839.2" cy="382.7" r="0.9" fill="#94a3b8" opacity="0.5"/>
<circle cx="850.7" cy="372.1" r="0.9" fill="#94a3b8" opacity="0.5"/>
<circle cx="862.3" cy="361.5" r="0.9" fill="#94a3b8" opacity="0.5"/>
<circle cx="873.6" cy="351.1" r="0.9" fill="#94a3b8" opacity="0.5"/>
<circle cx="906.0" cy="556.3" r="2.6" fill="#dc2626" stroke="white" stroke-width="0.5"/>
<circle cx="906.0" cy="551.0" r="2.6" fill="#dc2626" stroke="white" stroke-width="0.5"/>
<circle cx="906.0" cy="350.9" r="2.6" fill="#dc2626" stroke="white" stroke-width="0.5"/>
<circle cx="906.0" cy="346.9" r="2.6" fill="#dc2626" stroke="white" stroke-width="0.5"/>
<circle cx="906.0" cy="343.2" r="2.6" fill="#dc2626" stroke="white" stroke-width="0.5"/>
<circle cx="906.0" cy="341.6" r="1.2" fill="#a78bfa" opacity="0.55"/>
<circle cx="906.0" cy="561.8" r="0.9" fill="#94a3b8" opacity="0.5"/>
<circle cx="906.0" cy="546.1" r="0.9" fill="#94a3b8" opacity="0.5"/>
<circle cx="906.0" cy="543.4" r="0.9" fill="#94a3b8" opacity="0.5"/>
<circle cx="906.0" cy="362.2" r="0.9" fill="#94a3b8" opacity="0.5"/>
<circle cx="906.0" cy="346.5" r="0.9" fill="#94a3b8" opacity="0.5"/>
<circle cx="906.0" cy="337.2" r="0.9" fill="#94a3b8" opacity="0.5"/>
<circle cx="1162.4" cy="556.3" r="2.6" fill="#dc2626" stroke="white" stroke-width="0.5"/>
<circle cx="1160.5" cy="554.3" r="2.6" fill="#dc2626" stroke="white" stroke-width="0.5"/>
<circle cx="1154.0" cy="547.6" r="2.6" fill="#dc2626" stroke="white" stroke-width="0.5"/>
<circle cx="947.8" cy="333.5" r="2.6" fill="#dc2626" stroke="white" stroke-width="0.5"/>
<circle cx="945.2" cy="330.8" r="2.6" fill="#dc2626" stroke="white" stroke-width="0.5"/>
<circle cx="942.6" cy="328.0" r="2.6" fill="#dc2626" stroke="white" stroke-width="0.5"/>
<circle cx="1165.6" cy="559.6" r="1.2" fill="#a78bfa" opacity="0.55"/>
<circle cx="941.6" cy="327.0" r="1.2" fill="#a78bfa" opacity="0.55"/>
<circle cx="1167.5" cy="561.6" r="0.9" fill="#94a3b8" opacity="0.5"/>
<circle cx="1156.6" cy="550.3" r="0.9" fill="#94a3b8" opacity="0.5"/>
<circle cx="1145.7" cy="539.0" r="0.9" fill="#94a3b8" opacity="0.5"/>
<circle cx="1142.8" cy="536.0" r="0.9" fill="#94a3b8" opacity="0.5"/>
<circle cx="955.5" cy="341.5" r="0.9" fill="#94a3b8" opacity="0.5"/>
<circle cx="944.6" cy="330.2" r="0.9" fill="#94a3b8" opacity="0.5"/>
<circle cx="938.5" cy="323.8" r="0.9" fill="#94a3b8" opacity="0.5"/>
<circle cx="1202.7" cy="556.3" r="2.6" fill="#dc2626" stroke="white" stroke-width="0.5"/>
<circle cx="1202.7" cy="551.0" r="2.6" fill="#dc2626" stroke="white" stroke-width="0.5"/>
<circle cx="1202.7" cy="228.1" r="2.6" fill="#dc2626" stroke="white" stroke-width="0.5"/>
<circle cx="1202.7" cy="224.0" r="2.6" fill="#dc2626" stroke="white" stroke-width="0.5"/>
<circle cx="1202.7" cy="220.3" r="2.6" fill="#dc2626" stroke="white" stroke-width="0.5"/>
<circle cx="1202.7" cy="218.5" r="1.2" fill="#a78bfa" opacity="0.55"/>
<circle cx="1202.7" cy="561.8" r="0.9" fill="#94a3b8" opacity="0.5"/>
<circle cx="1202.7" cy="546.1" r="0.9" fill="#94a3b8" opacity="0.5"/>
<circle cx="1202.7" cy="543.4" r="0.9" fill="#94a3b8" opacity="0.5"/>
<circle cx="1202.7" cy="239.1" r="0.9" fill="#94a3b8" opacity="0.5"/>
<circle cx="1202.7" cy="223.4" r="0.9" fill="#94a3b8" opacity="0.5"/>
<circle cx="1202.7" cy="214.3" r="0.9" fill="#94a3b8" opacity="0.5"/>
<circle cx="1252.9" cy="204.4" r="2.6" fill="#dc2626" stroke="white" stroke-width="0.5"/>
<circle cx="1396.0" cy="204.4" r="2.6" fill="#dc2626" stroke="white" stroke-width="0.5"/>
<circle cx="1433.8" cy="204.4" r="2.6" fill="#dc2626" stroke="white" stroke-width="0.5"/>
<circle cx="1471.2" cy="204.4" r="2.6" fill="#dc2626" stroke="white" stroke-width="0.5"/>
<circle cx="1629.0" cy="204.4" r="2.6" fill="#dc2626" stroke="white" stroke-width="0.5"/>
<rect x="1345.5" y="201.9" width="5" height="5" fill="#d97706" stroke="white" stroke-width="0.6" transform="rotate(45 1348.0 204.4)"/>
<rect x="1517.8" y="201.9" width="5" height="5" fill="#d97706" stroke="white" stroke-width="0.6" transform="rotate(45 1520.3 204.4)"/>
<rect x="1345.5" y="198.1" width="5" height="5" fill="#d97706" stroke="white" stroke-width="0.6" transform="rotate(45 1348.0 200.6)"/>
<rect x="1517.8" y="198.1" width="5" height="5" fill="#d97706" stroke="white" stroke-width="0.6" transform="rotate(45 1520.3 200.6)"/>
<circle cx="1384.7" cy="204.6" r="1.2" fill="#a78bfa" opacity="0.55"/>
<circle cx="1398.4" cy="204.6" r="1.2" fill="#a78bfa" opacity="0.55"/>
<circle cx="1401.4" cy="204.6" r="1.2" fill="#a78bfa" opacity="0.55"/>
<circle cx="1427.4" cy="204.6" r="1.2" fill="#a78bfa" opacity="0.55"/>
<circle cx="1440.3" cy="204.6" r="1.2" fill="#a78bfa" opacity="0.55"/>
<circle cx="1465.8" cy="204.6" r="1.2" fill="#a78bfa" opacity="0.55"/>
<circle cx="1479.5" cy="204.6" r="1.2" fill="#a78bfa" opacity="0.55"/>
<circle cx="1481.2" cy="204.6" r="1.2" fill="#a78bfa" opacity="0.55"/>
<circle cx="1240.5" cy="556.3" r="2.6" fill="#dc2626" stroke="white" stroke-width="0.5"/>
<circle cx="1242.0" cy="553.0" r="2.6" fill="#dc2626" stroke="white" stroke-width="0.5"/>
<circle cx="1243.8" cy="549.0" r="2.6" fill="#dc2626" stroke="white" stroke-width="0.5"/>
<circle cx="1392.8" cy="216.5" r="2.6" fill="#dc2626" stroke="white" stroke-width="0.5"/>
<circle cx="1394.5" cy="212.5" r="2.6" fill="#dc2626" stroke="white" stroke-width="0.5"/>
<circle cx="1396.0" cy="209.2" r="2.6" fill="#dc2626" stroke="white" stroke-width="0.5"/>
<circle cx="1239.7" cy="558.1" r="1.2" fill="#a78bfa" opacity="0.55"/>
<circle cx="1396.8" cy="207.6" r="1.2" fill="#a78bfa" opacity="0.55"/>
<circle cx="1238.0" cy="561.8" r="0.9" fill="#94a3b8" opacity="0.5"/>
<circle cx="1244.5" cy="547.4" r="0.9" fill="#94a3b8" opacity="0.5"/>
<circle cx="1248.4" cy="538.6" r="0.9" fill="#94a3b8" opacity="0.5"/>
<circle cx="1388.0" cy="227.1" r="0.9" fill="#94a3b8" opacity="0.5"/>
<circle cx="1394.4" cy="212.7" r="0.9" fill="#94a3b8" opacity="0.5"/>
<circle cx="1398.5" cy="203.7" r="0.9" fill="#94a3b8" opacity="0.5"/>
<circle cx="1433.8" cy="556.3" r="2.6" fill="#dc2626" stroke="white" stroke-width="0.5"/>
<circle cx="1433.8" cy="551.0" r="2.6" fill="#dc2626" stroke="white" stroke-width="0.5"/>
<circle cx="1433.8" cy="214.5" r="2.6" fill="#dc2626" stroke="white" stroke-width="0.5"/>
<circle cx="1433.8" cy="209.2" r="2.6" fill="#dc2626" stroke="white" stroke-width="0.5"/>
<circle cx="1433.8" cy="561.8" r="0.9" fill="#94a3b8" opacity="0.5"/>
<circle cx="1433.8" cy="546.1" r="0.9" fill="#94a3b8" opacity="0.5"/>
<circle cx="1433.8" cy="543.4" r="0.9" fill="#94a3b8" opacity="0.5"/>
<circle cx="1433.8" cy="222.3" r="0.9" fill="#94a3b8" opacity="0.5"/>
<circle cx="1433.8" cy="206.6" r="0.9" fill="#94a3b8" opacity="0.5"/>
<circle cx="1433.8" cy="203.7" r="0.9" fill="#94a3b8" opacity="0.5"/>
<circle cx="1591.7" cy="556.3" r="2.6" fill="#dc2626" stroke="white" stroke-width="0.5"/>
<circle cx="1590.4" cy="552.6" r="2.6" fill="#dc2626" stroke="white" stroke-width="0.5"/>
<circle cx="1589.3" cy="549.4" r="2.6" fill="#dc2626" stroke="white" stroke-width="0.5"/>
<circle cx="1473.6" cy="216.1" r="2.6" fill="#dc2626" stroke="white" stroke-width="0.5"/>
<circle cx="1472.5" cy="212.9" r="2.6" fill="#dc2626" stroke="white" stroke-width="0.5"/>
<circle cx="1471.2" cy="209.2" r="2.6" fill="#dc2626" stroke="white" stroke-width="0.5"/>
<circle cx="1592.2" cy="557.5" r="1.2" fill="#a78bfa" opacity="0.55"/>
<circle cx="1470.8" cy="208.2" r="1.2" fill="#a78bfa" opacity="0.55"/>
<circle cx="1593.6" cy="561.8" r="0.9" fill="#94a3b8" opacity="0.5"/>
<circle cx="1588.5" cy="546.9" r="0.9" fill="#94a3b8" opacity="0.5"/>
<circle cx="1585.9" cy="539.5" r="0.9" fill="#94a3b8" opacity="0.5"/>
<circle cx="1477.1" cy="226.2" r="0.9" fill="#94a3b8" opacity="0.5"/>
<circle cx="1471.9" cy="211.4" r="0.9" fill="#94a3b8" opacity="0.5"/>
<circle cx="1469.3" cy="203.7" r="0.9" fill="#94a3b8" opacity="0.5"/>
<circle cx="1629.0" cy="556.3" r="2.6" fill="#dc2626" stroke="white" stroke-width="0.5"/>
<circle cx="1629.0" cy="551.0" r="2.6" fill="#dc2626" stroke="white" stroke-width="0.5"/>
<circle cx="1629.0" cy="214.5" r="2.6" fill="#dc2626" stroke="white" stroke-width="0.5"/>
<circle cx="1629.0" cy="209.2" r="2.6" fill="#dc2626" stroke="white" stroke-width="0.5"/>
<circle cx="1629.0" cy="565.1" r="0.9" fill="#94a3b8" opacity="0.5"/>
<circle cx="1629.0" cy="549.4" r="0.9" fill="#94a3b8" opacity="0.5"/>
<circle cx="1629.0" cy="543.4" r="0.9" fill="#94a3b8" opacity="0.5"/>
<circle cx="1629.0" cy="222.1" r="0.9" fill="#94a3b8" opacity="0.5"/>
<circle cx="1629.0" cy="206.4" r="0.9" fill="#94a3b8" opacity="0.5"/>
<circle cx="1629.0" cy="203.7" r="0.9" fill="#94a3b8" opacity="0.5"/>
<rect x="30" y="559" width="380" height="34" fill="white" opacity="0.85" rx="3"/>
<text x="38" y="575" font-size="11" font-weight="600" fill="#1a202c">Sticks: 21  |  Bolt holes: 98  |  Dimples: 18  |  Notches: 55  |  Swages: 81</text>
<rect x="20" y="617" width="1660" height="503" fill="#f0fdf4" stroke="#16a34a" stroke-width="2.5"/>
<rect x="20" y="617" width="1660" height="50" fill="#16a34a"/>
<text x="850.0" y="643" text-anchor="middle" font-size="18" font-weight="700" fill="white">SIMPLIFIED OUTPUT</text>
<text x="850.0" y="661" text-anchor="middle" font-size="11" fill="white" opacity="0.95">centreline-rule WEB HOLES at every chord-web junction | normalised dimples (15mm margin, 900mm max gap) | W-W skipped</text>
<line x1="61.9" y1="1078.1" x2="1638.1" y2="1078.1" stroke="#1e40af" stroke-width="5" stroke-linecap="round"/>
<line x1="66.8" y1="1075.1" x2="360.5" y2="953.4" stroke="#1e40af" stroke-width="5" stroke-linecap="round"/>
<line x1="147.5" y1="1086.7" x2="147.5" y2="1033.1" stroke="#475569" stroke-width="3.5" stroke-linecap="round"/>
<line x1="275.9" y1="1086.7" x2="275.9" y2="979.9" stroke="#475569" stroke-width="3.5" stroke-linecap="round"/>
<line x1="293.0" y1="977.8" x2="617.9" y2="977.8" stroke="#1e40af" stroke-width="5" stroke-linecap="round"/>
<line x1="303.5" y1="1081.2" x2="581.7" y2="974.7" stroke="#475569" stroke-width="3.5" stroke-linecap="round"/>
<line x1="601.4" y1="981.1" x2="1287.3" y2="697.0" stroke="#1e40af" stroke-width="5" stroke-linecap="round"/>
<line x1="609.4" y1="1086.7" x2="609.4" y2="969.2" stroke="#475569" stroke-width="3.5" stroke-linecap="round"/>
<line x1="638.7" y1="1083.9" x2="879.4" y2="862.8" stroke="#475569" stroke-width="3.5" stroke-linecap="round"/>
<line x1="906.0" y1="1086.7" x2="906.0" y2="846.3" stroke="#475569" stroke-width="3.5" stroke-linecap="round"/>
<line x1="1173.0" y1="1084.3" x2="933.0" y2="835.1" stroke="#475569" stroke-width="3.5" stroke-linecap="round"/>
<line x1="1202.7" y1="1086.7" x2="1202.7" y2="723.5" stroke="#475569" stroke-width="3.5" stroke-linecap="round"/>
<line x1="1219.9" y1="721.4" x2="1638.1" y2="721.4" stroke="#1e40af" stroke-width="5" stroke-linecap="round"/>
<line x1="1234.8" y1="1086.0" x2="1401.7" y2="713.5" stroke="#475569" stroke-width="3.5" stroke-linecap="round"/>
<line x1="1433.8" y1="1086.7" x2="1433.8" y2="712.8" stroke="#475569" stroke-width="3.5" stroke-linecap="round"/>
<line x1="1596.2" y1="1086.2" x2="1466.7" y2="713.3" stroke="#475569" stroke-width="3.5" stroke-linecap="round"/>
<line x1="1629.0" y1="1090.0" x2="1629.0" y2="712.8" stroke="#475569" stroke-width="3.5" stroke-linecap="round"/>
<line x1="230.6" y1="1074.3" x2="793.2" y2="1074.3" stroke="#fbbf24" stroke-width="3" stroke-linecap="round" stroke-dasharray="6,3"/>
<line x1="1534.5" y1="1074.3" x2="1638.1" y2="1074.3" stroke="#fbbf24" stroke-width="3" stroke-linecap="round" stroke-dasharray="6,3"/>
<line x1="680.0" y1="944.8" x2="992.4" y2="815.4" stroke="#fbbf24" stroke-width="3" stroke-linecap="round" stroke-dasharray="6,3"/>
<line x1="1345.1" y1="717.6" x2="1523.1" y2="717.6" stroke="#fbbf24" stroke-width="3" stroke-linecap="round" stroke-dasharray="6,3"/>
<circle cx="147.5" cy="1078.1" r="2.6" fill="#2563eb" stroke="white" stroke-width="0.5"/>
<circle cx="275.9" cy="1078.1" r="2.6" fill="#2563eb" stroke="white" stroke-width="0.5"/>
<circle cx="311.5" cy="1078.1" r="2.6" fill="#2563eb" stroke="white" stroke-width="0.5"/>
<circle cx="609.4" cy="1078.1" r="2.6" fill="#2563eb" stroke="white" stroke-width="0.5"/>
<circle cx="645.0" cy="1078.1" r="2.6" fill="#2563eb" stroke="white" stroke-width="0.5"/>
<circle cx="906.0" cy="1078.1" r="2.6" fill="#2563eb" stroke="white" stroke-width="0.5"/>
<circle cx="1167.0" cy="1078.1" r="2.6" fill="#2563eb" stroke="white" stroke-width="0.5"/>
<circle cx="1202.7" cy="1078.1" r="2.6" fill="#2563eb" stroke="white" stroke-width="0.5"/>
<circle cx="1238.3" cy="1078.1" r="2.6" fill="#2563eb" stroke="white" stroke-width="0.5"/>
<circle cx="1433.8" cy="1078.1" r="2.6" fill="#2563eb" stroke="white" stroke-width="0.5"/>
<circle cx="1593.4" cy="1078.1" r="2.6" fill="#2563eb" stroke="white" stroke-width="0.5"/>
<circle cx="1629.0" cy="1078.1" r="2.6" fill="#2563eb" stroke="white" stroke-width="0.5"/>
<rect x="232.4" y="1075.6" width="5" height="5" fill="#16a34a" stroke="white" stroke-width="0.6" transform="rotate(45 234.9 1078.1)"/>
<rect x="417.0" y="1075.6" width="5" height="5" fill="#16a34a" stroke="white" stroke-width="0.6" transform="rotate(45 419.5 1078.1)"/>
<rect x="601.7" y="1075.6" width="5" height="5" fill="#16a34a" stroke="white" stroke-width="0.6" transform="rotate(45 604.2 1078.1)"/>
<rect x="786.4" y="1075.6" width="5" height="5" fill="#16a34a" stroke="white" stroke-width="0.6" transform="rotate(45 788.9 1078.1)"/>
<rect x="1536.3" y="1075.6" width="5" height="5" fill="#16a34a" stroke="white" stroke-width="0.6" transform="rotate(45 1538.8 1078.1)"/>
<rect x="1631.3" y="1075.6" width="5" height="5" fill="#16a34a" stroke="white" stroke-width="0.6" transform="rotate(45 1633.8 1078.1)"/>
<circle cx="275.9" cy="1078.3" r="2.6" fill="#2563eb" stroke="white" stroke-width="0.5"/>
<circle cx="311.5" cy="1078.3" r="2.6" fill="#2563eb" stroke="white" stroke-width="0.5"/>
<circle cx="609.4" cy="1078.3" r="2.6" fill="#2563eb" stroke="white" stroke-width="0.5"/>
<circle cx="645.0" cy="1078.3" r="2.6" fill="#2563eb" stroke="white" stroke-width="0.5"/>
<rect x="232.4" y="1071.8" width="5" height="5" fill="#16a34a" stroke="white" stroke-width="0.6" transform="rotate(45 234.9 1074.3)"/>
<rect x="417.0" y="1071.8" width="5" height="5" fill="#16a34a" stroke="white" stroke-width="0.6" transform="rotate(45 419.5 1074.3)"/>
<rect x="601.7" y="1071.8" width="5" height="5" fill="#16a34a" stroke="white" stroke-width="0.6" transform="rotate(45 604.2 1074.3)"/>
<rect x="786.4" y="1071.8" width="5" height="5" fill="#16a34a" stroke="white" stroke-width="0.6" transform="rotate(45 788.9 1074.3)"/>
<circle cx="1593.4" cy="1078.3" r="2.6" fill="#2563eb" stroke="white" stroke-width="0.5"/>
<circle cx="1629.0" cy="1078.3" r="2.6" fill="#2563eb" stroke="white" stroke-width="0.5"/>
<rect x="1536.3" y="1071.8" width="5" height="5" fill="#16a34a" stroke="white" stroke-width="0.6" transform="rotate(45 1538.8 1074.3)"/>
<rect x="1631.3" y="1071.8" width="5" height="5" fill="#16a34a" stroke="white" stroke-width="0.6" transform="rotate(45 1633.8 1074.3)"/>
<circle cx="147.5" cy="1041.6" r="2.6" fill="#2563eb" stroke="white" stroke-width="0.5"/>
<circle cx="275.9" cy="988.5" r="2.6" fill="#2563eb" stroke="white" stroke-width="0.5"/>
<circle cx="301.6" cy="977.8" r="2.6" fill="#2563eb" stroke="white" stroke-width="0.5"/>
<circle cx="73.2" cy="1072.4" r="1.2" fill="#a78bfa" opacity="0.55"/>
<circle cx="73.2" cy="1072.4" r="1.2" fill="#a78bfa" opacity="0.55"/>
<circle cx="85.9" cy="1067.2" r="1.2" fill="#a78bfa" opacity="0.55"/>
<circle cx="98.5" cy="1061.9" r="1.2" fill="#a78bfa" opacity="0.55"/>
<circle cx="111.2" cy="1056.7" r="1.2" fill="#a78bfa" opacity="0.55"/>
<circle cx="113.6" cy="1055.7" r="1.2" fill="#a78bfa" opacity="0.55"/>
<circle cx="299.7" cy="978.6" r="1.2" fill="#a78bfa" opacity="0.55"/>
<circle cx="303.8" cy="976.9" r="1.2" fill="#a78bfa" opacity="0.55"/>
<circle cx="305.4" cy="976.3" r="1.2" fill="#a78bfa" opacity="0.55"/>
<circle cx="316.5" cy="971.7" r="1.2" fill="#a78bfa" opacity="0.55"/>
<circle cx="329.1" cy="966.4" r="1.2" fill="#a78bfa" opacity="0.55"/>
<circle cx="341.8" cy="961.2" r="1.2" fill="#a78bfa" opacity="0.55"/>
<circle cx="354.1" cy="956.1" r="1.2" fill="#a78bfa" opacity="0.55"/>
<circle cx="147.5" cy="1078.1" r="2.6" fill="#2563eb" stroke="white" stroke-width="0.5"/>
<circle cx="147.5" cy="1041.6" r="2.6" fill="#2563eb" stroke="white" stroke-width="0.5"/>
<circle cx="147.5" cy="1045.1" r="1.2" fill="#a78bfa" opacity="0.55"/>
<circle cx="147.5" cy="1078.8" r="0.9" fill="#94a3b8" opacity="0.5"/>
<circle cx="147.5" cy="1063.1" r="0.9" fill="#94a3b8" opacity="0.5"/>
<circle cx="147.5" cy="1047.4" r="0.9" fill="#94a3b8" opacity="0.5"/>
<circle cx="147.5" cy="1040.9" r="0.9" fill="#94a3b8" opacity="0.5"/>
<circle cx="275.9" cy="1078.1" r="2.6" fill="#2563eb" stroke="white" stroke-width="0.5"/>
<circle cx="275.9" cy="988.5" r="2.6" fill="#2563eb" stroke="white" stroke-width="0.5"/>
<circle cx="275.9" cy="991.9" r="1.2" fill="#a78bfa" opacity="0.55"/>
<circle cx="275.9" cy="1078.8" r="0.9" fill="#94a3b8" opacity="0.5"/>
<circle cx="275.9" cy="1063.1" r="0.9" fill="#94a3b8" opacity="0.5"/>
<circle cx="275.9" cy="1060.4" r="0.9" fill="#94a3b8" opacity="0.5"/>
<circle cx="275.9" cy="1012.5" r="0.9" fill="#94a3b8" opacity="0.5"/>
<circle cx="275.9" cy="996.8" r="0.9" fill="#94a3b8" opacity="0.5"/>
<circle cx="275.9" cy="987.8" r="0.9" fill="#94a3b8" opacity="0.5"/>
<circle cx="301.6" cy="977.8" r="2.6" fill="#2563eb" stroke="white" stroke-width="0.5"/>
<circle cx="573.7" cy="977.8" r="2.6" fill="#2563eb" stroke="white" stroke-width="0.5"/>
<circle cx="609.4" cy="977.8" r="2.6" fill="#2563eb" stroke="white" stroke-width="0.5"/>
<circle cx="311.5" cy="1078.1" r="2.6" fill="#2563eb" stroke="white" stroke-width="0.5"/>
<circle cx="573.7" cy="977.8" r="2.6" fill="#2563eb" stroke="white" stroke-width="0.5"/>
<circle cx="315.8" cy="1076.5" r="1.2" fill="#a78bfa" opacity="0.55"/>
<circle cx="569.5" cy="979.4" r="1.2" fill="#a78bfa" opacity="0.55"/>
<circle cx="310.9" cy="1078.4" r="0.9" fill="#94a3b8" opacity="0.5"/>
<circle cx="325.5" cy="1072.8" r="0.9" fill="#94a3b8" opacity="0.5"/>
<circle cx="340.2" cy="1067.1" r="0.9" fill="#94a3b8" opacity="0.5"/>
<circle cx="354.9" cy="1061.5" r="0.9" fill="#94a3b8" opacity="0.5"/>
<circle cx="369.6" cy="1055.9" r="0.9" fill="#94a3b8" opacity="0.5"/>
<circle cx="380.5" cy="1051.7" r="0.9" fill="#94a3b8" opacity="0.5"/>
<circle cx="504.7" cy="1004.2" r="0.9" fill="#94a3b8" opacity="0.5"/>
<circle cx="519.4" cy="998.6" r="0.9" fill="#94a3b8" opacity="0.5"/>
<circle cx="534.1" cy="993.0" r="0.9" fill="#94a3b8" opacity="0.5"/>
<circle cx="548.8" cy="987.4" r="0.9" fill="#94a3b8" opacity="0.5"/>
<circle cx="563.5" cy="981.7" r="0.9" fill="#94a3b8" opacity="0.5"/>
<circle cx="574.4" cy="977.6" r="0.9" fill="#94a3b8" opacity="0.5"/>
<circle cx="609.4" cy="977.8" r="2.6" fill="#2563eb" stroke="white" stroke-width="0.5"/>
<circle cx="873.1" cy="868.6" r="2.6" fill="#2563eb" stroke="white" stroke-width="0.5"/>
<circle cx="906.0" cy="854.9" r="2.6" fill="#2563eb" stroke="white" stroke-width="0.5"/>
<circle cx="906.4" cy="854.8" r="2.6" fill="#2563eb" stroke="white" stroke-width="0.5"/>
<circle cx="939.0" cy="841.3" r="2.6" fill="#2563eb" stroke="white" stroke-width="0.5"/>
<circle cx="1202.7" cy="732.0" r="2.6" fill="#2563eb" stroke="white" stroke-width="0.5"/>
<circle cx="1228.4" cy="721.4" r="2.6" fill="#2563eb" stroke="white" stroke-width="0.5"/>
<rect x="681.3" y="944.5" width="5" height="5" fill="#16a34a" stroke="white" stroke-width="0.6" transform="rotate(45 683.8 947.0)"/>
<rect x="833.6" y="881.4" width="5" height="5" fill="#16a34a" stroke="white" stroke-width="0.6" transform="rotate(45 836.1 883.9)"/>
<rect x="985.8" y="818.3" width="5" height="5" fill="#16a34a" stroke="white" stroke-width="0.6" transform="rotate(45 988.3 820.8)"/>
<circle cx="607.8" cy="978.5" r="1.2" fill="#a78bfa" opacity="0.55"/>
<circle cx="1226.5" cy="722.2" r="1.2" fill="#a78bfa" opacity="0.55"/>
<circle cx="1230.6" cy="720.5" r="1.2" fill="#a78bfa" opacity="0.55"/>
<circle cx="1232.2" cy="719.8" r="1.2" fill="#a78bfa" opacity="0.55"/>
<circle cx="1243.3" cy="715.2" r="1.2" fill="#a78bfa" opacity="0.55"/>
<circle cx="1256.0" cy="710.0" r="1.2" fill="#a78bfa" opacity="0.55"/>
<circle cx="1268.6" cy="704.7" r="1.2" fill="#a78bfa" opacity="0.55"/>
<circle cx="1281.0" cy="699.6" r="1.2" fill="#a78bfa" opacity="0.55"/>
<circle cx="873.2" cy="868.8" r="2.6" fill="#2563eb" stroke="white" stroke-width="0.5"/>
<circle cx="906.1" cy="855.1" r="2.6" fill="#2563eb" stroke="white" stroke-width="0.5"/>
<circle cx="906.5" cy="855.0" r="2.6" fill="#2563eb" stroke="white" stroke-width="0.5"/>
<circle cx="939.0" cy="841.5" r="2.6" fill="#2563eb" stroke="white" stroke-width="0.5"/>
<rect x="681.4" y="940.7" width="5" height="5" fill="#16a34a" stroke="white" stroke-width="0.6" transform="rotate(45 683.9 943.2)"/>
<rect x="833.7" y="877.6" width="5" height="5" fill="#16a34a" stroke="white" stroke-width="0.6" transform="rotate(45 836.2 880.1)"/>
<rect x="985.9" y="814.5" width="5" height="5" fill="#16a34a" stroke="white" stroke-width="0.6" transform="rotate(45 988.4 817.0)"/>
<circle cx="811.0" cy="894.5" r="1.2" fill="#a78bfa" opacity="0.55"/>
<circle cx="823.7" cy="889.3" r="1.2" fill="#a78bfa" opacity="0.55"/>
<circle cx="836.4" cy="884.0" r="1.2" fill="#a78bfa" opacity="0.55"/>
<circle cx="849.0" cy="878.8" r="1.2" fill="#a78bfa" opacity="0.55"/>
<circle cx="861.7" cy="873.5" r="1.2" fill="#a78bfa" opacity="0.55"/>
<circle cx="869.9" cy="870.1" r="1.2" fill="#a78bfa" opacity="0.55"/>
<circle cx="894.2" cy="860.1" r="1.2" fill="#a78bfa" opacity="0.55"/>
<circle cx="906.9" cy="854.8" r="1.2" fill="#a78bfa" opacity="0.55"/>
<circle cx="909.2" cy="853.8" r="1.2" fill="#a78bfa" opacity="0.55"/>
<circle cx="935.8" cy="842.8" r="1.2" fill="#a78bfa" opacity="0.55"/>
<circle cx="948.5" cy="837.6" r="1.2" fill="#a78bfa" opacity="0.55"/>
<circle cx="950.6" cy="836.7" r="1.2" fill="#a78bfa" opacity="0.55"/>
<circle cx="609.4" cy="1078.1" r="2.6" fill="#2563eb" stroke="white" stroke-width="0.5"/>
<circle cx="609.4" cy="977.8" r="2.6" fill="#2563eb" stroke="white" stroke-width="0.5"/>
<circle cx="609.4" cy="1078.8" r="0.9" fill="#94a3b8" opacity="0.5"/>
<circle cx="609.4" cy="1063.1" r="0.9" fill="#94a3b8" opacity="0.5"/>
<circle cx="609.4" cy="1060.4" r="0.9" fill="#94a3b8" opacity="0.5"/>
<circle cx="609.4" cy="995.5" r="0.9" fill="#94a3b8" opacity="0.5"/>
<circle cx="609.4" cy="979.8" r="0.9" fill="#94a3b8" opacity="0.5"/>
<circle cx="609.4" cy="977.1" r="0.9" fill="#94a3b8" opacity="0.5"/>
<circle cx="645.0" cy="1078.1" r="2.6" fill="#2563eb" stroke="white" stroke-width="0.5"/>
<circle cx="873.1" cy="868.6" r="2.6" fill="#2563eb" stroke="white" stroke-width="0.5"/>
<circle cx="646.5" cy="1076.7" r="1.2" fill="#a78bfa" opacity="0.55"/>
<circle cx="869.0" cy="872.3" r="1.2" fill="#a78bfa" opacity="0.55"/>
<circle cx="644.5" cy="1078.6" r="0.9" fill="#94a3b8" opacity="0.5"/>
<circle cx="656.1" cy="1068.0" r="0.9" fill="#94a3b8" opacity="0.5"/>
<circle cx="667.7" cy="1057.3" r="0.9" fill="#94a3b8" opacity="0.5"/>
<circle cx="672.8" cy="1052.6" r="0.9" fill="#94a3b8" opacity="0.5"/>
<circle cx="816.0" cy="921.0" r="0.9" fill="#94a3b8" opacity="0.5"/>
<circle cx="827.6" cy="910.4" r="0.9" fill="#94a3b8" opacity="0.5"/>
<circle cx="839.2" cy="899.7" r="0.9" fill="#94a3b8" opacity="0.5"/>
<circle cx="850.7" cy="889.1" r="0.9" fill="#94a3b8" opacity="0.5"/>
<circle cx="862.3" cy="878.5" r="0.9" fill="#94a3b8" opacity="0.5"/>
<circle cx="873.6" cy="868.1" r="0.9" fill="#94a3b8" opacity="0.5"/>
<circle cx="906.0" cy="1078.1" r="2.6" fill="#2563eb" stroke="white" stroke-width="0.5"/>
<circle cx="906.0" cy="854.9" r="2.6" fill="#2563eb" stroke="white" stroke-width="0.5"/>
<circle cx="906.0" cy="858.6" r="1.2" fill="#a78bfa" opacity="0.55"/>
<circle cx="906.0" cy="1078.8" r="0.9" fill="#94a3b8" opacity="0.5"/>
<circle cx="906.0" cy="1063.1" r="0.9" fill="#94a3b8" opacity="0.5"/>
<circle cx="906.0" cy="1060.4" r="0.9" fill="#94a3b8" opacity="0.5"/>
<circle cx="906.0" cy="879.2" r="0.9" fill="#94a3b8" opacity="0.5"/>
<circle cx="906.0" cy="863.5" r="0.9" fill="#94a3b8" opacity="0.5"/>
<circle cx="906.0" cy="854.2" r="0.9" fill="#94a3b8" opacity="0.5"/>
<circle cx="1167.0" cy="1078.1" r="2.6" fill="#2563eb" stroke="white" stroke-width="0.5"/>
<circle cx="939.0" cy="841.3" r="2.6" fill="#2563eb" stroke="white" stroke-width="0.5"/>
<circle cx="1165.6" cy="1076.6" r="1.2" fill="#a78bfa" opacity="0.55"/>
<circle cx="941.6" cy="844.0" r="1.2" fill="#a78bfa" opacity="0.55"/>
<circle cx="1167.5" cy="1078.6" r="0.9" fill="#94a3b8" opacity="0.5"/>
<circle cx="1156.6" cy="1067.3" r="0.9" fill="#94a3b8" opacity="0.5"/>
<circle cx="1145.7" cy="1056.0" r="0.9" fill="#94a3b8" opacity="0.5"/>
<circle cx="1142.8" cy="1053.0" r="0.9" fill="#94a3b8" opacity="0.5"/>
<circle cx="955.5" cy="858.5" r="0.9" fill="#94a3b8" opacity="0.5"/>
<circle cx="944.6" cy="847.2" r="0.9" fill="#94a3b8" opacity="0.5"/>
<circle cx="938.5" cy="840.8" r="0.9" fill="#94a3b8" opacity="0.5"/>
<circle cx="1202.7" cy="1078.1" r="2.6" fill="#2563eb" stroke="white" stroke-width="0.5"/>
<circle cx="1202.7" cy="732.0" r="2.6" fill="#2563eb" stroke="white" stroke-width="0.5"/>
<circle cx="1202.7" cy="735.5" r="1.2" fill="#a78bfa" opacity="0.55"/>
<circle cx="1202.7" cy="1078.8" r="0.9" fill="#94a3b8" opacity="0.5"/>
<circle cx="1202.7" cy="1063.1" r="0.9" fill="#94a3b8" opacity="0.5"/>
<circle cx="1202.7" cy="1060.4" r="0.9" fill="#94a3b8" opacity="0.5"/>
<circle cx="1202.7" cy="756.1" r="0.9" fill="#94a3b8" opacity="0.5"/>
<circle cx="1202.7" cy="740.4" r="0.9" fill="#94a3b8" opacity="0.5"/>
<circle cx="1202.7" cy="731.3" r="0.9" fill="#94a3b8" opacity="0.5"/>
<circle cx="1228.4" cy="721.4" r="2.6" fill="#2563eb" stroke="white" stroke-width="0.5"/>
<circle cx="1398.2" cy="721.4" r="2.6" fill="#2563eb" stroke="white" stroke-width="0.5"/>
<circle cx="1433.8" cy="721.4" r="2.6" fill="#2563eb" stroke="white" stroke-width="0.5"/>
<circle cx="1469.5" cy="721.4" r="2.6" fill="#2563eb" stroke="white" stroke-width="0.5"/>
<circle cx="1629.0" cy="721.4" r="2.6" fill="#2563eb" stroke="white" stroke-width="0.5"/>
<rect x="1346.9" y="718.9" width="5" height="5" fill="#16a34a" stroke="white" stroke-width="0.6" transform="rotate(45 1349.4 721.4)"/>
<rect x="1516.4" y="718.9" width="5" height="5" fill="#16a34a" stroke="white" stroke-width="0.6" transform="rotate(45 1518.9 721.4)"/>
<circle cx="1398.2" cy="721.6" r="2.6" fill="#2563eb" stroke="white" stroke-width="0.5"/>
<circle cx="1433.8" cy="721.6" r="2.6" fill="#2563eb" stroke="white" stroke-width="0.5"/>
<circle cx="1469.5" cy="721.6" r="2.6" fill="#2563eb" stroke="white" stroke-width="0.5"/>
<rect x="1346.9" y="715.1" width="5" height="5" fill="#16a34a" stroke="white" stroke-width="0.6" transform="rotate(45 1349.4 717.6)"/>
<rect x="1516.4" y="715.1" width="5" height="5" fill="#16a34a" stroke="white" stroke-width="0.6" transform="rotate(45 1518.9 717.6)"/>
<circle cx="1384.7" cy="721.6" r="1.2" fill="#a78bfa" opacity="0.55"/>
<circle cx="1398.4" cy="721.6" r="1.2" fill="#a78bfa" opacity="0.55"/>
<circle cx="1401.4" cy="721.6" r="1.2" fill="#a78bfa" opacity="0.55"/>
<circle cx="1427.4" cy="721.6" r="1.2" fill="#a78bfa" opacity="0.55"/>
<circle cx="1440.3" cy="721.6" r="1.2" fill="#a78bfa" opacity="0.55"/>
<circle cx="1465.8" cy="721.6" r="1.2" fill="#a78bfa" opacity="0.55"/>
<circle cx="1479.5" cy="721.6" r="1.2" fill="#a78bfa" opacity="0.55"/>
<circle cx="1481.2" cy="721.6" r="1.2" fill="#a78bfa" opacity="0.55"/>
<circle cx="1238.3" cy="1078.1" r="2.6" fill="#2563eb" stroke="white" stroke-width="0.5"/>
<circle cx="1398.2" cy="721.4" r="2.6" fill="#2563eb" stroke="white" stroke-width="0.5"/>
<circle cx="1239.7" cy="1075.1" r="1.2" fill="#a78bfa" opacity="0.55"/>
<circle cx="1396.8" cy="724.6" r="1.2" fill="#a78bfa" opacity="0.55"/>
<circle cx="1238.0" cy="1078.8" r="0.9" fill="#94a3b8" opacity="0.5"/>
<circle cx="1244.5" cy="1064.4" r="0.9" fill="#94a3b8" opacity="0.5"/>
<circle cx="1248.4" cy="1055.6" r="0.9" fill="#94a3b8" opacity="0.5"/>
<circle cx="1388.0" cy="744.1" r="0.9" fill="#94a3b8" opacity="0.5"/>
<circle cx="1394.4" cy="729.7" r="0.9" fill="#94a3b8" opacity="0.5"/>
<circle cx="1398.5" cy="720.7" r="0.9" fill="#94a3b8" opacity="0.5"/>
<circle cx="1433.8" cy="1078.1" r="2.6" fill="#2563eb" stroke="white" stroke-width="0.5"/>
<circle cx="1433.8" cy="721.4" r="2.6" fill="#2563eb" stroke="white" stroke-width="0.5"/>
<circle cx="1433.8" cy="1078.8" r="0.9" fill="#94a3b8" opacity="0.5"/>
<circle cx="1433.8" cy="1063.1" r="0.9" fill="#94a3b8" opacity="0.5"/>
<circle cx="1433.8" cy="1060.4" r="0.9" fill="#94a3b8" opacity="0.5"/>
<circle cx="1433.8" cy="739.3" r="0.9" fill="#94a3b8" opacity="0.5"/>
<circle cx="1433.8" cy="723.6" r="0.9" fill="#94a3b8" opacity="0.5"/>
<circle cx="1433.8" cy="720.7" r="0.9" fill="#94a3b8" opacity="0.5"/>
<circle cx="1593.4" cy="1078.1" r="2.6" fill="#2563eb" stroke="white" stroke-width="0.5"/>
<circle cx="1469.5" cy="721.4" r="2.6" fill="#2563eb" stroke="white" stroke-width="0.5"/>
<circle cx="1592.2" cy="1074.5" r="1.2" fill="#a78bfa" opacity="0.55"/>
<circle cx="1470.8" cy="725.2" r="1.2" fill="#a78bfa" opacity="0.55"/>
<circle cx="1593.6" cy="1078.8" r="0.9" fill="#94a3b8" opacity="0.5"/>
<circle cx="1588.5" cy="1063.9" r="0.9" fill="#94a3b8" opacity="0.5"/>
<circle cx="1585.9" cy="1056.5" r="0.9" fill="#94a3b8" opacity="0.5"/>
<circle cx="1477.1" cy="743.2" r="0.9" fill="#94a3b8" opacity="0.5"/>
<circle cx="1471.9" cy="728.4" r="0.9" fill="#94a3b8" opacity="0.5"/>
<circle cx="1469.3" cy="720.7" r="0.9" fill="#94a3b8" opacity="0.5"/>
<circle cx="1629.0" cy="1078.1" r="2.6" fill="#2563eb" stroke="white" stroke-width="0.5"/>
<circle cx="1629.0" cy="721.4" r="2.6" fill="#2563eb" stroke="white" stroke-width="0.5"/>
<circle cx="1629.0" cy="1082.1" r="0.9" fill="#94a3b8" opacity="0.5"/>
<circle cx="1629.0" cy="1066.4" r="0.9" fill="#94a3b8" opacity="0.5"/>
<circle cx="1629.0" cy="1060.4" r="0.9" fill="#94a3b8" opacity="0.5"/>
<circle cx="1629.0" cy="739.1" r="0.9" fill="#94a3b8" opacity="0.5"/>
<circle cx="1629.0" cy="723.4" r="0.9" fill="#94a3b8" opacity="0.5"/>
<circle cx="1629.0" cy="720.7" r="0.9" fill="#94a3b8" opacity="0.5"/>
<rect x="30" y="1076" width="380" height="34" fill="white" opacity="0.85" rx="3"/>
<text x="38" y="1092" font-size="11" font-weight="600" fill="#1a202c">Sticks: 21  |  Bolt holes: 67  |  Dimples: 22  |  Notches: 55  |  Swages: 81</text>
<rect x="20" y="1132" width="1660" height="56" fill="#1f2937" rx="4"/>
<text x="35" y="1152" font-size="13" font-weight="700" fill="#fbbf24">DIFF SUMMARY · U1-1</text>
<text x="35" y="1172" font-size="12" fill="white">Bolt holes: <tspan font-weight="700">98 -&gt; 67</tspan> (-31)  |  Dimples: <tspan font-weight="700">18 -&gt; 22</tspan> (+4)  |  Sticks: <tspan font-weight="700">21 -&gt; 21</tspan>  |  Physical-fit ops (notches/swages/chamfers) preserved exactly</text>
</svg>