<svg xmlns="http://www.w3.org/2000/svg" width="1700" height="1100" viewBox="0 0 1700 1100" font-family="Segoe UI, Arial, sans-serif">
<defs>
      <pattern id="cf" patternUnits="userSpaceOnUse" width="6" height="6" patternTransform="rotate(-45)">
        <rect width="6" height="6" fill="#dbeafe"/><line x1="0" y1="0" x2="0" y2="6" stroke="#93c5fd" stroke-width="0.6"/>
      </pattern>
      <pattern id="wf" patternUnits="userSpaceOnUse" width="6" height="6" patternTransform="rotate(45)">
        <rect width="6" height="6" fill="#e2e8f0"/><line x1="0" y1="0" x2="0" y2="6" stroke="#94a3b8" stroke-width="0.6"/>
      </pattern>
    </defs>
<rect width="1700" height="1100" fill="white"/>
<text x="40" y="44" font-size="26" font-weight="700" fill="#1a202c">Attic / room-in-roof (10m)</text>
<text x="40" y="72" font-size="15" fill="#4a5568">Living space inside the truss — room walls, ceiling tie, king post</text>
<text x="40" y="98" font-size="13" fill="#374151">11 members  ·  35 centreline crossings  →  12 bolts after clustering at 250mm</text>
<polygon points="113.6,789.1 113.6,802.2 1586.4,802.2 1586.4,789.1" fill="url(#cf)" stroke="#1d4ed8" stroke-width="1.4" opacity="0.95"/>
<polygon points="110.1,790.1 117.2,801.2 853.5,329.9 846.5,318.8" fill="url(#cf)" stroke="#1d4ed8" stroke-width="1.4" opacity="0.95"/>
<polygon points="853.5,318.8 846.5,329.9 1582.8,801.2 1589.9,790.1" fill="url(#cf)" stroke="#1d4ed8" stroke-width="1.4" opacity="0.95"/>
<polygon points="518.6,435.6 518.6,448.7 1181.4,448.7 1181.4,435.6" fill="url(#cf)" stroke="#1d4ed8" stroke-width="1.4" opacity="0.95"/>
<polygon points="512.1,795.6 525.2,795.6 525.2,442.2 512.1,442.2" fill="url(#wf)" stroke="#475569" stroke-width="1.2" opacity="0.85"/>
<polygon points="1174.8,795.6 1187.9,795.6 1187.9,442.2 1174.8,442.2" fill="url(#wf)" stroke="#475569" stroke-width="1.2" opacity="0.85"/>
<polygon points="109.3,790.7 117.9,800.6 522.9,447.1 514.3,437.2" fill="url(#wf)" stroke="#475569" stroke-width="1.2" opacity="0.85"/>
<polygon points="1185.7,437.2 1177.1,447.1 1582.1,800.6 1590.7,790.7" fill="url(#wf)" stroke="#475569" stroke-width="1.2" opacity="0.85"/>
<polygon points="843.4,442.2 856.6,442.2 856.6,324.4 843.4,324.4" fill="url(#wf)" stroke="#475569" stroke-width="1.2" opacity="0.85"/>
<polygon points="516.4,436.0 520.8,448.4 852.2,330.5 847.8,318.2" fill="url(#wf)" stroke="#475569" stroke-width="1.2" opacity="0.85"/>
<polygon points="852.2,318.2 847.8,330.5 1179.2,448.4 1183.6,436.0" fill="url(#wf)" stroke="#475569" stroke-width="1.2" opacity="0.85"/>
<line x1="113.6" y1="795.6" x2="1586.4" y2="795.6" stroke="#1d4ed8" stroke-width="0.8" stroke-dasharray="5 3" opacity="0.5"/>
<line x1="113.6" y1="795.6" x2="850.0" y2="324.4" stroke="#1d4ed8" stroke-width="0.8" stroke-dasharray="5 3" opacity="0.5"/>
<line x1="850.0" y1="324.4" x2="1586.4" y2="795.6" stroke="#1d4ed8" stroke-width="0.8" stroke-dasharray="5 3" opacity="0.5"/>
<line x1="518.6" y1="795.6" x2="518.6" y2="442.2" stroke="#334155" stroke-width="0.8" stroke-dasharray="5 3" opacity="0.5"/>
<line x1="1181.4" y1="795.6" x2="1181.4" y2="442.2" stroke="#334155" stroke-width="0.8" stroke-dasharray="5 3" opacity="0.5"/>
<line x1="518.6" y1="442.2" x2="1181.4" y2="442.2" stroke="#1d4ed8" stroke-width="0.8" stroke-dasharray="5 3" opacity="0.5"/>
<line x1="113.6" y1="795.6" x2="518.6" y2="442.2" stroke="#334155" stroke-width="0.8" stroke-dasharray="5 3" opacity="0.5"/>
<line x1="1181.4" y1="442.2" x2="1586.4" y2="795.6" stroke="#334155" stroke-width="0.8" stroke-dasharray="5 3" opacity="0.5"/>
<line x1="850.0" y1="442.2" x2="850.0" y2="324.4" stroke="#334155" stroke-width="0.8" stroke-dasharray="5 3" opacity="0.5"/>
<line x1="518.6" y1="442.2" x2="850.0" y2="324.4" stroke="#334155" stroke-width="0.8" stroke-dasharray="5 3" opacity="0.5"/>
<line x1="850.0" y1="324.4" x2="1181.4" y2="442.2" stroke="#334155" stroke-width="0.8" stroke-dasharray="5 3" opacity="0.5"/>
<text x="850.0" y="795.6" font-size="11" font-weight="700" text-anchor="middle" fill="#0f172a" stroke="white" stroke-width="3" paint-order="stroke">B1</text>
<text x="481.8" y="560.0" font-size="11" font-weight="700" text-anchor="middle" fill="#0f172a" stroke="white" stroke-width="3" paint-order="stroke">T_L</text>
<text x="1218.2" y="560.0" font-size="11" font-weight="700" text-anchor="middle" fill="#0f172a" stroke="white" stroke-width="3" paint-order="stroke">T_R</text>
<text x="518.6" y="618.9" font-size="11" font-weight="700" text-anchor="middle" fill="#0f172a" stroke="white" stroke-width="3" paint-order="stroke">P_L</text>
<text x="1181.4" y="618.9" font-size="11" font-weight="700" text-anchor="middle" fill="#0f172a" stroke="white" stroke-width="3" paint-order="stroke">P_R</text>
<text x="850.0" y="442.2" font-size="11" font-weight="700" text-anchor="middle" fill="#0f172a" stroke="white" stroke-width="3" paint-order="stroke">CT</text>
<text x="316.1" y="618.9" font-size="11" font-weight="700" text-anchor="middle" fill="#0f172a" stroke="white" stroke-width="3" paint-order="stroke">D_L</text>
<text x="1383.9" y="618.9" font-size="11" font-weight="700" text-anchor="middle" fill="#0f172a" stroke="white" stroke-width="3" paint-order="stroke">D_R</text>
<text x="850.0" y="383.3" font-size="11" font-weight="700" text-anchor="middle" fill="#0f172a" stroke="white" stroke-width="3" paint-order="stroke">KP</text>
<text x="684.3" y="383.3" font-size="11" font-weight="700" text-anchor="middle" fill="#0f172a" stroke="white" stroke-width="3" paint-order="stroke">SR_L</text>
<text x="1015.7" y="383.3" font-size="11" font-weight="700" text-anchor="middle" fill="#0f172a" stroke="white" stroke-width="3" paint-order="stroke">SR_R</text>
<circle cx="113.6" cy="795.6" r="16.0" fill="none" stroke="#16a34a" stroke-width="1.1" opacity="0.55"/>
<circle cx="113.6" cy="795.6" r="4.5" fill="#16a34a" stroke="#14532d" stroke-width="1.4"/>
<text x="132.6" y="798.6" font-size="10" font-weight="700" fill="#14532d">x3</text>
<circle cx="1586.4" cy="795.6" r="16.0" fill="none" stroke="#16a34a" stroke-width="1.1" opacity="0.55"/>
<circle cx="1586.4" cy="795.6" r="4.5" fill="#16a34a" stroke="#14532d" stroke-width="1.4"/>
<text x="1605.4" y="798.6" font-size="10" font-weight="700" fill="#14532d">x3</text>
<circle cx="518.6" cy="795.6" r="11.0" fill="none" stroke="#16a34a" stroke-width="1.1" opacity="0.55"/>
<circle cx="518.6" cy="795.6" r="4.5" fill="#16a34a" stroke="#14532d" stroke-width="1.4"/>
<circle cx="1181.4" cy="795.6" r="11.0" fill="none" stroke="#16a34a" stroke-width="1.1" opacity="0.55"/>
<circle cx="1181.4" cy="795.6" r="4.5" fill="#16a34a" stroke="#14532d" stroke-width="1.4"/>
<circle cx="850.0" cy="324.4" r="33.5" fill="none" stroke="#16a34a" stroke-width="1.1" opacity="0.55"/>
<circle cx="850.0" cy="324.4" r="4.5" fill="#16a34a" stroke="#14532d" stroke-width="1.4"/>
<text x="886.5" y="327.4" font-size="10" font-weight="700" fill="#14532d">x10</text>
<circle cx="518.6" cy="536.4" r="11.0" fill="none" stroke="#16a34a" stroke-width="1.1" opacity="0.55"/>
<circle cx="518.6" cy="536.4" r="4.5" fill="#16a34a" stroke="#14532d" stroke-width="1.4"/>
<circle cx="665.9" cy="442.2" r="11.0" fill="none" stroke="#16a34a" stroke-width="1.1" opacity="0.55"/>
<circle cx="665.9" cy="442.2" r="4.5" fill="#16a34a" stroke="#14532d" stroke-width="1.4"/>
<circle cx="1181.4" cy="536.4" r="11.0" fill="none" stroke="#16a34a" stroke-width="1.1" opacity="0.55"/>
<circle cx="1181.4" cy="536.4" r="4.5" fill="#16a34a" stroke="#14532d" stroke-width="1.4"/>
<circle cx="1034.1" cy="442.2" r="11.0" fill="none" stroke="#16a34a" stroke-width="1.1" opacity="0.55"/>
<circle cx="1034.1" cy="442.2" r="4.5" fill="#16a34a" stroke="#14532d" stroke-width="1.4"/>
<circle cx="518.6" cy="442.2" r="23.5" fill="none" stroke="#16a34a" stroke-width="1.1" opacity="0.55"/>
<circle cx="518.6" cy="442.2" r="4.5" fill="#16a34a" stroke="#14532d" stroke-width="1.4"/>
<text x="545.1" y="445.2" font-size="10" font-weight="700" fill="#14532d">x6</text>
<circle cx="1181.4" cy="442.2" r="23.5" fill="none" stroke="#16a34a" stroke-width="1.1" opacity="0.55"/>
<circle cx="1181.4" cy="442.2" r="4.5" fill="#16a34a" stroke="#14532d" stroke-width="1.4"/>
<text x="1207.9" y="445.2" font-size="10" font-weight="700" fill="#14532d">x6</text>
<circle cx="850.0" cy="442.2" r="11.0" fill="none" stroke="#16a34a" stroke-width="1.1" opacity="0.55"/>
<circle cx="850.0" cy="442.2" r="4.5" fill="#16a34a" stroke="#14532d" stroke-width="1.4"/>
</svg>