<svg xmlns="http://www.w3.org/2000/svg" width="1700" height="1100" viewBox="0 0 1700 1100" font-family="Segoe UI, Arial, sans-serif">
<defs>
      <pattern id="cf" patternUnits="userSpaceOnUse" width="6" height="6" patternTransform="rotate(-45)">
        <rect width="6" height="6" fill="#dbeafe"/><line x1="0" y1="0" x2="0" y2="6" stroke="#93c5fd" stroke-width="0.6"/>
      </pattern>
      <pattern id="wf" patternUnits="userSpaceOnUse" width="6" height="6" patternTransform="rotate(45)">
        <rect width="6" height="6" fill="#e2e8f0"/><line x1="0" y1="0" x2="0" y2="6" stroke="#94a3b8" stroke-width="0.6"/>
      </pattern>
    </defs>
<rect width="1700" height="1100" fill="white"/>
<text x="40" y="44" font-size="26" font-weight="700" fill="#1a202c">Howe truss (10m, 8 panels)</text>
<text x="40" y="72" font-size="15" fill="#4a5568">Reversed diagonals — tension verticals, compression diagonals</text>
<text x="40" y="98" font-size="13" fill="#374151">17 members  ·  45 centreline crossings  →  16 bolts after clustering at 150mm</text>
<polygon points="113.6,715.4 113.6,728.6 1586.4,728.6 1586.4,715.4" fill="url(#cf)" stroke="#1d4ed8" stroke-width="1.4" opacity="0.95"/>
<polygon points="111.0,716.0 116.3,728.0 852.6,404.0 847.4,392.0" fill="url(#cf)" stroke="#1d4ed8" stroke-width="1.4" opacity="0.95"/>
<polygon points="852.6,392.0 847.4,404.0 1583.7,728.0 1589.0,716.0" fill="url(#cf)" stroke="#1d4ed8" stroke-width="1.4" opacity="0.95"/>
<polygon points="291.2,722.0 304.3,722.0 304.3,641.0 291.2,641.0" fill="url(#wf)" stroke="#475569" stroke-width="1.2" opacity="0.85"/>
<polygon points="475.3,722.0 488.4,722.0 488.4,560.0 475.3,560.0" fill="url(#wf)" stroke="#475569" stroke-width="1.2" opacity="0.85"/>
<polygon points="659.4,722.0 672.5,722.0 672.5,479.0 659.4,479.0" fill="url(#wf)" stroke="#475569" stroke-width="1.2" opacity="0.85"/>
<polygon points="843.4,722.0 856.6,722.0 856.6,398.0 843.4,398.0" fill="url(#wf)" stroke="#475569" stroke-width="1.2" opacity="0.85"/>
<polygon points="1027.5,722.0 1040.6,722.0 1040.6,479.0 1027.5,479.0" fill="url(#wf)" stroke="#475569" stroke-width="1.2" opacity="0.85"/>
<polygon points="1211.6,722.0 1224.7,722.0 1224.7,560.0 1211.6,560.0" fill="url(#wf)" stroke="#475569" stroke-width="1.2" opacity="0.85"/>
<polygon points="1395.7,722.0 1408.8,722.0 1408.8,641.0 1395.7,641.0" fill="url(#wf)" stroke="#475569" stroke-width="1.2" opacity="0.85"/>
<polygon points="297.7,728.6 297.7,715.4 113.6,715.4 113.6,728.6" fill="url(#wf)" stroke="#475569" stroke-width="1.2" opacity="0.85"/>
<polygon points="479.2,728.0 484.5,716.0 300.4,635.0 295.1,647.0" fill="url(#wf)" stroke="#475569" stroke-width="1.2" opacity="0.85"/>
<polygon points="661.6,726.9 670.2,717.1 486.1,555.1 477.5,564.9" fill="url(#wf)" stroke="#475569" stroke-width="1.2" opacity="0.85"/>
<polygon points="844.8,726.0 855.2,718.0 671.1,475.0 660.7,483.0" fill="url(#wf)" stroke="#475569" stroke-width="1.2" opacity="0.85"/>
<polygon points="844.8,718.0 855.2,726.0 1039.3,483.0 1028.9,475.0" fill="url(#wf)" stroke="#475569" stroke-width="1.2" opacity="0.85"/>
<polygon points="1029.8,717.1 1038.4,726.9 1222.5,564.9 1213.9,555.1" fill="url(#wf)" stroke="#475569" stroke-width="1.2" opacity="0.85"/>
<polygon points="1215.5,716.0 1220.8,728.0 1404.9,647.0 1399.6,635.0" fill="url(#wf)" stroke="#475569" stroke-width="1.2" opacity="0.85"/>
<line x1="113.6" y1="722.0" x2="1586.4" y2="722.0" stroke="#1d4ed8" stroke-width="0.8" stroke-dasharray="5 3" opacity="0.5"/>
<line x1="113.6" y1="722.0" x2="850.0" y2="398.0" stroke="#1d4ed8" stroke-width="0.8" stroke-dasharray="5 3" opacity="0.5"/>
<line x1="850.0" y1="398.0" x2="1586.4" y2="722.0" stroke="#1d4ed8" stroke-width="0.8" stroke-dasharray="5 3" opacity="0.5"/>
<line x1="297.7" y1="722.0" x2="297.7" y2="641.0" stroke="#334155" stroke-width="0.8" stroke-dasharray="5 3" opacity="0.5"/>
<line x1="481.8" y1="722.0" x2="481.8" y2="560.0" stroke="#334155" stroke-width="0.8" stroke-dasharray="5 3" opacity="0.5"/>
<line x1="665.9" y1="722.0" x2="665.9" y2="479.0" stroke="#334155" stroke-width="0.8" stroke-dasharray="5 3" opacity="0.5"/>
<line x1="850.0" y1="722.0" x2="850.0" y2="398.0" stroke="#334155" stroke-width="0.8" stroke-dasharray="5 3" opacity="0.5"/>
<line x1="1034.1" y1="722.0" x2="1034.1" y2="479.0" stroke="#334155" stroke-width="0.8" stroke-dasharray="5 3" opacity="0.5"/>
<line x1="1218.2" y1="722.0" x2="1218.2" y2="560.0" stroke="#334155" stroke-width="0.8" stroke-dasharray="5 3" opacity="0.5"/>
<line x1="1402.3" y1="722.0" x2="1402.3" y2="641.0" stroke="#334155" stroke-width="0.8" stroke-dasharray="5 3" opacity="0.5"/>
<line x1="297.7" y1="722.0" x2="113.6" y2="722.0" stroke="#334155" stroke-width="0.8" stroke-dasharray="5 3" opacity="0.5"/>
<line x1="481.8" y1="722.0" x2="297.7" y2="641.0" stroke="#334155" stroke-width="0.8" stroke-dasharray="5 3" opacity="0.5"/>
<line x1="665.9" y1="722.0" x2="481.8" y2="560.0" stroke="#334155" stroke-width="0.8" stroke-dasharray="5 3" opacity="0.5"/>
<line x1="850.0" y1="722.0" x2="665.9" y2="479.0" stroke="#334155" stroke-width="0.8" stroke-dasharray="5 3" opacity="0.5"/>
<line x1="850.0" y1="722.0" x2="1034.1" y2="479.0" stroke="#334155" stroke-width="0.8" stroke-dasharray="5 3" opacity="0.5"/>
<line x1="1034.1" y1="722.0" x2="1218.2" y2="560.0" stroke="#334155" stroke-width="0.8" stroke-dasharray="5 3" opacity="0.5"/>
<line x1="1218.2" y1="722.0" x2="1402.3" y2="641.0" stroke="#334155" stroke-width="0.8" stroke-dasharray="5 3" opacity="0.5"/>
<text x="850.0" y="722.0" font-size="11" font-weight="700" text-anchor="middle" fill="#0f172a" stroke="white" stroke-width="3" paint-order="stroke">B1</text>
<text x="481.8" y="560.0" font-size="11" font-weight="700" text-anchor="middle" fill="#0f172a" stroke="white" stroke-width="3" paint-order="stroke">T_L</text>
<text x="1218.2" y="560.0" font-size="11" font-weight="700" text-anchor="middle" fill="#0f172a" stroke="white" stroke-width="3" paint-order="stroke">T_R</text>
<text x="297.7" y="681.5" font-size="11" font-weight="700" text-anchor="middle" fill="#0f172a" stroke="white" stroke-width="3" paint-order="stroke">V1</text>
<text x="481.8" y="641.0" font-size="11" font-weight="700" text-anchor="middle" fill="#0f172a" stroke="white" stroke-width="3" paint-order="stroke">V2</text>
<text x="665.9" y="600.5" font-size="11" font-weight="700" text-anchor="middle" fill="#0f172a" stroke="white" stroke-width="3" paint-order="stroke">V3</text>
<text x="850.0" y="560.0" font-size="11" font-weight="700" text-anchor="middle" fill="#0f172a" stroke="white" stroke-width="3" paint-order="stroke">V4</text>
<text x="1034.1" y="600.5" font-size="11" font-weight="700" text-anchor="middle" fill="#0f172a" stroke="white" stroke-width="3" paint-order="stroke">V5</text>
<text x="1218.2" y="641.0" font-size="11" font-weight="700" text-anchor="middle" fill="#0f172a" stroke="white" stroke-width="3" paint-order="stroke">V6</text>
<text x="1402.3" y="681.5" font-size="11" font-weight="700" text-anchor="middle" fill="#0f172a" stroke="white" stroke-width="3" paint-order="stroke">V7</text>
<text x="205.7" y="722.0" font-size="11" font-weight="700" text-anchor="middle" fill="#0f172a" stroke="white" stroke-width="3" paint-order="stroke">D1</text>
<text x="389.8" y="681.5" font-size="11" font-weight="700" text-anchor="middle" fill="#0f172a" stroke="white" stroke-width="3" paint-order="stroke">D2</text>
<text x="573.9" y="641.0" font-size="11" font-weight="700" text-anchor="middle" fill="#0f172a" stroke="white" stroke-width="3" paint-order="stroke">D3</text>
<text x="758.0" y="600.5" font-size="11" font-weight="700" text-anchor="middle" fill="#0f172a" stroke="white" stroke-width="3" paint-order="stroke">D4</text>
<text x="942.0" y="600.5" font-size="11" font-weight="700" text-anchor="middle" fill="#0f172a" stroke="white" stroke-width="3" paint-order="stroke">D5</text>
<text x="1126.1" y="641.0" font-size="11" font-weight="700" text-anchor="middle" fill="#0f172a" stroke="white" stroke-width="3" paint-order="stroke">D6</text>
<text x="1310.2" y="681.5" font-size="11" font-weight="700" text-anchor="middle" fill="#0f172a" stroke="white" stroke-width="3" paint-order="stroke">D7</text>
<circle cx="113.6" cy="722.0" r="13.5" fill="none" stroke="#16a34a" stroke-width="1.1" opacity="0.55"/>
<circle cx="113.6" cy="722.0" r="4.5" fill="#16a34a" stroke="#14532d" stroke-width="1.4"/>
<text x="130.1" y="725.0" font-size="10" font-weight="700" fill="#14532d">x2</text>
<circle cx="1586.4" cy="722.0" r="11.0" fill="none" stroke="#16a34a" stroke-width="1.1" opacity="0.55"/>
<circle cx="1586.4" cy="722.0" r="4.5" fill="#16a34a" stroke="#14532d" stroke-width="1.4"/>
<circle cx="297.7" cy="722.0" r="13.5" fill="none" stroke="#16a34a" stroke-width="1.1" opacity="0.55"/>
<circle cx="297.7" cy="722.0" r="4.5" fill="#16a34a" stroke="#14532d" stroke-width="1.4"/>
<text x="314.2" y="725.0" font-size="10" font-weight="700" fill="#14532d">x2</text>
<circle cx="481.8" cy="722.0" r="16.0" fill="none" stroke="#16a34a" stroke-width="1.1" opacity="0.55"/>
<circle cx="481.8" cy="722.0" r="4.5" fill="#16a34a" stroke="#14532d" stroke-width="1.4"/>
<text x="500.8" y="725.0" font-size="10" font-weight="700" fill="#14532d">x3</text>
<circle cx="665.9" cy="722.0" r="16.0" fill="none" stroke="#16a34a" stroke-width="1.1" opacity="0.55"/>
<circle cx="665.9" cy="722.0" r="4.5" fill="#16a34a" stroke="#14532d" stroke-width="1.4"/>
<text x="684.9" y="725.0" font-size="10" font-weight="700" fill="#14532d">x3</text>
<circle cx="850.0" cy="722.0" r="23.5" fill="none" stroke="#16a34a" stroke-width="1.1" opacity="0.55"/>
<circle cx="850.0" cy="722.0" r="4.5" fill="#16a34a" stroke="#14532d" stroke-width="1.4"/>
<text x="876.5" y="725.0" font-size="10" font-weight="700" fill="#14532d">x6</text>
<circle cx="1034.1" cy="722.0" r="16.0" fill="none" stroke="#16a34a" stroke-width="1.1" opacity="0.55"/>
<circle cx="1034.1" cy="722.0" r="4.5" fill="#16a34a" stroke="#14532d" stroke-width="1.4"/>
<text x="1053.1" y="725.0" font-size="10" font-weight="700" fill="#14532d">x3</text>
<circle cx="1218.2" cy="722.0" r="16.0" fill="none" stroke="#16a34a" stroke-width="1.1" opacity="0.55"/>
<circle cx="1218.2" cy="722.0" r="4.5" fill="#16a34a" stroke="#14532d" stroke-width="1.4"/>
<text x="1237.2" y="725.0" font-size="10" font-weight="700" fill="#14532d">x3</text>
<circle cx="1402.3" cy="722.0" r="11.0" fill="none" stroke="#16a34a" stroke-width="1.1" opacity="0.55"/>
<circle cx="1402.3" cy="722.0" r="4.5" fill="#16a34a" stroke="#14532d" stroke-width="1.4"/>
<circle cx="850.0" cy="398.0" r="16.0" fill="none" stroke="#16a34a" stroke-width="1.1" opacity="0.55"/>
<circle cx="850.0" cy="398.0" r="4.5" fill="#16a34a" stroke="#14532d" stroke-width="1.4"/>
<text x="869.0" y="401.0" font-size="10" font-weight="700" fill="#14532d">x3</text>
<circle cx="297.7" cy="641.0" r="16.0" fill="none" stroke="#16a34a" stroke-width="1.1" opacity="0.55"/>
<circle cx="297.7" cy="641.0" r="4.5" fill="#16a34a" stroke="#14532d" stroke-width="1.4"/>
<text x="316.7" y="644.0" font-size="10" font-weight="700" fill="#14532d">x3</text>
<circle cx="481.8" cy="560.0" r="16.0" fill="none" stroke="#16a34a" stroke-width="1.1" opacity="0.55"/>
<circle cx="481.8" cy="560.0" r="4.5" fill="#16a34a" stroke="#14532d" stroke-width="1.4"/>
<text x="500.8" y="563.0" font-size="10" font-weight="700" fill="#14532d">x3</text>
<circle cx="665.9" cy="479.0" r="16.0" fill="none" stroke="#16a34a" stroke-width="1.1" opacity="0.55"/>
<circle cx="665.9" cy="479.0" r="4.5" fill="#16a34a" stroke="#14532d" stroke-width="1.4"/>
<text x="684.9" y="482.0" font-size="10" font-weight="700" fill="#14532d">x3</text>
<circle cx="1034.1" cy="479.0" r="16.0" fill="none" stroke="#16a34a" stroke-width="1.1" opacity="0.55"/>
<circle cx="1034.1" cy="479.0" r="4.5" fill="#16a34a" stroke="#14532d" stroke-width="1.4"/>
<text x="1053.1" y="482.0" font-size="10" font-weight="700" fill="#14532d">x3</text>
<circle cx="1218.2" cy="560.0" r="16.0" fill="none" stroke="#16a34a" stroke-width="1.1" opacity="0.55"/>
<circle cx="1218.2" cy="560.0" r="4.5" fill="#16a34a" stroke="#14532d" stroke-width="1.4"/>
<text x="1237.2" y="563.0" font-size="10" font-weight="700" fill="#14532d">x3</text>
<circle cx="1402.3" cy="641.0" r="16.0" fill="none" stroke="#16a34a" stroke-width="1.1" opacity="0.55"/>
<circle cx="1402.3" cy="641.0" r="4.5" fill="#16a34a" stroke="#14532d" stroke-width="1.4"/>
<text x="1421.3" y="644.0" font-size="10" font-weight="700" fill="#14532d">x3</text>
</svg>