<svg xmlns="http://www.w3.org/2000/svg" width="1700" height="1100" viewBox="0 0 1700 1100" font-family="Segoe UI, Arial, sans-serif">
<defs>
      <pattern id="cf" patternUnits="userSpaceOnUse" width="6" height="6" patternTransform="rotate(-45)">
        <rect width="6" height="6" fill="#dbeafe"/><line x1="0" y1="0" x2="0" y2="6" stroke="#93c5fd" stroke-width="0.6"/>
      </pattern>
      <pattern id="wf" patternUnits="userSpaceOnUse" width="6" height="6" patternTransform="rotate(45)">
        <rect width="6" height="6" fill="#e2e8f0"/><line x1="0" y1="0" x2="0" y2="6" stroke="#94a3b8" stroke-width="0.6"/>
      </pattern>
    </defs>
<rect width="1700" height="1100" fill="white"/>
<text x="40" y="44" font-size="26" font-weight="700" fill="#1a202c">Modified Fink with sub-webs (11m)</text>
<text x="40" y="72" font-size="15" fill="#4a5568">Double-W pattern, sub-webs to top chord — multi-pitch hipped</text>
<text x="40" y="98" font-size="13" fill="#374151">12 members  ·  29 centreline crossings  →  9 bolts after clustering at 200mm</text>
<polygon points="107.5,756.5 107.5,768.5 1592.5,768.5 1592.5,756.5" fill="url(#cf)" stroke="#1d4ed8" stroke-width="1.4" opacity="0.95"/>
<polygon points="104.6,757.2 110.4,767.8 852.9,362.8 847.1,352.2" fill="url(#cf)" stroke="#1d4ed8" stroke-width="1.4" opacity="0.95"/>
<polygon points="852.9,352.2 847.1,362.8 1589.6,767.8 1595.4,757.2" fill="url(#cf)" stroke="#1d4ed8" stroke-width="1.4" opacity="0.95"/>
<polygon points="844.0,762.5 856.0,762.5 856.0,357.5 844.0,357.5" fill="url(#wf)" stroke="#475569" stroke-width="1.2" opacity="0.85"/>
<polygon points="105.1,757.0 109.9,768.0 481.2,606.0 476.3,595.0" fill="url(#wf)" stroke="#475569" stroke-width="1.2" opacity="0.85"/>
<polygon points="472.7,762.5 484.8,762.5 484.8,560.0 472.7,560.0" fill="url(#wf)" stroke="#475569" stroke-width="1.2" opacity="0.85"/>
<polygon points="481.6,554.7 475.9,565.3 847.1,767.8 852.9,757.2" fill="url(#wf)" stroke="#475569" stroke-width="1.2" opacity="0.85"/>
<polygon points="847.1,757.2 852.9,767.8 1224.1,565.3 1218.4,554.7" fill="url(#wf)" stroke="#475569" stroke-width="1.2" opacity="0.85"/>
<polygon points="1227.3,560.0 1215.2,560.0 1215.2,762.5 1227.3,762.5" fill="url(#wf)" stroke="#475569" stroke-width="1.2" opacity="0.85"/>
<polygon points="1224.1,554.7 1218.4,565.3 1589.6,767.8 1595.4,757.2" fill="url(#wf)" stroke="#475569" stroke-width="1.2" opacity="0.85"/>
<polygon points="475.9,554.7 481.6,565.3 589.6,506.4 583.9,495.8" fill="url(#wf)" stroke="#475569" stroke-width="1.2" opacity="0.85"/>
<polygon points="1116.1,495.8 1110.4,506.4 1218.4,565.3 1224.1,554.7" fill="url(#wf)" stroke="#475569" stroke-width="1.2" opacity="0.85"/>
<line x1="107.5" y1="762.5" x2="1592.5" y2="762.5" stroke="#1d4ed8" stroke-width="0.8" stroke-dasharray="5 3" opacity="0.5"/>
<line x1="107.5" y1="762.5" x2="850.0" y2="357.5" stroke="#1d4ed8" stroke-width="0.8" stroke-dasharray="5 3" opacity="0.5"/>
<line x1="850.0" y1="357.5" x2="1592.5" y2="762.5" stroke="#1d4ed8" stroke-width="0.8" stroke-dasharray="5 3" opacity="0.5"/>
<line x1="850.0" y1="762.5" x2="850.0" y2="357.5" stroke="#334155" stroke-width="0.8" stroke-dasharray="5 3" opacity="0.5"/>
<line x1="107.5" y1="762.5" x2="478.8" y2="600.5" stroke="#334155" stroke-width="0.8" stroke-dasharray="5 3" opacity="0.5"/>
<line x1="478.8" y1="762.5" x2="478.8" y2="560.0" stroke="#334155" stroke-width="0.8" stroke-dasharray="5 3" opacity="0.5"/>
<line x1="478.8" y1="560.0" x2="850.0" y2="762.5" stroke="#334155" stroke-width="0.8" stroke-dasharray="5 3" opacity="0.5"/>
<line x1="850.0" y1="762.5" x2="1221.2" y2="560.0" stroke="#334155" stroke-width="0.8" stroke-dasharray="5 3" opacity="0.5"/>
<line x1="1221.2" y1="560.0" x2="1221.2" y2="762.5" stroke="#334155" stroke-width="0.8" stroke-dasharray="5 3" opacity="0.5"/>
<line x1="1221.2" y1="560.0" x2="1592.5" y2="762.5" stroke="#334155" stroke-width="0.8" stroke-dasharray="5 3" opacity="0.5"/>
<line x1="478.8" y1="560.0" x2="586.8" y2="501.1" stroke="#334155" stroke-width="0.8" stroke-dasharray="5 3" opacity="0.5"/>
<line x1="1113.2" y1="501.1" x2="1221.2" y2="560.0" stroke="#334155" stroke-width="0.8" stroke-dasharray="5 3" opacity="0.5"/>
<text x="850.0" y="762.5" font-size="11" font-weight="700" text-anchor="middle" fill="#0f172a" stroke="white" stroke-width="3" paint-order="stroke">B1</text>
<text x="478.8" y="560.0" font-size="11" font-weight="700" text-anchor="middle" fill="#0f172a" stroke="white" stroke-width="3" paint-order="stroke">T_L</text>
<text x="1221.2" y="560.0" font-size="11" font-weight="700" text-anchor="middle" fill="#0f172a" stroke="white" stroke-width="3" paint-order="stroke">T_R</text>
<text x="850.0" y="560.0" font-size="11" font-weight="700" text-anchor="middle" fill="#0f172a" stroke="white" stroke-width="3" paint-order="stroke">V_C</text>
<text x="293.1" y="681.5" font-size="11" font-weight="700" text-anchor="middle" fill="#0f172a" stroke="white" stroke-width="3" paint-order="stroke">W1</text>
<text x="478.8" y="661.2" font-size="11" font-weight="700" text-anchor="middle" fill="#0f172a" stroke="white" stroke-width="3" paint-order="stroke">W2</text>
<text x="664.4" y="661.2" font-size="11" font-weight="700" text-anchor="middle" fill="#0f172a" stroke="white" stroke-width="3" paint-order="stroke">W3</text>
<text x="1035.6" y="661.2" font-size="11" font-weight="700" text-anchor="middle" fill="#0f172a" stroke="white" stroke-width="3" paint-order="stroke">W4</text>
<text x="1221.2" y="661.2" font-size="11" font-weight="700" text-anchor="middle" fill="#0f172a" stroke="white" stroke-width="3" paint-order="stroke">W5</text>
<text x="1406.9" y="661.2" font-size="11" font-weight="700" text-anchor="middle" fill="#0f172a" stroke="white" stroke-width="3" paint-order="stroke">W6</text>
<text x="532.8" y="530.5" font-size="11" font-weight="700" text-anchor="middle" fill="#0f172a" stroke="white" stroke-width="3" paint-order="stroke">S1</text>
<text x="1167.2" y="530.5" font-size="11" font-weight="700" text-anchor="middle" fill="#0f172a" stroke="white" stroke-width="3" paint-order="stroke">S2</text>
<circle cx="107.5" cy="762.5" r="16.0" fill="none" stroke="#16a34a" stroke-width="1.1" opacity="0.55"/>
<circle cx="107.5" cy="762.5" r="4.5" fill="#16a34a" stroke="#14532d" stroke-width="1.4"/>
<text x="126.5" y="765.5" font-size="10" font-weight="700" fill="#14532d">x3</text>
<circle cx="1592.5" cy="762.5" r="13.5" fill="none" stroke="#16a34a" stroke-width="1.1" opacity="0.55"/>
<circle cx="1592.5" cy="762.5" r="4.5" fill="#16a34a" stroke="#14532d" stroke-width="1.4"/>
<text x="1609.0" y="765.5" font-size="10" font-weight="700" fill="#14532d">x2</text>
<circle cx="850.0" cy="762.5" r="23.5" fill="none" stroke="#16a34a" stroke-width="1.1" opacity="0.55"/>
<circle cx="850.0" cy="762.5" r="4.5" fill="#16a34a" stroke="#14532d" stroke-width="1.4"/>
<text x="876.5" y="765.5" font-size="10" font-weight="700" fill="#14532d">x6</text>
<circle cx="478.8" cy="762.5" r="11.0" fill="none" stroke="#16a34a" stroke-width="1.1" opacity="0.55"/>
<circle cx="478.8" cy="762.5" r="4.5" fill="#16a34a" stroke="#14532d" stroke-width="1.4"/>
<circle cx="1221.2" cy="762.5" r="11.0" fill="none" stroke="#16a34a" stroke-width="1.1" opacity="0.55"/>
<circle cx="1221.2" cy="762.5" r="4.5" fill="#16a34a" stroke="#14532d" stroke-width="1.4"/>
<circle cx="850.0" cy="357.5" r="16.0" fill="none" stroke="#16a34a" stroke-width="1.1" opacity="0.55"/>
<circle cx="850.0" cy="357.5" r="4.5" fill="#16a34a" stroke="#14532d" stroke-width="1.4"/>
<text x="869.0" y="360.5" font-size="10" font-weight="700" fill="#14532d">x3</text>
<circle cx="478.8" cy="560.0" r="21.0" fill="none" stroke="#16a34a" stroke-width="1.1" opacity="0.55"/>
<circle cx="478.8" cy="560.0" r="4.5" fill="#16a34a" stroke="#14532d" stroke-width="1.4"/>
<text x="502.8" y="563.0" font-size="10" font-weight="700" fill="#14532d">x5</text>
<circle cx="1221.2" cy="560.0" r="26.0" fill="none" stroke="#16a34a" stroke-width="1.1" opacity="0.55"/>
<circle cx="1221.2" cy="560.0" r="4.5" fill="#16a34a" stroke="#14532d" stroke-width="1.4"/>
<text x="1250.2" y="563.0" font-size="10" font-weight="700" fill="#14532d">x7</text>
<circle cx="478.8" cy="600.5" r="11.0" fill="none" stroke="#16a34a" stroke-width="1.1" opacity="0.55"/>
<circle cx="478.8" cy="600.5" r="4.5" fill="#16a34a" stroke="#14532d" stroke-width="1.4"/>
</svg>