<svg xmlns="http://www.w3.org/2000/svg" width="1700" height="1100" viewBox="0 0 1700 1100" font-family="Segoe UI, Arial, sans-serif">
<defs>
      <pattern id="cf" patternUnits="userSpaceOnUse" width="6" height="6" patternTransform="rotate(-45)">
        <rect width="6" height="6" fill="#dbeafe"/><line x1="0" y1="0" x2="0" y2="6" stroke="#93c5fd" stroke-width="0.6"/>
      </pattern>
      <pattern id="wf" patternUnits="userSpaceOnUse" width="6" height="6" patternTransform="rotate(45)">
        <rect width="6" height="6" fill="#e2e8f0"/><line x1="0" y1="0" x2="0" y2="6" stroke="#94a3b8" stroke-width="0.6"/>
      </pattern>
    </defs>
<rect width="1700" height="1100" fill="white"/>
<text x="40" y="44" font-size="26" font-weight="700" fill="#1a202c">Long-span Pratt (15m, 11 panels)</text>
<text x="40" y="72" font-size="15" fill="#4a5568">Workhorse roof truss — verticals + sloping diagonals to centre</text>
<text x="40" y="98" font-size="13" fill="#374151">23 members  ·  62 centreline crossings  →  23 bolts after clustering at 150mm</text>
<polygon points="90.6,677.0 90.6,686.0 1609.4,686.0 1609.4,677.0" fill="url(#cf)" stroke="#1d4ed8" stroke-width="1.4" opacity="0.95"/>
<polygon points="89.3,677.2 92.0,685.8 851.4,442.8 848.6,434.2" fill="url(#cf)" stroke="#1d4ed8" stroke-width="1.4" opacity="0.95"/>
<polygon points="851.4,434.2 848.6,442.8 1608.0,685.8 1610.7,677.2" fill="url(#cf)" stroke="#1d4ed8" stroke-width="1.4" opacity="0.95"/>
<polygon points="224.2,681.5 233.2,681.5 233.2,637.3 224.2,637.3" fill="url(#wf)" stroke="#475569" stroke-width="1.2" opacity="0.85"/>
<polygon points="362.3,681.5 371.3,681.5 371.3,593.1 362.3,593.1" fill="url(#wf)" stroke="#475569" stroke-width="1.2" opacity="0.85"/>
<polygon points="500.3,681.5 509.3,681.5 509.3,549.0 500.3,549.0" fill="url(#wf)" stroke="#475569" stroke-width="1.2" opacity="0.85"/>
<polygon points="638.4,681.5 647.4,681.5 647.4,504.8 638.4,504.8" fill="url(#wf)" stroke="#475569" stroke-width="1.2" opacity="0.85"/>
<polygon points="776.5,681.5 785.5,681.5 785.5,460.6 776.5,460.6" fill="url(#wf)" stroke="#475569" stroke-width="1.2" opacity="0.85"/>
<polygon points="914.5,681.5 923.5,681.5 923.5,460.6 914.5,460.6" fill="url(#wf)" stroke="#475569" stroke-width="1.2" opacity="0.85"/>
<polygon points="1052.6,681.5 1061.6,681.5 1061.6,504.8 1052.6,504.8" fill="url(#wf)" stroke="#475569" stroke-width="1.2" opacity="0.85"/>
<polygon points="1190.7,681.5 1199.7,681.5 1199.7,549.0 1190.7,549.0" fill="url(#wf)" stroke="#475569" stroke-width="1.2" opacity="0.85"/>
<polygon points="1328.7,681.5 1337.7,681.5 1337.7,593.1 1328.7,593.1" fill="url(#wf)" stroke="#475569" stroke-width="1.2" opacity="0.85"/>
<polygon points="1466.8,681.5 1475.8,681.5 1475.8,637.3 1466.8,637.3" fill="url(#wf)" stroke="#475569" stroke-width="1.2" opacity="0.85"/>
<polygon points="89.3,677.2 92.0,685.8 230.1,641.6 227.3,633.0" fill="url(#wf)" stroke="#475569" stroke-width="1.2" opacity="0.85"/>
<polygon points="226.3,677.7 231.1,685.3 369.2,596.9 364.3,589.3" fill="url(#wf)" stroke="#475569" stroke-width="1.2" opacity="0.85"/>
<polygon points="363.6,678.2 369.9,684.8 507.9,552.2 501.7,545.7" fill="url(#wf)" stroke="#475569" stroke-width="1.2" opacity="0.85"/>
<polygon points="501.3,678.7 508.4,684.3 646.4,507.5 639.3,502.0" fill="url(#wf)" stroke="#475569" stroke-width="1.2" opacity="0.85"/>
<polygon points="639.1,679.1 646.7,683.9 784.8,463.0 777.1,458.2" fill="url(#wf)" stroke="#475569" stroke-width="1.2" opacity="0.85"/>
<polygon points="915.2,683.9 922.9,679.1 784.8,458.2 777.1,463.0" fill="url(#wf)" stroke="#475569" stroke-width="1.2" opacity="0.85"/>
<polygon points="1053.3,683.9 1060.9,679.1 922.9,458.2 915.2,463.0" fill="url(#wf)" stroke="#475569" stroke-width="1.2" opacity="0.85"/>
<polygon points="1191.6,684.3 1198.7,678.7 1060.7,502.0 1053.6,507.5" fill="url(#wf)" stroke="#475569" stroke-width="1.2" opacity="0.85"/>
<polygon points="1330.1,684.8 1336.4,678.2 1198.3,545.7 1192.1,552.2" fill="url(#wf)" stroke="#475569" stroke-width="1.2" opacity="0.85"/>
<polygon points="1468.9,685.3 1473.7,677.7 1335.7,589.3 1330.8,596.9" fill="url(#wf)" stroke="#475569" stroke-width="1.2" opacity="0.85"/>
<line x1="90.6" y1="681.5" x2="1609.4" y2="681.5" stroke="#1d4ed8" stroke-width="0.8" stroke-dasharray="5 3" opacity="0.5"/>
<line x1="90.6" y1="681.5" x2="850.0" y2="438.5" stroke="#1d4ed8" stroke-width="0.8" stroke-dasharray="5 3" opacity="0.5"/>
<line x1="850.0" y1="438.5" x2="1609.4" y2="681.5" stroke="#1d4ed8" stroke-width="0.8" stroke-dasharray="5 3" opacity="0.5"/>
<line x1="228.7" y1="681.5" x2="228.7" y2="637.3" stroke="#334155" stroke-width="0.8" stroke-dasharray="5 3" opacity="0.5"/>
<line x1="366.8" y1="681.5" x2="366.8" y2="593.1" stroke="#334155" stroke-width="0.8" stroke-dasharray="5 3" opacity="0.5"/>
<line x1="504.8" y1="681.5" x2="504.8" y2="549.0" stroke="#334155" stroke-width="0.8" stroke-dasharray="5 3" opacity="0.5"/>
<line x1="642.9" y1="681.5" x2="642.9" y2="504.8" stroke="#334155" stroke-width="0.8" stroke-dasharray="5 3" opacity="0.5"/>
<line x1="781.0" y1="681.5" x2="781.0" y2="460.6" stroke="#334155" stroke-width="0.8" stroke-dasharray="5 3" opacity="0.5"/>
<line x1="919.0" y1="681.5" x2="919.0" y2="460.6" stroke="#334155" stroke-width="0.8" stroke-dasharray="5 3" opacity="0.5"/>
<line x1="1057.1" y1="681.5" x2="1057.1" y2="504.8" stroke="#334155" stroke-width="0.8" stroke-dasharray="5 3" opacity="0.5"/>
<line x1="1195.2" y1="681.5" x2="1195.2" y2="549.0" stroke="#334155" stroke-width="0.8" stroke-dasharray="5 3" opacity="0.5"/>
<line x1="1333.2" y1="681.5" x2="1333.2" y2="593.1" stroke="#334155" stroke-width="0.8" stroke-dasharray="5 3" opacity="0.5"/>
<line x1="1471.3" y1="681.5" x2="1471.3" y2="637.3" stroke="#334155" stroke-width="0.8" stroke-dasharray="5 3" opacity="0.5"/>
<line x1="90.6" y1="681.5" x2="228.7" y2="637.3" stroke="#334155" stroke-width="0.8" stroke-dasharray="5 3" opacity="0.5"/>
<line x1="228.7" y1="681.5" x2="366.8" y2="593.1" stroke="#334155" stroke-width="0.8" stroke-dasharray="5 3" opacity="0.5"/>
<line x1="366.8" y1="681.5" x2="504.8" y2="549.0" stroke="#334155" stroke-width="0.8" stroke-dasharray="5 3" opacity="0.5"/>
<line x1="504.8" y1="681.5" x2="642.9" y2="504.8" stroke="#334155" stroke-width="0.8" stroke-dasharray="5 3" opacity="0.5"/>
<line x1="642.9" y1="681.5" x2="781.0" y2="460.6" stroke="#334155" stroke-width="0.8" stroke-dasharray="5 3" opacity="0.5"/>
<line x1="919.0" y1="681.5" x2="781.0" y2="460.6" stroke="#334155" stroke-width="0.8" stroke-dasharray="5 3" opacity="0.5"/>
<line x1="1057.1" y1="681.5" x2="919.0" y2="460.6" stroke="#334155" stroke-width="0.8" stroke-dasharray="5 3" opacity="0.5"/>
<line x1="1195.2" y1="681.5" x2="1057.1" y2="504.8" stroke="#334155" stroke-width="0.8" stroke-dasharray="5 3" opacity="0.5"/>
<line x1="1333.2" y1="681.5" x2="1195.2" y2="549.0" stroke="#334155" stroke-width="0.8" stroke-dasharray="5 3" opacity="0.5"/>
<line x1="1471.3" y1="681.5" x2="1333.2" y2="593.1" stroke="#334155" stroke-width="0.8" stroke-dasharray="5 3" opacity="0.5"/>
<text x="850.0" y="681.5" font-size="11" font-weight="700" text-anchor="middle" fill="#0f172a" stroke="white" stroke-width="3" paint-order="stroke">B1</text>
<text x="470.3" y="560.0" font-size="11" font-weight="700" text-anchor="middle" fill="#0f172a" stroke="white" stroke-width="3" paint-order="stroke">T_L</text>
<text x="1229.7" y="560.0" font-size="11" font-weight="700" text-anchor="middle" fill="#0f172a" stroke="white" stroke-width="3" paint-order="stroke">T_R</text>
<text x="228.7" y="659.4" font-size="11" font-weight="700" text-anchor="middle" fill="#0f172a" stroke="white" stroke-width="3" paint-order="stroke">V1</text>
<text x="366.8" y="637.3" font-size="11" font-weight="700" text-anchor="middle" fill="#0f172a" stroke="white" stroke-width="3" paint-order="stroke">V2</text>
<text x="504.8" y="615.2" font-size="11" font-weight="700" text-anchor="middle" fill="#0f172a" stroke="white" stroke-width="3" paint-order="stroke">V3</text>
<text x="642.9" y="593.1" font-size="11" font-weight="700" text-anchor="middle" fill="#0f172a" stroke="white" stroke-width="3" paint-order="stroke">V4</text>
<text x="781.0" y="571.0" font-size="11" font-weight="700" text-anchor="middle" fill="#0f172a" stroke="white" stroke-width="3" paint-order="stroke">V5</text>
<text x="919.0" y="571.0" font-size="11" font-weight="700" text-anchor="middle" fill="#0f172a" stroke="white" stroke-width="3" paint-order="stroke">V6</text>
<text x="1057.1" y="593.1" font-size="11" font-weight="700" text-anchor="middle" fill="#0f172a" stroke="white" stroke-width="3" paint-order="stroke">V7</text>
<text x="1195.2" y="615.2" font-size="11" font-weight="700" text-anchor="middle" fill="#0f172a" stroke="white" stroke-width="3" paint-order="stroke">V8</text>
<text x="1333.2" y="637.3" font-size="11" font-weight="700" text-anchor="middle" fill="#0f172a" stroke="white" stroke-width="3" paint-order="stroke">V9</text>
<text x="1471.3" y="659.4" font-size="11" font-weight="700" text-anchor="middle" fill="#0f172a" stroke="white" stroke-width="3" paint-order="stroke">V10</text>
<text x="159.7" y="659.4" font-size="11" font-weight="700" text-anchor="middle" fill="#0f172a" stroke="white" stroke-width="3" paint-order="stroke">D1</text>
<text x="297.7" y="637.3" font-size="11" font-weight="700" text-anchor="middle" fill="#0f172a" stroke="white" stroke-width="3" paint-order="stroke">D2</text>
<text x="435.8" y="615.2" font-size="11" font-weight="700" text-anchor="middle" fill="#0f172a" stroke="white" stroke-width="3" paint-order="stroke">D3</text>
<text x="573.9" y="593.1" font-size="11" font-weight="700" text-anchor="middle" fill="#0f172a" stroke="white" stroke-width="3" paint-order="stroke">D4</text>
<text x="711.9" y="571.0" font-size="11" font-weight="700" text-anchor="middle" fill="#0f172a" stroke="white" stroke-width="3" paint-order="stroke">D5</text>
<text x="850.0" y="571.0" font-size="11" font-weight="700" text-anchor="middle" fill="#0f172a" stroke="white" stroke-width="3" paint-order="stroke">D6</text>
<text x="988.1" y="571.0" font-size="11" font-weight="700" text-anchor="middle" fill="#0f172a" stroke="white" stroke-width="3" paint-order="stroke">D7</text>
<text x="1126.1" y="593.1" font-size="11" font-weight="700" text-anchor="middle" fill="#0f172a" stroke="white" stroke-width="3" paint-order="stroke">D8</text>
<text x="1264.2" y="615.2" font-size="11" font-weight="700" text-anchor="middle" fill="#0f172a" stroke="white" stroke-width="3" paint-order="stroke">D9</text>
<text x="1402.3" y="637.3" font-size="11" font-weight="700" text-anchor="middle" fill="#0f172a" stroke="white" stroke-width="3" paint-order="stroke">D10</text>
<circle cx="90.6" cy="681.5" r="13.5" fill="none" stroke="#16a34a" stroke-width="1.1" opacity="0.55"/>
<circle cx="90.6" cy="681.5" r="4.5" fill="#16a34a" stroke="#14532d" stroke-width="1.4"/>
<text x="107.1" y="684.5" font-size="10" font-weight="700" fill="#14532d">x2</text>
<circle cx="1609.4" cy="681.5" r="11.0" fill="none" stroke="#16a34a" stroke-width="1.1" opacity="0.55"/>
<circle cx="1609.4" cy="681.5" r="4.5" fill="#16a34a" stroke="#14532d" stroke-width="1.4"/>
<circle cx="228.7" cy="681.5" r="16.0" fill="none" stroke="#16a34a" stroke-width="1.1" opacity="0.55"/>
<circle cx="228.7" cy="681.5" r="4.5" fill="#16a34a" stroke="#14532d" stroke-width="1.4"/>
<text x="247.7" y="684.5" font-size="10" font-weight="700" fill="#14532d">x3</text>
<circle cx="366.8" cy="681.5" r="16.0" fill="none" stroke="#16a34a" stroke-width="1.1" opacity="0.55"/>
<circle cx="366.8" cy="681.5" r="4.5" fill="#16a34a" stroke="#14532d" stroke-width="1.4"/>
<text x="385.8" y="684.5" font-size="10" font-weight="700" fill="#14532d">x3</text>
<circle cx="504.8" cy="681.5" r="16.0" fill="none" stroke="#16a34a" stroke-width="1.1" opacity="0.55"/>
<circle cx="504.8" cy="681.5" r="4.5" fill="#16a34a" stroke="#14532d" stroke-width="1.4"/>
<text x="523.8" y="684.5" font-size="10" font-weight="700" fill="#14532d">x3</text>
<circle cx="642.9" cy="681.5" r="16.0" fill="none" stroke="#16a34a" stroke-width="1.1" opacity="0.55"/>
<circle cx="642.9" cy="681.5" r="4.5" fill="#16a34a" stroke="#14532d" stroke-width="1.4"/>
<text x="661.9" y="684.5" font-size="10" font-weight="700" fill="#14532d">x3</text>
<circle cx="781.0" cy="681.5" r="11.0" fill="none" stroke="#16a34a" stroke-width="1.1" opacity="0.55"/>
<circle cx="781.0" cy="681.5" r="4.5" fill="#16a34a" stroke="#14532d" stroke-width="1.4"/>
<circle cx="919.0" cy="681.5" r="16.0" fill="none" stroke="#16a34a" stroke-width="1.1" opacity="0.55"/>
<circle cx="919.0" cy="681.5" r="4.5" fill="#16a34a" stroke="#14532d" stroke-width="1.4"/>
<text x="938.0" y="684.5" font-size="10" font-weight="700" fill="#14532d">x3</text>
<circle cx="1057.1" cy="681.5" r="16.0" fill="none" stroke="#16a34a" stroke-width="1.1" opacity="0.55"/>
<circle cx="1057.1" cy="681.5" r="4.5" fill="#16a34a" stroke="#14532d" stroke-width="1.4"/>
<text x="1076.1" y="684.5" font-size="10" font-weight="700" fill="#14532d">x3</text>
<circle cx="1195.2" cy="681.5" r="16.0" fill="none" stroke="#16a34a" stroke-width="1.1" opacity="0.55"/>
<circle cx="1195.2" cy="681.5" r="4.5" fill="#16a34a" stroke="#14532d" stroke-width="1.4"/>
<text x="1214.2" y="684.5" font-size="10" font-weight="700" fill="#14532d">x3</text>
<circle cx="1333.2" cy="681.5" r="16.0" fill="none" stroke="#16a34a" stroke-width="1.1" opacity="0.55"/>
<circle cx="1333.2" cy="681.5" r="4.5" fill="#16a34a" stroke="#14532d" stroke-width="1.4"/>
<text x="1352.2" y="684.5" font-size="10" font-weight="700" fill="#14532d">x3</text>
<circle cx="1471.3" cy="681.5" r="16.0" fill="none" stroke="#16a34a" stroke-width="1.1" opacity="0.55"/>
<circle cx="1471.3" cy="681.5" r="4.5" fill="#16a34a" stroke="#14532d" stroke-width="1.4"/>
<text x="1490.3" y="684.5" font-size="10" font-weight="700" fill="#14532d">x3</text>
<circle cx="850.0" cy="438.5" r="11.0" fill="none" stroke="#16a34a" stroke-width="1.1" opacity="0.55"/>
<circle cx="850.0" cy="438.5" r="4.5" fill="#16a34a" stroke="#14532d" stroke-width="1.4"/>
<circle cx="228.7" cy="637.3" r="13.5" fill="none" stroke="#16a34a" stroke-width="1.1" opacity="0.55"/>
<circle cx="228.7" cy="637.3" r="4.5" fill="#16a34a" stroke="#14532d" stroke-width="1.4"/>
<text x="245.2" y="640.3" font-size="10" font-weight="700" fill="#14532d">x2</text>
<circle cx="366.8" cy="593.1" r="16.0" fill="none" stroke="#16a34a" stroke-width="1.1" opacity="0.55"/>
<circle cx="366.8" cy="593.1" r="4.5" fill="#16a34a" stroke="#14532d" stroke-width="1.4"/>
<text x="385.8" y="596.1" font-size="10" font-weight="700" fill="#14532d">x3</text>
<circle cx="504.8" cy="549.0" r="16.0" fill="none" stroke="#16a34a" stroke-width="1.1" opacity="0.55"/>
<circle cx="504.8" cy="549.0" r="4.5" fill="#16a34a" stroke="#14532d" stroke-width="1.4"/>
<text x="523.8" y="552.0" font-size="10" font-weight="700" fill="#14532d">x3</text>
<circle cx="642.9" cy="504.8" r="16.0" fill="none" stroke="#16a34a" stroke-width="1.1" opacity="0.55"/>
<circle cx="642.9" cy="504.8" r="4.5" fill="#16a34a" stroke="#14532d" stroke-width="1.4"/>
<text x="661.9" y="507.8" font-size="10" font-weight="700" fill="#14532d">x3</text>
<circle cx="781.0" cy="460.6" r="23.5" fill="none" stroke="#16a34a" stroke-width="1.1" opacity="0.55"/>
<circle cx="781.0" cy="460.6" r="4.5" fill="#16a34a" stroke="#14532d" stroke-width="1.4"/>
<text x="807.5" y="463.6" font-size="10" font-weight="700" fill="#14532d">x6</text>
<circle cx="919.0" cy="460.6" r="16.0" fill="none" stroke="#16a34a" stroke-width="1.1" opacity="0.55"/>
<circle cx="919.0" cy="460.6" r="4.5" fill="#16a34a" stroke="#14532d" stroke-width="1.4"/>
<text x="938.0" y="463.6" font-size="10" font-weight="700" fill="#14532d">x3</text>
<circle cx="1057.1" cy="504.8" r="16.0" fill="none" stroke="#16a34a" stroke-width="1.1" opacity="0.55"/>
<circle cx="1057.1" cy="504.8" r="4.5" fill="#16a34a" stroke="#14532d" stroke-width="1.4"/>
<text x="1076.1" y="507.8" font-size="10" font-weight="700" fill="#14532d">x3</text>
<circle cx="1195.2" cy="549.0" r="16.0" fill="none" stroke="#16a34a" stroke-width="1.1" opacity="0.55"/>
<circle cx="1195.2" cy="549.0" r="4.5" fill="#16a34a" stroke="#14532d" stroke-width="1.4"/>
<text x="1214.2" y="552.0" font-size="10" font-weight="700" fill="#14532d">x3</text>
<circle cx="1333.2" cy="593.1" r="16.0" fill="none" stroke="#16a34a" stroke-width="1.1" opacity="0.55"/>
<circle cx="1333.2" cy="593.1" r="4.5" fill="#16a34a" stroke="#14532d" stroke-width="1.4"/>
<text x="1352.2" y="596.1" font-size="10" font-weight="700" fill="#14532d">x3</text>
<circle cx="1471.3" cy="637.3" r="11.0" fill="none" stroke="#16a34a" stroke-width="1.1" opacity="0.55"/>
<circle cx="1471.3" cy="637.3" r="4.5" fill="#16a34a" stroke="#14532d" stroke-width="1.4"/>
</svg>