<svg xmlns="http://www.w3.org/2000/svg" width="1700" height="1100" viewBox="0 0 1700 1100" font-family="Segoe UI, Arial, sans-serif">
<defs>
      <pattern id="cf" patternUnits="userSpaceOnUse" width="6" height="6" patternTransform="rotate(-45)">
        <rect width="6" height="6" fill="#dbeafe"/><line x1="0" y1="0" x2="0" y2="6" stroke="#93c5fd" stroke-width="0.6"/>
      </pattern>
      <pattern id="wf" patternUnits="userSpaceOnUse" width="6" height="6" patternTransform="rotate(45)">
        <rect width="6" height="6" fill="#e2e8f0"/><line x1="0" y1="0" x2="0" y2="6" stroke="#94a3b8" stroke-width="0.6"/>
      </pattern>
    </defs>
<rect width="1700" height="1100" fill="white"/>
<text x="40" y="44" font-size="26" font-weight="700" fill="#1a202c">Girder (12m, 10 panels, twin chord)</text>
<text x="40" y="72" font-size="15" fill="#4a5568">Heavy-duty load-carrying truss with doubled bottom chord</text>
<text x="40" y="98" font-size="13" fill="#374151">27 members  ·  114 centreline crossings  →  43 bolts after clustering at 180mm</text>
<polygon points="102.3,716.5 102.3,727.5 1597.7,727.5 1597.7,716.5" fill="url(#cf)" stroke="#1d4ed8" stroke-width="1.4" opacity="0.95"/>
<polygon points="102.3,676.0 102.3,687.0 1597.7,687.0 1597.7,676.0" fill="url(#cf)" stroke="#1d4ed8" stroke-width="1.4" opacity="0.95"/>
<polygon points="100.1,716.9 104.5,727.1 852.2,403.1 847.8,392.9" fill="url(#cf)" stroke="#1d4ed8" stroke-width="1.4" opacity="0.95"/>
<polygon points="852.2,392.9 847.8,403.1 1595.5,727.1 1599.9,716.9" fill="url(#cf)" stroke="#1d4ed8" stroke-width="1.4" opacity="0.95"/>
<polygon points="246.3,722.0 257.4,722.0 257.4,657.2 246.3,657.2" fill="url(#wf)" stroke="#475569" stroke-width="1.2" opacity="0.85"/>
<polygon points="395.8,722.0 406.9,722.0 406.9,592.4 395.8,592.4" fill="url(#wf)" stroke="#475569" stroke-width="1.2" opacity="0.85"/>
<polygon points="545.4,722.0 556.5,722.0 556.5,527.6 545.4,527.6" fill="url(#wf)" stroke="#475569" stroke-width="1.2" opacity="0.85"/>
<polygon points="694.9,722.0 706.0,722.0 706.0,462.8 694.9,462.8" fill="url(#wf)" stroke="#475569" stroke-width="1.2" opacity="0.85"/>
<polygon points="844.5,722.0 855.5,722.0 855.5,398.0 844.5,398.0" fill="url(#wf)" stroke="#475569" stroke-width="1.2" opacity="0.85"/>
<polygon points="994.0,722.0 1005.1,722.0 1005.1,462.8 994.0,462.8" fill="url(#wf)" stroke="#475569" stroke-width="1.2" opacity="0.85"/>
<polygon points="1143.5,722.0 1154.6,722.0 1154.6,527.6 1143.5,527.6" fill="url(#wf)" stroke="#475569" stroke-width="1.2" opacity="0.85"/>
<polygon points="1293.1,722.0 1304.2,722.0 1304.2,592.4 1293.1,592.4" fill="url(#wf)" stroke="#475569" stroke-width="1.2" opacity="0.85"/>
<polygon points="1442.6,722.0 1453.7,722.0 1453.7,657.2 1442.6,657.2" fill="url(#wf)" stroke="#475569" stroke-width="1.2" opacity="0.85"/>
<polygon points="100.1,716.9 104.5,727.1 254.1,662.3 249.6,652.1" fill="url(#wf)" stroke="#475569" stroke-width="1.2" opacity="0.85"/>
<polygon points="251.8,727.5 251.8,716.5 102.3,716.5 102.3,727.5" fill="url(#wf)" stroke="#475569" stroke-width="1.2" opacity="0.85"/>
<polygon points="248.2,717.8 255.5,726.2 405.0,596.6 397.8,588.2" fill="url(#wf)" stroke="#475569" stroke-width="1.2" opacity="0.85"/>
<polygon points="399.2,727.1 403.6,716.9 254.1,652.1 249.6,662.3" fill="url(#wf)" stroke="#475569" stroke-width="1.2" opacity="0.85"/>
<polygon points="397.0,718.6 405.8,725.4 555.3,531.0 546.5,524.2" fill="url(#wf)" stroke="#475569" stroke-width="1.2" opacity="0.85"/>
<polygon points="547.3,726.2 554.6,717.8 405.0,588.2 397.8,596.6" fill="url(#wf)" stroke="#475569" stroke-width="1.2" opacity="0.85"/>
<polygon points="546.1,719.2 555.7,724.8 705.3,465.6 695.7,460.0" fill="url(#wf)" stroke="#475569" stroke-width="1.2" opacity="0.85"/>
<polygon points="696.1,725.4 704.9,718.6 555.3,524.2 546.5,531.0" fill="url(#wf)" stroke="#475569" stroke-width="1.2" opacity="0.85"/>
<polygon points="695.4,719.7 705.5,724.3 855.0,400.3 845.0,395.7" fill="url(#wf)" stroke="#475569" stroke-width="1.2" opacity="0.85"/>
<polygon points="845.2,724.8 854.8,719.2 705.3,460.0 695.7,465.6" fill="url(#wf)" stroke="#475569" stroke-width="1.2" opacity="0.85"/>
<polygon points="994.5,724.3 1004.6,719.7 855.0,395.7 845.0,400.3" fill="url(#wf)" stroke="#475569" stroke-width="1.2" opacity="0.85"/>
<polygon points="1144.3,724.8 1153.9,719.2 1004.3,460.0 994.7,465.6" fill="url(#wf)" stroke="#475569" stroke-width="1.2" opacity="0.85"/>
<polygon points="1294.2,725.4 1303.0,718.6 1153.5,524.2 1144.7,531.0" fill="url(#wf)" stroke="#475569" stroke-width="1.2" opacity="0.85"/>
<polygon points="1444.5,726.2 1451.8,717.8 1302.2,588.2 1295.0,596.6" fill="url(#wf)" stroke="#475569" stroke-width="1.2" opacity="0.85"/>
<line x1="102.3" y1="722.0" x2="1597.7" y2="722.0" stroke="#1d4ed8" stroke-width="0.8" stroke-dasharray="5 3" opacity="0.5"/>
<line x1="102.3" y1="681.5" x2="1597.7" y2="681.5" stroke="#1d4ed8" stroke-width="0.8" stroke-dasharray="5 3" opacity="0.5"/>
<line x1="102.3" y1="722.0" x2="850.0" y2="398.0" stroke="#1d4ed8" stroke-width="0.8" stroke-dasharray="5 3" opacity="0.5"/>
<line x1="850.0" y1="398.0" x2="1597.7" y2="722.0" stroke="#1d4ed8" stroke-width="0.8" stroke-dasharray="5 3" opacity="0.5"/>
<line x1="251.8" y1="722.0" x2="251.8" y2="657.2" stroke="#334155" stroke-width="0.8" stroke-dasharray="5 3" opacity="0.5"/>
<line x1="401.4" y1="722.0" x2="401.4" y2="592.4" stroke="#334155" stroke-width="0.8" stroke-dasharray="5 3" opacity="0.5"/>
<line x1="550.9" y1="722.0" x2="550.9" y2="527.6" stroke="#334155" stroke-width="0.8" stroke-dasharray="5 3" opacity="0.5"/>
<line x1="700.5" y1="722.0" x2="700.5" y2="462.8" stroke="#334155" stroke-width="0.8" stroke-dasharray="5 3" opacity="0.5"/>
<line x1="850.0" y1="722.0" x2="850.0" y2="398.0" stroke="#334155" stroke-width="0.8" stroke-dasharray="5 3" opacity="0.5"/>
<line x1="999.5" y1="722.0" x2="999.5" y2="462.8" stroke="#334155" stroke-width="0.8" stroke-dasharray="5 3" opacity="0.5"/>
<line x1="1149.1" y1="722.0" x2="1149.1" y2="527.6" stroke="#334155" stroke-width="0.8" stroke-dasharray="5 3" opacity="0.5"/>
<line x1="1298.6" y1="722.0" x2="1298.6" y2="592.4" stroke="#334155" stroke-width="0.8" stroke-dasharray="5 3" opacity="0.5"/>
<line x1="1448.2" y1="722.0" x2="1448.2" y2="657.2" stroke="#334155" stroke-width="0.8" stroke-dasharray="5 3" opacity="0.5"/>
<line x1="102.3" y1="722.0" x2="251.8" y2="657.2" stroke="#334155" stroke-width="0.8" stroke-dasharray="5 3" opacity="0.5"/>
<line x1="251.8" y1="722.0" x2="102.3" y2="722.0" stroke="#334155" stroke-width="0.8" stroke-dasharray="5 3" opacity="0.5"/>
<line x1="251.8" y1="722.0" x2="401.4" y2="592.4" stroke="#334155" stroke-width="0.8" stroke-dasharray="5 3" opacity="0.5"/>
<line x1="401.4" y1="722.0" x2="251.8" y2="657.2" stroke="#334155" stroke-width="0.8" stroke-dasharray="5 3" opacity="0.5"/>
<line x1="401.4" y1="722.0" x2="550.9" y2="527.6" stroke="#334155" stroke-width="0.8" stroke-dasharray="5 3" opacity="0.5"/>
<line x1="550.9" y1="722.0" x2="401.4" y2="592.4" stroke="#334155" stroke-width="0.8" stroke-dasharray="5 3" opacity="0.5"/>
<line x1="550.9" y1="722.0" x2="700.5" y2="462.8" stroke="#334155" stroke-width="0.8" stroke-dasharray="5 3" opacity="0.5"/>
<line x1="700.5" y1="722.0" x2="550.9" y2="527.6" stroke="#334155" stroke-width="0.8" stroke-dasharray="5 3" opacity="0.5"/>
<line x1="700.5" y1="722.0" x2="850.0" y2="398.0" stroke="#334155" stroke-width="0.8" stroke-dasharray="5 3" opacity="0.5"/>
<line x1="850.0" y1="722.0" x2="700.5" y2="462.8" stroke="#334155" stroke-width="0.8" stroke-dasharray="5 3" opacity="0.5"/>
<line x1="999.5" y1="722.0" x2="850.0" y2="398.0" stroke="#334155" stroke-width="0.8" stroke-dasharray="5 3" opacity="0.5"/>
<line x1="1149.1" y1="722.0" x2="999.5" y2="462.8" stroke="#334155" stroke-width="0.8" stroke-dasharray="5 3" opacity="0.5"/>
<line x1="1298.6" y1="722.0" x2="1149.1" y2="527.6" stroke="#334155" stroke-width="0.8" stroke-dasharray="5 3" opacity="0.5"/>
<line x1="1448.2" y1="722.0" x2="1298.6" y2="592.4" stroke="#334155" stroke-width="0.8" stroke-dasharray="5 3" opacity="0.5"/>
<text x="850.0" y="722.0" font-size="11" font-weight="700" text-anchor="middle" fill="#0f172a" stroke="white" stroke-width="3" paint-order="stroke">B1</text>
<text x="850.0" y="681.5" font-size="11" font-weight="700" text-anchor="middle" fill="#0f172a" stroke="white" stroke-width="3" paint-order="stroke">B2</text>
<text x="476.2" y="560.0" font-size="11" font-weight="700" text-anchor="middle" fill="#0f172a" stroke="white" stroke-width="3" paint-order="stroke">T_L</text>
<text x="1223.8" y="560.0" font-size="11" font-weight="700" text-anchor="middle" fill="#0f172a" stroke="white" stroke-width="3" paint-order="stroke">T_R</text>
<text x="251.8" y="689.6" font-size="11" font-weight="700" text-anchor="middle" fill="#0f172a" stroke="white" stroke-width="3" paint-order="stroke">V1</text>
<text x="401.4" y="657.2" font-size="11" font-weight="700" text-anchor="middle" fill="#0f172a" stroke="white" stroke-width="3" paint-order="stroke">V2</text>
<text x="550.9" y="624.8" font-size="11" font-weight="700" text-anchor="middle" fill="#0f172a" stroke="white" stroke-width="3" paint-order="stroke">V3</text>
<text x="700.5" y="592.4" font-size="11" font-weight="700" text-anchor="middle" fill="#0f172a" stroke="white" stroke-width="3" paint-order="stroke">V4</text>
<text x="850.0" y="560.0" font-size="11" font-weight="700" text-anchor="middle" fill="#0f172a" stroke="white" stroke-width="3" paint-order="stroke">V5</text>
<text x="999.5" y="592.4" font-size="11" font-weight="700" text-anchor="middle" fill="#0f172a" stroke="white" stroke-width="3" paint-order="stroke">V6</text>
<text x="1149.1" y="624.8" font-size="11" font-weight="700" text-anchor="middle" fill="#0f172a" stroke="white" stroke-width="3" paint-order="stroke">V7</text>
<text x="1298.6" y="657.2" font-size="11" font-weight="700" text-anchor="middle" fill="#0f172a" stroke="white" stroke-width="3" paint-order="stroke">V8</text>
<text x="1448.2" y="689.6" font-size="11" font-weight="700" text-anchor="middle" fill="#0f172a" stroke="white" stroke-width="3" paint-order="stroke">V9</text>
<text x="177.1" y="689.6" font-size="11" font-weight="700" text-anchor="middle" fill="#0f172a" stroke="white" stroke-width="3" paint-order="stroke">D0A</text>
<text x="177.1" y="722.0" font-size="11" font-weight="700" text-anchor="middle" fill="#0f172a" stroke="white" stroke-width="3" paint-order="stroke">D0B</text>
<text x="326.6" y="657.2" font-size="11" font-weight="700" text-anchor="middle" fill="#0f172a" stroke="white" stroke-width="3" paint-order="stroke">D1A</text>
<text x="326.6" y="689.6" font-size="11" font-weight="700" text-anchor="middle" fill="#0f172a" stroke="white" stroke-width="3" paint-order="stroke">D1B</text>
<text x="476.2" y="624.8" font-size="11" font-weight="700" text-anchor="middle" fill="#0f172a" stroke="white" stroke-width="3" paint-order="stroke">D2A</text>
<text x="476.2" y="657.2" font-size="11" font-weight="700" text-anchor="middle" fill="#0f172a" stroke="white" stroke-width="3" paint-order="stroke">D2B</text>
<text x="625.7" y="592.4" font-size="11" font-weight="700" text-anchor="middle" fill="#0f172a" stroke="white" stroke-width="3" paint-order="stroke">D3A</text>
<text x="625.7" y="624.8" font-size="11" font-weight="700" text-anchor="middle" fill="#0f172a" stroke="white" stroke-width="3" paint-order="stroke">D3B</text>
<text x="775.2" y="560.0" font-size="11" font-weight="700" text-anchor="middle" fill="#0f172a" stroke="white" stroke-width="3" paint-order="stroke">D4A</text>
<text x="775.2" y="592.4" font-size="11" font-weight="700" text-anchor="middle" fill="#0f172a" stroke="white" stroke-width="3" paint-order="stroke">D4B</text>
<text x="924.8" y="560.0" font-size="11" font-weight="700" text-anchor="middle" fill="#0f172a" stroke="white" stroke-width="3" paint-order="stroke">D5A</text>
<text x="1074.3" y="592.4" font-size="11" font-weight="700" text-anchor="middle" fill="#0f172a" stroke="white" stroke-width="3" paint-order="stroke">D6A</text>
<text x="1223.8" y="624.8" font-size="11" font-weight="700" text-anchor="middle" fill="#0f172a" stroke="white" stroke-width="3" paint-order="stroke">D7A</text>
<text x="1373.4" y="657.2" font-size="11" font-weight="700" text-anchor="middle" fill="#0f172a" stroke="white" stroke-width="3" paint-order="stroke">D8A</text>
<circle cx="102.3" cy="722.0" r="18.5" fill="none" stroke="#16a34a" stroke-width="1.1" opacity="0.55"/>
<circle cx="102.3" cy="722.0" r="4.5" fill="#16a34a" stroke="#14532d" stroke-width="1.4"/>
<text x="123.8" y="725.0" font-size="10" font-weight="700" fill="#14532d">x4</text>
<circle cx="1597.7" cy="722.0" r="11.0" fill="none" stroke="#16a34a" stroke-width="1.1" opacity="0.55"/>
<circle cx="1597.7" cy="722.0" r="4.5" fill="#16a34a" stroke="#14532d" stroke-width="1.4"/>
<circle cx="251.8" cy="722.0" r="21.0" fill="none" stroke="#16a34a" stroke-width="1.1" opacity="0.55"/>
<circle cx="251.8" cy="722.0" r="4.5" fill="#16a34a" stroke="#14532d" stroke-width="1.4"/>
<text x="275.8" y="725.0" font-size="10" font-weight="700" fill="#14532d">x5</text>
<circle cx="401.4" cy="722.0" r="23.5" fill="none" stroke="#16a34a" stroke-width="1.1" opacity="0.55"/>
<circle cx="401.4" cy="722.0" r="4.5" fill="#16a34a" stroke="#14532d" stroke-width="1.4"/>
<text x="427.9" y="725.0" font-size="10" font-weight="700" fill="#14532d">x6</text>
<circle cx="550.9" cy="722.0" r="23.5" fill="none" stroke="#16a34a" stroke-width="1.1" opacity="0.55"/>
<circle cx="550.9" cy="722.0" r="4.5" fill="#16a34a" stroke="#14532d" stroke-width="1.4"/>
<text x="577.4" y="725.0" font-size="10" font-weight="700" fill="#14532d">x6</text>
<circle cx="700.5" cy="722.0" r="23.5" fill="none" stroke="#16a34a" stroke-width="1.1" opacity="0.55"/>
<circle cx="700.5" cy="722.0" r="4.5" fill="#16a34a" stroke="#14532d" stroke-width="1.4"/>
<text x="727.0" y="725.0" font-size="10" font-weight="700" fill="#14532d">x6</text>
<circle cx="850.0" cy="722.0" r="16.0" fill="none" stroke="#16a34a" stroke-width="1.1" opacity="0.55"/>
<circle cx="850.0" cy="722.0" r="4.5" fill="#16a34a" stroke="#14532d" stroke-width="1.4"/>
<text x="869.0" y="725.0" font-size="10" font-weight="700" fill="#14532d">x3</text>
<circle cx="999.5" cy="722.0" r="16.0" fill="none" stroke="#16a34a" stroke-width="1.1" opacity="0.55"/>
<circle cx="999.5" cy="722.0" r="4.5" fill="#16a34a" stroke="#14532d" stroke-width="1.4"/>
<text x="1018.5" y="725.0" font-size="10" font-weight="700" fill="#14532d">x3</text>
<circle cx="1149.1" cy="722.0" r="16.0" fill="none" stroke="#16a34a" stroke-width="1.1" opacity="0.55"/>
<circle cx="1149.1" cy="722.0" r="4.5" fill="#16a34a" stroke="#14532d" stroke-width="1.4"/>
<text x="1168.1" y="725.0" font-size="10" font-weight="700" fill="#14532d">x3</text>
<circle cx="1298.6" cy="722.0" r="16.0" fill="none" stroke="#16a34a" stroke-width="1.1" opacity="0.55"/>
<circle cx="1298.6" cy="722.0" r="4.5" fill="#16a34a" stroke="#14532d" stroke-width="1.4"/>
<text x="1317.6" y="725.0" font-size="10" font-weight="700" fill="#14532d">x3</text>
<circle cx="1448.2" cy="722.0" r="16.0" fill="none" stroke="#16a34a" stroke-width="1.1" opacity="0.55"/>
<circle cx="1448.2" cy="722.0" r="4.5" fill="#16a34a" stroke="#14532d" stroke-width="1.4"/>
<text x="1467.2" y="725.0" font-size="10" font-weight="700" fill="#14532d">x3</text>
<circle cx="195.8" cy="681.5" r="13.5" fill="none" stroke="#16a34a" stroke-width="1.1" opacity="0.55"/>
<circle cx="195.8" cy="681.5" r="4.5" fill="#16a34a" stroke="#14532d" stroke-width="1.4"/>
<text x="212.3" y="684.5" font-size="10" font-weight="700" fill="#14532d">x2</text>
<circle cx="1504.2" cy="681.5" r="11.0" fill="none" stroke="#16a34a" stroke-width="1.1" opacity="0.55"/>
<circle cx="1504.2" cy="681.5" r="4.5" fill="#16a34a" stroke="#14532d" stroke-width="1.4"/>
<circle cx="251.8" cy="681.5" r="11.0" fill="none" stroke="#16a34a" stroke-width="1.1" opacity="0.55"/>
<circle cx="251.8" cy="681.5" r="4.5" fill="#16a34a" stroke="#14532d" stroke-width="1.4"/>
<circle cx="401.4" cy="681.5" r="11.0" fill="none" stroke="#16a34a" stroke-width="1.1" opacity="0.55"/>
<circle cx="401.4" cy="681.5" r="4.5" fill="#16a34a" stroke="#14532d" stroke-width="1.4"/>
<circle cx="550.9" cy="681.5" r="11.0" fill="none" stroke="#16a34a" stroke-width="1.1" opacity="0.55"/>
<circle cx="550.9" cy="681.5" r="4.5" fill="#16a34a" stroke="#14532d" stroke-width="1.4"/>
<circle cx="709.8" cy="681.5" r="13.5" fill="none" stroke="#16a34a" stroke-width="1.1" opacity="0.55"/>
<circle cx="709.8" cy="681.5" r="4.5" fill="#16a34a" stroke="#14532d" stroke-width="1.4"/>
<text x="726.3" y="684.5" font-size="10" font-weight="700" fill="#14532d">x2</text>
<circle cx="850.0" cy="681.5" r="11.0" fill="none" stroke="#16a34a" stroke-width="1.1" opacity="0.55"/>
<circle cx="850.0" cy="681.5" r="4.5" fill="#16a34a" stroke="#14532d" stroke-width="1.4"/>
<circle cx="990.2" cy="681.5" r="13.5" fill="none" stroke="#16a34a" stroke-width="1.1" opacity="0.55"/>
<circle cx="990.2" cy="681.5" r="4.5" fill="#16a34a" stroke="#14532d" stroke-width="1.4"/>
<text x="1006.7" y="684.5" font-size="10" font-weight="700" fill="#14532d">x2</text>
<circle cx="1149.1" cy="681.5" r="11.0" fill="none" stroke="#16a34a" stroke-width="1.1" opacity="0.55"/>
<circle cx="1149.1" cy="681.5" r="4.5" fill="#16a34a" stroke="#14532d" stroke-width="1.4"/>
<circle cx="1298.6" cy="681.5" r="11.0" fill="none" stroke="#16a34a" stroke-width="1.1" opacity="0.55"/>
<circle cx="1298.6" cy="681.5" r="4.5" fill="#16a34a" stroke="#14532d" stroke-width="1.4"/>
<circle cx="1448.2" cy="681.5" r="11.0" fill="none" stroke="#16a34a" stroke-width="1.1" opacity="0.55"/>
<circle cx="1448.2" cy="681.5" r="4.5" fill="#16a34a" stroke="#14532d" stroke-width="1.4"/>
<circle cx="302.7" cy="680.6" r="16.0" fill="none" stroke="#16a34a" stroke-width="1.1" opacity="0.55"/>
<circle cx="302.7" cy="680.6" r="4.5" fill="#16a34a" stroke="#14532d" stroke-width="1.4"/>
<text x="321.7" y="683.6" font-size="10" font-weight="700" fill="#14532d">x3</text>
<circle cx="432.5" cy="681.5" r="11.0" fill="none" stroke="#16a34a" stroke-width="1.1" opacity="0.55"/>
<circle cx="432.5" cy="681.5" r="4.5" fill="#16a34a" stroke="#14532d" stroke-width="1.4"/>
<circle cx="504.2" cy="681.5" r="11.0" fill="none" stroke="#16a34a" stroke-width="1.1" opacity="0.55"/>
<circle cx="504.2" cy="681.5" r="4.5" fill="#16a34a" stroke="#14532d" stroke-width="1.4"/>
<circle cx="574.3" cy="681.5" r="11.0" fill="none" stroke="#16a34a" stroke-width="1.1" opacity="0.55"/>
<circle cx="574.3" cy="681.5" r="4.5" fill="#16a34a" stroke="#14532d" stroke-width="1.4"/>
<circle cx="669.3" cy="681.5" r="11.0" fill="none" stroke="#16a34a" stroke-width="1.1" opacity="0.55"/>
<circle cx="669.3" cy="681.5" r="4.5" fill="#16a34a" stroke="#14532d" stroke-width="1.4"/>
<circle cx="826.6" cy="681.5" r="11.0" fill="none" stroke="#16a34a" stroke-width="1.1" opacity="0.55"/>
<circle cx="826.6" cy="681.5" r="4.5" fill="#16a34a" stroke="#14532d" stroke-width="1.4"/>
<circle cx="1125.7" cy="681.5" r="11.0" fill="none" stroke="#16a34a" stroke-width="1.1" opacity="0.55"/>
<circle cx="1125.7" cy="681.5" r="4.5" fill="#16a34a" stroke="#14532d" stroke-width="1.4"/>
<circle cx="1267.5" cy="681.5" r="11.0" fill="none" stroke="#16a34a" stroke-width="1.1" opacity="0.55"/>
<circle cx="1267.5" cy="681.5" r="4.5" fill="#16a34a" stroke="#14532d" stroke-width="1.4"/>
<circle cx="1401.4" cy="681.5" r="11.0" fill="none" stroke="#16a34a" stroke-width="1.1" opacity="0.55"/>
<circle cx="1401.4" cy="681.5" r="4.5" fill="#16a34a" stroke="#14532d" stroke-width="1.4"/>
<circle cx="850.0" cy="398.0" r="33.5" fill="none" stroke="#16a34a" stroke-width="1.1" opacity="0.55"/>
<circle cx="850.0" cy="398.0" r="4.5" fill="#16a34a" stroke="#14532d" stroke-width="1.4"/>
<text x="886.5" y="401.0" font-size="10" font-weight="700" fill="#14532d">x10</text>
<circle cx="251.8" cy="657.2" r="21.0" fill="none" stroke="#16a34a" stroke-width="1.1" opacity="0.55"/>
<circle cx="251.8" cy="657.2" r="4.5" fill="#16a34a" stroke="#14532d" stroke-width="1.4"/>
<text x="275.8" y="660.2" font-size="10" font-weight="700" fill="#14532d">x5</text>
<circle cx="401.4" cy="592.4" r="23.5" fill="none" stroke="#16a34a" stroke-width="1.1" opacity="0.55"/>
<circle cx="401.4" cy="592.4" r="4.5" fill="#16a34a" stroke="#14532d" stroke-width="1.4"/>
<text x="427.9" y="595.4" font-size="10" font-weight="700" fill="#14532d">x6</text>
<circle cx="550.9" cy="527.6" r="23.5" fill="none" stroke="#16a34a" stroke-width="1.1" opacity="0.55"/>
<circle cx="550.9" cy="527.6" r="4.5" fill="#16a34a" stroke="#14532d" stroke-width="1.4"/>
<text x="577.4" y="530.6" font-size="10" font-weight="700" fill="#14532d">x6</text>
<circle cx="700.5" cy="462.8" r="23.5" fill="none" stroke="#16a34a" stroke-width="1.1" opacity="0.55"/>
<circle cx="700.5" cy="462.8" r="4.5" fill="#16a34a" stroke="#14532d" stroke-width="1.4"/>
<text x="727.0" y="465.8" font-size="10" font-weight="700" fill="#14532d">x6</text>
<circle cx="999.5" cy="462.8" r="16.0" fill="none" stroke="#16a34a" stroke-width="1.1" opacity="0.55"/>
<circle cx="999.5" cy="462.8" r="4.5" fill="#16a34a" stroke="#14532d" stroke-width="1.4"/>
<text x="1018.5" y="465.8" font-size="10" font-weight="700" fill="#14532d">x3</text>
<circle cx="1149.1" cy="527.6" r="16.0" fill="none" stroke="#16a34a" stroke-width="1.1" opacity="0.55"/>
<circle cx="1149.1" cy="527.6" r="4.5" fill="#16a34a" stroke="#14532d" stroke-width="1.4"/>
<text x="1168.1" y="530.6" font-size="10" font-weight="700" fill="#14532d">x3</text>
<circle cx="1298.6" cy="592.4" r="16.0" fill="none" stroke="#16a34a" stroke-width="1.1" opacity="0.55"/>
<circle cx="1298.6" cy="592.4" r="4.5" fill="#16a34a" stroke="#14532d" stroke-width="1.4"/>
<text x="1317.6" y="595.4" font-size="10" font-weight="700" fill="#14532d">x3</text>
<circle cx="1448.2" cy="657.2" r="11.0" fill="none" stroke="#16a34a" stroke-width="1.1" opacity="0.55"/>
<circle cx="1448.2" cy="657.2" r="4.5" fill="#16a34a" stroke="#14532d" stroke-width="1.4"/>
<circle cx="461.2" cy="644.2" r="11.0" fill="none" stroke="#16a34a" stroke-width="1.1" opacity="0.55"/>
<circle cx="461.2" cy="644.2" r="4.5" fill="#16a34a" stroke="#14532d" stroke-width="1.4"/>
<circle cx="615.0" cy="610.9" r="11.0" fill="none" stroke="#16a34a" stroke-width="1.1" opacity="0.55"/>
<circle cx="615.0" cy="610.9" r="4.5" fill="#16a34a" stroke="#14532d" stroke-width="1.4"/>
<circle cx="766.9" cy="578.0" r="11.0" fill="none" stroke="#16a34a" stroke-width="1.1" opacity="0.55"/>
<circle cx="766.9" cy="578.0" r="4.5" fill="#16a34a" stroke="#14532d" stroke-width="1.4"/>
</svg>