<svg xmlns="http://www.w3.org/2000/svg" width="1700" height="551" viewBox="0 0 1700 551" font-family="Segoe UI, Arial, sans-serif">
<defs>
  <pattern id="cf" patternUnits="userSpaceOnUse" width="6" height="6" patternTransform="rotate(-45)">
    <rect width="6" height="6" fill="#dbeafe"/><line x1="0" y1="0" x2="0" y2="6" stroke="#93c5fd" stroke-width="0.6"/>
  </pattern>
  <pattern id="wf" patternUnits="userSpaceOnUse" width="6" height="6" patternTransform="rotate(45)">
    <rect width="6" height="6" fill="#e2e8f0"/><line x1="0" y1="0" x2="0" y2="6" stroke="#94a3b8" stroke-width="0.6"/>
  </pattern>
</defs>
<rect width="1700" height="551" fill="#fafaf8"/>
<text x="20" y="34" font-size="22" font-weight="700" fill="#1a202c">Complex truss TN2-1 — clustering option</text>
<text x="20" y="58" font-size="14" fill="#4a5568">Apex/heel zones have multiple centreline crossings within a few cm. Right panel merges any crossings within 80mm of each other into one bolt.</text>
<text x="400" y="92" text-anchor="middle" font-size="15" font-weight="700" fill="#7f1d1d">RAW — every centreline crossing = 1 bolt</text>
<text x="1300" y="92" text-anchor="middle" font-size="15" font-weight="700" fill="#14532d">CLUSTERED — crossings within 80mm merge to 1 bolt</text>
<polygon points="744.8,123.1 749.6,111.3 731.7,103.9 726.8,115.7" fill="url(#cf)" stroke="#1d4ed8" stroke-width="1.6" opacity="0.95"/>
<polygon points="739.7,115.7 734.8,103.9 50.2,387.4 55.1,399.2" fill="url(#cf)" stroke="#1d4ed8" stroke-width="1.6" opacity="0.95"/>
<polygon points="749.6,138.1 749.6,125.4 682.9,125.4 682.9,138.1" fill="url(#cf)" stroke="#1d4ed8" stroke-width="1.6" opacity="0.95"/>
<polygon points="749.6,401.2 749.6,388.5 50.2,388.5 50.2,401.2" fill="url(#cf)" stroke="#1d4ed8" stroke-width="1.6" opacity="0.95"/>
<polygon points="736.9,400.8 749.6,400.8 749.6,111.3 736.9,111.3" fill="url(#wf)" stroke="#475569" stroke-width="1.4" opacity="0.85"/>
<polygon points="725.7,402.7 734.6,393.5 523.6,191.3 514.8,200.6" fill="url(#wf)" stroke="#475569" stroke-width="1.4" opacity="0.85"/>
<polygon points="499.2,399.2 511.9,399.2 511.9,201.4 499.2,201.4" fill="url(#wf)" stroke="#475569" stroke-width="1.4" opacity="0.85"/>
<polygon points="488.5,402.5 494.5,391.2 293.6,285.5 287.6,296.8" fill="url(#wf)" stroke="#475569" stroke-width="1.4" opacity="0.85"/>
<polygon points="271.5,399.2 284.3,399.2 284.3,295.7 271.5,295.7" fill="url(#wf)" stroke="#475569" stroke-width="1.4" opacity="0.85"/>
<polygon points="87.5,399.2 100.3,399.2 100.3,371.9 87.5,371.9" fill="url(#wf)" stroke="#475569" stroke-width="1.4" opacity="0.85"/>
<line x1="747.2" y1="117.2" x2="729.3" y2="109.8" stroke="#1d4ed8" stroke-width="1" stroke-dasharray="5 3" opacity="0.7"/>
<line x1="743.3" y1="400.8" x2="743.3" y2="111.3" stroke="#334155" stroke-width="1" stroke-dasharray="5 3" opacity="0.7"/>
<line x1="737.2" y1="109.8" x2="52.6" y2="393.3" stroke="#1d4ed8" stroke-width="1" stroke-dasharray="5 3" opacity="0.7"/>
<line x1="749.6" y1="131.7" x2="682.9" y2="131.7" stroke="#1d4ed8" stroke-width="1" stroke-dasharray="5 3" opacity="0.7"/>
<line x1="730.1" y1="398.1" x2="519.2" y2="195.9" stroke="#334155" stroke-width="1" stroke-dasharray="5 3" opacity="0.7"/>
<line x1="749.6" y1="394.9" x2="50.2" y2="394.9" stroke="#1d4ed8" stroke-width="1" stroke-dasharray="5 3" opacity="0.7"/>
<line x1="505.6" y1="399.2" x2="505.6" y2="201.4" stroke="#334155" stroke-width="1" stroke-dasharray="5 3" opacity="0.7"/>
<line x1="491.5" y1="396.9" x2="290.6" y2="291.2" stroke="#334155" stroke-width="1" stroke-dasharray="5 3" opacity="0.7"/>
<line x1="277.9" y1="399.2" x2="277.9" y2="295.7" stroke="#334155" stroke-width="1" stroke-dasharray="5 3" opacity="0.7"/>
<line x1="93.9" y1="399.2" x2="93.9" y2="371.9" stroke="#334155" stroke-width="1" stroke-dasharray="5 3" opacity="0.7"/>
<text x="738.2" y="113.5" font-size="12" font-weight="700" text-anchor="middle" fill="#0f172a" stroke="#fafaf8" stroke-width="3.5" paint-order="stroke">T2</text>
<text x="743.3" y="256.1" font-size="12" font-weight="700" text-anchor="middle" fill="#0f172a" stroke="#fafaf8" stroke-width="3.5" paint-order="stroke">W5</text>
<text x="394.9" y="251.6" font-size="12" font-weight="700" text-anchor="middle" fill="#0f172a" stroke="#fafaf8" stroke-width="3.5" paint-order="stroke">T3</text>
<text x="716.3" y="131.7" font-size="12" font-weight="700" text-anchor="middle" fill="#0f172a" stroke="#fafaf8" stroke-width="3.5" paint-order="stroke">C4</text>
<text x="624.7" y="297.0" font-size="12" font-weight="700" text-anchor="middle" fill="#0f172a" stroke="#fafaf8" stroke-width="3.5" paint-order="stroke">W6</text>
<text x="399.9" y="394.9" font-size="12" font-weight="700" text-anchor="middle" fill="#0f172a" stroke="#fafaf8" stroke-width="3.5" paint-order="stroke">B1</text>
<text x="505.6" y="300.3" font-size="12" font-weight="700" text-anchor="middle" fill="#0f172a" stroke="#fafaf8" stroke-width="3.5" paint-order="stroke">W7</text>
<text x="391.1" y="344.0" font-size="12" font-weight="700" text-anchor="middle" fill="#0f172a" stroke="#fafaf8" stroke-width="3.5" paint-order="stroke">W8</text>
<text x="277.9" y="347.4" font-size="12" font-weight="700" text-anchor="middle" fill="#0f172a" stroke="#fafaf8" stroke-width="3.5" paint-order="stroke">W9</text>
<text x="93.9" y="385.6" font-size="12" font-weight="700" text-anchor="middle" fill="#0f172a" stroke="#fafaf8" stroke-width="3.5" paint-order="stroke">W10</text>
<polygon points="1644.9,123.1 1649.8,111.3 1631.9,103.9 1627.0,115.7" fill="url(#cf)" stroke="#1d4ed8" stroke-width="1.6" opacity="0.95"/>
<polygon points="1639.8,115.7 1635.0,103.9 950.4,387.4 955.2,399.2" fill="url(#cf)" stroke="#1d4ed8" stroke-width="1.6" opacity="0.95"/>
<polygon points="1649.8,138.1 1649.8,125.4 1583.1,125.4 1583.1,138.1" fill="url(#cf)" stroke="#1d4ed8" stroke-width="1.6" opacity="0.95"/>
<polygon points="1649.8,401.2 1649.8,388.5 950.4,388.5 950.4,401.2" fill="url(#cf)" stroke="#1d4ed8" stroke-width="1.6" opacity="0.95"/>
<polygon points="1637.1,400.8 1649.8,400.8 1649.8,111.3 1637.1,111.3" fill="url(#wf)" stroke="#475569" stroke-width="1.4" opacity="0.85"/>
<polygon points="1625.9,402.7 1634.7,393.5 1423.8,191.3 1414.9,200.6" fill="url(#wf)" stroke="#475569" stroke-width="1.4" opacity="0.85"/>
<polygon points="1399.4,399.2 1412.1,399.2 1412.1,201.4 1399.4,201.4" fill="url(#wf)" stroke="#475569" stroke-width="1.4" opacity="0.85"/>
<polygon points="1388.7,402.5 1394.7,391.2 1193.7,285.5 1187.8,296.8" fill="url(#wf)" stroke="#475569" stroke-width="1.4" opacity="0.85"/>
<polygon points="1171.7,399.2 1184.5,399.2 1184.5,295.7 1171.7,295.7" fill="url(#wf)" stroke="#475569" stroke-width="1.4" opacity="0.85"/>
<polygon points="987.7,399.2 1000.5,399.2 1000.5,371.9 987.7,371.9" fill="url(#wf)" stroke="#475569" stroke-width="1.4" opacity="0.85"/>
<line x1="1647.4" y1="117.2" x2="1629.5" y2="109.8" stroke="#1d4ed8" stroke-width="1" stroke-dasharray="5 3" opacity="0.7"/>
<line x1="1643.4" y1="400.8" x2="1643.4" y2="111.3" stroke="#334155" stroke-width="1" stroke-dasharray="5 3" opacity="0.7"/>
<line x1="1637.4" y1="109.8" x2="952.8" y2="393.3" stroke="#1d4ed8" stroke-width="1" stroke-dasharray="5 3" opacity="0.7"/>
<line x1="1649.8" y1="131.7" x2="1583.1" y2="131.7" stroke="#1d4ed8" stroke-width="1" stroke-dasharray="5 3" opacity="0.7"/>
<line x1="1630.3" y1="398.1" x2="1419.4" y2="195.9" stroke="#334155" stroke-width="1" stroke-dasharray="5 3" opacity="0.7"/>
<line x1="1649.8" y1="394.9" x2="950.4" y2="394.9" stroke="#1d4ed8" stroke-width="1" stroke-dasharray="5 3" opacity="0.7"/>
<line x1="1405.7" y1="399.2" x2="1405.7" y2="201.4" stroke="#334155" stroke-width="1" stroke-dasharray="5 3" opacity="0.7"/>
<line x1="1391.7" y1="396.9" x2="1190.8" y2="291.2" stroke="#334155" stroke-width="1" stroke-dasharray="5 3" opacity="0.7"/>
<line x1="1178.1" y1="399.2" x2="1178.1" y2="295.7" stroke="#334155" stroke-width="1" stroke-dasharray="5 3" opacity="0.7"/>
<line x1="994.1" y1="399.2" x2="994.1" y2="371.9" stroke="#334155" stroke-width="1" stroke-dasharray="5 3" opacity="0.7"/>
<text x="1638.4" y="113.5" font-size="12" font-weight="700" text-anchor="middle" fill="#0f172a" stroke="#fafaf8" stroke-width="3.5" paint-order="stroke">T2</text>
<text x="1643.4" y="256.1" font-size="12" font-weight="700" text-anchor="middle" fill="#0f172a" stroke="#fafaf8" stroke-width="3.5" paint-order="stroke">W5</text>
<text x="1295.1" y="251.6" font-size="12" font-weight="700" text-anchor="middle" fill="#0f172a" stroke="#fafaf8" stroke-width="3.5" paint-order="stroke">T3</text>
<text x="1616.5" y="131.7" font-size="12" font-weight="700" text-anchor="middle" fill="#0f172a" stroke="#fafaf8" stroke-width="3.5" paint-order="stroke">C4</text>
<text x="1524.8" y="297.0" font-size="12" font-weight="700" text-anchor="middle" fill="#0f172a" stroke="#fafaf8" stroke-width="3.5" paint-order="stroke">W6</text>
<text x="1300.1" y="394.9" font-size="12" font-weight="700" text-anchor="middle" fill="#0f172a" stroke="#fafaf8" stroke-width="3.5" paint-order="stroke">B1</text>
<text x="1405.7" y="300.3" font-size="12" font-weight="700" text-anchor="middle" fill="#0f172a" stroke="#fafaf8" stroke-width="3.5" paint-order="stroke">W7</text>
<text x="1291.2" y="344.0" font-size="12" font-weight="700" text-anchor="middle" fill="#0f172a" stroke="#fafaf8" stroke-width="3.5" paint-order="stroke">W8</text>
<text x="1178.1" y="347.4" font-size="12" font-weight="700" text-anchor="middle" fill="#0f172a" stroke="#fafaf8" stroke-width="3.5" paint-order="stroke">W9</text>
<text x="994.1" y="385.6" font-size="12" font-weight="700" text-anchor="middle" fill="#0f172a" stroke="#fafaf8" stroke-width="3.5" paint-order="stroke">W10</text>
<circle cx="743.3" cy="115.6" r="11" fill="none" stroke="#dc2626" stroke-width="1" opacity="0.5"/>
<circle cx="743.3" cy="115.6" r="3.8" fill="#dc2626" stroke="#7f1d1d" stroke-width="1.2"/>
<circle cx="743.3" cy="131.7" r="11" fill="none" stroke="#dc2626" stroke-width="1" opacity="0.5"/>
<circle cx="743.3" cy="131.7" r="3.8" fill="#dc2626" stroke="#7f1d1d" stroke-width="1.2"/>
<circle cx="743.3" cy="394.9" r="11" fill="none" stroke="#dc2626" stroke-width="1" opacity="0.5"/>
<circle cx="743.3" cy="394.9" r="3.8" fill="#dc2626" stroke="#7f1d1d" stroke-width="1.2"/>
<circle cx="684.2" cy="131.7" r="11" fill="none" stroke="#dc2626" stroke-width="1" opacity="0.5"/>
<circle cx="684.2" cy="131.7" r="3.8" fill="#dc2626" stroke="#7f1d1d" stroke-width="1.2"/>
<circle cx="726.8" cy="394.9" r="11" fill="none" stroke="#dc2626" stroke-width="1" opacity="0.5"/>
<circle cx="726.8" cy="394.9" r="3.8" fill="#dc2626" stroke="#7f1d1d" stroke-width="1.2"/>
<circle cx="736.1" cy="110.2" r="11" fill="none" stroke="#dc2626" stroke-width="1" opacity="0.5"/>
<circle cx="736.1" cy="110.2" r="3.8" fill="#dc2626" stroke="#7f1d1d" stroke-width="1.2"/>
<circle cx="733.2" cy="111.4" r="11" fill="none" stroke="#dc2626" stroke-width="1" opacity="0.5"/>
<circle cx="733.2" cy="111.4" r="3.8" fill="#dc2626" stroke="#7f1d1d" stroke-width="1.2"/>
<circle cx="736.1" cy="123.3" r="11" fill="none" stroke="#dc2626" stroke-width="1" opacity="0.5"/>
<circle cx="736.1" cy="123.3" r="3.8" fill="#dc2626" stroke="#7f1d1d" stroke-width="1.2"/>
<circle cx="736.1" cy="112.6" r="11" fill="none" stroke="#dc2626" stroke-width="1" opacity="0.5"/>
<circle cx="736.1" cy="112.6" r="3.8" fill="#dc2626" stroke="#7f1d1d" stroke-width="1.2"/>
<circle cx="93.9" cy="394.9" r="11" fill="none" stroke="#dc2626" stroke-width="1" opacity="0.5"/>
<circle cx="93.9" cy="394.9" r="3.8" fill="#dc2626" stroke="#7f1d1d" stroke-width="1.2"/>
<circle cx="93.9" cy="376.2" r="11" fill="none" stroke="#dc2626" stroke-width="1" opacity="0.5"/>
<circle cx="93.9" cy="376.2" r="3.8" fill="#dc2626" stroke="#7f1d1d" stroke-width="1.2"/>
<circle cx="505.6" cy="394.9" r="11" fill="none" stroke="#dc2626" stroke-width="1" opacity="0.5"/>
<circle cx="505.6" cy="394.9" r="3.8" fill="#dc2626" stroke="#7f1d1d" stroke-width="1.2"/>
<circle cx="505.6" cy="205.7" r="11" fill="none" stroke="#dc2626" stroke-width="1" opacity="0.5"/>
<circle cx="505.6" cy="205.7" r="3.8" fill="#dc2626" stroke="#7f1d1d" stroke-width="1.2"/>
<circle cx="277.9" cy="394.9" r="11" fill="none" stroke="#dc2626" stroke-width="1" opacity="0.5"/>
<circle cx="277.9" cy="394.9" r="3.8" fill="#dc2626" stroke="#7f1d1d" stroke-width="1.2"/>
<circle cx="277.9" cy="300.0" r="11" fill="none" stroke="#dc2626" stroke-width="1" opacity="0.5"/>
<circle cx="277.9" cy="300.0" r="3.8" fill="#dc2626" stroke="#7f1d1d" stroke-width="1.2"/>
<circle cx="715.4" cy="394.9" r="11" fill="none" stroke="#dc2626" stroke-width="1" opacity="0.5"/>
<circle cx="715.4" cy="394.9" r="3.8" fill="#dc2626" stroke="#7f1d1d" stroke-width="1.2"/>
<circle cx="522.1" cy="198.9" r="11" fill="none" stroke="#dc2626" stroke-width="1" opacity="0.5"/>
<circle cx="522.1" cy="198.9" r="3.8" fill="#dc2626" stroke="#7f1d1d" stroke-width="1.2"/>
<circle cx="487.7" cy="394.9" r="11" fill="none" stroke="#dc2626" stroke-width="1" opacity="0.5"/>
<circle cx="487.7" cy="394.9" r="3.8" fill="#dc2626" stroke="#7f1d1d" stroke-width="1.2"/>
<circle cx="294.4" cy="293.2" r="11" fill="none" stroke="#dc2626" stroke-width="1" opacity="0.5"/>
<circle cx="294.4" cy="293.2" r="3.8" fill="#dc2626" stroke="#7f1d1d" stroke-width="1.2"/>
<circle cx="736.1" cy="394.9" r="11" fill="none" stroke="#dc2626" stroke-width="1" opacity="0.5"/>
<circle cx="736.1" cy="394.9" r="3.8" fill="#dc2626" stroke="#7f1d1d" stroke-width="1.2"/>
<circle cx="704.6" cy="123.3" r="11" fill="none" stroke="#dc2626" stroke-width="1" opacity="0.5"/>
<circle cx="704.6" cy="123.3" r="3.8" fill="#dc2626" stroke="#7f1d1d" stroke-width="1.2"/>
<circle cx="48.9" cy="394.9" r="11" fill="none" stroke="#dc2626" stroke-width="1" opacity="0.5"/>
<circle cx="48.9" cy="394.9" r="3.8" fill="#dc2626" stroke="#7f1d1d" stroke-width="1.2"/>
<circle cx="1638.2" cy="117.5" r="31" fill="none" stroke="#16a34a" stroke-width="1.3" opacity="0.5"/>
<circle cx="1638.2" cy="117.5" r="4.2" fill="#16a34a" stroke="#14532d" stroke-width="1.4"/>
<text x="1672.2" y="121.5" font-size="10" fill="#14532d" font-weight="700">6→1</text>
<circle cx="1630.6" cy="394.9" r="23" fill="none" stroke="#16a34a" stroke-width="1.3" opacity="0.5"/>
<circle cx="1630.6" cy="394.9" r="4.2" fill="#16a34a" stroke="#14532d" stroke-width="1.4"/>
<text x="1656.6" y="398.9" font-size="10" fill="#14532d" font-weight="700">4→1</text>
<circle cx="1584.4" cy="131.7" r="11" fill="none" stroke="#16a34a" stroke-width="1.3" opacity="0.5"/>
<circle cx="1584.4" cy="131.7" r="4.2" fill="#16a34a" stroke="#14532d" stroke-width="1.4"/>
<circle cx="994.1" cy="394.9" r="11" fill="none" stroke="#16a34a" stroke-width="1.3" opacity="0.5"/>
<circle cx="994.1" cy="394.9" r="4.2" fill="#16a34a" stroke="#14532d" stroke-width="1.4"/>
<circle cx="994.1" cy="376.2" r="11" fill="none" stroke="#16a34a" stroke-width="1.3" opacity="0.5"/>
<circle cx="994.1" cy="376.2" r="4.2" fill="#16a34a" stroke="#14532d" stroke-width="1.4"/>
<circle cx="1405.7" cy="394.9" r="11" fill="none" stroke="#16a34a" stroke-width="1.3" opacity="0.5"/>
<circle cx="1405.7" cy="394.9" r="4.2" fill="#16a34a" stroke="#14532d" stroke-width="1.4"/>
<circle cx="1405.7" cy="205.7" r="11" fill="none" stroke="#16a34a" stroke-width="1.3" opacity="0.5"/>
<circle cx="1405.7" cy="205.7" r="4.2" fill="#16a34a" stroke="#14532d" stroke-width="1.4"/>
<circle cx="1178.1" cy="394.9" r="11" fill="none" stroke="#16a34a" stroke-width="1.3" opacity="0.5"/>
<circle cx="1178.1" cy="394.9" r="4.2" fill="#16a34a" stroke="#14532d" stroke-width="1.4"/>
<circle cx="1178.1" cy="300.0" r="11" fill="none" stroke="#16a34a" stroke-width="1.3" opacity="0.5"/>
<circle cx="1178.1" cy="300.0" r="4.2" fill="#16a34a" stroke="#14532d" stroke-width="1.4"/>
<circle cx="1422.3" cy="198.9" r="11" fill="none" stroke="#16a34a" stroke-width="1.3" opacity="0.5"/>
<circle cx="1422.3" cy="198.9" r="4.2" fill="#16a34a" stroke="#14532d" stroke-width="1.4"/>
<circle cx="1387.9" cy="394.9" r="11" fill="none" stroke="#16a34a" stroke-width="1.3" opacity="0.5"/>
<circle cx="1387.9" cy="394.9" r="4.2" fill="#16a34a" stroke="#14532d" stroke-width="1.4"/>
<circle cx="1194.6" cy="293.2" r="11" fill="none" stroke="#16a34a" stroke-width="1.3" opacity="0.5"/>
<circle cx="1194.6" cy="293.2" r="4.2" fill="#16a34a" stroke="#14532d" stroke-width="1.4"/>
<circle cx="1604.8" cy="123.3" r="11" fill="none" stroke="#16a34a" stroke-width="1.3" opacity="0.5"/>
<circle cx="1604.8" cy="123.3" r="4.2" fill="#16a34a" stroke="#14532d" stroke-width="1.4"/>
<circle cx="949.1" cy="394.9" r="11" fill="none" stroke="#16a34a" stroke-width="1.3" opacity="0.5"/>
<circle cx="949.1" cy="394.9" r="4.2" fill="#16a34a" stroke="#14532d" stroke-width="1.4"/>
<rect x="40" y="493" width="1620" height="42" fill="#f1f5f9" stroke="#cbd5e0" rx="3"/>
<text x="400" y="519" text-anchor="middle" font-size="13" fill="#7f1d1d" font-weight="700">22 bolts</text>
<text x="400" y="533" text-anchor="middle" font-size="11" fill="#7f1d1d">every centreline pair-crossing</text>
<text x="1300" y="519" text-anchor="middle" font-size="13" fill="#14532d" font-weight="700">14 bolts (36% fewer)</text>
<text x="1300" y="533" text-anchor="middle" font-size="11" fill="#14532d">"N→1" labels show how many crossings merged</text>
</svg>