<svg xmlns="http://www.w3.org/2000/svg" width="1700" height="1500" viewBox="0 0 1700 1500" font-family="Segoe UI, Arial, sans-serif">
<defs>
<pattern id="boxhatch" patternUnits="userSpaceOnUse" width="6" height="6" patternTransform="rotate(45)"><rect width="6" height="6" fill="#fef3c7"/><line x1="0" y1="0" x2="0" y2="6" stroke="#d97706" stroke-width="0.6"/></pattern>
</defs>
<rect width="1700" height="1500" fill="#f8fafc"/>
<text x="40" y="40" font-size="22" font-weight="700" fill="#1a202c">Dimple normalisation — FrameCAD ORIGINAL vs NORMALISED (rules: 15mm margin, 400mm max gap)</text>
<text x="40" y="62" font-size="14" fill="#dc2626" font-weight="600">RED row = ORIGINAL FrameCAD output (the BEFORE — these positions FAIL the 15mm/400mm rules)</text>
<text x="40" y="82" font-size="14" fill="#16a34a" font-weight="600">GREEN row = NORMALISED output (the AFTER — these are what get cut on the rollformer)</text>
<text x="40" y="152" font-size="14" font-weight="700" fill="#1a202c">#1 — Short box (300mm)</text>
<text x="40" y="170" font-size="11" fill="#4a5568">1-B1 (Box1)  ·  2 dimples → 2 dimples</text>
<rect x="150" y="210" width="1470" height="32" fill="url(#boxhatch)" stroke="#dc2626" stroke-width="2"/>
<text x="138" y="222.0" text-anchor="end" font-size="11" font-weight="700" fill="#7f1d1d">ORIGINAL</text>
<text x="138" y="236.0" text-anchor="end" font-size="9" fill="#7f1d1d">1-B1 (Box1)</text>
<text x="1632" y="230.0" font-size="10" fill="#4a5568">300mm</text>
<circle cx="199.0" cy="226.0" r="6.5" fill="#fee2e2" stroke="#dc2626" stroke-width="1.8"/>
<circle cx="199.0" cy="226.0" r="2.5" fill="#dc2626"/>
<circle cx="1571.0" cy="226.0" r="6.5" fill="#fee2e2" stroke="#dc2626" stroke-width="1.8"/>
<circle cx="1571.0" cy="226.0" r="2.5" fill="#dc2626"/>
<line x1="150" y1="248" x2="199.0" y2="248" stroke="#7f1d1d" stroke-width="1"/>
<line x1="150" y1="245" x2="150" y2="251" stroke="#7f1d1d" stroke-width="1"/>
<line x1="199.0" y1="245" x2="199.0" y2="251" stroke="#7f1d1d" stroke-width="1"/>
<text x="174.5" y="264" text-anchor="middle" font-size="11" font-weight="700" fill="#7f1d1d">10.0mm</text>
<text x="174.5" y="278" text-anchor="middle" font-size="9" font-weight="700" fill="#dc2626">FAIL (need >=15)</text>
<line x1="1571.0" y1="248" x2="1620" y2="248" stroke="#7f1d1d" stroke-width="1"/>
<line x1="1571.0" y1="245" x2="1571.0" y2="251" stroke="#7f1d1d" stroke-width="1"/>
<line x1="1620" y1="245" x2="1620" y2="251" stroke="#7f1d1d" stroke-width="1"/>
<text x="1595.5" y="264" text-anchor="middle" font-size="11" font-weight="700" fill="#7f1d1d">10.0mm</text>
<text x="1595.5" y="278" text-anchor="middle" font-size="9" font-weight="700" fill="#dc2626">FAIL</text>
<text x="885.0" y="204" text-anchor="middle" font-size="10" font-weight="700" fill="#7f1d1d">280mm</text>
<rect x="150" y="330" width="1470" height="32" fill="url(#boxhatch)" stroke="#16a34a" stroke-width="2"/>
<text x="138" y="342.0" text-anchor="end" font-size="11" font-weight="700" fill="#14532d">NORMALISED</text>
<text x="138" y="356.0" text-anchor="end" font-size="9" fill="#14532d">1-B1 (Box1)</text>
<text x="1632" y="350.0" font-size="10" fill="#4a5568">300mm</text>
<circle cx="223.5" cy="346.0" r="6.5" fill="#fbbf24" stroke="#92400e" stroke-width="1.8"/>
<circle cx="223.5" cy="346.0" r="2.5" fill="#92400e"/>
<circle cx="1546.5" cy="346.0" r="6.5" fill="#fbbf24" stroke="#92400e" stroke-width="1.8"/>
<circle cx="1546.5" cy="346.0" r="2.5" fill="#92400e"/>
<line x1="150" y1="368" x2="223.5" y2="368" stroke="#14532d" stroke-width="1"/>
<line x1="150" y1="365" x2="150" y2="371" stroke="#14532d" stroke-width="1"/>
<line x1="223.5" y1="365" x2="223.5" y2="371" stroke="#14532d" stroke-width="1"/>
<text x="186.75" y="384" text-anchor="middle" font-size="11" font-weight="700" fill="#14532d">15.0mm</text>
<text x="186.75" y="398" text-anchor="middle" font-size="9" font-weight="700" fill="#14532d">PASS</text>
<line x1="1546.5" y1="368" x2="1620" y2="368" stroke="#14532d" stroke-width="1"/>
<line x1="1546.5" y1="365" x2="1546.5" y2="371" stroke="#14532d" stroke-width="1"/>
<line x1="1620" y1="365" x2="1620" y2="371" stroke="#14532d" stroke-width="1"/>
<text x="1583.25" y="384" text-anchor="middle" font-size="11" font-weight="700" fill="#14532d">15.0mm</text>
<text x="1583.25" y="398" text-anchor="middle" font-size="9" font-weight="700" fill="#14532d">PASS</text>
<text x="885.0" y="324" text-anchor="middle" font-size="10" font-weight="700" fill="#14532d">270mm</text>
<text x="40" y="462.0" font-size="14" font-weight="700" fill="#1a202c">#2 — Medium box (738mm) — needed +1 dimple</text>
<text x="40" y="480.0" font-size="11" fill="#4a5568">1-B1 (Box1)  ·  2 dimples → 3 dimples</text>
<rect x="150" y="520.0" width="1470" height="32" fill="url(#boxhatch)" stroke="#dc2626" stroke-width="2"/>
<text x="138" y="532.0" text-anchor="end" font-size="11" font-weight="700" fill="#7f1d1d">ORIGINAL</text>
<text x="138" y="546.0" text-anchor="end" font-size="9" fill="#7f1d1d">1-B1 (Box1)</text>
<text x="1632" y="540.0" font-size="10" fill="#4a5568">738mm</text>
<circle cx="169.923018540605" cy="536.0" r="6.5" fill="#fee2e2" stroke="#dc2626" stroke-width="1.8"/>
<circle cx="169.923018540605" cy="536.0" r="2.5" fill="#dc2626"/>
<circle cx="1600.076981459395" cy="536.0" r="6.5" fill="#fee2e2" stroke="#dc2626" stroke-width="1.8"/>
<circle cx="1600.076981459395" cy="536.0" r="2.5" fill="#dc2626"/>
<line x1="150" y1="558.0" x2="169.923018540605" y2="558.0" stroke="#7f1d1d" stroke-width="1"/>
<line x1="150" y1="555.0" x2="150" y2="561.0" stroke="#7f1d1d" stroke-width="1"/>
<line x1="169.923018540605" y1="555.0" x2="169.923018540605" y2="561.0" stroke="#7f1d1d" stroke-width="1"/>
<text x="159.96150927030249" y="574.0" text-anchor="middle" font-size="11" font-weight="700" fill="#7f1d1d">10.0mm</text>
<text x="159.96150927030249" y="588.0" text-anchor="middle" font-size="9" font-weight="700" fill="#dc2626">FAIL (need >=15)</text>
<line x1="1600.076981459395" y1="558.0" x2="1620" y2="558.0" stroke="#7f1d1d" stroke-width="1"/>
<line x1="1600.076981459395" y1="555.0" x2="1600.076981459395" y2="561.0" stroke="#7f1d1d" stroke-width="1"/>
<line x1="1620" y1="555.0" x2="1620" y2="561.0" stroke="#7f1d1d" stroke-width="1"/>
<text x="1610.0384907296975" y="574.0" text-anchor="middle" font-size="11" font-weight="700" fill="#7f1d1d">10.0mm</text>
<text x="1610.0384907296975" y="588.0" text-anchor="middle" font-size="9" font-weight="700" fill="#dc2626">FAIL</text>
<text x="885.0" y="514.0" text-anchor="middle" font-size="10" font-weight="700" fill="#dc2626">718mm</text>
<text x="885.0" y="502.0" text-anchor="middle" font-size="9" font-weight="700" fill="#dc2626">FAIL (>400)</text>
<rect x="150" y="640.0" width="1470" height="32" fill="url(#boxhatch)" stroke="#16a34a" stroke-width="2"/>
<text x="138" y="652.0" text-anchor="end" font-size="11" font-weight="700" fill="#14532d">NORMALISED</text>
<text x="138" y="666.0" text-anchor="end" font-size="9" fill="#14532d">1-B1 (Box1)</text>
<text x="1632" y="660.0" font-size="10" fill="#4a5568">738mm</text>
<circle cx="179.8845278109075" cy="656.0" r="6.5" fill="#fbbf24" stroke="#92400e" stroke-width="1.8"/>
<circle cx="179.8845278109075" cy="656.0" r="2.5" fill="#92400e"/>
<circle cx="885.0" cy="656.0" r="6.5" fill="#fbbf24" stroke="#92400e" stroke-width="1.8"/>
<circle cx="885.0" cy="656.0" r="2.5" fill="#92400e"/>
<circle cx="1590.1154721890925" cy="656.0" r="6.5" fill="#fbbf24" stroke="#92400e" stroke-width="1.8"/>
<circle cx="1590.1154721890925" cy="656.0" r="2.5" fill="#92400e"/>
<line x1="150" y1="678.0" x2="179.8845278109075" y2="678.0" stroke="#14532d" stroke-width="1"/>
<line x1="150" y1="675.0" x2="150" y2="681.0" stroke="#14532d" stroke-width="1"/>
<line x1="179.8845278109075" y1="675.0" x2="179.8845278109075" y2="681.0" stroke="#14532d" stroke-width="1"/>
<text x="164.94226390545376" y="694.0" text-anchor="middle" font-size="11" font-weight="700" fill="#14532d">15.0mm</text>
<text x="164.94226390545376" y="708.0" text-anchor="middle" font-size="9" font-weight="700" fill="#14532d">PASS</text>
<line x1="1590.1154721890925" y1="678.0" x2="1620" y2="678.0" stroke="#14532d" stroke-width="1"/>
<line x1="1590.1154721890925" y1="675.0" x2="1590.1154721890925" y2="681.0" stroke="#14532d" stroke-width="1"/>
<line x1="1620" y1="675.0" x2="1620" y2="681.0" stroke="#14532d" stroke-width="1"/>
<text x="1605.0577360945463" y="694.0" text-anchor="middle" font-size="11" font-weight="700" fill="#14532d">15.0mm</text>
<text x="1605.0577360945463" y="708.0" text-anchor="middle" font-size="9" font-weight="700" fill="#14532d">PASS</text>
<text x="532.4422639054537" y="634.0" text-anchor="middle" font-size="10" font-weight="700" fill="#14532d">354mm</text>
<text x="1237.5577360945463" y="634.0" text-anchor="middle" font-size="10" font-weight="700" fill="#14532d">354mm</text>
<text x="40" y="772.0" font-size="14" font-weight="700" fill="#1a202c">#3 — Long top-chord box (1182mm) — needed +2 dimples</text>
<text x="40" y="790.0" font-size="11" fill="#4a5568">1-T5 (Box1)  ·  2 dimples → 4 dimples</text>
<rect x="150" y="830.0" width="1470" height="32" fill="url(#boxhatch)" stroke="#dc2626" stroke-width="2"/>
<text x="138" y="842.0" text-anchor="end" font-size="11" font-weight="700" fill="#7f1d1d">ORIGINAL</text>
<text x="138" y="856.0" text-anchor="end" font-size="9" fill="#7f1d1d">1-T5 (Box1)</text>
<text x="1632" y="850.0" font-size="10" fill="#4a5568">1182mm</text>
<circle cx="162.4369691021693" cy="846.0" r="6.5" fill="#fee2e2" stroke="#dc2626" stroke-width="1.8"/>
<circle cx="162.4369691021693" cy="846.0" r="2.5" fill="#dc2626"/>
<circle cx="1607.5630308978307" cy="846.0" r="6.5" fill="#fee2e2" stroke="#dc2626" stroke-width="1.8"/>
<circle cx="1607.5630308978307" cy="846.0" r="2.5" fill="#dc2626"/>
<line x1="150" y1="868.0" x2="162.4369691021693" y2="868.0" stroke="#7f1d1d" stroke-width="1"/>
<line x1="150" y1="865.0" x2="150" y2="871.0" stroke="#7f1d1d" stroke-width="1"/>
<line x1="162.4369691021693" y1="865.0" x2="162.4369691021693" y2="871.0" stroke="#7f1d1d" stroke-width="1"/>
<text x="156.21848455108466" y="884.0" text-anchor="middle" font-size="11" font-weight="700" fill="#7f1d1d">10.0mm</text>
<text x="156.21848455108466" y="898.0" text-anchor="middle" font-size="9" font-weight="700" fill="#dc2626">FAIL (need >=15)</text>
<line x1="1607.5630308978307" y1="868.0" x2="1620" y2="868.0" stroke="#7f1d1d" stroke-width="1"/>
<line x1="1607.5630308978307" y1="865.0" x2="1607.5630308978307" y2="871.0" stroke="#7f1d1d" stroke-width="1"/>
<line x1="1620" y1="865.0" x2="1620" y2="871.0" stroke="#7f1d1d" stroke-width="1"/>
<text x="1613.7815154489153" y="884.0" text-anchor="middle" font-size="11" font-weight="700" fill="#7f1d1d">10.0mm</text>
<text x="1613.7815154489153" y="898.0" text-anchor="middle" font-size="9" font-weight="700" fill="#dc2626">FAIL</text>
<text x="885.0" y="824.0" text-anchor="middle" font-size="10" font-weight="700" fill="#dc2626">1162mm</text>
<text x="885.0" y="812.0" text-anchor="middle" font-size="9" font-weight="700" fill="#dc2626">FAIL (>400)</text>
<rect x="150" y="950.0" width="1470" height="32" fill="url(#boxhatch)" stroke="#16a34a" stroke-width="2"/>
<text x="138" y="962.0" text-anchor="end" font-size="11" font-weight="700" fill="#14532d">NORMALISED</text>
<text x="138" y="976.0" text-anchor="end" font-size="9" fill="#14532d">1-T5 (Box1)</text>
<text x="1632" y="970.0" font-size="10" fill="#4a5568">1182mm</text>
<circle cx="168.65545365325391" cy="966.0" r="6.5" fill="#fbbf24" stroke="#92400e" stroke-width="1.8"/>
<circle cx="168.65545365325391" cy="966.0" r="2.5" fill="#92400e"/>
<circle cx="646.2226302074521" cy="966.0" r="6.5" fill="#fbbf24" stroke="#92400e" stroke-width="1.8"/>
<circle cx="646.2226302074521" cy="966.0" r="2.5" fill="#92400e"/>
<circle cx="1123.777369792548" cy="966.0" r="6.5" fill="#fbbf24" stroke="#92400e" stroke-width="1.8"/>
<circle cx="1123.777369792548" cy="966.0" r="2.5" fill="#92400e"/>
<circle cx="1601.344546346746" cy="966.0" r="6.5" fill="#fbbf24" stroke="#92400e" stroke-width="1.8"/>
<circle cx="1601.344546346746" cy="966.0" r="2.5" fill="#92400e"/>
<line x1="150" y1="988.0" x2="168.65545365325391" y2="988.0" stroke="#14532d" stroke-width="1"/>
<line x1="150" y1="985.0" x2="150" y2="991.0" stroke="#14532d" stroke-width="1"/>
<line x1="168.65545365325391" y1="985.0" x2="168.65545365325391" y2="991.0" stroke="#14532d" stroke-width="1"/>
<text x="159.32772682662696" y="1004.0" text-anchor="middle" font-size="11" font-weight="700" fill="#14532d">15.0mm</text>
<text x="159.32772682662696" y="1018.0" text-anchor="middle" font-size="9" font-weight="700" fill="#14532d">PASS</text>
<line x1="1601.344546346746" y1="988.0" x2="1620" y2="988.0" stroke="#14532d" stroke-width="1"/>
<line x1="1601.344546346746" y1="985.0" x2="1601.344546346746" y2="991.0" stroke="#14532d" stroke-width="1"/>
<line x1="1620" y1="985.0" x2="1620" y2="991.0" stroke="#14532d" stroke-width="1"/>
<text x="1610.672273173373" y="1004.0" text-anchor="middle" font-size="11" font-weight="700" fill="#14532d">15.0mm</text>
<text x="1610.672273173373" y="1018.0" text-anchor="middle" font-size="9" font-weight="700" fill="#14532d">PASS</text>
<text x="407.43904193035297" y="944.0" text-anchor="middle" font-size="10" font-weight="700" fill="#14532d">384mm</text>
<text x="885.0" y="944.0" text-anchor="middle" font-size="10" font-weight="700" fill="#14532d">384mm</text>
<text x="1362.560958069647" y="944.0" text-anchor="middle" font-size="10" font-weight="700" fill="#14532d">384mm</text>
<text x="40" y="1082.0" font-size="14" font-weight="700" fill="#1a202c">#4 — Longest box (1967mm) — needed +3 dimples</text>
<text x="40" y="1100.0" font-size="11" fill="#4a5568">1-B1 (Box1)  ·  3 dimples → 6 dimples</text>
<rect x="150" y="1140.0" width="1470" height="32" fill="url(#boxhatch)" stroke="#dc2626" stroke-width="2"/>
<text x="138" y="1152.0" text-anchor="end" font-size="11" font-weight="700" fill="#7f1d1d">ORIGINAL</text>
<text x="138" y="1166.0" text-anchor="end" font-size="9" fill="#7f1d1d">1-B1 (Box1)</text>
<text x="1632" y="1160.0" font-size="10" fill="#4a5568">1967mm</text>
<circle cx="157.4747156302914" cy="1156.0" r="6.5" fill="#fee2e2" stroke="#dc2626" stroke-width="1.8"/>
<circle cx="157.4747156302914" cy="1156.0" r="2.5" fill="#dc2626"/>
<circle cx="884.9962626421848" cy="1156.0" r="6.5" fill="#fee2e2" stroke="#dc2626" stroke-width="1.8"/>
<circle cx="884.9962626421848" cy="1156.0" r="2.5" fill="#dc2626"/>
<circle cx="1612.5252843697087" cy="1156.0" r="6.5" fill="#fee2e2" stroke="#dc2626" stroke-width="1.8"/>
<circle cx="1612.5252843697087" cy="1156.0" r="2.5" fill="#dc2626"/>
<line x1="150" y1="1178.0" x2="157.4747156302914" y2="1178.0" stroke="#7f1d1d" stroke-width="1"/>
<line x1="150" y1="1175.0" x2="150" y2="1181.0" stroke="#7f1d1d" stroke-width="1"/>
<line x1="157.4747156302914" y1="1175.0" x2="157.4747156302914" y2="1181.0" stroke="#7f1d1d" stroke-width="1"/>
<text x="153.73735781514569" y="1194.0" text-anchor="middle" font-size="11" font-weight="700" fill="#7f1d1d">10.0mm</text>
<text x="153.73735781514569" y="1208.0" text-anchor="middle" font-size="9" font-weight="700" fill="#dc2626">FAIL (need >=15)</text>
<line x1="1612.5252843697087" y1="1178.0" x2="1620" y2="1178.0" stroke="#7f1d1d" stroke-width="1"/>
<line x1="1612.5252843697087" y1="1175.0" x2="1612.5252843697087" y2="1181.0" stroke="#7f1d1d" stroke-width="1"/>
<line x1="1620" y1="1175.0" x2="1620" y2="1181.0" stroke="#7f1d1d" stroke-width="1"/>
<text x="1616.2626421848545" y="1194.0" text-anchor="middle" font-size="11" font-weight="700" fill="#7f1d1d">10.0mm</text>
<text x="1616.2626421848545" y="1208.0" text-anchor="middle" font-size="9" font-weight="700" fill="#dc2626">FAIL</text>
<text x="521.2354891362381" y="1134.0" text-anchor="middle" font-size="10" font-weight="700" fill="#dc2626">973mm</text>
<text x="521.2354891362381" y="1122.0" text-anchor="middle" font-size="9" font-weight="700" fill="#dc2626">FAIL (>400)</text>
<text x="1248.7607735059466" y="1134.0" text-anchor="middle" font-size="10" font-weight="700" fill="#dc2626">973mm</text>
<text x="1248.7607735059466" y="1122.0" text-anchor="middle" font-size="9" font-weight="700" fill="#dc2626">FAIL (>400)</text>
<rect x="150" y="1260.0" width="1470" height="32" fill="url(#boxhatch)" stroke="#16a34a" stroke-width="2"/>
<text x="138" y="1272.0" text-anchor="end" font-size="11" font-weight="700" fill="#14532d">NORMALISED</text>
<text x="138" y="1286.0" text-anchor="end" font-size="9" fill="#14532d">1-B1 (Box1)</text>
<text x="1632" y="1280.0" font-size="10" fill="#4a5568">1967mm</text>
<circle cx="161.2120734454371" cy="1276.0" r="6.5" fill="#fbbf24" stroke="#92400e" stroke-width="1.8"/>
<circle cx="161.2120734454371" cy="1276.0" r="2.5" fill="#92400e"/>
<circle cx="450.73023395351436" cy="1276.0" r="6.5" fill="#fbbf24" stroke="#92400e" stroke-width="1.8"/>
<circle cx="450.73023395351436" cy="1276.0" r="2.5" fill="#92400e"/>
<circle cx="740.2409197459614" cy="1276.0" r="6.5" fill="#fbbf24" stroke="#92400e" stroke-width="1.8"/>
<circle cx="740.2409197459614" cy="1276.0" r="2.5" fill="#92400e"/>
<circle cx="1029.7590802540385" cy="1276.0" r="6.5" fill="#fbbf24" stroke="#92400e" stroke-width="1.8"/>
<circle cx="1029.7590802540385" cy="1276.0" r="2.5" fill="#92400e"/>
<circle cx="1319.2697660464855" cy="1276.0" r="6.5" fill="#fbbf24" stroke="#92400e" stroke-width="1.8"/>
<circle cx="1319.2697660464855" cy="1276.0" r="2.5" fill="#92400e"/>
<circle cx="1608.787926554563" cy="1276.0" r="6.5" fill="#fbbf24" stroke="#92400e" stroke-width="1.8"/>
<circle cx="1608.787926554563" cy="1276.0" r="2.5" fill="#92400e"/>
<line x1="150" y1="1298.0" x2="161.2120734454371" y2="1298.0" stroke="#14532d" stroke-width="1"/>
<line x1="150" y1="1295.0" x2="150" y2="1301.0" stroke="#14532d" stroke-width="1"/>
<line x1="161.2120734454371" y1="1295.0" x2="161.2120734454371" y2="1301.0" stroke="#14532d" stroke-width="1"/>
<text x="155.60603672271856" y="1314.0" text-anchor="middle" font-size="11" font-weight="700" fill="#14532d">15.0mm</text>
<text x="155.60603672271856" y="1328.0" text-anchor="middle" font-size="9" font-weight="700" fill="#14532d">PASS</text>
<line x1="1608.787926554563" y1="1298.0" x2="1620" y2="1298.0" stroke="#14532d" stroke-width="1"/>
<line x1="1608.787926554563" y1="1295.0" x2="1608.787926554563" y2="1301.0" stroke="#14532d" stroke-width="1"/>
<line x1="1620" y1="1295.0" x2="1620" y2="1301.0" stroke="#14532d" stroke-width="1"/>
<text x="1614.3939632772815" y="1314.0" text-anchor="middle" font-size="11" font-weight="700" fill="#14532d">15.0mm</text>
<text x="1614.3939632772815" y="1328.0" text-anchor="middle" font-size="9" font-weight="700" fill="#14532d">PASS</text>
<text x="305.97115369947574" y="1254.0" text-anchor="middle" font-size="10" font-weight="700" fill="#14532d">387mm</text>
<text x="595.4855768497379" y="1254.0" text-anchor="middle" font-size="10" font-weight="700" fill="#14532d">387mm</text>
<text x="885.0" y="1254.0" text-anchor="middle" font-size="10" font-weight="700" fill="#14532d">387mm</text>
<text x="1174.514423150262" y="1254.0" text-anchor="middle" font-size="10" font-weight="700" fill="#14532d">387mm</text>
<text x="1464.0288463005243" y="1254.0" text-anchor="middle" font-size="10" font-weight="700" fill="#14532d">387mm</text>
<rect x="40" y="1440" width="1620" height="42" fill="#f0fdf4" stroke="#16a34a" rx="3"/>
<text x="55" y="1460" font-size="13" fill="#14532d"><tspan font-weight="700">Result:</tspan> all 10 Box pieces in this job normalised. Every margin is now exactly 15mm. Every gap is &lt;= 400mm.</text>
<text x="55" y="1478" font-size="11" fill="#14532d">The GREEN dimples are what gets punched. The RED row is shown for comparison only — those positions are no longer in the simplified RFY.</text>
</svg>