<svg xmlns="http://www.w3.org/2000/svg" width="1700" height="1200" viewBox="0 0 1700 1200" font-family="Segoe UI, Arial, sans-serif">
<rect width="1700" height="1200" fill="#f8fafc"/>
<text x="20" y="32" font-size="20" font-weight="800" fill="#1a202c">HYTEK Linear Truss — full-truss simplifier diff (ENGINEERING REVIEW)</text>
<text x="20" y="54" font-size="13" fill="#4a5568">Job <tspan font-weight="700">2603191 ROCKVILLE TH-TYPE-A1-LT</tspan> · plan <tspan font-weight="700">GF-LIN-89.075</tspan> · truss <tspan font-weight="700">TN2-1</tspan> · profile 89×41 lipped C 0.75mm AZ150</text>
<text x="20" y="74" font-size="12" fill="#1f2937">Legend: <tspan fill="#1e40af" font-weight="700">━━ chord</tspan>  <tspan fill="#475569" font-weight="700">━━ web</tspan>  <tspan fill="#fbbf24" font-weight="700">┅┅ Box piece</tspan>  <tspan fill="#dc2626" font-weight="700">● bolt hole (orig)</tspan>  <tspan fill="#2563eb" font-weight="700">● bolt hole (simp)</tspan>  <tspan fill="#d97706" font-weight="700">◆ dimple (orig)</tspan>  <tspan fill="#16a34a" font-weight="700">◆ dimple (simp)</tspan>  <tspan fill="#a78bfa" font-weight="700">· notch</tspan>  <tspan fill="#94a3b8" font-weight="700">· swage</tspan></text>
<rect x="20" y="100" width="1660" height="503" fill="#fef2f2" stroke="#dc2626" stroke-width="2.5"/>
<rect x="20" y="100" width="1660" height="50" fill="#dc2626"/>
<text x="850.0" y="126" text-anchor="middle" font-size="18" font-weight="700" fill="white">FrameCAD ORIGINAL</text>
<text x="850.0" y="144" text-anchor="middle" font-size="11" fill="white" opacity="0.95">offset-based BOLT HOLES — produced by FrameCAD Structure (BEFORE simplification)</text>
<line x1="386.4" y1="573.0" x2="386.4" y2="182.1" stroke="#475569" stroke-width="3.5" stroke-linecap="round"/>
<line x1="377.8" y1="565.0" x2="1322.2" y2="565.0" stroke="#1e40af" stroke-width="5" stroke-linecap="round"/>
<line x1="377.8" y1="209.7" x2="467.9" y2="209.7" stroke="#475569" stroke-width="3.5" stroke-linecap="round"/>
<line x1="381.1" y1="190.0" x2="405.3" y2="180.0" stroke="#1e40af" stroke-width="5" stroke-linecap="round"/>
<line x1="394.5" y1="180.0" x2="1318.9" y2="562.9" stroke="#1e40af" stroke-width="5" stroke-linecap="round"/>
<line x1="404.1" y1="569.3" x2="688.9" y2="296.4" stroke="#475569" stroke-width="3.5" stroke-linecap="round"/>
<line x1="707.3" y1="570.8" x2="707.3" y2="303.8" stroke="#475569" stroke-width="3.5" stroke-linecap="round"/>
<line x1="726.3" y1="567.7" x2="997.6" y2="425.0" stroke="#475569" stroke-width="3.5" stroke-linecap="round"/>
<line x1="1014.8" y1="570.8" x2="1014.8" y2="431.1" stroke="#475569" stroke-width="3.5" stroke-linecap="round"/>
<line x1="1263.2" y1="570.8" x2="1263.2" y2="534.0" stroke="#475569" stroke-width="3.5" stroke-linecap="round"/>
<circle cx="386.4" cy="561.7" r="2.6" fill="#dc2626" stroke="white" stroke-width="0.5"/>
<circle cx="386.4" cy="558.1" r="2.6" fill="#dc2626" stroke="white" stroke-width="0.5"/>
<circle cx="386.4" cy="216.5" r="2.6" fill="#dc2626" stroke="white" stroke-width="0.5"/>
<circle cx="386.4" cy="212.9" r="2.6" fill="#dc2626" stroke="white" stroke-width="0.5"/>
<circle cx="386.4" cy="202.8" r="2.6" fill="#dc2626" stroke="white" stroke-width="0.5"/>
<circle cx="386.4" cy="193.9" r="2.6" fill="#dc2626" stroke="white" stroke-width="0.5"/>
<circle cx="386.4" cy="191.4" r="2.6" fill="#dc2626" stroke="white" stroke-width="0.5"/>
<circle cx="386.4" cy="567.7" r="0.9" fill="#94a3b8" opacity="0.5"/>
<circle cx="386.4" cy="557.0" r="0.9" fill="#94a3b8" opacity="0.5"/>
<circle cx="386.4" cy="553.0" r="0.9" fill="#94a3b8" opacity="0.5"/>
<circle cx="386.4" cy="221.7" r="0.9" fill="#94a3b8" opacity="0.5"/>
<circle cx="386.4" cy="211.0" r="0.9" fill="#94a3b8" opacity="0.5"/>
<circle cx="386.4" cy="200.4" r="0.9" fill="#94a3b8" opacity="0.5"/>
<circle cx="386.4" cy="189.7" r="0.9" fill="#94a3b8" opacity="0.5"/>
<circle cx="386.4" cy="187.4" r="0.9" fill="#94a3b8" opacity="0.5"/>
<circle cx="386.4" cy="565.0" r="2.6" fill="#dc2626" stroke="white" stroke-width="0.5"/>
<circle cx="412.0" cy="565.0" r="2.6" fill="#dc2626" stroke="white" stroke-width="0.5"/>
<circle cx="707.3" cy="565.0" r="2.6" fill="#dc2626" stroke="white" stroke-width="0.5"/>
<circle cx="737.7" cy="565.0" r="2.6" fill="#dc2626" stroke="white" stroke-width="0.5"/>
<circle cx="1014.8" cy="565.0" r="2.6" fill="#dc2626" stroke="white" stroke-width="0.5"/>
<circle cx="1263.2" cy="565.0" r="2.6" fill="#dc2626" stroke="white" stroke-width="0.5"/>
<circle cx="1307.4" cy="565.0" r="2.6" fill="#dc2626" stroke="white" stroke-width="0.5"/>
<circle cx="386.4" cy="209.7" r="2.6" fill="#dc2626" stroke="white" stroke-width="0.5"/>
<circle cx="440.2" cy="209.7" r="2.6" fill="#dc2626" stroke="white" stroke-width="0.5"/>
<circle cx="449.6" cy="209.7" r="2.6" fill="#dc2626" stroke="white" stroke-width="0.5"/>
<circle cx="456.1" cy="209.7" r="2.6" fill="#dc2626" stroke="white" stroke-width="0.5"/>
<circle cx="426.5" cy="209.7" r="1.2" fill="#a78bfa" opacity="0.55"/>
<circle cx="435.8" cy="209.7" r="1.2" fill="#a78bfa" opacity="0.55"/>
<circle cx="445.1" cy="209.7" r="1.2" fill="#a78bfa" opacity="0.55"/>
<circle cx="454.3" cy="209.7" r="1.2" fill="#a78bfa" opacity="0.55"/>
<circle cx="463.2" cy="209.7" r="1.2" fill="#a78bfa" opacity="0.55"/>
<circle cx="463.2" cy="209.7" r="1.2" fill="#a78bfa" opacity="0.55"/>
<circle cx="385.1" cy="188.3" r="2.6" fill="#dc2626" stroke="white" stroke-width="0.5"/>
<circle cx="398.6" cy="182.7" r="2.6" fill="#dc2626" stroke="white" stroke-width="0.5"/>
<circle cx="401.2" cy="182.7" r="2.6" fill="#dc2626" stroke="white" stroke-width="0.5"/>
<circle cx="450.9" cy="203.3" r="2.6" fill="#dc2626" stroke="white" stroke-width="0.5"/>
<circle cx="683.5" cy="299.7" r="2.6" fill="#dc2626" stroke="white" stroke-width="0.5"/>
<circle cx="708.6" cy="310.1" r="2.6" fill="#dc2626" stroke="white" stroke-width="0.5"/>
<circle cx="989.9" cy="426.6" r="2.6" fill="#dc2626" stroke="white" stroke-width="0.5"/>
<circle cx="1016.0" cy="437.4" r="2.6" fill="#dc2626" stroke="white" stroke-width="0.5"/>
<circle cx="1264.4" cy="540.3" r="2.6" fill="#dc2626" stroke="white" stroke-width="0.5"/>
<circle cx="1300.0" cy="555.1" r="2.6" fill="#dc2626" stroke="white" stroke-width="0.5"/>
<circle cx="1308.6" cy="558.6" r="2.6" fill="#dc2626" stroke="white" stroke-width="0.5"/>
<circle cx="1314.7" cy="561.1" r="2.6" fill="#dc2626" stroke="white" stroke-width="0.5"/>
<circle cx="398.8" cy="181.8" r="1.2" fill="#a78bfa" opacity="0.55"/>
<circle cx="399.5" cy="182.1" r="1.2" fill="#a78bfa" opacity="0.55"/>
<circle cx="1287.3" cy="549.8" r="1.2" fill="#a78bfa" opacity="0.55"/>
<circle cx="1295.9" cy="553.3" r="1.2" fill="#a78bfa" opacity="0.55"/>
<circle cx="1304.4" cy="556.9" r="1.2" fill="#a78bfa" opacity="0.55"/>
<circle cx="1313.0" cy="560.5" r="1.2" fill="#a78bfa" opacity="0.55"/>
<circle cx="1314.6" cy="561.1" r="1.2" fill="#a78bfa" opacity="0.55"/>
<circle cx="1314.6" cy="561.1" r="1.2" fill="#a78bfa" opacity="0.55"/>
<circle cx="412.0" cy="561.7" r="2.6" fill="#dc2626" stroke="white" stroke-width="0.5"/>
<circle cx="418.2" cy="555.7" r="2.6" fill="#dc2626" stroke="white" stroke-width="0.5"/>
<circle cx="678.4" cy="306.5" r="2.6" fill="#dc2626" stroke="white" stroke-width="0.5"/>
<circle cx="680.5" cy="304.5" r="2.6" fill="#dc2626" stroke="white" stroke-width="0.5"/>
<circle cx="682.3" cy="302.7" r="2.6" fill="#dc2626" stroke="white" stroke-width="0.5"/>
<circle cx="409.6" cy="564.0" r="1.2" fill="#a78bfa" opacity="0.55"/>
<circle cx="683.3" cy="301.8" r="1.2" fill="#a78bfa" opacity="0.55"/>
<circle cx="407.9" cy="565.6" r="0.9" fill="#94a3b8" opacity="0.5"/>
<circle cx="415.6" cy="558.2" r="0.9" fill="#94a3b8" opacity="0.5"/>
<circle cx="423.3" cy="550.9" r="0.9" fill="#94a3b8" opacity="0.5"/>
<circle cx="426.5" cy="547.8" r="0.9" fill="#94a3b8" opacity="0.5"/>
<circle cx="672.9" cy="311.7" r="0.9" fill="#94a3b8" opacity="0.5"/>
<circle cx="680.6" cy="304.4" r="0.9" fill="#94a3b8" opacity="0.5"/>
<circle cx="685.1" cy="300.0" r="0.9" fill="#94a3b8" opacity="0.5"/>
<circle cx="707.3" cy="561.7" r="2.6" fill="#dc2626" stroke="white" stroke-width="0.5"/>
<circle cx="707.3" cy="558.1" r="2.6" fill="#dc2626" stroke="white" stroke-width="0.5"/>
<circle cx="707.3" cy="318.4" r="2.6" fill="#dc2626" stroke="white" stroke-width="0.5"/>
<circle cx="707.3" cy="315.6" r="2.6" fill="#dc2626" stroke="white" stroke-width="0.5"/>
<circle cx="707.3" cy="313.1" r="2.6" fill="#dc2626" stroke="white" stroke-width="0.5"/>
<circle cx="707.3" cy="311.9" r="1.2" fill="#a78bfa" opacity="0.55"/>
<circle cx="707.3" cy="565.4" r="0.9" fill="#94a3b8" opacity="0.5"/>
<circle cx="707.3" cy="554.8" r="0.9" fill="#94a3b8" opacity="0.5"/>
<circle cx="707.3" cy="553.0" r="0.9" fill="#94a3b8" opacity="0.5"/>
<circle cx="707.3" cy="325.8" r="0.9" fill="#94a3b8" opacity="0.5"/>
<circle cx="707.3" cy="315.2" r="0.9" fill="#94a3b8" opacity="0.5"/>
<circle cx="707.3" cy="309.1" r="0.9" fill="#94a3b8" opacity="0.5"/>
<circle cx="737.7" cy="561.7" r="2.6" fill="#dc2626" stroke="white" stroke-width="0.5"/>
<circle cx="750.1" cy="555.2" r="2.6" fill="#dc2626" stroke="white" stroke-width="0.5"/>
<circle cx="982.1" cy="433.1" r="2.6" fill="#dc2626" stroke="white" stroke-width="0.5"/>
<circle cx="987.0" cy="430.6" r="2.6" fill="#dc2626" stroke="white" stroke-width="0.5"/>
<circle cx="988.7" cy="429.7" r="2.6" fill="#dc2626" stroke="white" stroke-width="0.5"/>
<circle cx="733.2" cy="564.0" r="1.2" fill="#a78bfa" opacity="0.55"/>
<circle cx="991.1" cy="428.4" r="1.2" fill="#a78bfa" opacity="0.55"/>
<circle cx="731.0" cy="565.2" r="0.9" fill="#94a3b8" opacity="0.5"/>
<circle cx="740.4" cy="560.2" r="0.9" fill="#94a3b8" opacity="0.5"/>
<circle cx="749.9" cy="555.3" r="0.9" fill="#94a3b8" opacity="0.5"/>
<circle cx="759.3" cy="550.3" r="0.9" fill="#94a3b8" opacity="0.5"/>
<circle cx="765.3" cy="547.2" r="0.9" fill="#94a3b8" opacity="0.5"/>
<circle cx="973.2" cy="437.8" r="0.9" fill="#94a3b8" opacity="0.5"/>
<circle cx="982.6" cy="432.8" r="0.9" fill="#94a3b8" opacity="0.5"/>
<circle cx="992.1" cy="427.9" r="0.9" fill="#94a3b8" opacity="0.5"/>
<circle cx="992.9" cy="427.4" r="0.9" fill="#94a3b8" opacity="0.5"/>
<circle cx="1014.8" cy="561.7" r="2.6" fill="#dc2626" stroke="white" stroke-width="0.5"/>
<circle cx="1014.8" cy="558.1" r="2.6" fill="#dc2626" stroke="white" stroke-width="0.5"/>
<circle cx="1014.8" cy="445.7" r="2.6" fill="#dc2626" stroke="white" stroke-width="0.5"/>
<circle cx="1014.8" cy="443.0" r="2.6" fill="#dc2626" stroke="white" stroke-width="0.5"/>
<circle cx="1014.8" cy="440.5" r="2.6" fill="#dc2626" stroke="white" stroke-width="0.5"/>
<circle cx="1014.8" cy="439.2" r="1.2" fill="#a78bfa" opacity="0.55"/>
<circle cx="1014.8" cy="565.4" r="0.9" fill="#94a3b8" opacity="0.5"/>
<circle cx="1014.8" cy="554.8" r="0.9" fill="#94a3b8" opacity="0.5"/>
<circle cx="1014.8" cy="553.0" r="0.9" fill="#94a3b8" opacity="0.5"/>
<circle cx="1014.8" cy="453.2" r="0.9" fill="#94a3b8" opacity="0.5"/>
<circle cx="1014.8" cy="442.5" r="0.9" fill="#94a3b8" opacity="0.5"/>
<circle cx="1014.8" cy="436.4" r="0.9" fill="#94a3b8" opacity="0.5"/>
<circle cx="1263.2" cy="561.7" r="2.6" fill="#dc2626" stroke="white" stroke-width="0.5"/>
<circle cx="1263.2" cy="558.1" r="2.6" fill="#dc2626" stroke="white" stroke-width="0.5"/>
<circle cx="1263.2" cy="548.6" r="2.6" fill="#dc2626" stroke="white" stroke-width="0.5"/>
<circle cx="1263.2" cy="545.9" r="2.6" fill="#dc2626" stroke="white" stroke-width="0.5"/>
<circle cx="1263.2" cy="543.4" r="2.6" fill="#dc2626" stroke="white" stroke-width="0.5"/>
<circle cx="1263.2" cy="542.1" r="1.2" fill="#a78bfa" opacity="0.55"/>
<circle cx="1263.2" cy="565.4" r="0.9" fill="#94a3b8" opacity="0.5"/>
<circle cx="1263.2" cy="554.8" r="0.9" fill="#94a3b8" opacity="0.5"/>
<circle cx="1263.2" cy="544.2" r="0.9" fill="#94a3b8" opacity="0.5"/>
<circle cx="1263.2" cy="539.3" r="0.9" fill="#94a3b8" opacity="0.5"/>
<rect x="30" y="559" width="380" height="34" fill="white" opacity="0.85" rx="3"/>
<text x="38" y="575" font-size="11" font-weight="600" fill="#1a202c">Sticks: 10  ·  Bolt holes: 55  ·  Dimples: 0  ·  Notches: 21  ·  Swages: 40</text>
<rect x="20" y="617" width="1660" height="503" fill="#f0fdf4" stroke="#16a34a" stroke-width="2.5"/>
<rect x="20" y="617" width="1660" height="50" fill="#16a34a"/>
<text x="850.0" y="643" text-anchor="middle" font-size="18" font-weight="700" fill="white">SIMPLIFIED OUTPUT</text>
<text x="850.0" y="661" text-anchor="middle" font-size="11" fill="white" opacity="0.95">centreline-rule WEB HOLES at every chord↔web junction · normalised dimples (15mm margin, 400mm max gap) · W↔W skipped</text>
<line x1="386.4" y1="1090.0" x2="386.4" y2="699.1" stroke="#475569" stroke-width="3.5" stroke-linecap="round"/>
<line x1="377.8" y1="1082.0" x2="1322.2" y2="1082.0" stroke="#1e40af" stroke-width="5" stroke-linecap="round"/>
<line x1="377.8" y1="726.7" x2="467.9" y2="726.7" stroke="#475569" stroke-width="3.5" stroke-linecap="round"/>
<line x1="381.1" y1="707.0" x2="405.3" y2="697.0" stroke="#1e40af" stroke-width="5" stroke-linecap="round"/>
<line x1="394.5" y1="697.0" x2="1318.9" y2="1079.9" stroke="#1e40af" stroke-width="5" stroke-linecap="round"/>
<line x1="404.1" y1="1086.3" x2="688.9" y2="813.4" stroke="#475569" stroke-width="3.5" stroke-linecap="round"/>
<line x1="707.3" y1="1087.8" x2="707.3" y2="820.8" stroke="#475569" stroke-width="3.5" stroke-linecap="round"/>
<line x1="726.3" y1="1084.7" x2="997.6" y2="942.0" stroke="#475569" stroke-width="3.5" stroke-linecap="round"/>
<line x1="1014.8" y1="1087.8" x2="1014.8" y2="948.1" stroke="#475569" stroke-width="3.5" stroke-linecap="round"/>
<line x1="1263.2" y1="1087.8" x2="1263.2" y2="1051.0" stroke="#475569" stroke-width="3.5" stroke-linecap="round"/>
<circle cx="386.4" cy="1082.0" r="2.6" fill="#2563eb" stroke="white" stroke-width="0.5"/>
<circle cx="386.4" cy="726.7" r="2.6" fill="#2563eb" stroke="white" stroke-width="0.5"/>
<circle cx="386.4" cy="704.8" r="2.6" fill="#2563eb" stroke="white" stroke-width="0.5"/>
<circle cx="386.4" cy="1084.7" r="0.9" fill="#94a3b8" opacity="0.5"/>
<circle cx="386.4" cy="1074.0" r="0.9" fill="#94a3b8" opacity="0.5"/>
<circle cx="386.4" cy="1070.0" r="0.9" fill="#94a3b8" opacity="0.5"/>
<circle cx="386.4" cy="738.7" r="0.9" fill="#94a3b8" opacity="0.5"/>
<circle cx="386.4" cy="728.0" r="0.9" fill="#94a3b8" opacity="0.5"/>
<circle cx="386.4" cy="717.4" r="0.9" fill="#94a3b8" opacity="0.5"/>
<circle cx="386.4" cy="706.7" r="0.9" fill="#94a3b8" opacity="0.5"/>
<circle cx="386.4" cy="704.4" r="0.9" fill="#94a3b8" opacity="0.5"/>
<circle cx="386.4" cy="1082.0" r="2.6" fill="#2563eb" stroke="white" stroke-width="0.5"/>
<circle cx="408.6" cy="1082.0" r="2.6" fill="#2563eb" stroke="white" stroke-width="0.5"/>
<circle cx="707.3" cy="1082.0" r="2.6" fill="#2563eb" stroke="white" stroke-width="0.5"/>
<circle cx="731.5" cy="1082.0" r="2.6" fill="#2563eb" stroke="white" stroke-width="0.5"/>
<circle cx="1014.8" cy="1082.0" r="2.6" fill="#2563eb" stroke="white" stroke-width="0.5"/>
<circle cx="1263.2" cy="1082.0" r="2.6" fill="#2563eb" stroke="white" stroke-width="0.5"/>
<circle cx="386.4" cy="726.7" r="2.6" fill="#2563eb" stroke="white" stroke-width="0.5"/>
<circle cx="466.1" cy="726.7" r="2.6" fill="#2563eb" stroke="white" stroke-width="0.5"/>
<circle cx="426.5" cy="726.7" r="1.2" fill="#a78bfa" opacity="0.55"/>
<circle cx="435.8" cy="726.7" r="1.2" fill="#a78bfa" opacity="0.55"/>
<circle cx="445.1" cy="726.7" r="1.2" fill="#a78bfa" opacity="0.55"/>
<circle cx="454.3" cy="726.7" r="1.2" fill="#a78bfa" opacity="0.55"/>
<circle cx="463.2" cy="726.7" r="1.2" fill="#a78bfa" opacity="0.55"/>
<circle cx="463.2" cy="726.7" r="1.2" fill="#a78bfa" opacity="0.55"/>
<circle cx="386.4" cy="704.8" r="2.6" fill="#2563eb" stroke="white" stroke-width="0.5"/>
<circle cx="399.9" cy="699.2" r="2.6" fill="#2563eb" stroke="white" stroke-width="0.5"/>
<circle cx="399.9" cy="699.2" r="2.6" fill="#2563eb" stroke="white" stroke-width="0.5"/>
<circle cx="466.1" cy="726.7" r="2.6" fill="#2563eb" stroke="white" stroke-width="0.5"/>
<circle cx="684.9" cy="817.3" r="2.6" fill="#2563eb" stroke="white" stroke-width="0.5"/>
<circle cx="707.3" cy="826.6" r="2.6" fill="#2563eb" stroke="white" stroke-width="0.5"/>
<circle cx="992.5" cy="944.7" r="2.6" fill="#2563eb" stroke="white" stroke-width="0.5"/>
<circle cx="1014.8" cy="953.9" r="2.6" fill="#2563eb" stroke="white" stroke-width="0.5"/>
<circle cx="1263.2" cy="1056.8" r="2.6" fill="#2563eb" stroke="white" stroke-width="0.5"/>
<circle cx="398.8" cy="698.8" r="1.2" fill="#a78bfa" opacity="0.55"/>
<circle cx="399.5" cy="699.1" r="1.2" fill="#a78bfa" opacity="0.55"/>
<circle cx="1287.3" cy="1066.8" r="1.2" fill="#a78bfa" opacity="0.55"/>
<circle cx="1295.9" cy="1070.3" r="1.2" fill="#a78bfa" opacity="0.55"/>
<circle cx="1304.4" cy="1073.9" r="1.2" fill="#a78bfa" opacity="0.55"/>
<circle cx="1313.0" cy="1077.5" r="1.2" fill="#a78bfa" opacity="0.55"/>
<circle cx="1314.6" cy="1078.1" r="1.2" fill="#a78bfa" opacity="0.55"/>
<circle cx="1314.6" cy="1078.1" r="1.2" fill="#a78bfa" opacity="0.55"/>
<circle cx="408.6" cy="1082.0" r="2.6" fill="#2563eb" stroke="white" stroke-width="0.5"/>
<circle cx="684.9" cy="817.3" r="2.6" fill="#2563eb" stroke="white" stroke-width="0.5"/>
<circle cx="409.6" cy="1081.0" r="1.2" fill="#a78bfa" opacity="0.55"/>
<circle cx="683.3" cy="818.8" r="1.2" fill="#a78bfa" opacity="0.55"/>
<circle cx="407.9" cy="1082.6" r="0.9" fill="#94a3b8" opacity="0.5"/>
<circle cx="415.6" cy="1075.2" r="0.9" fill="#94a3b8" opacity="0.5"/>
<circle cx="423.3" cy="1067.9" r="0.9" fill="#94a3b8" opacity="0.5"/>
<circle cx="426.5" cy="1064.8" r="0.9" fill="#94a3b8" opacity="0.5"/>
<circle cx="672.9" cy="828.7" r="0.9" fill="#94a3b8" opacity="0.5"/>
<circle cx="680.6" cy="821.4" r="0.9" fill="#94a3b8" opacity="0.5"/>
<circle cx="685.1" cy="817.0" r="0.9" fill="#94a3b8" opacity="0.5"/>
<circle cx="707.3" cy="1082.0" r="2.6" fill="#2563eb" stroke="white" stroke-width="0.5"/>
<circle cx="707.3" cy="826.6" r="2.6" fill="#2563eb" stroke="white" stroke-width="0.5"/>
<circle cx="707.3" cy="828.9" r="1.2" fill="#a78bfa" opacity="0.55"/>
<circle cx="707.3" cy="1082.4" r="0.9" fill="#94a3b8" opacity="0.5"/>
<circle cx="707.3" cy="1071.8" r="0.9" fill="#94a3b8" opacity="0.5"/>
<circle cx="707.3" cy="1070.0" r="0.9" fill="#94a3b8" opacity="0.5"/>
<circle cx="707.3" cy="842.8" r="0.9" fill="#94a3b8" opacity="0.5"/>
<circle cx="707.3" cy="832.2" r="0.9" fill="#94a3b8" opacity="0.5"/>
<circle cx="707.3" cy="826.1" r="0.9" fill="#94a3b8" opacity="0.5"/>
<circle cx="731.5" cy="1082.0" r="2.6" fill="#2563eb" stroke="white" stroke-width="0.5"/>
<circle cx="992.5" cy="944.7" r="2.6" fill="#2563eb" stroke="white" stroke-width="0.5"/>
<circle cx="733.2" cy="1081.0" r="1.2" fill="#a78bfa" opacity="0.55"/>
<circle cx="991.1" cy="945.4" r="1.2" fill="#a78bfa" opacity="0.55"/>
<circle cx="731.0" cy="1082.2" r="0.9" fill="#94a3b8" opacity="0.5"/>
<circle cx="740.4" cy="1077.2" r="0.9" fill="#94a3b8" opacity="0.5"/>
<circle cx="749.9" cy="1072.3" r="0.9" fill="#94a3b8" opacity="0.5"/>
<circle cx="759.3" cy="1067.3" r="0.9" fill="#94a3b8" opacity="0.5"/>
<circle cx="765.3" cy="1064.2" r="0.9" fill="#94a3b8" opacity="0.5"/>
<circle cx="973.2" cy="954.8" r="0.9" fill="#94a3b8" opacity="0.5"/>
<circle cx="982.6" cy="949.8" r="0.9" fill="#94a3b8" opacity="0.5"/>
<circle cx="992.1" cy="944.9" r="0.9" fill="#94a3b8" opacity="0.5"/>
<circle cx="992.9" cy="944.4" r="0.9" fill="#94a3b8" opacity="0.5"/>
<circle cx="1014.8" cy="1082.0" r="2.6" fill="#2563eb" stroke="white" stroke-width="0.5"/>
<circle cx="1014.8" cy="953.9" r="2.6" fill="#2563eb" stroke="white" stroke-width="0.5"/>
<circle cx="1014.8" cy="956.2" r="1.2" fill="#a78bfa" opacity="0.55"/>
<circle cx="1014.8" cy="1082.4" r="0.9" fill="#94a3b8" opacity="0.5"/>
<circle cx="1014.8" cy="1071.8" r="0.9" fill="#94a3b8" opacity="0.5"/>
<circle cx="1014.8" cy="1070.0" r="0.9" fill="#94a3b8" opacity="0.5"/>
<circle cx="1014.8" cy="970.2" r="0.9" fill="#94a3b8" opacity="0.5"/>
<circle cx="1014.8" cy="959.5" r="0.9" fill="#94a3b8" opacity="0.5"/>
<circle cx="1014.8" cy="953.4" r="0.9" fill="#94a3b8" opacity="0.5"/>
<circle cx="1263.2" cy="1082.0" r="2.6" fill="#2563eb" stroke="white" stroke-width="0.5"/>
<circle cx="1263.2" cy="1056.8" r="2.6" fill="#2563eb" stroke="white" stroke-width="0.5"/>
<circle cx="1263.2" cy="1059.1" r="1.2" fill="#a78bfa" opacity="0.55"/>
<circle cx="1263.2" cy="1082.4" r="0.9" fill="#94a3b8" opacity="0.5"/>
<circle cx="1263.2" cy="1071.8" r="0.9" fill="#94a3b8" opacity="0.5"/>
<circle cx="1263.2" cy="1061.2" r="0.9" fill="#94a3b8" opacity="0.5"/>
<circle cx="1263.2" cy="1056.3" r="0.9" fill="#94a3b8" opacity="0.5"/>
<rect x="30" y="1076" width="380" height="34" fill="white" opacity="0.85" rx="3"/>
<text x="38" y="1092" font-size="11" font-weight="600" fill="#1a202c">Sticks: 10  ·  Bolt holes: 30  ·  Dimples: 0  ·  Notches: 21  ·  Swages: 40</text>
<rect x="20" y="1132" width="1660" height="56" fill="#1f2937" rx="4"/>
<text x="35" y="1152" font-size="13" font-weight="700" fill="#fbbf24">DIFF SUMMARY · TN2-1</text>
<text x="35" y="1172" font-size="12" fill="white">Bolt holes: <tspan font-weight="700">55 → 30</tspan> (-25)  ·  Dimples: <tspan font-weight="700">0 → 0</tspan> (+0)  ·  Sticks: <tspan font-weight="700">10 → 10</tspan>  ·  Physical-fit ops (notches/swages/chamfers) preserved exactly</text>
</svg>