<svg xmlns="http://www.w3.org/2000/svg" width="1500" height="800" viewBox="0 0 1500 800" font-family="Segoe UI, Arial, sans-serif">
<defs>
  <pattern id="chord-fill" patternUnits="userSpaceOnUse" width="6" height="6" patternTransform="rotate(-45)">
    <rect width="6" height="6" fill="#dbeafe"/>
    <line x1="0" y1="0" x2="0" y2="6" stroke="#93c5fd" stroke-width="0.8"/>
  </pattern>
  <pattern id="web-fill" patternUnits="userSpaceOnUse" width="6" height="6" patternTransform="rotate(45)">
    <rect width="6" height="6" fill="#e2e8f0"/>
    <line x1="0" y1="0" x2="0" y2="6" stroke="#94a3b8" stroke-width="0.8"/>
  </pattern>
  <pattern id="overlap-fill" patternUnits="userSpaceOnUse" width="8" height="8">
    <rect width="8" height="8" fill="#fde68a"/>
    <line x1="0" y1="0" x2="8" y2="8" stroke="#d97706" stroke-width="0.8"/>
    <line x1="8" y1="0" x2="0" y2="8" stroke="#d97706" stroke-width="0.8"/>
  </pattern>
  <marker id="ar" markerWidth="9" markerHeight="9" refX="8" refY="4.5" orient="auto">
    <path d="M0,0 L9,4.5 L0,9 z" fill="#374151"/>
  </marker>
</defs>
<rect width="1500" height="800" fill="#fafaf8"/>
<text x="20" y="34" font-size="22" font-weight="700" fill="#1a202c">Single junction — realistic web-on-chord assembly view</text>
<text x="20" y="58" font-size="14" fill="#4a5568">Looking at the truss from the side. Both C-sections sit in the same plane, web-faces touching. The orange overlap zone is where two layers of steel are stacked — that's where the bolt goes through.</text>
<rect x="40" y="110" width="690" height="620" fill="white" stroke="#cbd5e0" stroke-width="1"/>
<text x="385" y="98" text-anchor="middle" font-size="14" font-weight="700" fill="#374151">CURRENT — 3 bolts in overlap, near the chord-end side</text>
<rect x="70" y="273.0" width="630" height="356" fill="url(#chord-fill)" stroke="#1d4ed8" stroke-width="2.5"/>
<line x1="80" y1="270.0" x2="80" y2="276.0" stroke="#1d4ed8" stroke-width="1"/>
<line x1="80" y1="626.0" x2="80" y2="632.0" stroke="#1d4ed8" stroke-width="1"/>
<line x1="140" y1="270.0" x2="140" y2="276.0" stroke="#1d4ed8" stroke-width="1"/>
<line x1="140" y1="626.0" x2="140" y2="632.0" stroke="#1d4ed8" stroke-width="1"/>
<line x1="200" y1="270.0" x2="200" y2="276.0" stroke="#1d4ed8" stroke-width="1"/>
<line x1="200" y1="626.0" x2="200" y2="632.0" stroke="#1d4ed8" stroke-width="1"/>
<line x1="260" y1="270.0" x2="260" y2="276.0" stroke="#1d4ed8" stroke-width="1"/>
<line x1="260" y1="626.0" x2="260" y2="632.0" stroke="#1d4ed8" stroke-width="1"/>
<line x1="320" y1="270.0" x2="320" y2="276.0" stroke="#1d4ed8" stroke-width="1"/>
<line x1="320" y1="626.0" x2="320" y2="632.0" stroke="#1d4ed8" stroke-width="1"/>
<line x1="380" y1="270.0" x2="380" y2="276.0" stroke="#1d4ed8" stroke-width="1"/>
<line x1="380" y1="626.0" x2="380" y2="632.0" stroke="#1d4ed8" stroke-width="1"/>
<line x1="440" y1="270.0" x2="440" y2="276.0" stroke="#1d4ed8" stroke-width="1"/>
<line x1="440" y1="626.0" x2="440" y2="632.0" stroke="#1d4ed8" stroke-width="1"/>
<line x1="500" y1="270.0" x2="500" y2="276.0" stroke="#1d4ed8" stroke-width="1"/>
<line x1="500" y1="626.0" x2="500" y2="632.0" stroke="#1d4ed8" stroke-width="1"/>
<line x1="560" y1="270.0" x2="560" y2="276.0" stroke="#1d4ed8" stroke-width="1"/>
<line x1="560" y1="626.0" x2="560" y2="632.0" stroke="#1d4ed8" stroke-width="1"/>
<line x1="620" y1="270.0" x2="620" y2="276.0" stroke="#1d4ed8" stroke-width="1"/>
<line x1="620" y1="626.0" x2="620" y2="632.0" stroke="#1d4ed8" stroke-width="1"/>
<line x1="680" y1="270.0" x2="680" y2="276.0" stroke="#1d4ed8" stroke-width="1"/>
<line x1="680" y1="626.0" x2="680" y2="632.0" stroke="#1d4ed8" stroke-width="1"/>
<line x1="55" y1="451.0" x2="715" y2="451.0" stroke="#1d4ed8" stroke-width="1.4" stroke-dasharray="6 4" opacity="0.85"/>
<text x="80" y="265.0" font-size="12" fill="#1d4ed8" font-weight="600">B1 — bottom chord (89mm × 0.75mm plate, laid flat)</text>
<text x="718" y="455.0" font-size="11" fill="#1d4ed8">⊕ chord ℄</text>
<line x1="705" y1="273.0" x2="705" y2="629.0" stroke="#374151" stroke-width="1" marker-start="url(#ar)" marker-end="url(#ar)"/>
<text x="730" y="288.0" font-size="11" fill="#374151">89mm</text>
<rect x="207.0" y="135" width="356" height="494.0" fill="url(#web-fill)" stroke="#475569" stroke-width="2.5"/>
<line x1="204.0" y1="150" x2="210.0" y2="150" stroke="#475569" stroke-width="1"/>
<line x1="560.0" y1="150" x2="566.0" y2="150" stroke="#475569" stroke-width="1"/>
<line x1="204.0" y1="210" x2="210.0" y2="210" stroke="#475569" stroke-width="1"/>
<line x1="560.0" y1="210" x2="566.0" y2="210" stroke="#475569" stroke-width="1"/>
<line x1="204.0" y1="270" x2="210.0" y2="270" stroke="#475569" stroke-width="1"/>
<line x1="560.0" y1="270" x2="566.0" y2="270" stroke="#475569" stroke-width="1"/>
<line x1="204.0" y1="330" x2="210.0" y2="330" stroke="#475569" stroke-width="1"/>
<line x1="560.0" y1="330" x2="566.0" y2="330" stroke="#475569" stroke-width="1"/>
<line x1="204.0" y1="390" x2="210.0" y2="390" stroke="#475569" stroke-width="1"/>
<line x1="560.0" y1="390" x2="566.0" y2="390" stroke="#475569" stroke-width="1"/>
<line x1="204.0" y1="450" x2="210.0" y2="450" stroke="#475569" stroke-width="1"/>
<line x1="560.0" y1="450" x2="566.0" y2="450" stroke="#475569" stroke-width="1"/>
<line x1="204.0" y1="510" x2="210.0" y2="510" stroke="#475569" stroke-width="1"/>
<line x1="560.0" y1="510" x2="566.0" y2="510" stroke="#475569" stroke-width="1"/>
<line x1="204.0" y1="570" x2="210.0" y2="570" stroke="#475569" stroke-width="1"/>
<line x1="560.0" y1="570" x2="566.0" y2="570" stroke="#475569" stroke-width="1"/>
<line x1="385.0" y1="120" x2="385.0" y2="644.0" stroke="#475569" stroke-width="1.4" stroke-dasharray="6 4" opacity="0.85"/>
<text x="199.0" y="150" text-anchor="end" font-size="12" fill="#475569" font-weight="600">W5 — web</text>
<text x="199.0" y="165" text-anchor="end" font-size="10" fill="#475569">89mm × 0.75mm stud</text>
<text x="199.0" y="179" text-anchor="end" font-size="10" fill="#475569">(extends up to next chord)</text>
<text x="381.0" y="115" text-anchor="end" font-size="11" fill="#475569">⊕ web ℄</text>
<line x1="207.0" y1="127" x2="563.0" y2="127" stroke="#374151" stroke-width="1" marker-start="url(#ar)" marker-end="url(#ar)"/>
<text x="385" y="123" text-anchor="middle" font-size="11" fill="#374151">89mm</text>
<rect x="207.0" y="273.0" width="356.0" height="356.0" fill="url(#overlap-fill)" stroke="#d97706" stroke-width="2" stroke-dasharray="3 2"/>
<text x="199.0" y="455.0" text-anchor="end" font-size="11" font-weight="600" fill="#92400e">overlap zone</text>
<text x="199.0" y="469.0" text-anchor="end" font-size="10" fill="#92400e">2 layers of steel</text>
<text x="199.0" y="481.0" text-anchor="end" font-size="10" fill="#92400e">89×89 mm</text>
<circle cx="385.0" cy="451.0" r="5" fill="none" stroke="#16a34a" stroke-width="1.5"/>
<circle cx="373.0" cy="395.0" r="6" fill="#dc2626" stroke="#7f1d1d" stroke-width="1.5"/>
<circle cx="397.0" cy="395.0" r="6" fill="#dc2626" stroke="#7f1d1d" stroke-width="1.5"/>
<circle cx="385.0" cy="321.0" r="6" fill="#dc2626" stroke="#7f1d1d" stroke-width="1.5"/>
<text x="407.0" y="399.0" font-size="11" fill="#7f1d1d">at 58.5 mm from web start</text>
<text x="407.0" y="325.0" font-size="11" fill="#7f1d1d">at 77 mm from web start</text>
<line x1="355.0" y1="451.0" x2="355.0" y2="395.0" stroke="#dc2626" stroke-width="1.2" marker-end="url(#ar)"/>
<text x="349.0" y="423.0" text-anchor="end" font-size="10" fill="#dc2626">17mm offset</text>
<rect x="60" y="670" width="650" height="48" fill="#fef2f2" stroke="#dc2626" stroke-width="1" rx="3"/>
<text x="70" y="688" font-size="12" fill="#7f1d1d"><tspan font-weight="700">3 bolts in this overlap, stacked away from centreline</tspan></text>
<text x="70" y="706" font-size="11" fill="#7f1d1d">positioned by FrameCAD rule = material_offset (44.5) + adjustments</text>
<rect x="770" y="110" width="690" height="620" fill="white" stroke="#cbd5e0" stroke-width="1"/>
<text x="1115" y="98" text-anchor="middle" font-size="14" font-weight="700" fill="#22543d">PROPOSED — 1 bolt at the overlap centre</text>
<rect x="800" y="273.0" width="630" height="356" fill="url(#chord-fill)" stroke="#1d4ed8" stroke-width="2.5"/>
<line x1="810" y1="270.0" x2="810" y2="276.0" stroke="#1d4ed8" stroke-width="1"/>
<line x1="810" y1="626.0" x2="810" y2="632.0" stroke="#1d4ed8" stroke-width="1"/>
<line x1="870" y1="270.0" x2="870" y2="276.0" stroke="#1d4ed8" stroke-width="1"/>
<line x1="870" y1="626.0" x2="870" y2="632.0" stroke="#1d4ed8" stroke-width="1"/>
<line x1="930" y1="270.0" x2="930" y2="276.0" stroke="#1d4ed8" stroke-width="1"/>
<line x1="930" y1="626.0" x2="930" y2="632.0" stroke="#1d4ed8" stroke-width="1"/>
<line x1="990" y1="270.0" x2="990" y2="276.0" stroke="#1d4ed8" stroke-width="1"/>
<line x1="990" y1="626.0" x2="990" y2="632.0" stroke="#1d4ed8" stroke-width="1"/>
<line x1="1050" y1="270.0" x2="1050" y2="276.0" stroke="#1d4ed8" stroke-width="1"/>
<line x1="1050" y1="626.0" x2="1050" y2="632.0" stroke="#1d4ed8" stroke-width="1"/>
<line x1="1110" y1="270.0" x2="1110" y2="276.0" stroke="#1d4ed8" stroke-width="1"/>
<line x1="1110" y1="626.0" x2="1110" y2="632.0" stroke="#1d4ed8" stroke-width="1"/>
<line x1="1170" y1="270.0" x2="1170" y2="276.0" stroke="#1d4ed8" stroke-width="1"/>
<line x1="1170" y1="626.0" x2="1170" y2="632.0" stroke="#1d4ed8" stroke-width="1"/>
<line x1="1230" y1="270.0" x2="1230" y2="276.0" stroke="#1d4ed8" stroke-width="1"/>
<line x1="1230" y1="626.0" x2="1230" y2="632.0" stroke="#1d4ed8" stroke-width="1"/>
<line x1="1290" y1="270.0" x2="1290" y2="276.0" stroke="#1d4ed8" stroke-width="1"/>
<line x1="1290" y1="626.0" x2="1290" y2="632.0" stroke="#1d4ed8" stroke-width="1"/>
<line x1="1350" y1="270.0" x2="1350" y2="276.0" stroke="#1d4ed8" stroke-width="1"/>
<line x1="1350" y1="626.0" x2="1350" y2="632.0" stroke="#1d4ed8" stroke-width="1"/>
<line x1="1410" y1="270.0" x2="1410" y2="276.0" stroke="#1d4ed8" stroke-width="1"/>
<line x1="1410" y1="626.0" x2="1410" y2="632.0" stroke="#1d4ed8" stroke-width="1"/>
<line x1="785" y1="451.0" x2="1445" y2="451.0" stroke="#1d4ed8" stroke-width="1.4" stroke-dasharray="6 4" opacity="0.85"/>
<text x="810" y="265.0" font-size="12" fill="#1d4ed8" font-weight="600">B1 — bottom chord (89mm × 0.75mm plate, laid flat)</text>
<text x="1448" y="455.0" font-size="11" fill="#1d4ed8">⊕ chord ℄</text>
<line x1="1435" y1="273.0" x2="1435" y2="629.0" stroke="#374151" stroke-width="1" marker-start="url(#ar)" marker-end="url(#ar)"/>
<text x="1460" y="288.0" font-size="11" fill="#374151">89mm</text>
<rect x="937.0" y="135" width="356" height="494.0" fill="url(#web-fill)" stroke="#475569" stroke-width="2.5"/>
<line x1="934.0" y1="150" x2="940.0" y2="150" stroke="#475569" stroke-width="1"/>
<line x1="1290.0" y1="150" x2="1296.0" y2="150" stroke="#475569" stroke-width="1"/>
<line x1="934.0" y1="210" x2="940.0" y2="210" stroke="#475569" stroke-width="1"/>
<line x1="1290.0" y1="210" x2="1296.0" y2="210" stroke="#475569" stroke-width="1"/>
<line x1="934.0" y1="270" x2="940.0" y2="270" stroke="#475569" stroke-width="1"/>
<line x1="1290.0" y1="270" x2="1296.0" y2="270" stroke="#475569" stroke-width="1"/>
<line x1="934.0" y1="330" x2="940.0" y2="330" stroke="#475569" stroke-width="1"/>
<line x1="1290.0" y1="330" x2="1296.0" y2="330" stroke="#475569" stroke-width="1"/>
<line x1="934.0" y1="390" x2="940.0" y2="390" stroke="#475569" stroke-width="1"/>
<line x1="1290.0" y1="390" x2="1296.0" y2="390" stroke="#475569" stroke-width="1"/>
<line x1="934.0" y1="450" x2="940.0" y2="450" stroke="#475569" stroke-width="1"/>
<line x1="1290.0" y1="450" x2="1296.0" y2="450" stroke="#475569" stroke-width="1"/>
<line x1="934.0" y1="510" x2="940.0" y2="510" stroke="#475569" stroke-width="1"/>
<line x1="1290.0" y1="510" x2="1296.0" y2="510" stroke="#475569" stroke-width="1"/>
<line x1="934.0" y1="570" x2="940.0" y2="570" stroke="#475569" stroke-width="1"/>
<line x1="1290.0" y1="570" x2="1296.0" y2="570" stroke="#475569" stroke-width="1"/>
<line x1="1115.0" y1="120" x2="1115.0" y2="644.0" stroke="#475569" stroke-width="1.4" stroke-dasharray="6 4" opacity="0.85"/>
<text x="929.0" y="150" text-anchor="end" font-size="12" fill="#475569" font-weight="600">W5 — web</text>
<text x="929.0" y="165" text-anchor="end" font-size="10" fill="#475569">89mm × 0.75mm stud</text>
<text x="929.0" y="179" text-anchor="end" font-size="10" fill="#475569">(extends up to next chord)</text>
<text x="1111.0" y="115" text-anchor="end" font-size="11" fill="#475569">⊕ web ℄</text>
<line x1="937.0" y1="127" x2="1293.0" y2="127" stroke="#374151" stroke-width="1" marker-start="url(#ar)" marker-end="url(#ar)"/>
<text x="1115" y="123" text-anchor="middle" font-size="11" fill="#374151">89mm</text>
<rect x="937.0" y="273.0" width="356.0" height="356.0" fill="url(#overlap-fill)" stroke="#d97706" stroke-width="2" stroke-dasharray="3 2"/>
<text x="929.0" y="455.0" text-anchor="end" font-size="11" font-weight="600" fill="#92400e">overlap zone</text>
<text x="929.0" y="469.0" text-anchor="end" font-size="10" fill="#92400e">2 layers of steel</text>
<text x="929.0" y="481.0" text-anchor="end" font-size="10" fill="#92400e">89×89 mm</text>
<circle cx="1115.0" cy="451.0" r="5" fill="none" stroke="#16a34a" stroke-width="1.5"/>
<circle cx="1115.0" cy="451.0" r="7" fill="#16a34a" stroke="#14532d" stroke-width="2"/>
<text x="1133.0" y="456.0" font-size="11" fill="#14532d" font-weight="600">bolt at centreline crossing</text>
<rect x="790" y="670" width="650" height="48" fill="#f0fdf4" stroke="#16a34a" stroke-width="1" rx="3"/>
<text x="800" y="688" font-size="12" fill="#14532d"><tspan font-weight="700">1 bolt at the centre of the overlap</tspan></text>
<text x="800" y="706" font-size="11" fill="#14532d">positioned by maths = (chord ℄ − web start) = exactly 41.5mm from W5 start</text>
<rect x="20" y="742" width="1460" height="40" fill="#f1f5f9" stroke="#cbd5e0" rx="3"/>
<text x="32" y="762" font-size="11" fill="#374151"><tspan font-weight="700">View geometry:</tspan> looking edge-on at the truss panel. Both members are C-section steel laid in the same plane with their web-faces touching.</text>
<text x="32" y="778" font-size="11" fill="#374151">The orange overlap zone is two layers of 0.75mm steel stacked together (1.5mm total) — that's what the bolt screws through. The web stick's actual cut end is along the chord's far flange.</text>
</svg>