<svg xmlns="http://www.w3.org/2000/svg" width="1900" height="1450" viewBox="0 0 1900 1450" font-family="Segoe UI, Arial, sans-serif">
<defs>
  <!-- Steel surface gradient (gives 3D feel) -->
  <linearGradient id="steel" x1="0" y1="0" x2="0" y2="1">
    <stop offset="0" stop-color="#f1f5f9"/>
    <stop offset="0.5" stop-color="#cbd5e0"/>
    <stop offset="1" stop-color="#94a3b8"/>
  </linearGradient>
  <linearGradient id="steel-dark" x1="0" y1="0" x2="0" y2="1">
    <stop offset="0" stop-color="#94a3b8"/>
    <stop offset="0.5" stop-color="#64748b"/>
    <stop offset="1" stop-color="#475569"/>
  </linearGradient>
  <linearGradient id="steel-flange" x1="0" y1="0" x2="1" y2="0">
    <stop offset="0" stop-color="#94a3b8"/>
    <stop offset="0.5" stop-color="#cbd5e0"/>
    <stop offset="1" stop-color="#94a3b8"/>
  </linearGradient>
  <linearGradient id="cut-surface" x1="0" y1="0" x2="1" y2="1">
    <stop offset="0" stop-color="#fbbf24"/>
    <stop offset="1" stop-color="#d97706"/>
  </linearGradient>
  <pattern id="hatch" patternUnits="userSpaceOnUse" width="6" height="6" patternTransform="rotate(45)">
    <line x1="0" y1="0" x2="0" y2="6" stroke="#92400e" stroke-width="1"/>
  </pattern>
  <pattern id="cut-hatch" patternUnits="userSpaceOnUse" width="4" height="4" patternTransform="rotate(45)">
    <line x1="0" y1="0" x2="0" y2="4" stroke="#dc2626" stroke-width="0.8"/>
  </pattern>
  <filter id="shadow" x="-20%" y="-20%" width="140%" height="140%">
    <feGaussianBlur in="SourceAlpha" stdDeviation="2"/>
    <feOffset dx="2" dy="3"/>
    <feComponentTransfer><feFuncA type="linear" slope="0.3"/></feComponentTransfer>
    <feMerge><feMergeNode/><feMergeNode in="SourceGraphic"/></feMerge>
  </filter>
  <marker id="ar" markerWidth="9" markerHeight="9" refX="8" refY="4.5" orient="auto">
    <path d="M0,0 L9,4.5 L0,9 z" fill="#374151"/>
  </marker>
  <marker id="dot" markerWidth="6" markerHeight="6" refX="3" refY="3">
    <circle cx="3" cy="3" r="1.6" fill="#374151"/>
  </marker>
</defs>
<rect width="1900" height="1450" fill="#fafaf8"/>
<text x="30" y="38" font-size="24" font-weight="700" fill="#1a202c">Lip Notch tool — lifelike detail</text>
<text x="30" y="62" font-size="14" fill="#4a5568">Web W6 of frame TN2-1 · 89S41-0.75 stud · 2037.74 mm long · two lip notches at 39.36mm and 1997.02mm</text>
<rect x="30" y="90" width="1840" height="230" fill="white" stroke="#cbd5e0" rx="4"/>
<text x="45" y="112" font-size="14" font-weight="700" fill="#1a202c">1.  Full stick elevation (W6 length 2037.74 mm) · ops shown to scale</text>
<rect x="130" y="195.0" width="1620.0" height="50" fill="url(#steel)" stroke="#475569" stroke-width="1.5"/>
<line x1="130" y1="199.0" x2="1750.0" y2="199.0" stroke="#475569" stroke-width="0.8" opacity="0.6"/>
<line x1="130" y1="241.0" x2="1750.0" y2="241.0" stroke="#475569" stroke-width="0.8" opacity="0.6"/>
<line x1="115" y1="220" x2="1765.0" y2="220" stroke="#374151" stroke-width="0.8" stroke-dasharray="5 3" opacity="0.5"/>
<text x="118" y="225" text-anchor="end" font-size="11" fill="#374151">start</text>
<text x="1762.0" y="225" text-anchor="start" font-size="11" fill="#374151">end</text>
<text x="118" y="239" text-anchor="end" font-size="10" fill="#6b7280">0 mm</text>
<text x="1762.0" y="239" text-anchor="start" font-size="10" fill="#6b7280">2037.74 mm</text>
<circle cx="151.9" cy="220" r="3" fill="#7c3aed" stroke="#5b21b6" stroke-width="0.8"/>
<circle cx="195.6" cy="220" r="3" fill="#7c3aed" stroke="#5b21b6" stroke-width="0.8"/>
<circle cx="239.3" cy="220" r="3" fill="#7c3aed" stroke="#5b21b6" stroke-width="0.8"/>
<circle cx="257.5" cy="220" r="3" fill="#7c3aed" stroke="#5b21b6" stroke-width="0.8"/>
<circle cx="1658.8" cy="220" r="3" fill="#7c3aed" stroke="#5b21b6" stroke-width="0.8"/>
<circle cx="1702.5" cy="220" r="3" fill="#7c3aed" stroke="#5b21b6" stroke-width="0.8"/>
<circle cx="1728.1" cy="220" r="3" fill="#7c3aed" stroke="#5b21b6" stroke-width="0.8"/>
<circle cx="175.1" cy="196" r="3.5" fill="#dc2626" stroke="#7f1d1d" stroke-width="0.8" opacity="0.4"/>
<circle cx="210.5" cy="196" r="3.5" fill="#dc2626" stroke="#7f1d1d" stroke-width="0.8" opacity="0.4"/>
<circle cx="1690.1" cy="196" r="3.5" fill="#dc2626" stroke="#7f1d1d" stroke-width="0.8" opacity="0.4"/>
<circle cx="1702.0" cy="196" r="3.5" fill="#dc2626" stroke="#7f1d1d" stroke-width="0.8" opacity="0.4"/>
<circle cx="1712.1" cy="196" r="3.5" fill="#dc2626" stroke="#7f1d1d" stroke-width="0.8" opacity="0.4"/>
<circle cx="161.8" cy="196" r="5.5" fill="#16a34a" stroke="#14532d" stroke-width="1.4"/>
<line x1="161.8" y1="201" x2="161.8" y2="216" stroke="#16a34a" stroke-width="1" stroke-dasharray="2 2"/>
<circle cx="1720.0" cy="196" r="5.5" fill="#16a34a" stroke="#14532d" stroke-width="1.4"/>
<line x1="1720.0" y1="201" x2="1720.0" y2="216" stroke="#16a34a" stroke-width="1" stroke-dasharray="2 2"/>
<polygon points="155.3,195.0 167.3,195.0 161.3,205.0" fill="url(#cut-hatch)" stroke="#dc2626" stroke-width="1.2"/>
<polygon points="155.3,245.0 167.3,245.0 161.3,235.0" fill="url(#cut-hatch)" stroke="#dc2626" stroke-width="1.2"/>
<polygon points="1711.6,195.0 1723.6,195.0 1717.6,205.0" fill="url(#cut-hatch)" stroke="#dc2626" stroke-width="1.2"/>
<polygon points="1711.6,245.0 1723.6,245.0 1717.6,235.0" fill="url(#cut-hatch)" stroke="#dc2626" stroke-width="1.2"/>
<rect x="1775" y="135" width="85" height="160" fill="#f8fafc" stroke="#e2e8f0" rx="3"/>
<text x="1783" y="151" font-size="11" font-weight="700" fill="#1a202c">Legend</text>
<circle cx="1790" cy="169" r="3" fill="#7c3aed"/>
<text x="1799" y="173" font-size="10" fill="#374151">Swage</text>
<circle cx="1790" cy="189" r="3.5" fill="#dc2626" opacity="0.4"/>
<text x="1799" y="193" font-size="10" fill="#374151">Old bolt</text>
<circle cx="1790" cy="209" r="5" fill="#16a34a" stroke="#14532d" stroke-width="1.2"/>
<text x="1799" y="213" font-size="10" fill="#374151">NEW bolt</text>
<polygon points="1784,227 1796,227 1790,236" fill="url(#cut-hatch)" stroke="#dc2626" stroke-width="0.8"/>
<text x="1799" y="236" font-size="10" fill="#374151">Lip notch</text>
<text x="161.3" y="263.0" text-anchor="middle" font-size="10" fill="#dc2626" font-weight="600">LIP NOTCH @ 39.36</text>
<text x="1717.6" y="183.0" text-anchor="middle" font-size="10" fill="#dc2626" font-weight="600">LIP NOTCH @ 1997.02</text>
<text x="161.8" y="176" text-anchor="middle" font-size="10" fill="#14532d" font-weight="700">BOLT @ 40 (centreline)</text>
<text x="1720.0" y="176" text-anchor="middle" font-size="10" fill="#14532d" font-weight="700">BOLT @ 2000 (centreline)</text>
<line x1="1717.6276659436435" y1="275.0" x2="1717.6276659436435" y2="318" stroke="#374151" stroke-width="1.2" stroke-dasharray="4 3" marker-end="url(#ar)"/>
<text x="1727.6276659436435" y="305" font-size="11" fill="#374151" font-weight="600">zoom in below ↓</text>
<rect x="30" y="340" width="915" height="480" fill="white" stroke="#cbd5e0" rx="4"/>
<text x="45" y="362" font-size="14" font-weight="700" fill="#1a202c">2.  End detail — top-chord end of W6 (real proportions, 1mm = 4px)</text>
<text x="45" y="380" font-size="12" fill="#4a5568">Last 60mm of stick · lip notch + bolt zone · drawn at 4× actual size</text>
<rect x="80" y="420" width="240" height="356" fill="url(#steel)" stroke="#475569" stroke-width="1.5"/>
<rect x="80" y="420" width="240" height="44" fill="url(#steel-flange)" stroke="#475569" stroke-width="1.2" opacity="0.9"/>
<rect x="80" y="732" width="240" height="44" fill="url(#steel-flange)" stroke="#475569" stroke-width="1.2" opacity="0.9"/>
<line x1="70" y1="598.0" x2="330" y2="598.0" stroke="#374151" stroke-width="0.8" stroke-dasharray="5 3" opacity="0.5"/>
<rect x="133.1199999999999" y="420" width="48" height="32" fill="white" stroke="#dc2626" stroke-width="1.5"/>
<rect x="133.1199999999999" y="420" width="48" height="32" fill="url(#cut-hatch)" opacity="0.6"/>
<rect x="133.1199999999999" y="744" width="48" height="32" fill="white" stroke="#dc2626" stroke-width="1.5"/>
<rect x="133.1199999999999" y="744" width="48" height="32" fill="url(#cut-hatch)" opacity="0.6"/>
<circle cx="160" cy="598.0" r="12.0" fill="white" stroke="#16a34a" stroke-width="2"/>
<circle cx="160" cy="598.0" r="11.0" fill="none" stroke="#16a34a" stroke-width="1" stroke-dasharray="2 1.5"/>
<line x1="320" y1="410" x2="320" y2="786" stroke="#374151" stroke-width="2"/>
<text x="328" y="417" font-size="11" fill="#374151" font-weight="600">cut end</text>
<line x1="58" y1="420" x2="58" y2="776" stroke="#374151" stroke-width="0.8" marker-start="url(#ar)" marker-end="url(#ar)"/>
<text x="52" y="602.0" text-anchor="end" font-size="11" fill="#374151">89 mm</text>
<line x1="335" y1="420" x2="335" y2="464" stroke="#374151" stroke-width="0.8" marker-start="url(#ar)" marker-end="url(#ar)"/>
<text x="339" y="446.0" font-size="10" fill="#374151">11 mm lip</text>
<line x1="160" y1="794" x2="320" y2="794" stroke="#16a34a" stroke-width="1" marker-start="url(#ar)" marker-end="url(#ar)"/>
<text x="240.0" y="810" text-anchor="middle" font-size="11" fill="#14532d" font-weight="700">40 mm (centreline crossing)</text>
<line x1="157.1199999999999" y1="826" x2="320" y2="826" stroke="#dc2626" stroke-width="1" marker-start="url(#ar)" marker-end="url(#ar)"/>
<text x="238.55999999999995" y="842" text-anchor="middle" font-size="11" fill="#7f1d1d" font-weight="700">40.72 mm to notch centre</text>
<text x="157.1199999999999" y="412" text-anchor="middle" font-size="11" fill="#7f1d1d" font-weight="700">LIP NOTCH cut</text>
<text x="157.1199999999999" y="398" text-anchor="middle" font-size="9" fill="#7f1d1d">~12mm wide × 8mm deep</text>
<text x="160" y="578.0" text-anchor="middle" font-size="11" fill="#14532d" font-weight="700">M6 bolt (Ø6 hole)</text>
<rect x="45" y="740" width="885" height="60" fill="#fef9c3" stroke="#ca8a04" rx="3"/>
<text x="55" y="758" font-size="12" font-weight="700" fill="#713f12">What you are seeing in this view:</text>
<text x="55" y="774" font-size="11" fill="#713f12">• Lip notch is a rectangular cut into the lip strip at the edge of the C-section,</text>
<text x="55" y="788" font-size="11" fill="#713f12">  ~40mm from the cut end. Same notch on top + bottom lips. Lets stick fit past chord flange.</text>
<rect x="955" y="340" width="915" height="480" fill="white" stroke="#cbd5e0" rx="4"/>
<text x="970" y="362" font-size="14" font-weight="700" fill="#1a202c">3.  3D-ish view — what the lip notch looks like on the actual section</text>
<text x="970" y="380" font-size="12" fill="#4a5568">Looking at the end of the stick at an angle. C-section opens to the right.</text>
<polygon points="1293.5,514.4 1412.5,514.4 1412.5,665.6 1293.5,665.6" fill="url(#steel)" stroke="#475569" stroke-width="1.5"/>
<polygon points="1293.5,514.4 1412.5,514.4 1370.7,549.2 1251.7,549.2" fill="url(#steel-flange)" stroke="#475569" stroke-width="1.2"/>
<polygon points="1293.5,665.6 1412.5,665.6 1370.7,700.5 1251.7,700.5" fill="url(#steel-flange)" stroke="#475569" stroke-width="1.2"/>
<polygon points="1251.7,549.2 1282.3,549.2 1282.3,567.9 1251.7,567.9" fill="url(#steel-dark)" stroke="#475569" stroke-width="1.2"/>
<polygon points="1302.7,549.2 1370.7,549.2 1370.7,567.9 1302.7,567.9" fill="url(#steel-dark)" stroke="#475569" stroke-width="1.2"/>
<polygon points="1282.3,549.2 1302.7,549.2 1302.7,567.9 1282.3,567.9" fill="url(#cut-hatch)" stroke="#dc2626" stroke-width="1.2"/>
<polygon points="1251.7,700.5 1282.3,700.5 1282.3,681.8 1251.7,681.8" fill="url(#steel-dark)" stroke="#475569" stroke-width="1.2"/>
<polygon points="1302.7,700.5 1370.7,700.5 1370.7,681.8 1302.7,681.8" fill="url(#steel-dark)" stroke="#475569" stroke-width="1.2"/>
<polygon points="1282.3,700.5 1302.7,700.5 1302.7,681.8 1282.3,681.8" fill="url(#cut-hatch)" stroke="#dc2626" stroke-width="1.2"/>
<ellipse cx="1344.5" cy="590.0" rx="5.1" ry="4.3" fill="white" stroke="#16a34a" stroke-width="2"/>
<text x="1292.28" y="534.2" font-size="11" font-weight="700" fill="#7f1d1d">Top lip notch</text>
<line x1="1297.28" y1="537.2" x2="1292.48" y2="547.2" stroke="#7f1d1d" stroke-width="0.8" marker-end="url(#ar)"/>
<text x="1292.28" y="720.5" font-size="11" font-weight="700" fill="#7f1d1d">Bottom lip notch</text>
<line x1="1300.28" y1="715.5" x2="1292.48" y2="700.5" stroke="#7f1d1d" stroke-width="0.8" marker-end="url(#ar)"/>
<text x="1314.5" y="570.0" font-size="11" font-weight="700" fill="#14532d">M6 bolt hole</text>
<text x="1314.5" y="583.0" font-size="10" fill="#14532d">at centreline crossing</text>
<line x1="1332.5" y1="575.0" x2="1341.5" y2="583.0" stroke="#14532d" stroke-width="0.8" marker-end="url(#ar)"/>
<line x1="1242.5" y1="692.0" x2="1285.0" y2="692.0" stroke="#374151" stroke-width="1" marker-end="url(#ar)"/>
<text x="1288.0" y="695.0" font-size="9" fill="#374151">length</text>
<line x1="1242.5" y1="692.0" x2="1242.5" y2="649.5" stroke="#374151" stroke-width="1" marker-end="url(#ar)"/>
<text x="1245.5" y="652.5" font-size="9" fill="#374151">web</text>
<rect x="970" y="740" width="885" height="60" fill="#dcfce7" stroke="#16a34a" rx="3"/>
<text x="980" y="758" font-size="12" font-weight="700" fill="#14532d">3D view shows:</text>
<text x="980" y="774" font-size="11" fill="#14532d">• Both lips notched (red hatched) so the stick can sit flush against the chord</text>
<text x="980" y="788" font-size="11" fill="#14532d">• Single bolt hole through the centre of the web at the centreline crossing</text>
<rect x="30" y="840" width="1840" height="580" fill="white" stroke="#cbd5e0" rx="4"/>
<text x="45" y="862" font-size="14" font-weight="700" fill="#1a202c">4.  Why the lip notch matters — assembly view (web meets chord)</text>
<text x="495.0" y="905" text-anchor="middle" font-size="13" font-weight="700" fill="#dc2626">WITHOUT lip notch — won't fit</text>
<rect x="80.0" y="950" width="830.0" height="133.5" fill="url(#steel)" stroke="#1d4ed8" stroke-width="1.5"/>
<rect x="80.0" y="950" width="830.0" height="16.5" fill="url(#steel-flange)" stroke="#1d4ed8" stroke-width="1"/>
<rect x="80.0" y="1067.0" width="830.0" height="16.5" fill="url(#steel-flange)" stroke="#1d4ed8" stroke-width="1"/>
<text x="90.0" y="968" font-size="11" fill="#1d4ed8" font-weight="600">CHORD plate (laid flat)</text>
<rect x="428.25" y="1113.5" width="133.5" height="56.5" fill="url(#steel)" stroke="#475569" stroke-width="1.5"/>
<rect x="428.25" y="1113.5" width="133.5" height="16.5" fill="url(#steel-flange)" stroke="#475569" stroke-width="1"/>
<rect x="428.25" y="1153.5" width="133.5" height="16.5" fill="url(#steel-flange)" stroke="#475569" stroke-width="1"/>
<text x="495.0" y="1155" text-anchor="middle" font-size="11" fill="#475569" font-weight="600">WEB stud</text>
<rect x="428.25" y="1083.5" width="133.5" height="30" fill="#fee2e2" stroke="#dc2626" stroke-width="2" stroke-dasharray="4 2"/>
<text x="495.0" y="1101.5" text-anchor="middle" font-size="11" font-weight="700" fill="#7f1d1d">CLASH — gap of 11mm</text>
<text x="495.0" y="1115.5" text-anchor="middle" font-size="9" fill="#7f1d1d">web cannot sit flat on chord</text>
<text x="1405.0" y="905" text-anchor="middle" font-size="13" font-weight="700" fill="#16a34a">WITH lip notch — sits flush</text>
<rect x="990.0" y="950" width="830.0" height="133.5" fill="url(#steel)" stroke="#1d4ed8" stroke-width="1.5"/>
<rect x="990.0" y="950" width="830.0" height="16.5" fill="url(#steel-flange)" stroke="#1d4ed8" stroke-width="1"/>
<rect x="990.0" y="1067.0" width="830.0" height="16.5" fill="url(#steel-flange)" stroke="#1d4ed8" stroke-width="1"/>
<text x="1000.0" y="968" font-size="11" fill="#1d4ed8" font-weight="600">CHORD plate (laid flat)</text>
<rect x="1338.25" y="1088.5" width="133.5" height="81.5" fill="url(#steel)" stroke="#475569" stroke-width="1.5"/>
<rect x="1338.25" y="1088.5" width="133.5" height="16.5" fill="url(#steel-flange)" stroke="#475569" stroke-width="1"/>
<rect x="1338.25" y="1153.5" width="133.5" height="16.5" fill="url(#steel-flange)" stroke="#475569" stroke-width="1"/>
<text x="1405.0" y="1155" text-anchor="middle" font-size="11" fill="#475569" font-weight="600">WEB stud</text>
<rect x="1338.25" y="1088.5" width="18.0" height="18.5" fill="white" stroke="#dc2626" stroke-width="1.5"/>
<rect x="1338.25" y="1088.5" width="18.0" height="18.5" fill="url(#cut-hatch)" opacity="0.6"/>
<rect x="1453.75" y="1088.5" width="18.0" height="18.5" fill="white" stroke="#dc2626" stroke-width="1.5"/>
<rect x="1453.75" y="1088.5" width="18.0" height="18.5" fill="url(#cut-hatch)" opacity="0.6"/>
<circle cx="1405.0" cy="1016.75" r="6" fill="white" stroke="#16a34a" stroke-width="2"/>
<text x="1417.0" y="1020.75" font-size="10" fill="#14532d" font-weight="700">single bolt</text>
<text x="30" y="1440" font-size="11" fill="#6b7280">Source: 2603191 ROCKVILLE TH-TYPE-A1-LT, frame TN2-1, web W6 (89S41-0.75 stud, 2037.74 mm). Lip notch at 1997.02 mm = 40.72 mm from cut end. Notch ~12 mm wide × 8 mm deep.</text>
</svg>