<svg xmlns="http://www.w3.org/2000/svg" width="1900" height="1150" viewBox="0 0 1900 1150" font-family="Segoe UI, Arial, sans-serif">
<defs>
  <!-- Galvanised steel surface (cool silver with subtle horizontal sheen) -->
  <linearGradient id="galv" x1="0" y1="0" x2="0" y2="1">
    <stop offset="0%" stop-color="#e8edf2"/>
    <stop offset="20%" stop-color="#d8dee5"/>
    <stop offset="50%" stop-color="#c5ccd4"/>
    <stop offset="80%" stop-color="#a8b0b8"/>
    <stop offset="100%" stop-color="#8d959e"/>
  </linearGradient>
  <!-- Galv chord (slightly bluer to differentiate) -->
  <linearGradient id="galv-chord" x1="0" y1="0" x2="0" y2="1">
    <stop offset="0%" stop-color="#e2e8f0"/>
    <stop offset="50%" stop-color="#c2cbd6"/>
    <stop offset="100%" stop-color="#8a93a0"/>
  </linearGradient>
  <!-- Bright spangle highlight -->
  <radialGradient id="spangle" cx="0.3" cy="0.3" r="0.7">
    <stop offset="0%" stop-color="white" stop-opacity="0.7"/>
    <stop offset="40%" stop-color="white" stop-opacity="0.15"/>
    <stop offset="100%" stop-color="white" stop-opacity="0"/>
  </radialGradient>
  <!-- Lip strip (slightly brighter — top edge catches light) -->
  <linearGradient id="lip-top" x1="0" y1="0" x2="0" y2="1">
    <stop offset="0%" stop-color="#f4f6f8"/>
    <stop offset="60%" stop-color="#d6dde4"/>
    <stop offset="100%" stop-color="#a8b0b8"/>
  </linearGradient>
  <linearGradient id="lip-bot" x1="0" y1="0" x2="0" y2="1">
    <stop offset="0%" stop-color="#a8b0b8"/>
    <stop offset="40%" stop-color="#d6dde4"/>
    <stop offset="100%" stop-color="#f4f6f8"/>
  </linearGradient>
  <!-- Drilled hole — looks like a hole punched through, dark interior -->
  <radialGradient id="hole" cx="0.4" cy="0.35" r="0.6">
    <stop offset="0%" stop-color="#1a1a1a"/>
    <stop offset="60%" stop-color="#404040"/>
    <stop offset="100%" stop-color="#5a5a5a"/>
  </radialGradient>
  <!-- Hole bevel (bright catch on near edge) -->
  <radialGradient id="hole-bevel" cx="0.5" cy="0.5" r="0.5">
    <stop offset="80%" stop-color="white" stop-opacity="0"/>
    <stop offset="95%" stop-color="white" stop-opacity="0.5"/>
    <stop offset="100%" stop-color="white" stop-opacity="0"/>
  </radialGradient>
  <!-- Swage depression - darker inside -->
  <linearGradient id="swage" x1="0" y1="0" x2="0" y2="1">
    <stop offset="0%" stop-color="#9aa0a8"/>
    <stop offset="50%" stop-color="#5a6068"/>
    <stop offset="100%" stop-color="#9aa0a8"/>
  </linearGradient>
  <!-- Cut edge (bright — exposed steel from cutting) -->
  <linearGradient id="cut-edge" x1="0" y1="0" x2="1" y2="1">
    <stop offset="0%" stop-color="#fef9e7"/>
    <stop offset="100%" stop-color="#d6dde4"/>
  </linearGradient>
  <!-- Drop shadow filter -->
  <filter id="ds" x="-20%" y="-20%" width="140%" height="140%">
    <feGaussianBlur in="SourceAlpha" stdDeviation="3"/>
    <feOffset dx="3" dy="5"/>
    <feComponentTransfer><feFuncA type="linear" slope="0.35"/></feComponentTransfer>
    <feMerge><feMergeNode/><feMergeNode in="SourceGraphic"/></feMerge>
  </filter>
  <filter id="ds-light" x="-10%" y="-10%" width="120%" height="120%">
    <feGaussianBlur in="SourceAlpha" stdDeviation="1.5"/>
    <feOffset dx="1.5" dy="2"/>
    <feComponentTransfer><feFuncA type="linear" slope="0.25"/></feComponentTransfer>
    <feMerge><feMergeNode/><feMergeNode in="SourceGraphic"/></feMerge>
  </filter>
  <!-- Soft inset for swage -->
  <filter id="emboss" x="-10%" y="-10%" width="120%" height="120%">
    <feGaussianBlur in="SourceAlpha" stdDeviation="0.5"/>
    <feOffset dx="0" dy="1"/>
    <feComponentTransfer><feFuncA type="linear" slope="0.4"/></feComponentTransfer>
    <feMerge><feMergeNode/><feMergeNode in="SourceGraphic"/></feMerge>
  </filter>
  <!-- Spangle pattern (zinc galv crystals) -->
  <pattern id="spangle-pat" patternUnits="userSpaceOnUse" width="40" height="40">
    <rect width="40" height="40" fill="none"/>
    <circle cx="8" cy="12" r="6" fill="white" opacity="0.04"/>
    <circle cx="28" cy="22" r="8" fill="white" opacity="0.03"/>
    <circle cx="15" cy="32" r="5" fill="white" opacity="0.05"/>
    <circle cx="34" cy="6" r="4" fill="white" opacity="0.04"/>
  </pattern>
</defs>
<defs><linearGradient id="bg" x1="0" y1="0" x2="0" y2="1"><stop offset="0" stop-color="#f8f9fa"/><stop offset="1" stop-color="#dde1e6"/></linearGradient></defs>
<rect width="1900" height="1150" fill="url(#bg)"/>
<text x="40" y="44" font-size="26" font-weight="700" fill="#1a202c">Truss frame TN2-1 — photoreal galvanised steel</text>
<text x="40" y="70" font-size="14" fill="#4a5568">Profile F37008 W089 F41-38 (89×41 lipped C, 0.75mm AZ150). 3 × Ø3.8mm WEB HOLEs at every centreline crossing.</text>
<text x="40" y="94" font-size="13" fill="#374151">10 members &middot; 9 junction nodes &middot; 27 Ø3.8mm holes total &middot; SWAGE on every web</text>
<g filter="url(#ds)">
<polygon points="1749.0,278.7 1760.3,251.4 1707.5,261.5 1718.8,234.2" fill="url(#galv-chord)" filter="url(#ds-light)"/>
<polygon points="1749.0,278.7 1760.3,251.4 1707.5,261.5 1718.8,234.2" fill="url(#spangle-pat)" opacity="0.6"/>
<polygon points="1749.0,278.7 1718.8,234.2 1717.3,237.8 1750.6,275.0" fill="url(#lip-top)" stroke="#5a626c" stroke-width="0.6"/>
<polygon points="1758.8,255.0 1709.0,257.8 1707.5,261.5 1760.3,251.4" fill="url(#lip-bot)" stroke="#5a626c" stroke-width="0.6"/>
<polygon points="1749.0,278.7 1760.3,251.4 1707.5,261.5 1718.8,234.2" fill="none" stroke="#444" stroke-width="0.9"/>
<polyline points="1749.0,278.7 1718.8,234.2" fill="none" stroke="white" stroke-width="0.9" opacity="0.7"/>
<polyline points="1760.3,251.4 1707.5,261.5" fill="none" stroke="#3a3f47" stroke-width="0.9" opacity="0.6"/>
<polygon points="1737.2,261.5 1725.9,234.2 151.0,918.5 139.7,891.2" fill="url(#galv-chord)" filter="url(#ds-light)"/>
<polygon points="1737.2,261.5 1725.9,234.2 151.0,918.5 139.7,891.2" fill="url(#spangle-pat)" opacity="0.6"/>
<polygon points="1737.2,261.5 139.7,891.2 141.2,894.9 1735.7,257.8" fill="url(#lip-top)" stroke="#5a626c" stroke-width="0.6"/>
<polygon points="1727.4,237.8 149.4,914.8 151.0,918.5 1725.9,234.2" fill="url(#lip-bot)" stroke="#5a626c" stroke-width="0.6"/>
<polygon points="1737.2,261.5 1725.9,234.2 151.0,918.5 139.7,891.2" fill="none" stroke="#444" stroke-width="0.9"/>
<polyline points="1737.2,261.5 139.7,891.2" fill="none" stroke="white" stroke-width="0.9" opacity="0.7"/>
<polyline points="1725.9,234.2 151.0,918.5" fill="none" stroke="#3a3f47" stroke-width="0.9" opacity="0.6"/>
<polygon points="1760.3,313.5 1760.3,283.9 1605.7,313.5 1605.7,283.9" fill="url(#galv-chord)" filter="url(#ds-light)"/>
<polygon points="1760.3,313.5 1760.3,283.9 1605.7,313.5 1605.7,283.9" fill="url(#spangle-pat)" opacity="0.6"/>
<polygon points="1760.3,313.5 1605.7,283.9 1605.7,287.9 1760.3,309.5" fill="url(#lip-top)" stroke="#5a626c" stroke-width="0.6"/>
<polygon points="1760.3,287.9 1605.7,309.5 1605.7,313.5 1760.3,283.9" fill="url(#lip-bot)" stroke="#5a626c" stroke-width="0.6"/>
<polygon points="1760.3,313.5 1760.3,283.9 1605.7,313.5 1605.7,283.9" fill="none" stroke="#444" stroke-width="0.9"/>
<polyline points="1760.3,313.5 1605.7,283.9" fill="none" stroke="white" stroke-width="0.9" opacity="0.7"/>
<polyline points="1760.3,283.9 1605.7,313.5" fill="none" stroke="#3a3f47" stroke-width="0.9" opacity="0.6"/>
<polygon points="1760.3,923.2 1760.3,893.6 139.7,923.2 139.7,893.6" fill="url(#galv-chord)" filter="url(#ds-light)"/>
<polygon points="1760.3,923.2 1760.3,893.6 139.7,923.2 139.7,893.6" fill="url(#spangle-pat)" opacity="0.6"/>
<polygon points="1760.3,923.2 139.7,893.6 139.7,897.6 1760.3,919.2" fill="url(#lip-top)" stroke="#5a626c" stroke-width="0.6"/>
<polygon points="1760.3,897.6 139.7,919.2 139.7,923.2 1760.3,893.6" fill="url(#lip-bot)" stroke="#5a626c" stroke-width="0.6"/>
<polygon points="1760.3,923.2 1760.3,893.6 139.7,923.2 139.7,893.6" fill="none" stroke="#444" stroke-width="0.9"/>
<polyline points="1760.3,923.2 139.7,893.6" fill="none" stroke="white" stroke-width="0.9" opacity="0.7"/>
<polyline points="1760.3,893.6 139.7,923.2" fill="none" stroke="#3a3f47" stroke-width="0.9" opacity="0.6"/>
<polygon points="1730.8,922.2 1760.3,922.2 1730.8,251.4 1760.3,251.4" fill="url(#galv)" filter="url(#ds-light)"/>
<polygon points="1730.8,922.2 1760.3,922.2 1730.8,251.4 1760.3,251.4" fill="url(#spangle-pat)" opacity="0.6"/>
<polygon points="1730.8,922.2 1760.3,251.4 1756.4,251.4 1734.8,922.2" fill="url(#lip-top)" stroke="#5a626c" stroke-width="0.6"/>
<polygon points="1756.4,922.2 1734.8,251.4 1730.8,251.4 1760.3,922.2" fill="url(#lip-bot)" stroke="#5a626c" stroke-width="0.6"/>
<polygon points="1730.8,922.2 1760.3,922.2 1730.8,251.4 1760.3,251.4" fill="none" stroke="#444" stroke-width="0.9"/>
<polyline points="1730.8,922.2 1760.3,251.4" fill="none" stroke="white" stroke-width="0.9" opacity="0.7"/>
<polyline points="1760.3,922.2 1730.8,251.4" fill="none" stroke="#3a3f47" stroke-width="0.9" opacity="0.6"/>
<polygon points="1705.0,926.5 1725.4,905.1 1216.1,458.2 1236.6,436.8" fill="url(#galv)" filter="url(#ds-light)"/>
<polygon points="1705.0,926.5 1725.4,905.1 1216.1,458.2 1236.6,436.8" fill="url(#spangle-pat)" opacity="0.6"/>
<polygon points="1705.0,926.5 1236.6,436.8 1233.8,439.7 1707.7,923.6" fill="url(#lip-top)" stroke="#5a626c" stroke-width="0.6"/>
<polygon points="1722.6,908.0 1218.9,455.3 1216.1,458.2 1725.4,905.1" fill="url(#lip-bot)" stroke="#5a626c" stroke-width="0.6"/>
<polygon points="1705.0,926.5 1725.4,905.1 1216.1,458.2 1236.6,436.8" fill="none" stroke="#444" stroke-width="0.9"/>
<polyline points="1705.0,926.5 1236.6,436.8" fill="none" stroke="white" stroke-width="0.9" opacity="0.7"/>
<polyline points="1725.4,905.1 1216.1,458.2" fill="none" stroke="#3a3f47" stroke-width="0.9" opacity="0.6"/>
<polygon points="1180.0,918.4 1209.6,918.4 1180.0,460.2 1209.6,460.2" fill="url(#galv)" filter="url(#ds-light)"/>
<polygon points="1180.0,918.4 1209.6,918.4 1180.0,460.2 1209.6,460.2" fill="url(#spangle-pat)" opacity="0.6"/>
<polygon points="1180.0,918.4 1209.6,460.2 1205.6,460.2 1184.0,918.4" fill="url(#lip-top)" stroke="#5a626c" stroke-width="0.6"/>
<polygon points="1205.6,918.4 1184.0,460.2 1180.0,460.2 1209.6,918.4" fill="url(#lip-bot)" stroke="#5a626c" stroke-width="0.6"/>
<polygon points="1180.0,918.4 1209.6,918.4 1180.0,460.2 1209.6,460.2" fill="none" stroke="#444" stroke-width="0.9"/>
<polyline points="1180.0,918.4 1209.6,460.2" fill="none" stroke="white" stroke-width="0.9" opacity="0.7"/>
<polyline points="1209.6,918.4 1180.0,460.2" fill="none" stroke="#3a3f47" stroke-width="0.9" opacity="0.6"/>
<polygon points="1155.4,926.1 1169.1,900.0 689.8,681.3 703.6,655.1" fill="url(#galv)" filter="url(#ds-light)"/>
<polygon points="1155.4,926.1 1169.1,900.0 689.8,681.3 703.6,655.1" fill="url(#spangle-pat)" opacity="0.6"/>
<polygon points="1155.4,926.1 703.6,655.1 701.7,658.6 1157.2,922.6" fill="url(#lip-top)" stroke="#5a626c" stroke-width="0.6"/>
<polygon points="1167.3,903.5 691.7,677.7 689.8,681.3 1169.1,900.0" fill="url(#lip-bot)" stroke="#5a626c" stroke-width="0.6"/>
<polygon points="1155.4,926.1 1169.1,900.0 689.8,681.3 703.6,655.1" fill="none" stroke="#444" stroke-width="0.9"/>
<polyline points="1155.4,926.1 703.6,655.1" fill="none" stroke="white" stroke-width="0.9" opacity="0.7"/>
<polyline points="1169.1,900.0 689.8,681.3" fill="none" stroke="#3a3f47" stroke-width="0.9" opacity="0.6"/>
<polygon points="652.5,918.4 682.1,918.4 652.5,678.7 682.1,678.7" fill="url(#galv)" filter="url(#ds-light)"/>
<polygon points="652.5,918.4 682.1,918.4 652.5,678.7 682.1,678.7" fill="url(#spangle-pat)" opacity="0.6"/>
<polygon points="652.5,918.4 682.1,678.7 678.1,678.7 656.5,918.4" fill="url(#lip-top)" stroke="#5a626c" stroke-width="0.6"/>
<polygon points="678.1,918.4 656.5,678.7 652.5,678.7 682.1,918.4" fill="url(#lip-bot)" stroke="#5a626c" stroke-width="0.6"/>
<polygon points="652.5,918.4 682.1,918.4 652.5,678.7 682.1,678.7" fill="none" stroke="#444" stroke-width="0.9"/>
<polyline points="652.5,918.4 682.1,678.7" fill="none" stroke="white" stroke-width="0.9" opacity="0.7"/>
<polyline points="682.1,918.4 652.5,678.7" fill="none" stroke="#3a3f47" stroke-width="0.9" opacity="0.6"/>
<polygon points="226.2,918.4 255.8,918.4 226.2,855.3 255.8,855.3" fill="url(#galv)" filter="url(#ds-light)"/>
<polygon points="226.2,918.4 255.8,918.4 226.2,855.3 255.8,855.3" fill="url(#spangle-pat)" opacity="0.6"/>
<polygon points="226.2,918.4 255.8,855.3 251.8,855.3 230.2,918.4" fill="url(#lip-top)" stroke="#5a626c" stroke-width="0.6"/>
<polygon points="251.8,918.4 230.2,855.3 226.2,855.3 255.8,918.4" fill="url(#lip-bot)" stroke="#5a626c" stroke-width="0.6"/>
<polygon points="226.2,918.4 255.8,918.4 226.2,855.3 255.8,855.3" fill="none" stroke="#444" stroke-width="0.9"/>
<polyline points="226.2,918.4 255.8,855.3" fill="none" stroke="white" stroke-width="0.9" opacity="0.7"/>
<polyline points="255.8,918.4 226.2,855.3" fill="none" stroke="#3a3f47" stroke-width="0.9" opacity="0.6"/>
</g>
<g transform="translate(1745.6,586.8) rotate(-90.0)"><rect x="-327.41604059431234" y="-4.0" width="654.8320811886247" height="8" fill="url(#swage)" rx="4.0"/><line x1="-327.41604059431234" y1="-3.0" x2="327.41604059431234" y2="-3.0" stroke="white" stroke-width="0.5" opacity="0.6"/><line x1="-327.41604059431234" y1="3.0" x2="327.41604059431234" y2="3.0" stroke="black" stroke-width="0.5" opacity="0.4"/></g>
<g transform="translate(1470.8,681.6) rotate(-136.2)"><rect x="-330.4705107752672" y="-4.0" width="660.9410215505344" height="8" fill="url(#swage)" rx="4.0"/><line x1="-330.4705107752672" y1="-3.0" x2="330.4705107752672" y2="-3.0" stroke="white" stroke-width="0.5" opacity="0.6"/><line x1="-330.4705107752672" y1="3.0" x2="330.4705107752672" y2="3.0" stroke="black" stroke-width="0.5" opacity="0.4"/></g>
<g transform="translate(1194.8,689.3) rotate(-90.0)"><rect x="-221.09938487934883" y="-4.0" width="442.19876975869767" height="8" fill="url(#swage)" rx="4.0"/><line x1="-221.09938487934883" y1="-3.0" x2="221.09938487934883" y2="-3.0" stroke="white" stroke-width="0.5" opacity="0.6"/><line x1="-221.09938487934883" y1="3.0" x2="221.09938487934883" y2="3.0" stroke="black" stroke-width="0.5" opacity="0.4"/></g>
<g transform="translate(929.5,790.6) rotate(-152.3)"><rect x="-255.00803855544905" y="-4.0" width="510.0160771108981" height="8" fill="url(#swage)" rx="4.0"/><line x1="-255.00803855544905" y1="-3.0" x2="255.00803855544905" y2="-3.0" stroke="white" stroke-width="0.5" opacity="0.6"/><line x1="-255.00803855544905" y1="3.0" x2="255.00803855544905" y2="3.0" stroke="black" stroke-width="0.5" opacity="0.4"/></g>
<g transform="translate(667.3,798.5) rotate(-90.0)"><rect x="-111.84307669842661" y="-4.0" width="223.68615339685323" height="8" fill="url(#swage)" rx="4.0"/><line x1="-111.84307669842661" y1="-3.0" x2="111.84307669842661" y2="-3.0" stroke="white" stroke-width="0.5" opacity="0.6"/><line x1="-111.84307669842661" y1="3.0" x2="111.84307669842661" y2="3.0" stroke="black" stroke-width="0.5" opacity="0.4"/></g>
<g transform="translate(241.0,886.8) rotate(-90.0)"><rect x="-23.559157448983342" y="-4.0" width="47.118314897966684" height="8" fill="url(#swage)" rx="4.0"/><line x1="-23.559157448983342" y1="-3.0" x2="23.559157448983342" y2="-3.0" stroke="white" stroke-width="0.5" opacity="0.6"/><line x1="-23.559157448983342" y1="3.0" x2="23.559157448983342" y2="3.0" stroke="black" stroke-width="0.5" opacity="0.4"/></g>
<text x="1733.9" y="260.4" font-size="12" font-weight="700" text-anchor="middle" fill="#1a202c" opacity="0.7" stroke="white" stroke-width="3" paint-order="stroke">T2</text>
<text x="1745.6" y="590.8" font-size="12" font-weight="700" text-anchor="middle" fill="#1a202c" opacity="0.7" stroke="white" stroke-width="3" paint-order="stroke">W5</text>
<text x="938.4" y="580.3" font-size="12" font-weight="700" text-anchor="middle" fill="#1a202c" opacity="0.7" stroke="white" stroke-width="3" paint-order="stroke">T3</text>
<text x="1683.0" y="302.7" font-size="12" font-weight="700" text-anchor="middle" fill="#1a202c" opacity="0.7" stroke="white" stroke-width="3" paint-order="stroke">C4</text>
<text x="1470.8" y="685.6" font-size="12" font-weight="700" text-anchor="middle" fill="#1a202c" opacity="0.7" stroke="white" stroke-width="3" paint-order="stroke">W6</text>
<text x="950.0" y="912.4" font-size="12" font-weight="700" text-anchor="middle" fill="#1a202c" opacity="0.7" stroke="white" stroke-width="3" paint-order="stroke">B1</text>
<text x="1194.8" y="693.3" font-size="12" font-weight="700" text-anchor="middle" fill="#1a202c" opacity="0.7" stroke="white" stroke-width="3" paint-order="stroke">W7</text>
<text x="929.5" y="794.6" font-size="12" font-weight="700" text-anchor="middle" fill="#1a202c" opacity="0.7" stroke="white" stroke-width="3" paint-order="stroke">W8</text>
<text x="667.3" y="802.5" font-size="12" font-weight="700" text-anchor="middle" fill="#1a202c" opacity="0.7" stroke="white" stroke-width="3" paint-order="stroke">W9</text>
<text x="241.0" y="890.8" font-size="12" font-weight="700" text-anchor="middle" fill="#1a202c" opacity="0.7" stroke="white" stroke-width="3" paint-order="stroke">W10</text>
<rect x="1737.4" y="255.8" width="4.7" height="15.3" transform="rotate(-90.0 1739.8 263.4)" fill="rgba(0,0,0,0.04)" stroke="rgba(0,0,0,0.2)" stroke-width="0.5" stroke-dasharray="2 2" rx="2"/>
<circle cx="1734.1" cy="263.4" r="1.33" fill="url(#hole-bevel)"/>
<circle cx="1734.1" cy="263.4" r="0.63" fill="url(#hole)"/>
<path d="M 1733.7 263.1 A 0.63 0.63 0 0 1 1733.9 263.0" fill="none" stroke="#1a1a1a" stroke-width="0.4" opacity="0.7"/>
<circle cx="1734.3" cy="263.6" r="0.19" fill="white" opacity="0.5"/>
<circle cx="1739.8" cy="263.4" r="1.33" fill="url(#hole-bevel)"/>
<circle cx="1739.8" cy="263.4" r="0.63" fill="url(#hole)"/>
<path d="M 1739.3 263.1 A 0.63 0.63 0 0 1 1739.5 263.0" fill="none" stroke="#1a1a1a" stroke-width="0.4" opacity="0.7"/>
<circle cx="1739.9" cy="263.6" r="0.19" fill="white" opacity="0.5"/>
<circle cx="1745.4" cy="263.4" r="1.33" fill="url(#hole-bevel)"/>
<circle cx="1745.4" cy="263.4" r="0.63" fill="url(#hole)"/>
<path d="M 1745.0 263.1 A 0.63 0.63 0 0 1 1745.2 263.0" fill="none" stroke="#1a1a1a" stroke-width="0.4" opacity="0.7"/>
<circle cx="1745.6" cy="263.6" r="0.19" fill="white" opacity="0.5"/>
<rect x="1730.5" y="912.9" width="4.7" height="15.3" transform="rotate(-90.0 1732.9 920.6)" fill="rgba(0,0,0,0.04)" stroke="rgba(0,0,0,0.2)" stroke-width="0.5" stroke-dasharray="2 2" rx="2"/>
<circle cx="1727.2" cy="920.6" r="1.33" fill="url(#hole-bevel)"/>
<circle cx="1727.2" cy="920.6" r="0.63" fill="url(#hole)"/>
<path d="M 1726.8 920.3 A 0.63 0.63 0 0 1 1727.0 920.1" fill="none" stroke="#1a1a1a" stroke-width="0.4" opacity="0.7"/>
<circle cx="1727.4" cy="920.8" r="0.19" fill="white" opacity="0.5"/>
<circle cx="1732.9" cy="920.6" r="1.33" fill="url(#hole-bevel)"/>
<circle cx="1732.9" cy="920.6" r="0.63" fill="url(#hole)"/>
<path d="M 1732.4 920.3 A 0.63 0.63 0 0 1 1732.6 920.1" fill="none" stroke="#1a1a1a" stroke-width="0.4" opacity="0.7"/>
<circle cx="1733.0" cy="920.8" r="0.19" fill="white" opacity="0.5"/>
<circle cx="1738.5" cy="920.6" r="1.33" fill="url(#hole-bevel)"/>
<circle cx="1738.5" cy="920.6" r="0.63" fill="url(#hole)"/>
<path d="M 1738.1 920.3 A 0.63 0.63 0 0 1 1738.3 920.1" fill="none" stroke="#1a1a1a" stroke-width="0.4" opacity="0.7"/>
<circle cx="1738.7" cy="920.8" r="0.19" fill="white" opacity="0.5"/>
<rect x="1606.4" y="291.1" width="4.7" height="15.3" transform="rotate(0.0 1608.7 298.7)" fill="rgba(0,0,0,0.04)" stroke="rgba(0,0,0,0.2)" stroke-width="0.5" stroke-dasharray="2 2" rx="2"/>
<circle cx="1608.7" cy="293.1" r="1.33" fill="url(#hole-bevel)"/>
<circle cx="1608.7" cy="293.1" r="0.63" fill="url(#hole)"/>
<path d="M 1608.2 292.8 A 0.63 0.63 0 0 1 1608.4 292.6" fill="none" stroke="#1a1a1a" stroke-width="0.4" opacity="0.7"/>
<circle cx="1608.9" cy="293.2" r="0.19" fill="white" opacity="0.5"/>
<circle cx="1608.7" cy="298.7" r="1.33" fill="url(#hole-bevel)"/>
<circle cx="1608.7" cy="298.7" r="0.63" fill="url(#hole)"/>
<path d="M 1608.2 298.5 A 0.63 0.63 0 0 1 1608.4 298.3" fill="none" stroke="#1a1a1a" stroke-width="0.4" opacity="0.7"/>
<circle cx="1608.9" cy="298.9" r="0.19" fill="white" opacity="0.5"/>
<circle cx="1608.7" cy="304.4" r="1.33" fill="url(#hole-bevel)"/>
<circle cx="1608.7" cy="304.4" r="0.63" fill="url(#hole)"/>
<path d="M 1608.2 304.1 A 0.63 0.63 0 0 1 1608.4 303.9" fill="none" stroke="#1a1a1a" stroke-width="0.4" opacity="0.7"/>
<circle cx="1608.9" cy="304.5" r="0.19" fill="white" opacity="0.5"/>
<rect x="1205.3" y="439.6" width="4.7" height="15.3" transform="rotate(-136.2 1207.7 447.2)" fill="rgba(0,0,0,0.04)" stroke="rgba(0,0,0,0.2)" stroke-width="0.5" stroke-dasharray="2 2" rx="2"/>
<circle cx="1203.7" cy="451.3" r="1.33" fill="url(#hole-bevel)"/>
<circle cx="1203.7" cy="451.3" r="0.63" fill="url(#hole)"/>
<path d="M 1203.3 451.0 A 0.63 0.63 0 0 1 1203.5 450.8" fill="none" stroke="#1a1a1a" stroke-width="0.4" opacity="0.7"/>
<circle cx="1203.9" cy="451.5" r="0.19" fill="white" opacity="0.5"/>
<circle cx="1207.7" cy="447.2" r="1.33" fill="url(#hole-bevel)"/>
<circle cx="1207.7" cy="447.2" r="0.63" fill="url(#hole)"/>
<path d="M 1207.2 446.9 A 0.63 0.63 0 0 1 1207.4 446.8" fill="none" stroke="#1a1a1a" stroke-width="0.4" opacity="0.7"/>
<circle cx="1207.8" cy="447.4" r="0.19" fill="white" opacity="0.5"/>
<circle cx="1211.6" cy="443.1" r="1.33" fill="url(#hole-bevel)"/>
<circle cx="1211.6" cy="443.1" r="0.63" fill="url(#hole)"/>
<path d="M 1211.1 442.9 A 0.63 0.63 0 0 1 1211.3 442.7" fill="none" stroke="#1a1a1a" stroke-width="0.4" opacity="0.7"/>
<circle cx="1211.8" cy="443.3" r="0.19" fill="white" opacity="0.5"/>
<rect x="134.4" y="900.8" width="4.7" height="15.3" transform="rotate(0.0 136.7 908.4)" fill="rgba(0,0,0,0.04)" stroke="rgba(0,0,0,0.2)" stroke-width="0.5" stroke-dasharray="2 2" rx="2"/>
<circle cx="136.7" cy="902.8" r="1.33" fill="url(#hole-bevel)"/>
<circle cx="136.7" cy="902.8" r="0.63" fill="url(#hole)"/>
<path d="M 136.3 902.5 A 0.63 0.63 0 0 1 136.5 902.3" fill="none" stroke="#1a1a1a" stroke-width="0.4" opacity="0.7"/>
<circle cx="136.9" cy="902.9" r="0.19" fill="white" opacity="0.5"/>
<circle cx="136.7" cy="908.4" r="1.33" fill="url(#hole-bevel)"/>
<circle cx="136.7" cy="908.4" r="0.63" fill="url(#hole)"/>
<path d="M 136.3 908.2 A 0.63 0.63 0 0 1 136.5 908.0" fill="none" stroke="#1a1a1a" stroke-width="0.4" opacity="0.7"/>
<circle cx="136.9" cy="908.6" r="0.19" fill="white" opacity="0.5"/>
<circle cx="136.7" cy="914.1" r="1.33" fill="url(#hole-bevel)"/>
<circle cx="136.7" cy="914.1" r="0.63" fill="url(#hole)"/>
<path d="M 136.3 913.8 A 0.63 0.63 0 0 1 136.5 913.6" fill="none" stroke="#1a1a1a" stroke-width="0.4" opacity="0.7"/>
<circle cx="136.9" cy="914.2" r="0.19" fill="white" opacity="0.5"/>
<rect x="677.7" y="663.7" width="4.7" height="15.3" transform="rotate(-152.3 680.0 671.4)" fill="rgba(0,0,0,0.04)" stroke="rgba(0,0,0,0.2)" stroke-width="0.5" stroke-dasharray="2 2" rx="2"/>
<circle cx="677.4" cy="676.4" r="1.33" fill="url(#hole-bevel)"/>
<circle cx="677.4" cy="676.4" r="0.63" fill="url(#hole)"/>
<path d="M 677.0 676.1 A 0.63 0.63 0 0 1 677.1 675.9" fill="none" stroke="#1a1a1a" stroke-width="0.4" opacity="0.7"/>
<circle cx="677.6" cy="676.6" r="0.19" fill="white" opacity="0.5"/>
<circle cx="680.0" cy="671.4" r="1.33" fill="url(#hole-bevel)"/>
<circle cx="680.0" cy="671.4" r="0.63" fill="url(#hole)"/>
<path d="M 679.6 671.1 A 0.63 0.63 0 0 1 679.8 670.9" fill="none" stroke="#1a1a1a" stroke-width="0.4" opacity="0.7"/>
<circle cx="680.2" cy="671.6" r="0.19" fill="white" opacity="0.5"/>
<circle cx="682.7" cy="666.4" r="1.33" fill="url(#hole-bevel)"/>
<circle cx="682.7" cy="666.4" r="0.63" fill="url(#hole)"/>
<path d="M 682.2 666.1 A 0.63 0.63 0 0 1 682.4 665.9" fill="none" stroke="#1a1a1a" stroke-width="0.4" opacity="0.7"/>
<circle cx="682.8" cy="666.6" r="0.19" fill="white" opacity="0.5"/>
<rect x="238.7" y="879.2" width="4.7" height="15.3" transform="rotate(-90.0 241.0 886.8)" fill="rgba(0,0,0,0.04)" stroke="rgba(0,0,0,0.2)" stroke-width="0.5" stroke-dasharray="2 2" rx="2"/>
<circle cx="235.4" cy="886.8" r="1.33" fill="url(#hole-bevel)"/>
<circle cx="235.4" cy="886.8" r="0.63" fill="url(#hole)"/>
<path d="M 234.9 886.6 A 0.63 0.63 0 0 1 235.1 886.4" fill="none" stroke="#1a1a1a" stroke-width="0.4" opacity="0.7"/>
<circle cx="235.5" cy="887.0" r="0.19" fill="white" opacity="0.5"/>
<circle cx="241.0" cy="886.8" r="1.33" fill="url(#hole-bevel)"/>
<circle cx="241.0" cy="886.8" r="0.63" fill="url(#hole)"/>
<path d="M 240.6 886.6 A 0.63 0.63 0 0 1 240.8 886.4" fill="none" stroke="#1a1a1a" stroke-width="0.4" opacity="0.7"/>
<circle cx="241.2" cy="887.0" r="0.19" fill="white" opacity="0.5"/>
<circle cx="246.7" cy="886.8" r="1.33" fill="url(#hole-bevel)"/>
<circle cx="246.7" cy="886.8" r="0.63" fill="url(#hole)"/>
<path d="M 246.2 886.6 A 0.63 0.63 0 0 1 246.4 886.4" fill="none" stroke="#1a1a1a" stroke-width="0.4" opacity="0.7"/>
<circle cx="246.8" cy="887.0" r="0.19" fill="white" opacity="0.5"/>
<rect x="1178.7" y="908.0" width="4.7" height="15.3" transform="rotate(-90.0 1181.0 915.7)" fill="rgba(0,0,0,0.04)" stroke="rgba(0,0,0,0.2)" stroke-width="0.5" stroke-dasharray="2 2" rx="2"/>
<circle cx="1175.4" cy="915.7" r="1.33" fill="url(#hole-bevel)"/>
<circle cx="1175.4" cy="915.7" r="0.63" fill="url(#hole)"/>
<path d="M 1174.9 915.4 A 0.63 0.63 0 0 1 1175.1 915.2" fill="none" stroke="#1a1a1a" stroke-width="0.4" opacity="0.7"/>
<circle cx="1175.6" cy="915.9" r="0.19" fill="white" opacity="0.5"/>
<circle cx="1181.0" cy="915.7" r="1.33" fill="url(#hole-bevel)"/>
<circle cx="1181.0" cy="915.7" r="0.63" fill="url(#hole)"/>
<path d="M 1180.6 915.4 A 0.63 0.63 0 0 1 1180.8 915.2" fill="none" stroke="#1a1a1a" stroke-width="0.4" opacity="0.7"/>
<circle cx="1181.2" cy="915.9" r="0.19" fill="white" opacity="0.5"/>
<circle cx="1186.7" cy="915.7" r="1.33" fill="url(#hole-bevel)"/>
<circle cx="1186.7" cy="915.7" r="0.63" fill="url(#hole)"/>
<path d="M 1186.2 915.4 A 0.63 0.63 0 0 1 1186.4 915.2" fill="none" stroke="#1a1a1a" stroke-width="0.4" opacity="0.7"/>
<circle cx="1186.9" cy="915.9" r="0.19" fill="white" opacity="0.5"/>
<rect x="665.0" y="900.8" width="4.7" height="15.3" transform="rotate(-90.0 667.3 908.4)" fill="rgba(0,0,0,0.04)" stroke="rgba(0,0,0,0.2)" stroke-width="0.5" stroke-dasharray="2 2" rx="2"/>
<circle cx="661.6" cy="908.4" r="1.33" fill="url(#hole-bevel)"/>
<circle cx="661.6" cy="908.4" r="0.63" fill="url(#hole)"/>
<path d="M 661.2 908.2 A 0.63 0.63 0 0 1 661.4 908.0" fill="none" stroke="#1a1a1a" stroke-width="0.4" opacity="0.7"/>
<circle cx="661.8" cy="908.6" r="0.19" fill="white" opacity="0.5"/>
<circle cx="667.3" cy="908.4" r="1.33" fill="url(#hole-bevel)"/>
<circle cx="667.3" cy="908.4" r="0.63" fill="url(#hole)"/>
<path d="M 666.8 908.2 A 0.63 0.63 0 0 1 667.0 908.0" fill="none" stroke="#1a1a1a" stroke-width="0.4" opacity="0.7"/>
<circle cx="667.5" cy="908.6" r="0.19" fill="white" opacity="0.5"/>
<circle cx="672.9" cy="908.4" r="1.33" fill="url(#hole-bevel)"/>
<circle cx="672.9" cy="908.4" r="0.63" fill="url(#hole)"/>
<path d="M 672.5 908.2 A 0.63 0.63 0 0 1 672.7 908.0" fill="none" stroke="#1a1a1a" stroke-width="0.4" opacity="0.7"/>
<circle cx="673.1" cy="908.6" r="0.19" fill="white" opacity="0.5"/>
<g filter="url(#ds-light)"><rect x="1610" y="130" width="260" height="200" fill="white" stroke="#cbd5e0" rx="6"/></g>
<text x="1625" y="152" font-size="13" font-weight="700" fill="#1a202c">F37008 W089 F41-38</text>
<text x="1625" y="168" font-size="10" fill="#4a5568">89 × 41 lipped C section</text>
<line x1="1625" y1="180" x2="1855" y2="180" stroke="#e2e8f0"/>
<text x="1625" y="198" font-size="11" fill="#374151" font-weight="600">WEB HOLE pattern at every node:</text>
<circle cx="1660" cy="229.8" r="1.14" fill="url(#hole)"/>
<circle cx="1660" cy="229.8" r="1.44" fill="url(#hole-bevel)"/>
<circle cx="1660" cy="240" r="1.14" fill="url(#hole)"/>
<circle cx="1660" cy="240" r="1.44" fill="url(#hole-bevel)"/>
<circle cx="1660" cy="250.2" r="1.14" fill="url(#hole)"/>
<circle cx="1660" cy="250.2" r="1.44" fill="url(#hole-bevel)"/>
<text x="1700" y="225" font-size="10" fill="#374151">3 × Ø3.8mm</text>
<text x="1700" y="240" font-size="10" fill="#374151">17 mm pitch</text>
<text x="1700" y="255" font-size="10" fill="#374151">on web ℄</text>
<text x="1625" y="285" font-size="10" fill="#6b7280">Each hole takes a 10g</text>
<text x="1625" y="300" font-size="10" fill="#6b7280">self-drilling screw → 3×</text>
<text x="1625" y="315" font-size="10" fill="#6b7280">capacity of one M6 bolt</text>
</svg>