<svg xmlns="http://www.w3.org/2000/svg" width="1900" height="1150" viewBox="0 0 1900 1150" font-family="Segoe UI, Arial, sans-serif">
<defs>
  <!-- Galvanised steel surface (cool silver with subtle horizontal sheen) -->
  <linearGradient id="galv" x1="0" y1="0" x2="0" y2="1">
    <stop offset="0%" stop-color="#e8edf2"/>
    <stop offset="20%" stop-color="#d8dee5"/>
    <stop offset="50%" stop-color="#c5ccd4"/>
    <stop offset="80%" stop-color="#a8b0b8"/>
    <stop offset="100%" stop-color="#8d959e"/>
  </linearGradient>
  <!-- Galv chord (slightly bluer to differentiate) -->
  <linearGradient id="galv-chord" x1="0" y1="0" x2="0" y2="1">
    <stop offset="0%" stop-color="#e2e8f0"/>
    <stop offset="50%" stop-color="#c2cbd6"/>
    <stop offset="100%" stop-color="#8a93a0"/>
  </linearGradient>
  <!-- Bright spangle highlight -->
  <radialGradient id="spangle" cx="0.3" cy="0.3" r="0.7">
    <stop offset="0%" stop-color="white" stop-opacity="0.7"/>
    <stop offset="40%" stop-color="white" stop-opacity="0.15"/>
    <stop offset="100%" stop-color="white" stop-opacity="0"/>
  </radialGradient>
  <!-- Lip strip (slightly brighter — top edge catches light) -->
  <linearGradient id="lip-top" x1="0" y1="0" x2="0" y2="1">
    <stop offset="0%" stop-color="#f4f6f8"/>
    <stop offset="60%" stop-color="#d6dde4"/>
    <stop offset="100%" stop-color="#a8b0b8"/>
  </linearGradient>
  <linearGradient id="lip-bot" x1="0" y1="0" x2="0" y2="1">
    <stop offset="0%" stop-color="#a8b0b8"/>
    <stop offset="40%" stop-color="#d6dde4"/>
    <stop offset="100%" stop-color="#f4f6f8"/>
  </linearGradient>
  <!-- Drilled hole — looks like a hole punched through, dark interior -->
  <radialGradient id="hole" cx="0.4" cy="0.35" r="0.6">
    <stop offset="0%" stop-color="#1a1a1a"/>
    <stop offset="60%" stop-color="#404040"/>
    <stop offset="100%" stop-color="#5a5a5a"/>
  </radialGradient>
  <!-- Hole bevel (bright catch on near edge) -->
  <radialGradient id="hole-bevel" cx="0.5" cy="0.5" r="0.5">
    <stop offset="80%" stop-color="white" stop-opacity="0"/>
    <stop offset="95%" stop-color="white" stop-opacity="0.5"/>
    <stop offset="100%" stop-color="white" stop-opacity="0"/>
  </radialGradient>
  <!-- Swage depression - darker inside -->
  <linearGradient id="swage" x1="0" y1="0" x2="0" y2="1">
    <stop offset="0%" stop-color="#9aa0a8"/>
    <stop offset="50%" stop-color="#5a6068"/>
    <stop offset="100%" stop-color="#9aa0a8"/>
  </linearGradient>
  <!-- Cut edge (bright — exposed steel from cutting) -->
  <linearGradient id="cut-edge" x1="0" y1="0" x2="1" y2="1">
    <stop offset="0%" stop-color="#fef9e7"/>
    <stop offset="100%" stop-color="#d6dde4"/>
  </linearGradient>
  <!-- Drop shadow filter -->
  <filter id="ds" x="-20%" y="-20%" width="140%" height="140%">
    <feGaussianBlur in="SourceAlpha" stdDeviation="3"/>
    <feOffset dx="3" dy="5"/>
    <feComponentTransfer><feFuncA type="linear" slope="0.35"/></feComponentTransfer>
    <feMerge><feMergeNode/><feMergeNode in="SourceGraphic"/></feMerge>
  </filter>
  <filter id="ds-light" x="-10%" y="-10%" width="120%" height="120%">
    <feGaussianBlur in="SourceAlpha" stdDeviation="1.5"/>
    <feOffset dx="1.5" dy="2"/>
    <feComponentTransfer><feFuncA type="linear" slope="0.25"/></feComponentTransfer>
    <feMerge><feMergeNode/><feMergeNode in="SourceGraphic"/></feMerge>
  </filter>
  <!-- Soft inset for swage -->
  <filter id="emboss" x="-10%" y="-10%" width="120%" height="120%">
    <feGaussianBlur in="SourceAlpha" stdDeviation="0.5"/>
    <feOffset dx="0" dy="1"/>
    <feComponentTransfer><feFuncA type="linear" slope="0.4"/></feComponentTransfer>
    <feMerge><feMergeNode/><feMergeNode in="SourceGraphic"/></feMerge>
  </filter>
  <!-- Spangle pattern (zinc galv crystals) -->
  <pattern id="spangle-pat" patternUnits="userSpaceOnUse" width="40" height="40">
    <rect width="40" height="40" fill="none"/>
    <circle cx="8" cy="12" r="6" fill="white" opacity="0.04"/>
    <circle cx="28" cy="22" r="8" fill="white" opacity="0.03"/>
    <circle cx="15" cy="32" r="5" fill="white" opacity="0.05"/>
    <circle cx="34" cy="6" r="4" fill="white" opacity="0.04"/>
  </pattern>
</defs>
<defs><linearGradient id="bg" x1="0" y1="0" x2="0" y2="1"><stop offset="0" stop-color="#f8f9fa"/><stop offset="1" stop-color="#dde1e6"/></linearGradient></defs>
<rect width="1900" height="1150" fill="url(#bg)"/>
<text x="30" y="40" font-size="26" font-weight="700" fill="#1a202c">Real FrameCAD tools — every operation drawn at scale</text>
<text x="30" y="64" font-size="14" fill="#4a5568">Profile F37008 W089 F41-38, all 9 tool stations applied. Galvanised steel finish, lit from above.</text>
<g filter="url(#ds)">
<rect x="80" y="130" width="1740" height="445" fill="url(#galv)"/>
<rect x="80" y="130" width="1740" height="445" fill="url(#spangle-pat)" opacity="0.7"/>
<rect x="80" y="130" width="1740" height="60" fill="url(#lip-top)" stroke="#5a626c" stroke-width="0.7"/>
<rect x="80" y="515" width="1740" height="60" fill="url(#lip-bot)" stroke="#5a626c" stroke-width="0.7"/>
<rect x="80" y="130" width="1740" height="445" fill="none" stroke="#444" stroke-width="1"/>
<line x1="80" y1="130.5" x2="1820" y2="130.5" stroke="white" stroke-width="1.2" opacity="0.7"/>
<line x1="80" y1="574.5" x2="1820" y2="574.5" stroke="#2c2f36" stroke-width="1.2" opacity="0.5"/>
</g>
<g filter="url(#emboss)">
<rect x="85" y="335.0" width="1730" height="35" fill="url(#swage)" rx="17.5"/>
<line x1="85" y1="336.0" x2="1815" y2="336.0" stroke="white" stroke-width="0.6" opacity="0.5"/>
<line x1="85" y1="369.0" x2="1815" y2="369.0" stroke="black" stroke-width="0.4" opacity="0.5"/>
</g>
<circle cx="480" cy="267.5" r="10.30" fill="url(#hole-bevel)"/>
<circle cx="480" cy="267.5" r="9.50" fill="url(#hole)"/>
<circle cx="480" cy="267.5" r="9.50" fill="none" stroke="#000" stroke-width="0.4" opacity="0.6"/>
<circle cx="483.3" cy="270.8" r="2.38" fill="white" opacity="0.55"/>
<circle cx="480" cy="352.5" r="10.30" fill="url(#hole-bevel)"/>
<circle cx="480" cy="352.5" r="9.50" fill="url(#hole)"/>
<circle cx="480" cy="352.5" r="9.50" fill="none" stroke="#000" stroke-width="0.4" opacity="0.6"/>
<circle cx="483.3" cy="355.8" r="2.38" fill="white" opacity="0.55"/>
<circle cx="480" cy="437.5" r="10.30" fill="url(#hole-bevel)"/>
<circle cx="480" cy="437.5" r="9.50" fill="url(#hole)"/>
<circle cx="480" cy="437.5" r="9.50" fill="none" stroke="#000" stroke-width="0.4" opacity="0.6"/>
<circle cx="483.3" cy="440.8" r="2.38" fill="white" opacity="0.55"/>
<circle cx="1180" cy="352.5" r="34.75" fill="url(#hole-bevel)"/>
<circle cx="1180" cy="352.5" r="33.75" fill="url(#hole)"/>
<circle cx="1180" cy="352.5" r="33.75" fill="none" stroke="#000" stroke-width="0.5" opacity="0.6"/>
<circle cx="1191.8" cy="364.3" r="8.44" fill="white" opacity="0.55"/>
<polygon points="1850.0,130 1910.0,130 1880,190" fill="url(#bg)" stroke="#1a1a1a" stroke-width="1.2"/>
<line x1="1850.0" y1="130" x2="1880 190" stroke="white" stroke-width="0.6" opacity="0.7"/>
<line x1="1880 190" x2="1910.0" y2="130" stroke="#444" stroke-width="0.5"/>
<polygon points="1850.0,575 1910.0,575 1880,515" fill="url(#bg)" stroke="#1a1a1a" stroke-width="1.2"/>
<rect x="2445.0" y="190" width="70" height="45" fill="url(#bg)" stroke="#1a1a1a" stroke-width="1.2"/>
<line x1="2445.0" y1="235" x2="2515.0" y2="235" stroke="white" stroke-width="0.6" opacity="0.7"/>
<rect x="3072.5" y="130" width="15" height="445" fill="url(#bg)" stroke="#1a1a1a" stroke-width="1"/>
<line x1="3072.5" y1="130" x2="3072.5" y2="575" stroke="white" stroke-width="0.5" opacity="0.6"/>
<circle cx="3930" cy="352.5" r="81.50" fill="url(#hole-bevel)"/>
<circle cx="3930" cy="352.5" r="80.00" fill="url(#hole)"/>
<circle cx="3930" cy="352.5" r="80.00" fill="none" stroke="#000" stroke-width="0.7" opacity="0.6"/>
<ellipse cx="3898.0" cy="312.5" rx="36.0" ry="14.399999999999999" fill="white" opacity="0.3" transform="rotate(-30 3898.0 312.5)"/>
<circle cx="4830" cy="317.5" r="12.75" fill="url(#galv)" stroke="#5a626c" stroke-width="0.8"/>
<circle cx="4829" cy="316.0" r="6.38" fill="white" opacity="0.6"/>
<circle cx="4830" cy="160.0" r="10.00" fill="url(#hole-bevel)"/>
<circle cx="4830" cy="160.0" r="9.50" fill="url(#hole)"/>
<circle cx="4830" cy="545.0" r="10.00" fill="url(#hole-bevel)"/>
<circle cx="4830" cy="545.0" r="9.50" fill="url(#hole)"/>
<circle cx="4930" cy="317.5" r="12.75" fill="url(#galv)" stroke="#5a626c" stroke-width="0.8"/>
<circle cx="4929" cy="316.0" r="6.38" fill="white" opacity="0.6"/>
<circle cx="4930" cy="160.0" r="10.00" fill="url(#hole-bevel)"/>
<circle cx="4930" cy="160.0" r="9.50" fill="url(#hole)"/>
<circle cx="4930" cy="545.0" r="10.00" fill="url(#hole-bevel)"/>
<circle cx="4930" cy="545.0" r="9.50" fill="url(#hole)"/>
<circle cx="5030" cy="317.5" r="12.75" fill="url(#galv)" stroke="#5a626c" stroke-width="0.8"/>
<circle cx="5029" cy="316.0" r="6.38" fill="white" opacity="0.6"/>
<circle cx="5030" cy="160.0" r="10.00" fill="url(#hole-bevel)"/>
<circle cx="5030" cy="160.0" r="9.50" fill="url(#hole)"/>
<circle cx="5030" cy="545.0" r="10.00" fill="url(#hole-bevel)"/>
<circle cx="5030" cy="545.0" r="9.50" fill="url(#hole)"/>
<circle cx="5130" cy="317.5" r="12.75" fill="url(#galv)" stroke="#5a626c" stroke-width="0.8"/>
<circle cx="5129" cy="316.0" r="6.38" fill="white" opacity="0.6"/>
<circle cx="5130" cy="160.0" r="10.00" fill="url(#hole-bevel)"/>
<circle cx="5130" cy="160.0" r="9.50" fill="url(#hole)"/>
<circle cx="5130" cy="545.0" r="10.00" fill="url(#hole-bevel)"/>
<circle cx="5130" cy="545.0" r="9.50" fill="url(#hole)"/>
<circle cx="5930" cy="352.5" r="12.75" fill="url(#galv)" stroke="#5a626c" stroke-width="0.8" filter="url(#emboss)"/>
<circle cx="5929" cy="351.0" r="6.38" fill="white" opacity="0.6"/>
<polygon points="6485,130 6530,130 6530,175" fill="url(#bg)" stroke="#1a1a1a" stroke-width="1.2"/>
<polygon points="6485,575 6530,575 6530,530" fill="url(#bg)" stroke="#1a1a1a" stroke-width="1.2"/>
<line x1="480" y1="585" x2="480" y2="615" stroke="#16a34a" stroke-width="0.8" opacity="0.4"/>
<text x="480" y="625" text-anchor="middle" font-size="10" fill="#16a34a" font-weight="700">TOOL 1</text>
<text x="480" y="639" text-anchor="middle" font-size="11" fill="#1a202c" font-weight="700">WEB HOLE</text>
<text x="480" y="653" text-anchor="middle" font-size="9" fill="#6b7280">3 × Ø3.8mm</text>
<line x1="1180" y1="585" x2="1180" y2="615" stroke="#7c3aed" stroke-width="0.8" opacity="0.4"/>
<text x="1180" y="625" text-anchor="middle" font-size="10" fill="#7c3aed" font-weight="700">TOOL 1</text>
<text x="1180" y="639" text-anchor="middle" font-size="11" fill="#1a202c" font-weight="700">WEB BOLT HOLE</text>
<text x="1180" y="653" text-anchor="middle" font-size="9" fill="#6b7280">Ø13.5mm</text>
<line x1="1880" y1="585" x2="1880" y2="615" stroke="#dc2626" stroke-width="0.8" opacity="0.4"/>
<text x="1880" y="625" text-anchor="middle" font-size="10" fill="#dc2626" font-weight="700">TOOL 2</text>
<text x="1880" y="639" text-anchor="middle" font-size="11" fill="#1a202c" font-weight="700">LIP CUT</text>
<text x="1880" y="653" text-anchor="middle" font-size="9" fill="#6b7280">V-cut into lip</text>
<line x1="2480" y1="585" x2="2480" y2="615" stroke="#dc2626" stroke-width="0.8" opacity="0.4"/>
<text x="2480" y="625" text-anchor="middle" font-size="10" fill="#dc2626" font-weight="700">TOOL 2</text>
<text x="2480" y="639" text-anchor="middle" font-size="11" fill="#1a202c" font-weight="700">WEB NOTCH</text>
<text x="2480" y="653" text-anchor="middle" font-size="9" fill="#6b7280">rectangular</text>
<line x1="3080" y1="585" x2="3080" y2="615" stroke="#dc2626" stroke-width="0.8" opacity="0.4"/>
<text x="3080" y="625" text-anchor="middle" font-size="10" fill="#dc2626" font-weight="700">TOOL 3</text>
<text x="3080" y="639" text-anchor="middle" font-size="11" fill="#1a202c" font-weight="700">FLANGE CUT</text>
<text x="3080" y="653" text-anchor="middle" font-size="9" fill="#6b7280">3mm wide</text>
<line x1="3930" y1="585" x2="3930" y2="615" stroke="#0891b2" stroke-width="0.8" opacity="0.4"/>
<text x="3930" y="625" text-anchor="middle" font-size="10" fill="#0891b2" font-weight="700">TOOL 3</text>
<text x="3930" y="639" text-anchor="middle" font-size="11" fill="#1a202c" font-weight="700">SERVICE HOLE</text>
<text x="3930" y="653" text-anchor="middle" font-size="9" fill="#6b7280">Ø32mm</text>
<line x1="4980" y1="585" x2="4980" y2="615" stroke="#d97706" stroke-width="0.8" opacity="0.4"/>
<text x="4980" y="625" text-anchor="middle" font-size="10" fill="#d97706" font-weight="700">TOOL 5</text>
<text x="4980" y="639" text-anchor="middle" font-size="11" fill="#1a202c" font-weight="700">MULTI TOOL</text>
<text x="4980" y="653" text-anchor="middle" font-size="9" fill="#6b7280">4 dimples + 4 holes</text>
<line x1="5930" y1="585" x2="5930" y2="615" stroke="#d97706" stroke-width="0.8" opacity="0.4"/>
<text x="5930" y="625" text-anchor="middle" font-size="10" fill="#d97706" font-weight="700">TOOL 5</text>
<text x="5930" y="639" text-anchor="middle" font-size="11" fill="#1a202c" font-weight="700">FLAT DIMPLE</text>
<text x="5930" y="653" text-anchor="middle" font-size="9" fill="#6b7280">Ø5.1mm</text>
<line x1="6530" y1="585" x2="6530" y2="615" stroke="#dc2626" stroke-width="0.8" opacity="0.4"/>
<text x="6530" y="625" text-anchor="middle" font-size="10" fill="#dc2626" font-weight="700">TOOL 4</text>
<text x="6530" y="639" text-anchor="middle" font-size="11" fill="#1a202c" font-weight="700">CHAMFER</text>
<text x="6530" y="653" text-anchor="middle" font-size="9" fill="#6b7280">corner cut</text>
<text x="280" y="110" font-size="11" fill="#5b21b6" font-weight="600">SWAGE → continuous centre crimp along whole stick</text>
<line x1="280" y1="115" x2="340" y2="335.0" stroke="#5b21b6" stroke-width="0.8" opacity="0.5"/>
<line x1="50" y1="130" x2="50" y2="575" stroke="#374151" stroke-width="1"/>
<line x1="45" y1="130" x2="55" y2="130" stroke="#374151" stroke-width="1"/>
<line x1="45" y1="575" x2="55" y2="575" stroke="#374151" stroke-width="1"/>
<text x="40" y="357.5" text-anchor="end" font-size="12" fill="#374151" font-weight="600">89 mm</text>
<g filter="url(#ds-light)"><rect x="1580" y="100" width="290" height="180" fill="white" stroke="#cbd5e0" rx="6"/></g>
<text x="1595" y="122" font-size="13" font-weight="700" fill="#1a202c">SWAGED "C" cross-section</text>
<text x="1595" y="138" font-size="10" fill="#4a5568">86.6 web · 41/38 flange · 12 lip · 5 swage</text>
<path d="M 1725 152.6 L 1725 205.8 Q 1718.0 210 1725 214.2 L 1725 263.2" fill="none" stroke="#5a626c" stroke-width="2"/>
<path d="M 1725 152.6 L 1667.6 152.6 L 1667.6 169.39999999999998" fill="none" stroke="#5a626c" stroke-width="2"/>
<path d="M 1725 263.2 L 1671.8 263.2 L 1671.8 246.39999999999998" fill="none" stroke="#5a626c" stroke-width="2"/>
<text x="1675" y="180" font-size="9" fill="#6b7280">41</text>
<text x="1675" y="255" font-size="9" fill="#6b7280">38</text>
<text x="1730" y="207" font-size="9" fill="#6b7280">↓ swage 5mm</text>
<text x="30" y="1135" font-size="11" fill="#6b7280">All tool dimensions from F37008 W089 F41-38 (FrameCAD profile drawing rev 0, 29.11.18). Galvanised AZ150 finish.</text>
</svg>