<svg xmlns="http://www.w3.org/2000/svg" width="1900" height="1500" viewBox="0 0 1900 1500" font-family="Segoe UI, Arial, sans-serif">
<defs>
      <linearGradient id="steel" x1="0" y1="0" x2="0" y2="1">
        <stop offset="0" stop-color="#f1f5f9"/><stop offset="0.5" stop-color="#cbd5e0"/><stop offset="1" stop-color="#94a3b8"/>
      </linearGradient>
      <linearGradient id="steel-flange" x1="0" y1="0" x2="1" y2="0">
        <stop offset="0" stop-color="#94a3b8"/><stop offset="0.5" stop-color="#cbd5e0"/><stop offset="1" stop-color="#94a3b8"/>
      </linearGradient>
      <pattern id="cut-hatch" patternUnits="userSpaceOnUse" width="4" height="4" patternTransform="rotate(45)">
        <line x1="0" y1="0" x2="0" y2="4" stroke="#dc2626" stroke-width="0.8"/>
      </pattern>
      <linearGradient id="swage-grad" x1="0" y1="0" x2="0" y2="1">
        <stop offset="0" stop-color="#cbd5e0"/><stop offset="0.5" stop-color="#475569"/><stop offset="1" stop-color="#cbd5e0"/>
      </linearGradient>
      <marker id="ar" markerWidth="9" markerHeight="9" refX="8" refY="4.5" orient="auto">
        <path d="M0,0 L9,4.5 L0,9 z" fill="#374151"/>
      </marker>
    </defs>
<rect width="1900" height="1500" fill="#fafaf8"/>
<text x="30" y="40" font-size="26" font-weight="700" fill="#1a202c">All FrameCAD tools (real geometry from F37008 W089 F41-38 spec)</text>
<text x="30" y="64" font-size="14" fill="#4a5568">89×41 lipped C-section, 0.75mm gauge. Each tool drawn at scale (1mm = 5px) with the dimensions from the rollformer drawing.</text>
<rect x="30" y="90" width="1840" height="380" fill="white" stroke="#cbd5e0" rx="4"/>
<text x="45" y="112" font-size="14" font-weight="700" fill="#1a202c">Reference stick — all 8 tool stations applied (web face elevation, 89mm tall, 5px = 1mm)</text>
<rect x="110" y="170" width="1680.0" height="445" fill="url(#steel)" stroke="#475569" stroke-width="1.5"/>
<rect x="110" y="170" width="1680.0" height="60" fill="url(#steel-flange)" stroke="#475569" stroke-width="1" opacity="0.9"/>
<rect x="110" y="555" width="1680.0" height="60" fill="url(#steel-flange)" stroke="#475569" stroke-width="1" opacity="0.9"/>
<line x1="95" y1="392.5" x2="1805.0" y2="392.5" stroke="#374151" stroke-width="0.8" stroke-dasharray="5 3" opacity="0.5"/>
<rect x="120" y="380.0" width="1660.0" height="25" fill="url(#swage-grad)" opacity="0.5"/>
<line x1="120" y1="380.0" x2="1780.0" y2="380.0" stroke="#475569" stroke-width="0.5"/>
<line x1="120" y1="405.0" x2="1780.0" y2="405.0" stroke="#475569" stroke-width="0.5"/>
<circle cx="510" cy="307.5" r="9.5" fill="white" stroke="#16a34a" stroke-width="1.6"/>
<circle cx="510" cy="392.5" r="9.5" fill="white" stroke="#16a34a" stroke-width="1.6"/>
<circle cx="510" cy="477.5" r="9.5" fill="white" stroke="#16a34a" stroke-width="1.6"/>
<rect x="480" y="282.5" width="60" height="220" fill="none" stroke="#16a34a" stroke-width="0.7" stroke-dasharray="3 2" opacity="0.5"/>
<text x="510" y="140" text-anchor="middle" font-size="11" font-weight="700" fill="#14532d">TOOL 1 — WEB HOLE</text>
<text x="510" y="155" text-anchor="middle" font-size="9" fill="#14532d">3 x Ø3.8mm @ 17mm</text>
<circle cx="1110" cy="392.5" r="33.75" fill="white" stroke="#7c3aed" stroke-width="1.6"/>
<text x="1110" y="140" text-anchor="middle" font-size="11" font-weight="700" fill="#5b21b6">TOOL 1 — WEB BOLT HOLE</text>
<text x="1110" y="155" text-anchor="middle" font-size="9" fill="#5b21b6">Ø13.5mm</text>
<polygon points="1685.0,170 1735.0,170 1710,230" fill="white" stroke="#dc2626" stroke-width="1.5"/>
<polygon points="1685.0,170 1735.0,170 1710,230" fill="url(#cut-hatch)" opacity="0.6"/>
<polygon points="1685.0,615 1735.0,615 1710,555" fill="white" stroke="#dc2626" stroke-width="1.5"/>
<polygon points="1685.0,615 1735.0,615 1710,555" fill="url(#cut-hatch)" opacity="0.6"/>
<text x="1710" y="140" text-anchor="middle" font-size="11" font-weight="700" fill="#7f1d1d">TOOL 2 — LIP CUT</text>
<rect x="2230.0" y="230" width="60" height="40" fill="url(#cut-hatch)" stroke="#dc2626" stroke-width="1.4"/>
<text x="2260" y="140" text-anchor="middle" font-size="11" font-weight="700" fill="#7f1d1d">TOOL 2 — WEB NOTCH</text>
<rect x="2802.5" y="170" width="15" height="445" fill="url(#cut-hatch)" stroke="#dc2626" stroke-width="1.2"/>
<text x="2810" y="140" text-anchor="middle" font-size="11" font-weight="700" fill="#7f1d1d">TOOL 3 — FLANGE CUT</text>
<text x="2810" y="155" text-anchor="middle" font-size="9" fill="#7f1d1d">3mm wide</text>
<circle cx="3610" cy="392.5" r="80" fill="white" stroke="#0891b2" stroke-width="2"/>
<circle cx="3610" cy="392.5" r="79" fill="none" stroke="#0891b2" stroke-width="0.8" stroke-dasharray="2 2"/>
<text x="3610" y="140" text-anchor="middle" font-size="11" font-weight="700" fill="#155e75">TOOL 3 — SERVICE HOLE</text>
<text x="3610" y="155" text-anchor="middle" font-size="9" fill="#155e75">Ø32mm</text>
<circle cx="4310" cy="357.5" r="12.75" fill="#fef3c7" stroke="#d97706" stroke-width="1.2"/>
<circle cx="4410" cy="357.5" r="12.75" fill="#fef3c7" stroke="#d97706" stroke-width="1.2"/>
<circle cx="4510" cy="357.5" r="12.75" fill="#fef3c7" stroke="#d97706" stroke-width="1.2"/>
<circle cx="4610" cy="357.5" r="12.75" fill="#fef3c7" stroke="#d97706" stroke-width="1.2"/>
<circle cx="4310" cy="200.0" r="9.5" fill="white" stroke="#d97706" stroke-width="1.2"/>
<circle cx="4310" cy="585.0" r="9.5" fill="white" stroke="#d97706" stroke-width="1.2"/>
<circle cx="4410" cy="200.0" r="9.5" fill="white" stroke="#d97706" stroke-width="1.2"/>
<circle cx="4410" cy="585.0" r="9.5" fill="white" stroke="#d97706" stroke-width="1.2"/>
<circle cx="4510" cy="200.0" r="9.5" fill="white" stroke="#d97706" stroke-width="1.2"/>
<circle cx="4510" cy="585.0" r="9.5" fill="white" stroke="#d97706" stroke-width="1.2"/>
<circle cx="4610" cy="200.0" r="9.5" fill="white" stroke="#d97706" stroke-width="1.2"/>
<circle cx="4610" cy="585.0" r="9.5" fill="white" stroke="#d97706" stroke-width="1.2"/>
<text x="4460" y="140" text-anchor="middle" font-size="11" font-weight="700" fill="#92400e">TOOL 5 — MULTI TOOL</text>
<text x="4460" y="155" text-anchor="middle" font-size="9" fill="#92400e">4 dimples Ø5.1 + 4 flange holes Ø3.8</text>
<circle cx="5510" cy="392.5" r="12.75" fill="#fef3c7" stroke="#d97706" stroke-width="1.4"/>
<text x="5510" y="140" text-anchor="middle" font-size="11" font-weight="700" fill="#92400e">TOOL 5 — FLAT DIMPLE</text>
<text x="5510" y="155" text-anchor="middle" font-size="9" fill="#92400e">Ø5.1mm</text>
<polygon points="5970,170 6010,170 6010,210" fill="url(#cut-hatch)" stroke="#dc2626" stroke-width="1.3"/>
<polygon points="5970,615 6010,615 6010,575" fill="url(#cut-hatch)" stroke="#dc2626" stroke-width="1.3"/>
<text x="5990.0" y="140" text-anchor="middle" font-size="11" font-weight="700" fill="#7f1d1d">TOOL 4 — CHAMFER CUT</text>
<text x="120" y="423.0" font-size="10" fill="#5b21b6" font-weight="600">↑ SWAGE (continuous centre crimp)</text>
<line x1="82" y1="170" x2="82" y2="615" stroke="#374151" stroke-width="0.8" marker-start="url(#ar)" marker-end="url(#ar)"/>
<text x="77" y="397.5" text-anchor="end" font-size="11" fill="#374151">89 mm web</text>
<line x1="98" y1="170" x2="98" y2="230" stroke="#374151" stroke-width="0.8" marker-start="url(#ar)" marker-end="url(#ar)"/>
<text x="95" y="234" text-anchor="end" font-size="9" fill="#374151">12mm lip</text>
<rect x="30" y="490" width="905.0" height="380" fill="white" stroke="#cbd5e0" rx="4"/>
<text x="50" y="512" font-size="14" font-weight="700" fill="#14532d">WEB HOLE detail (replacing the BOLT HOLE for connections)</text>
<text x="50" y="530" font-size="12" fill="#4a5568">Drawn at 8× scale. 3 holes Ø3.8mm at 17mm vertical spacing on web centreline.</text>
<rect x="172.5" y="560" width="640" height="712" fill="url(#steel)" stroke="#475569" stroke-width="2"/>
<rect x="172.5" y="560" width="640" height="96" fill="url(#steel-flange)" stroke="#475569" stroke-width="1.2"/>
<rect x="172.5" y="1176" width="640" height="96" fill="url(#steel-flange)" stroke="#475569" stroke-width="1.2"/>
<line x1="157.5" y1="916.0" x2="827.5" y2="916.0" stroke="#374151" stroke-width="1" stroke-dasharray="5 3" opacity="0.6"/>
<circle cx="492.5" cy="780.0" r="15.2" fill="white" stroke="#16a34a" stroke-width="2"/>
<line x1="460.5" y1="780.0" x2="524.5" y2="780.0" stroke="#16a34a" stroke-width="0.8" opacity="0.6"/>
<line x1="492.5" y1="748.0" x2="492.5" y2="812.0" stroke="#16a34a" stroke-width="0.8" opacity="0.6"/>
<circle cx="492.5" cy="916.0" r="15.2" fill="white" stroke="#16a34a" stroke-width="2"/>
<line x1="460.5" y1="916.0" x2="524.5" y2="916.0" stroke="#16a34a" stroke-width="0.8" opacity="0.6"/>
<line x1="492.5" y1="884.0" x2="492.5" y2="948.0" stroke="#16a34a" stroke-width="0.8" opacity="0.6"/>
<circle cx="492.5" cy="1052.0" r="15.2" fill="white" stroke="#16a34a" stroke-width="2"/>
<line x1="460.5" y1="1052.0" x2="524.5" y2="1052.0" stroke="#16a34a" stroke-width="0.8" opacity="0.6"/>
<line x1="492.5" y1="1020.0" x2="492.5" y2="1084.0" stroke="#16a34a" stroke-width="0.8" opacity="0.6"/>
<line x1="842.5" y1="780.0" x2="842.5" y2="916.0" stroke="#374151" stroke-width="0.8" marker-start="url(#ar)" marker-end="url(#ar)"/>
<text x="850.5" y="852.0" font-size="11" fill="#374151">17 mm</text>
<line x1="842.5" y1="916.0" x2="842.5" y2="1052.0" stroke="#374151" stroke-width="0.8" marker-start="url(#ar)" marker-end="url(#ar)"/>
<text x="850.5" y="988.0" font-size="11" fill="#374151">17 mm</text>
<text x="521.7" y="784.0" font-size="11" fill="#16a34a" font-weight="600">Ø3.8mm</text>
<rect x="50" y="810" width="865.0" height="48" fill="#dcfce7" stroke="#16a34a" rx="3"/>
<text x="60" y="828" font-size="12" font-weight="700" fill="#14532d">Why 3 holes instead of 1 bolt?</text>
<text x="60" y="844" font-size="11" fill="#14532d">Three Ø3.8mm holes take three 10g self-drilling screws → 3× shear capacity of a single M6 bolt</text>
<rect x="965.0" y="490" width="905.0" height="380" fill="white" stroke="#cbd5e0" rx="4"/>
<text x="985.0" y="512" font-size="14" font-weight="700" fill="#1a202c">Assembly — web meets chord, 3 screws through both layers</text>
<text x="985.0" y="530" font-size="12" fill="#4a5568">3 self-drilling screws pass through web + chord at the centreline crossing.</text>
<rect x="1025.0" y="620" width="785.0" height="267" fill="url(#steel)" stroke="#1d4ed8" stroke-width="2"/>
<rect x="1025.0" y="620" width="785.0" height="36" fill="url(#steel-flange)" stroke="#1d4ed8" stroke-width="1.2"/>
<rect x="1025.0" y="851" width="785.0" height="36" fill="url(#steel-flange)" stroke="#1d4ed8" stroke-width="1.2"/>
<text x="1035.0" y="905" font-size="11" fill="#1d4ed8" font-weight="600">CHORD plate (89×41 lipped C, laid flat)</text>
<rect x="1284.0" y="560" width="267" height="322" fill="url(#steel)" stroke="#475569" stroke-width="2" opacity="0.95"/>
<rect x="1284.0" y="560" width="267" height="36" fill="url(#steel-flange)" stroke="#475569" stroke-width="1.2" opacity="0.95"/>
<rect x="1284.0" y="851" width="36" height="36" fill="url(#cut-hatch)" stroke="#dc2626" stroke-width="1.4"/>
<rect x="1515.0" y="851" width="36" height="36" fill="url(#cut-hatch)" stroke="#dc2626" stroke-width="1.4"/>
<circle cx="1417.5" cy="702.5" r="5.699999999999999" fill="white" stroke="#16a34a" stroke-width="1.8"/>
<circle cx="1449.5" cy="702.5" r="12" fill="#dcfce7" stroke="#16a34a" stroke-width="1.5"/>
<line x1="1440.5" y1="702.5" x2="1458.5" y2="702.5" stroke="#14532d" stroke-width="1.2"/>
<line x1="1449.5" y1="693.5" x2="1449.5" y2="711.5" stroke="#14532d" stroke-width="1.2"/>
<path d="M 1437.5 702.5 Q 1433.5 698.5 1417.5 702.5" fill="none" stroke="#16a34a" stroke-width="1" stroke-dasharray="3 2" opacity="0.7"/>
<circle cx="1417.5" cy="753.5" r="5.699999999999999" fill="white" stroke="#16a34a" stroke-width="1.8"/>
<circle cx="1449.5" cy="753.5" r="12" fill="#dcfce7" stroke="#16a34a" stroke-width="1.5"/>
<line x1="1440.5" y1="753.5" x2="1458.5" y2="753.5" stroke="#14532d" stroke-width="1.2"/>
<line x1="1449.5" y1="744.5" x2="1449.5" y2="762.5" stroke="#14532d" stroke-width="1.2"/>
<path d="M 1437.5 753.5 Q 1433.5 749.5 1417.5 753.5" fill="none" stroke="#16a34a" stroke-width="1" stroke-dasharray="3 2" opacity="0.7"/>
<circle cx="1417.5" cy="804.5" r="5.699999999999999" fill="white" stroke="#16a34a" stroke-width="1.8"/>
<circle cx="1449.5" cy="804.5" r="12" fill="#dcfce7" stroke="#16a34a" stroke-width="1.5"/>
<line x1="1440.5" y1="804.5" x2="1458.5" y2="804.5" stroke="#14532d" stroke-width="1.2"/>
<line x1="1449.5" y1="795.5" x2="1449.5" y2="813.5" stroke="#14532d" stroke-width="1.2"/>
<path d="M 1437.5 804.5 Q 1433.5 800.5 1417.5 804.5" fill="none" stroke="#16a34a" stroke-width="1" stroke-dasharray="3 2" opacity="0.7"/>
<text x="1274.0" y="590" text-anchor="end" font-size="11" fill="#475569" font-weight="600">WEB stud</text>
<text x="1497.5" y="723.5" font-size="11" fill="#14532d" font-weight="700">3 × 10g self-drilling screws</text>
<text x="1497.5" y="739.5" font-size="10" fill="#14532d">Ø4.8mm thread, Ø3.8mm pre-drill</text>
<text x="1497.5" y="757.5" font-size="10" fill="#14532d">at 17mm vertical pitch</text>
<text x="1497.5" y="771.5" font-size="10" fill="#14532d">drives through 0.75mm web + 0.75mm chord</text>
<rect x="985.0" y="810" width="865.0" height="48" fill="#dbeafe" stroke="#1d4ed8" rx="3"/>
<text x="995.0" y="828" font-size="12" font-weight="700" fill="#1e3a8a">Mechanically:</text>
<text x="995.0" y="844" font-size="11" fill="#1e3a8a">Each screw threads itself through both 0.75mm steel layers — no separate drill step needed.</text>
<text x="30" y="1485" font-size="11" fill="#6b7280">Source: F37008 W089 F41-38 profile drawing (Rev 0, 29.11.18) - all tool dimensions taken directly from the FrameCAD rollformer spec.</text>
</svg>