<svg xmlns="http://www.w3.org/2000/svg" width="1900" height="1180" viewBox="0 0 1900 1180" font-family="Segoe UI, Arial, sans-serif">
<defs>
      <!-- Workshop concrete floor -->
      <pattern id="concrete" patternUnits="userSpaceOnUse" width="80" height="80">
        <rect width="80" height="80" fill="#8a8e95"/>
        <circle cx="20" cy="30" r="2" fill="#7a7e85" opacity="0.4"/>
        <circle cx="55" cy="55" r="3" fill="#7a7e85" opacity="0.3"/>
        <circle cx="65" cy="15" r="1.5" fill="#9a9ea5" opacity="0.5"/>
        <circle cx="10" cy="65" r="2.5" fill="#7a7e85" opacity="0.35"/>
        <circle cx="40" cy="10" r="1" fill="#9a9ea5" opacity="0.4"/>
      </pattern>
      <radialGradient id="floor-light" cx="0.5" cy="0.4" r="0.7">
        <stop offset="0%" stop-color="white" stop-opacity="0.15"/>
        <stop offset="100%" stop-color="black" stop-opacity="0.15"/>
      </radialGradient>

      <!-- Galv steel — silvery blue tone matching the photo -->
      <linearGradient id="galv-real" x1="0" y1="0" x2="0" y2="1">
        <stop offset="0%" stop-color="#dde6ed"/>
        <stop offset="40%" stop-color="#b8c8d4"/>
        <stop offset="80%" stop-color="#8a9ba9"/>
        <stop offset="100%" stop-color="#6a7c8b"/>
      </linearGradient>
      <linearGradient id="galv-real-chord" x1="0" y1="0" x2="0" y2="1">
        <stop offset="0%" stop-color="#d2dde5"/>
        <stop offset="50%" stop-color="#a4b6c4"/>
        <stop offset="100%" stop-color="#6e8090"/>
      </linearGradient>
      <!-- Inside-of-channel (slightly darker since it's the underside) -->
      <linearGradient id="channel-inside" x1="0" y1="0" x2="0" y2="1">
        <stop offset="0%" stop-color="#9aabb9"/>
        <stop offset="100%" stop-color="#7a8b9a"/>
      </linearGradient>
      <!-- Lip strip on the OPEN side — catches workshop light -->
      <linearGradient id="lip-bright" x1="0" y1="0" x2="0" y2="1">
        <stop offset="0%" stop-color="#e8f0f6"/>
        <stop offset="100%" stop-color="#9eafbd"/>
      </linearGradient>

      <!-- Green screw cap (matches photo) -->
      <radialGradient id="screw-cap" cx="0.35" cy="0.35" r="0.7">
        <stop offset="0%" stop-color="#a3e635"/>
        <stop offset="40%" stop-color="#65a30d"/>
        <stop offset="100%" stop-color="#365314"/>
      </radialGradient>
      <radialGradient id="screw-shine" cx="0.3" cy="0.3" r="0.4">
        <stop offset="0%" stop-color="white" stop-opacity="0.7"/>
        <stop offset="100%" stop-color="white" stop-opacity="0"/>
      </radialGradient>

      <!-- Spangle texture for galv -->
      <pattern id="spangle" patternUnits="userSpaceOnUse" width="50" height="50">
        <rect width="50" height="50" fill="none"/>
        <ellipse cx="10" cy="15" rx="6" ry="3" fill="white" opacity="0.05" transform="rotate(20 10 15)"/>
        <ellipse cx="35" cy="30" rx="8" ry="4" fill="white" opacity="0.04" transform="rotate(-15 35 30)"/>
        <ellipse cx="20" cy="42" rx="5" ry="2.5" fill="white" opacity="0.06" transform="rotate(40 20 42)"/>
      </pattern>

      <filter id="blur5"><feGaussianBlur stdDeviation="5"/></filter>
      <filter id="blur3"><feGaussianBlur stdDeviation="3"/></filter>
    </defs>
<rect width="1900" height="1180" fill="url(#concrete)"/>
<rect width="1900" height="1180" fill="url(#floor-light)"/>
<rect x="0" y="0" width="1900" height="105" fill="white" opacity="0.95"/>
<text x="40" y="42" font-size="26" font-weight="700" fill="#1a202c">Truss frame TN2-1 — matching real assembly</text>
<text x="40" y="68" font-size="14" fill="#4a5568">Galv finish · all lips facing same direction · green-capped self-drilling screws at each junction (3 × Ø3.8mm pattern)</text>
<text x="40" y="92" font-size="13" fill="#374151">10 members · 9 junction nodes · 27 screws total (down from ~70 in current FrameCAD spec)</text>
<g opacity="0.55">
<polygon points="1755.0,289.7 1766.3,262.4 1724.8,245.2 1713.5,272.5" fill="black" opacity="0.4" filter="url(#blur5)"/>
<polygon points="1736.8,933.2 1766.3,933.2 1766.3,262.4 1736.8,262.4" fill="black" opacity="0.4" filter="url(#blur5)"/>
<polygon points="1743.2,272.5 1731.9,245.2 145.7,902.2 157.0,929.5" fill="black" opacity="0.4" filter="url(#blur5)"/>
<polygon points="1766.3,324.5 1766.3,294.9 1611.7,294.9 1611.7,324.5" fill="black" opacity="0.4" filter="url(#blur5)"/>
<polygon points="1711.0,937.5 1731.4,916.1 1242.6,447.8 1222.1,469.2" fill="black" opacity="0.4" filter="url(#blur5)"/>
<polygon points="1766.3,934.2 1766.3,904.6 145.7,904.6 145.7,934.2" fill="black" opacity="0.4" filter="url(#blur5)"/>
<polygon points="1186.0,929.4 1215.6,929.4 1215.6,471.2 1186.0,471.2" fill="black" opacity="0.4" filter="url(#blur5)"/>
<polygon points="1161.4,937.1 1175.1,911.0 709.6,666.1 695.8,692.3" fill="black" opacity="0.4" filter="url(#blur5)"/>
<polygon points="658.5,929.4 688.1,929.4 688.1,689.7 658.5,689.7" fill="black" opacity="0.4" filter="url(#blur5)"/>
<polygon points="232.2,929.4 261.8,929.4 261.8,866.3 232.2,866.3" fill="black" opacity="0.4" filter="url(#blur5)"/>
</g>
<polygon points="1760.3,256.4 1749.0,283.7 1718.8,239.2 1707.5,266.5" fill="url(#galv-real-chord)"/>
<polygon points="1760.3,256.4 1749.0,283.7 1718.8,239.2 1707.5,266.5" fill="url(#spangle)" opacity="0.6"/>
<polygon points="1758.8,260.0 1750.6,280.0 1717.3,242.8 1709.0,262.8" fill="url(#channel-inside)" opacity="0.6"/>
<polygon points="1760.3,256.4 1707.5,266.5 1709.0,262.8 1758.8,260.0" fill="url(#lip-bright)" stroke="#5a6c7c" stroke-width="0.6"/>
<polyline points="1758.8,260.0 1709.0,262.8" fill="none" stroke="#1f2329" stroke-width="0.7" opacity="0.7"/>
<polyline points="1749.0,283.7 1718.8,239.2" fill="none" stroke="#3a4654" stroke-width="0.9" opacity="0.85"/>
<polygon points="1760.3,256.4 1749.0,283.7 1718.8,239.2 1707.5,266.5" fill="none" stroke="#2a3540" stroke-width="0.9"/>
<polyline points="1760.3,256.4 1707.5,266.5" fill="none" stroke="#f2f6fa" stroke-width="1" opacity="0.7"/>
<polygon points="1730.8,927.2 1760.3,927.2 1730.8,256.4 1760.3,256.4" fill="url(#galv-real)"/>
<polygon points="1730.8,927.2 1760.3,927.2 1730.8,256.4 1760.3,256.4" fill="url(#spangle)" opacity="0.6"/>
<polygon points="1734.8,927.2 1756.4,927.2 1734.8,256.4 1756.4,256.4" fill="url(#channel-inside)" opacity="0.6"/>
<polygon points="1730.8,927.2 1760.3,256.4 1756.4,256.4 1734.8,927.2" fill="url(#lip-bright)" stroke="#5a6c7c" stroke-width="0.6"/>
<polyline points="1734.8,927.2 1756.4,256.4" fill="none" stroke="#1f2329" stroke-width="0.7" opacity="0.7"/>
<polyline points="1760.3,927.2 1730.8,256.4" fill="none" stroke="#3a4654" stroke-width="0.9" opacity="0.85"/>
<polygon points="1730.8,927.2 1760.3,927.2 1730.8,256.4 1760.3,256.4" fill="none" stroke="#2a3540" stroke-width="0.9"/>
<polyline points="1730.8,927.2 1760.3,256.4" fill="none" stroke="#f2f6fa" stroke-width="1" opacity="0.7"/>
<polygon points="1725.9,239.2 1737.2,266.5 139.7,896.2 151.0,923.5" fill="url(#galv-real-chord)"/>
<polygon points="1725.9,239.2 1737.2,266.5 139.7,896.2 151.0,923.5" fill="url(#spangle)" opacity="0.6"/>
<polygon points="1727.4,242.8 1735.7,262.8 141.2,899.9 149.4,919.8" fill="url(#channel-inside)" opacity="0.6"/>
<polygon points="1725.9,239.2 151.0,923.5 149.4,919.8 1727.4,242.8" fill="url(#lip-bright)" stroke="#5a6c7c" stroke-width="0.6"/>
<polyline points="1727.4,242.8 149.4,919.8" fill="none" stroke="#1f2329" stroke-width="0.7" opacity="0.7"/>
<polyline points="1737.2,266.5 139.7,896.2" fill="none" stroke="#3a4654" stroke-width="0.9" opacity="0.85"/>
<polygon points="1725.9,239.2 1737.2,266.5 139.7,896.2 151.0,923.5" fill="none" stroke="#2a3540" stroke-width="0.9"/>
<polyline points="1725.9,239.2 151.0,923.5" fill="none" stroke="#f2f6fa" stroke-width="1" opacity="0.7"/>
<polygon points="1760.3,288.9 1760.3,318.5 1605.7,288.9 1605.7,318.5" fill="url(#galv-real-chord)"/>
<polygon points="1760.3,288.9 1760.3,318.5 1605.7,288.9 1605.7,318.5" fill="url(#spangle)" opacity="0.6"/>
<polygon points="1760.3,292.9 1760.3,314.5 1605.7,292.9 1605.7,314.5" fill="url(#channel-inside)" opacity="0.6"/>
<polygon points="1760.3,288.9 1605.7,318.5 1605.7,314.5 1760.3,292.9" fill="url(#lip-bright)" stroke="#5a6c7c" stroke-width="0.6"/>
<polyline points="1760.3,292.9 1605.7,314.5" fill="none" stroke="#1f2329" stroke-width="0.7" opacity="0.7"/>
<polyline points="1760.3,318.5 1605.7,288.9" fill="none" stroke="#3a4654" stroke-width="0.9" opacity="0.85"/>
<polygon points="1760.3,288.9 1760.3,318.5 1605.7,288.9 1605.7,318.5" fill="none" stroke="#2a3540" stroke-width="0.9"/>
<polyline points="1760.3,288.9 1605.7,318.5" fill="none" stroke="#f2f6fa" stroke-width="1" opacity="0.7"/>
<polygon points="1725.4,910.1 1705.0,931.5 1236.6,441.8 1216.1,463.2" fill="url(#galv-real)"/>
<polygon points="1725.4,910.1 1705.0,931.5 1236.6,441.8 1216.1,463.2" fill="url(#spangle)" opacity="0.6"/>
<polygon points="1722.6,913.0 1707.7,928.6 1233.8,444.7 1218.9,460.3" fill="url(#channel-inside)" opacity="0.6"/>
<polygon points="1725.4,910.1 1216.1,463.2 1218.9,460.3 1722.6,913.0" fill="url(#lip-bright)" stroke="#5a6c7c" stroke-width="0.6"/>
<polyline points="1722.6,913.0 1218.9,460.3" fill="none" stroke="#1f2329" stroke-width="0.7" opacity="0.7"/>
<polyline points="1705.0,931.5 1236.6,441.8" fill="none" stroke="#3a4654" stroke-width="0.9" opacity="0.85"/>
<polygon points="1725.4,910.1 1705.0,931.5 1236.6,441.8 1216.1,463.2" fill="none" stroke="#2a3540" stroke-width="0.9"/>
<polyline points="1725.4,910.1 1216.1,463.2" fill="none" stroke="#f2f6fa" stroke-width="1" opacity="0.7"/>
<polygon points="1760.3,898.6 1760.3,928.2 139.7,898.6 139.7,928.2" fill="url(#galv-real-chord)"/>
<polygon points="1760.3,898.6 1760.3,928.2 139.7,898.6 139.7,928.2" fill="url(#spangle)" opacity="0.6"/>
<polygon points="1760.3,902.6 1760.3,924.2 139.7,902.6 139.7,924.2" fill="url(#channel-inside)" opacity="0.6"/>
<polygon points="1760.3,898.6 139.7,928.2 139.7,924.2 1760.3,902.6" fill="url(#lip-bright)" stroke="#5a6c7c" stroke-width="0.6"/>
<polyline points="1760.3,902.6 139.7,924.2" fill="none" stroke="#1f2329" stroke-width="0.7" opacity="0.7"/>
<polyline points="1760.3,928.2 139.7,898.6" fill="none" stroke="#3a4654" stroke-width="0.9" opacity="0.85"/>
<polygon points="1760.3,898.6 1760.3,928.2 139.7,898.6 139.7,928.2" fill="none" stroke="#2a3540" stroke-width="0.9"/>
<polyline points="1760.3,898.6 139.7,928.2" fill="none" stroke="#f2f6fa" stroke-width="1" opacity="0.7"/>
<polygon points="1180.0,923.4 1209.6,923.4 1180.0,465.2 1209.6,465.2" fill="url(#galv-real)"/>
<polygon points="1180.0,923.4 1209.6,923.4 1180.0,465.2 1209.6,465.2" fill="url(#spangle)" opacity="0.6"/>
<polygon points="1184.0,923.4 1205.6,923.4 1184.0,465.2 1205.6,465.2" fill="url(#channel-inside)" opacity="0.6"/>
<polygon points="1180.0,923.4 1209.6,465.2 1205.6,465.2 1184.0,923.4" fill="url(#lip-bright)" stroke="#5a6c7c" stroke-width="0.6"/>
<polyline points="1184.0,923.4 1205.6,465.2" fill="none" stroke="#1f2329" stroke-width="0.7" opacity="0.7"/>
<polyline points="1209.6,923.4 1180.0,465.2" fill="none" stroke="#3a4654" stroke-width="0.9" opacity="0.85"/>
<polygon points="1180.0,923.4 1209.6,923.4 1180.0,465.2 1209.6,465.2" fill="none" stroke="#2a3540" stroke-width="0.9"/>
<polyline points="1180.0,923.4 1209.6,465.2" fill="none" stroke="#f2f6fa" stroke-width="1" opacity="0.7"/>
<polygon points="1169.1,905.0 1155.4,931.1 703.6,660.1 689.8,686.3" fill="url(#galv-real)"/>
<polygon points="1169.1,905.0 1155.4,931.1 703.6,660.1 689.8,686.3" fill="url(#spangle)" opacity="0.6"/>
<polygon points="1167.3,908.5 1157.2,927.6 701.7,663.6 691.7,682.7" fill="url(#channel-inside)" opacity="0.6"/>
<polygon points="1169.1,905.0 689.8,686.3 691.7,682.7 1167.3,908.5" fill="url(#lip-bright)" stroke="#5a6c7c" stroke-width="0.6"/>
<polyline points="1167.3,908.5 691.7,682.7" fill="none" stroke="#1f2329" stroke-width="0.7" opacity="0.7"/>
<polyline points="1155.4,931.1 703.6,660.1" fill="none" stroke="#3a4654" stroke-width="0.9" opacity="0.85"/>
<polygon points="1169.1,905.0 1155.4,931.1 703.6,660.1 689.8,686.3" fill="none" stroke="#2a3540" stroke-width="0.9"/>
<polyline points="1169.1,905.0 689.8,686.3" fill="none" stroke="#f2f6fa" stroke-width="1" opacity="0.7"/>
<polygon points="652.5,923.4 682.1,923.4 652.5,683.7 682.1,683.7" fill="url(#galv-real)"/>
<polygon points="652.5,923.4 682.1,923.4 652.5,683.7 682.1,683.7" fill="url(#spangle)" opacity="0.6"/>
<polygon points="656.5,923.4 678.1,923.4 656.5,683.7 678.1,683.7" fill="url(#channel-inside)" opacity="0.6"/>
<polygon points="652.5,923.4 682.1,683.7 678.1,683.7 656.5,923.4" fill="url(#lip-bright)" stroke="#5a6c7c" stroke-width="0.6"/>
<polyline points="656.5,923.4 678.1,683.7" fill="none" stroke="#1f2329" stroke-width="0.7" opacity="0.7"/>
<polyline points="682.1,923.4 652.5,683.7" fill="none" stroke="#3a4654" stroke-width="0.9" opacity="0.85"/>
<polygon points="652.5,923.4 682.1,923.4 652.5,683.7 682.1,683.7" fill="none" stroke="#2a3540" stroke-width="0.9"/>
<polyline points="652.5,923.4 682.1,683.7" fill="none" stroke="#f2f6fa" stroke-width="1" opacity="0.7"/>
<polygon points="226.2,923.4 255.8,923.4 226.2,860.3 255.8,860.3" fill="url(#galv-real)"/>
<polygon points="226.2,923.4 255.8,923.4 226.2,860.3 255.8,860.3" fill="url(#spangle)" opacity="0.6"/>
<polygon points="230.2,923.4 251.8,923.4 230.2,860.3 251.8,860.3" fill="url(#channel-inside)" opacity="0.6"/>
<polygon points="226.2,923.4 255.8,860.3 251.8,860.3 230.2,923.4" fill="url(#lip-bright)" stroke="#5a6c7c" stroke-width="0.6"/>
<polyline points="230.2,923.4 251.8,860.3" fill="none" stroke="#1f2329" stroke-width="0.7" opacity="0.7"/>
<polyline points="255.8,923.4 226.2,860.3" fill="none" stroke="#3a4654" stroke-width="0.9" opacity="0.85"/>
<polygon points="226.2,923.4 255.8,923.4 226.2,860.3 255.8,860.3" fill="none" stroke="#2a3540" stroke-width="0.9"/>
<polyline points="226.2,923.4 255.8,860.3" fill="none" stroke="#f2f6fa" stroke-width="1" opacity="0.7"/>
<text x="1733.9" y="265.4" font-size="13" font-weight="700" text-anchor="middle" fill="#1a202c" stroke="white" stroke-width="3.5" paint-order="stroke" opacity="0.9">T2</text>
<text x="1745.6" y="595.8" font-size="13" font-weight="700" text-anchor="middle" fill="#1a202c" stroke="white" stroke-width="3.5" paint-order="stroke" opacity="0.9">W5</text>
<text x="938.4" y="585.3" font-size="13" font-weight="700" text-anchor="middle" fill="#1a202c" stroke="white" stroke-width="3.5" paint-order="stroke" opacity="0.9">T3</text>
<text x="1683.0" y="307.7" font-size="13" font-weight="700" text-anchor="middle" fill="#1a202c" stroke="white" stroke-width="3.5" paint-order="stroke" opacity="0.9">C4</text>
<text x="1470.8" y="690.6" font-size="13" font-weight="700" text-anchor="middle" fill="#1a202c" stroke="white" stroke-width="3.5" paint-order="stroke" opacity="0.9">W6</text>
<text x="950.0" y="917.4" font-size="13" font-weight="700" text-anchor="middle" fill="#1a202c" stroke="white" stroke-width="3.5" paint-order="stroke" opacity="0.9">B1</text>
<text x="1194.8" y="698.3" font-size="13" font-weight="700" text-anchor="middle" fill="#1a202c" stroke="white" stroke-width="3.5" paint-order="stroke" opacity="0.9">W7</text>
<text x="929.5" y="799.6" font-size="13" font-weight="700" text-anchor="middle" fill="#1a202c" stroke="white" stroke-width="3.5" paint-order="stroke" opacity="0.9">W8</text>
<text x="667.3" y="807.5" font-size="13" font-weight="700" text-anchor="middle" fill="#1a202c" stroke="white" stroke-width="3.5" paint-order="stroke" opacity="0.9">W9</text>
<text x="241.0" y="895.8" font-size="13" font-weight="700" text-anchor="middle" fill="#1a202c" stroke="white" stroke-width="3.5" paint-order="stroke" opacity="0.9">W10</text>
<circle cx="1746.9" cy="270.4" r="1.66" fill="black" opacity="0.35" filter="url(#blur3)"/>
<circle cx="1745.4" cy="268.4" r="1.66" fill="#365314"/>
<circle cx="1745.4" cy="268.4" r="1.16" fill="url(#screw-cap)"/>
<circle cx="1745.1" cy="268.0" r="0.47" fill="url(#screw-shine)"/>
<line x1="1744.8" y1="268.4" x2="1746.0" y2="268.4" stroke="#1a2e0a" stroke-width="0.7" opacity="0.7"/>
<line x1="1745.4" y1="267.8" x2="1745.4" y2="269.0" stroke="#1a2e0a" stroke-width="0.7" opacity="0.7"/>
<circle cx="1741.3" cy="270.4" r="1.66" fill="black" opacity="0.35" filter="url(#blur3)"/>
<circle cx="1739.8" cy="268.4" r="1.66" fill="#365314"/>
<circle cx="1739.8" cy="268.4" r="1.16" fill="url(#screw-cap)"/>
<circle cx="1739.4" cy="268.0" r="0.47" fill="url(#screw-shine)"/>
<line x1="1739.2" y1="268.4" x2="1740.3" y2="268.4" stroke="#1a2e0a" stroke-width="0.7" opacity="0.7"/>
<line x1="1739.8" y1="267.8" x2="1739.8" y2="269.0" stroke="#1a2e0a" stroke-width="0.7" opacity="0.7"/>
<circle cx="1735.6" cy="270.4" r="1.66" fill="black" opacity="0.35" filter="url(#blur3)"/>
<circle cx="1734.1" cy="268.4" r="1.66" fill="#365314"/>
<circle cx="1734.1" cy="268.4" r="1.16" fill="url(#screw-cap)"/>
<circle cx="1733.8" cy="268.0" r="0.47" fill="url(#screw-shine)"/>
<line x1="1733.5" y1="268.4" x2="1734.7" y2="268.4" stroke="#1a2e0a" stroke-width="0.7" opacity="0.7"/>
<line x1="1734.1" y1="267.8" x2="1734.1" y2="269.0" stroke="#1a2e0a" stroke-width="0.7" opacity="0.7"/>
<circle cx="1740.0" cy="927.6" r="1.66" fill="black" opacity="0.35" filter="url(#blur3)"/>
<circle cx="1738.5" cy="925.6" r="1.66" fill="#365314"/>
<circle cx="1738.5" cy="925.6" r="1.16" fill="url(#screw-cap)"/>
<circle cx="1738.2" cy="925.2" r="0.47" fill="url(#screw-shine)"/>
<line x1="1737.9" y1="925.6" x2="1739.1" y2="925.6" stroke="#1a2e0a" stroke-width="0.7" opacity="0.7"/>
<line x1="1738.5" y1="925.0" x2="1738.5" y2="926.1" stroke="#1a2e0a" stroke-width="0.7" opacity="0.7"/>
<circle cx="1734.4" cy="927.6" r="1.66" fill="black" opacity="0.35" filter="url(#blur3)"/>
<circle cx="1732.9" cy="925.6" r="1.66" fill="#365314"/>
<circle cx="1732.9" cy="925.6" r="1.16" fill="url(#screw-cap)"/>
<circle cx="1732.5" cy="925.2" r="0.47" fill="url(#screw-shine)"/>
<line x1="1732.3" y1="925.6" x2="1733.4" y2="925.6" stroke="#1a2e0a" stroke-width="0.7" opacity="0.7"/>
<line x1="1732.9" y1="925.0" x2="1732.9" y2="926.1" stroke="#1a2e0a" stroke-width="0.7" opacity="0.7"/>
<circle cx="1728.7" cy="927.6" r="1.66" fill="black" opacity="0.35" filter="url(#blur3)"/>
<circle cx="1727.2" cy="925.6" r="1.66" fill="#365314"/>
<circle cx="1727.2" cy="925.6" r="1.16" fill="url(#screw-cap)"/>
<circle cx="1726.9" cy="925.2" r="0.47" fill="url(#screw-shine)"/>
<line x1="1726.6" y1="925.6" x2="1727.8" y2="925.6" stroke="#1a2e0a" stroke-width="0.7" opacity="0.7"/>
<line x1="1727.2" y1="925.0" x2="1727.2" y2="926.1" stroke="#1a2e0a" stroke-width="0.7" opacity="0.7"/>
<circle cx="1610.2" cy="311.4" r="1.66" fill="black" opacity="0.35" filter="url(#blur3)"/>
<circle cx="1608.7" cy="309.4" r="1.66" fill="#365314"/>
<circle cx="1608.7" cy="309.4" r="1.16" fill="url(#screw-cap)"/>
<circle cx="1608.3" cy="309.0" r="0.47" fill="url(#screw-shine)"/>
<line x1="1608.1" y1="309.4" x2="1609.3" y2="309.4" stroke="#1a2e0a" stroke-width="0.7" opacity="0.7"/>
<line x1="1608.7" y1="308.8" x2="1608.7" y2="309.9" stroke="#1a2e0a" stroke-width="0.7" opacity="0.7"/>
<circle cx="1610.2" cy="305.7" r="1.66" fill="black" opacity="0.35" filter="url(#blur3)"/>
<circle cx="1608.7" cy="303.7" r="1.66" fill="#365314"/>
<circle cx="1608.7" cy="303.7" r="1.16" fill="url(#screw-cap)"/>
<circle cx="1608.3" cy="303.4" r="0.47" fill="url(#screw-shine)"/>
<line x1="1608.1" y1="303.7" x2="1609.3" y2="303.7" stroke="#1a2e0a" stroke-width="0.7" opacity="0.7"/>
<line x1="1608.7" y1="303.1" x2="1608.7" y2="304.3" stroke="#1a2e0a" stroke-width="0.7" opacity="0.7"/>
<circle cx="1610.2" cy="300.1" r="1.66" fill="black" opacity="0.35" filter="url(#blur3)"/>
<circle cx="1608.7" cy="298.1" r="1.66" fill="#365314"/>
<circle cx="1608.7" cy="298.1" r="1.16" fill="url(#screw-cap)"/>
<circle cx="1608.3" cy="297.7" r="0.47" fill="url(#screw-shine)"/>
<line x1="1608.1" y1="298.1" x2="1609.3" y2="298.1" stroke="#1a2e0a" stroke-width="0.7" opacity="0.7"/>
<line x1="1608.7" y1="297.5" x2="1608.7" y2="298.6" stroke="#1a2e0a" stroke-width="0.7" opacity="0.7"/>
<circle cx="1213.1" cy="450.1" r="1.66" fill="black" opacity="0.35" filter="url(#blur3)"/>
<circle cx="1211.6" cy="448.1" r="1.66" fill="#365314"/>
<circle cx="1211.6" cy="448.1" r="1.16" fill="url(#screw-cap)"/>
<circle cx="1211.2" cy="447.8" r="0.47" fill="url(#screw-shine)"/>
<line x1="1211.0" y1="448.1" x2="1212.1" y2="448.1" stroke="#1a2e0a" stroke-width="0.7" opacity="0.7"/>
<line x1="1211.6" y1="447.5" x2="1211.6" y2="448.7" stroke="#1a2e0a" stroke-width="0.7" opacity="0.7"/>
<circle cx="1209.2" cy="454.2" r="1.66" fill="black" opacity="0.35" filter="url(#blur3)"/>
<circle cx="1207.7" cy="452.2" r="1.66" fill="#365314"/>
<circle cx="1207.7" cy="452.2" r="1.16" fill="url(#screw-cap)"/>
<circle cx="1207.3" cy="451.8" r="0.47" fill="url(#screw-shine)"/>
<line x1="1207.1" y1="452.2" x2="1208.2" y2="452.2" stroke="#1a2e0a" stroke-width="0.7" opacity="0.7"/>
<line x1="1207.7" y1="451.6" x2="1207.7" y2="452.8" stroke="#1a2e0a" stroke-width="0.7" opacity="0.7"/>
<circle cx="1205.2" cy="458.3" r="1.66" fill="black" opacity="0.35" filter="url(#blur3)"/>
<circle cx="1203.7" cy="456.3" r="1.66" fill="#365314"/>
<circle cx="1203.7" cy="456.3" r="1.16" fill="url(#screw-cap)"/>
<circle cx="1203.4" cy="455.9" r="0.47" fill="url(#screw-shine)"/>
<line x1="1203.2" y1="456.3" x2="1204.3" y2="456.3" stroke="#1a2e0a" stroke-width="0.7" opacity="0.7"/>
<line x1="1203.7" y1="455.7" x2="1203.7" y2="456.9" stroke="#1a2e0a" stroke-width="0.7" opacity="0.7"/>
<circle cx="138.2" cy="921.1" r="1.66" fill="black" opacity="0.35" filter="url(#blur3)"/>
<circle cx="136.7" cy="919.1" r="1.66" fill="#365314"/>
<circle cx="136.7" cy="919.1" r="1.16" fill="url(#screw-cap)"/>
<circle cx="136.4" cy="918.7" r="0.47" fill="url(#screw-shine)"/>
<line x1="136.2" y1="919.1" x2="137.3" y2="919.1" stroke="#1a2e0a" stroke-width="0.7" opacity="0.7"/>
<line x1="136.7" y1="918.5" x2="136.7" y2="919.6" stroke="#1a2e0a" stroke-width="0.7" opacity="0.7"/>
<circle cx="138.2" cy="915.4" r="1.66" fill="black" opacity="0.35" filter="url(#blur3)"/>
<circle cx="136.7" cy="913.4" r="1.66" fill="#365314"/>
<circle cx="136.7" cy="913.4" r="1.16" fill="url(#screw-cap)"/>
<circle cx="136.4" cy="913.1" r="0.47" fill="url(#screw-shine)"/>
<line x1="136.2" y1="913.4" x2="137.3" y2="913.4" stroke="#1a2e0a" stroke-width="0.7" opacity="0.7"/>
<line x1="136.7" y1="912.8" x2="136.7" y2="914.0" stroke="#1a2e0a" stroke-width="0.7" opacity="0.7"/>
<circle cx="138.2" cy="909.8" r="1.66" fill="black" opacity="0.35" filter="url(#blur3)"/>
<circle cx="136.7" cy="907.8" r="1.66" fill="#365314"/>
<circle cx="136.7" cy="907.8" r="1.16" fill="url(#screw-cap)"/>
<circle cx="136.4" cy="907.4" r="0.47" fill="url(#screw-shine)"/>
<line x1="136.2" y1="907.8" x2="137.3" y2="907.8" stroke="#1a2e0a" stroke-width="0.7" opacity="0.7"/>
<line x1="136.7" y1="907.2" x2="136.7" y2="908.3" stroke="#1a2e0a" stroke-width="0.7" opacity="0.7"/>
<circle cx="684.2" cy="673.4" r="1.66" fill="black" opacity="0.35" filter="url(#blur3)"/>
<circle cx="682.7" cy="671.4" r="1.66" fill="#365314"/>
<circle cx="682.7" cy="671.4" r="1.16" fill="url(#screw-cap)"/>
<circle cx="682.3" cy="671.0" r="0.47" fill="url(#screw-shine)"/>
<line x1="682.1" y1="671.4" x2="683.2" y2="671.4" stroke="#1a2e0a" stroke-width="0.7" opacity="0.7"/>
<line x1="682.7" y1="670.8" x2="682.7" y2="672.0" stroke="#1a2e0a" stroke-width="0.7" opacity="0.7"/>
<circle cx="681.5" cy="678.4" r="1.66" fill="black" opacity="0.35" filter="url(#blur3)"/>
<circle cx="680.0" cy="676.4" r="1.66" fill="#365314"/>
<circle cx="680.0" cy="676.4" r="1.16" fill="url(#screw-cap)"/>
<circle cx="679.7" cy="676.0" r="0.47" fill="url(#screw-shine)"/>
<line x1="679.4" y1="676.4" x2="680.6" y2="676.4" stroke="#1a2e0a" stroke-width="0.7" opacity="0.7"/>
<line x1="680.0" y1="675.8" x2="680.0" y2="677.0" stroke="#1a2e0a" stroke-width="0.7" opacity="0.7"/>
<circle cx="678.9" cy="683.4" r="1.66" fill="black" opacity="0.35" filter="url(#blur3)"/>
<circle cx="677.4" cy="681.4" r="1.66" fill="#365314"/>
<circle cx="677.4" cy="681.4" r="1.16" fill="url(#screw-cap)"/>
<circle cx="677.0" cy="681.0" r="0.47" fill="url(#screw-shine)"/>
<line x1="676.8" y1="681.4" x2="678.0" y2="681.4" stroke="#1a2e0a" stroke-width="0.7" opacity="0.7"/>
<line x1="677.4" y1="680.8" x2="677.4" y2="682.0" stroke="#1a2e0a" stroke-width="0.7" opacity="0.7"/>
<circle cx="248.2" cy="893.8" r="1.66" fill="black" opacity="0.35" filter="url(#blur3)"/>
<circle cx="246.7" cy="891.8" r="1.66" fill="#365314"/>
<circle cx="246.7" cy="891.8" r="1.16" fill="url(#screw-cap)"/>
<circle cx="246.3" cy="891.5" r="0.47" fill="url(#screw-shine)"/>
<line x1="246.1" y1="891.8" x2="247.2" y2="891.8" stroke="#1a2e0a" stroke-width="0.7" opacity="0.7"/>
<line x1="246.7" y1="891.2" x2="246.7" y2="892.4" stroke="#1a2e0a" stroke-width="0.7" opacity="0.7"/>
<circle cx="242.5" cy="893.8" r="1.66" fill="black" opacity="0.35" filter="url(#blur3)"/>
<circle cx="241.0" cy="891.8" r="1.66" fill="#365314"/>
<circle cx="241.0" cy="891.8" r="1.16" fill="url(#screw-cap)"/>
<circle cx="240.7" cy="891.5" r="0.47" fill="url(#screw-shine)"/>
<line x1="240.4" y1="891.8" x2="241.6" y2="891.8" stroke="#1a2e0a" stroke-width="0.7" opacity="0.7"/>
<line x1="241.0" y1="891.2" x2="241.0" y2="892.4" stroke="#1a2e0a" stroke-width="0.7" opacity="0.7"/>
<circle cx="236.9" cy="893.8" r="1.66" fill="black" opacity="0.35" filter="url(#blur3)"/>
<circle cx="235.4" cy="891.8" r="1.66" fill="#365314"/>
<circle cx="235.4" cy="891.8" r="1.16" fill="url(#screw-cap)"/>
<circle cx="235.0" cy="891.5" r="0.47" fill="url(#screw-shine)"/>
<line x1="234.8" y1="891.8" x2="235.9" y2="891.8" stroke="#1a2e0a" stroke-width="0.7" opacity="0.7"/>
<line x1="235.4" y1="891.2" x2="235.4" y2="892.4" stroke="#1a2e0a" stroke-width="0.7" opacity="0.7"/>
<circle cx="1188.2" cy="922.7" r="1.66" fill="black" opacity="0.35" filter="url(#blur3)"/>
<circle cx="1186.7" cy="920.7" r="1.66" fill="#365314"/>
<circle cx="1186.7" cy="920.7" r="1.16" fill="url(#screw-cap)"/>
<circle cx="1186.3" cy="920.3" r="0.47" fill="url(#screw-shine)"/>
<line x1="1186.1" y1="920.7" x2="1187.2" y2="920.7" stroke="#1a2e0a" stroke-width="0.7" opacity="0.7"/>
<line x1="1186.7" y1="920.1" x2="1186.7" y2="921.2" stroke="#1a2e0a" stroke-width="0.7" opacity="0.7"/>
<circle cx="1182.5" cy="922.7" r="1.66" fill="black" opacity="0.35" filter="url(#blur3)"/>
<circle cx="1181.0" cy="920.7" r="1.66" fill="#365314"/>
<circle cx="1181.0" cy="920.7" r="1.16" fill="url(#screw-cap)"/>
<circle cx="1180.7" cy="920.3" r="0.47" fill="url(#screw-shine)"/>
<line x1="1180.4" y1="920.7" x2="1181.6" y2="920.7" stroke="#1a2e0a" stroke-width="0.7" opacity="0.7"/>
<line x1="1181.0" y1="920.1" x2="1181.0" y2="921.2" stroke="#1a2e0a" stroke-width="0.7" opacity="0.7"/>
<circle cx="1176.9" cy="922.7" r="1.66" fill="black" opacity="0.35" filter="url(#blur3)"/>
<circle cx="1175.4" cy="920.7" r="1.66" fill="#365314"/>
<circle cx="1175.4" cy="920.7" r="1.16" fill="url(#screw-cap)"/>
<circle cx="1175.0" cy="920.3" r="0.47" fill="url(#screw-shine)"/>
<line x1="1174.8" y1="920.7" x2="1176.0" y2="920.7" stroke="#1a2e0a" stroke-width="0.7" opacity="0.7"/>
<line x1="1175.4" y1="920.1" x2="1175.4" y2="921.2" stroke="#1a2e0a" stroke-width="0.7" opacity="0.7"/>
<circle cx="674.4" cy="915.4" r="1.66" fill="black" opacity="0.35" filter="url(#blur3)"/>
<circle cx="672.9" cy="913.4" r="1.66" fill="#365314"/>
<circle cx="672.9" cy="913.4" r="1.16" fill="url(#screw-cap)"/>
<circle cx="672.6" cy="913.1" r="0.47" fill="url(#screw-shine)"/>
<line x1="672.3" y1="913.4" x2="673.5" y2="913.4" stroke="#1a2e0a" stroke-width="0.7" opacity="0.7"/>
<line x1="672.9" y1="912.8" x2="672.9" y2="914.0" stroke="#1a2e0a" stroke-width="0.7" opacity="0.7"/>
<circle cx="668.8" cy="915.4" r="1.66" fill="black" opacity="0.35" filter="url(#blur3)"/>
<circle cx="667.3" cy="913.4" r="1.66" fill="#365314"/>
<circle cx="667.3" cy="913.4" r="1.16" fill="url(#screw-cap)"/>
<circle cx="666.9" cy="913.1" r="0.47" fill="url(#screw-shine)"/>
<line x1="666.7" y1="913.4" x2="667.9" y2="913.4" stroke="#1a2e0a" stroke-width="0.7" opacity="0.7"/>
<line x1="667.3" y1="912.8" x2="667.3" y2="914.0" stroke="#1a2e0a" stroke-width="0.7" opacity="0.7"/>
<circle cx="663.1" cy="915.4" r="1.66" fill="black" opacity="0.35" filter="url(#blur3)"/>
<circle cx="661.6" cy="913.4" r="1.66" fill="#365314"/>
<circle cx="661.6" cy="913.4" r="1.16" fill="url(#screw-cap)"/>
<circle cx="661.3" cy="913.1" r="0.47" fill="url(#screw-shine)"/>
<line x1="661.1" y1="913.4" x2="662.2" y2="913.4" stroke="#1a2e0a" stroke-width="0.7" opacity="0.7"/>
<line x1="661.6" y1="912.8" x2="661.6" y2="914.0" stroke="#1a2e0a" stroke-width="0.7" opacity="0.7"/>
<rect x="40" y="1110" width="1820" height="50" fill="white" opacity="0.92" rx="4"/>
<text x="60" y="1132" font-size="13" font-weight="700" fill="#1a202c">Reading the diagram:</text>
<text x="60" y="1150" font-size="11" fill="#4a5568">Bright top edge of each member = the LIP strip on the open-channel side (lips all facing same direction). Green discs = self-drilling screws (visible cap, like the photo). Real concrete-floor background.</text>
</svg>