<svg xmlns="http://www.w3.org/2000/svg" width="1700" height="1100" viewBox="0 0 1700 1100" font-family="Segoe UI, Arial, sans-serif">
<defs>
<linearGradient id="bg" x1="0" y1="0" x2="0" y2="1"><stop offset="0" stop-color="#f8fafc"/><stop offset="1" stop-color="#e2e8f0"/></linearGradient>
<linearGradient id="steel" x1="0" y1="0" x2="0" y2="1"><stop offset="0" stop-color="#dde6ed"/><stop offset="1" stop-color="#8a9ba9"/></linearGradient>
<linearGradient id="chord" x1="0" y1="0" x2="0" y2="1"><stop offset="0" stop-color="#cfd9e2"/><stop offset="1" stop-color="#7a8c9b"/></linearGradient>
</defs>
<rect width="1700" height="1100" fill="url(#bg)"/>
<text x="30" y="40" font-size="24" font-weight="700" fill="#1a202c">How the tools work together at a junction</text>
<text x="30" y="64" font-size="14" fill="#4a5568">Vertical web W7 meeting horizontal bottom chord B1. Three views: WITHOUT tools / WITH tools / FINAL ASSEMBLED.</text>
<rect x="30" y="100" width="540" height="920" fill="white" stroke="#cbd5e0" stroke-width="1" rx="4"/>
<text x="45" y="125" font-size="14" font-weight="700" fill="#1a202c">1. WITHOUT tools — won't fit</text>
<rect x="125.0" y="449.75" width="350" height="400.5" fill="url(#chord)" stroke="#1d4ed8" stroke-width="1.4"/>
<rect x="125.0" y="449.75" width="350" height="54.0" fill="#a4b6c4" stroke="#1d4ed8" stroke-width="0.8" opacity="0.95"/>
<rect x="125.0" y="796.25" width="350" height="54.0" fill="#a4b6c4" stroke="#1d4ed8" stroke-width="0.8" opacity="0.95"/>
<line x1="110.0" y1="650.0" x2="490.0" y2="650.0" stroke="#1d4ed8" stroke-width="1" stroke-dasharray="5 3" opacity="0.7"/>
<text x="135.0" y="467.75" font-size="11" fill="#1d4ed8" font-weight="600">B1 chord</text>
<rect x="99.75" y="230" width="400.5" height="189.75" fill="url(#steel)" stroke="#475569" stroke-width="1.4"/>
<rect x="99.75" y="230" width="400.5" height="54.0" fill="#94a3b8" stroke="#475569" stroke-width="0.8"/>
<rect x="99.75" y="365.75" width="400.5" height="54.0" fill="#94a3b8" stroke="#475569" stroke-width="0.8"/>
<rect x="94.75" y="419.75" width="410.5" height="30" fill="#fee2e2" stroke="#dc2626" stroke-width="2" stroke-dasharray="4 2"/>
<text x="300.0" y="437.75" text-anchor="middle" font-size="11" font-weight="700" fill="#7f1d1d">FLANGES + LIPS CLASH</text>
<text x="300.0" y="449.75" text-anchor="middle" font-size="9" fill="#7f1d1d">web cannot lay flat</text>
<text x="510.25" y="260" font-size="11" fill="#475569" font-weight="600">W7 web</text>
<text x="510.25" y="275" font-size="10" fill="#dc2626">no tools applied</text>
<rect x="580" y="100" width="540" height="920" fill="white" stroke="#cbd5e0" stroke-width="1" rx="4"/>
<text x="595" y="125" font-size="14" font-weight="700" fill="#1a202c">2. WITH all tools applied</text>
<rect x="675.0" y="449.75" width="350" height="400.5" fill="url(#chord)" stroke="#1d4ed8" stroke-width="1.4"/>
<rect x="675.0" y="449.75" width="350" height="54.0" fill="#a4b6c4" stroke="#1d4ed8" stroke-width="0.8" opacity="0.95"/>
<rect x="675.0" y="796.25" width="350" height="54.0" fill="#a4b6c4" stroke="#1d4ed8" stroke-width="0.8" opacity="0.95"/>
<line x1="660.0" y1="650.0" x2="1040.0" y2="650.0" stroke="#1d4ed8" stroke-width="1" stroke-dasharray="5 3" opacity="0.7"/>
<text x="685.0" y="467.75" font-size="11" fill="#1d4ed8" font-weight="600">B1 chord</text>
<rect x="649.75" y="230" width="400.5" height="615.25" fill="url(#steel)" stroke="#475569" stroke-width="1.4"/>
<rect x="649.75" y="780.25" width="400.5" height="65" fill="rgba(249,115,22,0.35)" stroke="#c2410c" stroke-width="1.5" stroke-dasharray="3 2"/>
<text x="850.0" y="774.25" text-anchor="middle" font-size="10" font-weight="700" fill="#c2410c">PARTIAL FLANGE (left + right)</text>
<text x="850.0" y="872.75" text-anchor="middle" font-size="9" fill="#7c2d12">flange removed</text>
<text x="850.0" y="885.75" text-anchor="middle" font-size="9" fill="#7c2d12">in overlap zone</text>
<rect x="649.75" y="791.25" width="54.0" height="54.0" fill="#fbbf24" stroke="#92400e" stroke-width="1"/>
<rect x="996.25" y="791.25" width="54.0" height="54.0" fill="#fbbf24" stroke="#92400e" stroke-width="1"/>
<rect x="827.5" y="765.25" width="45.0" height="135.0" fill="#9333ea" opacity="0.8" stroke="#581c87"/>
<text x="880.0" y="765.25" font-size="10" font-weight="700" fill="#581c87">SWAGE — stiffness</text>
<circle cx="850.0" cy="573.5" r="3" fill="#16a34a" stroke="#14532d" stroke-width="1"/>
<circle cx="850.0" cy="650.0" r="5" fill="none" stroke="#16a34a" stroke-width="1.5"/>
<circle cx="850.0" cy="650.0" r="3" fill="#16a34a" stroke="#14532d" stroke-width="1.2"/>
<circle cx="850.0" cy="726.5" r="3" fill="#16a34a" stroke="#14532d" stroke-width="1"/>
<text x="900.0" y="646.0" font-size="10" font-weight="700" fill="#14532d">WEB HOLE</text>
<text x="900.0" y="658.0" font-size="9" fill="#14532d">3×Ø3.8mm @17pitch</text>
<polygon points="649.75,845.25 657.75,845.25 649.75,837.25" fill="#06b6d4" stroke="#0e7490" stroke-width="1"/>
<polygon points="1050.25,845.25 1042.25,845.25 1050.25,837.25" fill="#06b6d4" stroke="#0e7490" stroke-width="1"/>
<text x="641.75" y="833.25" text-anchor="end" font-size="10" font-weight="700" fill="#0e7490">CHAMFER</text>
<rect x="1130" y="100" width="540" height="920" fill="white" stroke="#cbd5e0" stroke-width="1" rx="4"/>
<text x="1145" y="125" font-size="14" font-weight="700" fill="#1a202c">3. ASSEMBLED — flat web-on-web</text>
<rect x="1225.0" y="449.75" width="350" height="400.5" fill="url(#chord)" stroke="#1d4ed8" stroke-width="1.4"/>
<rect x="1225.0" y="449.75" width="350" height="54.0" fill="#a4b6c4" stroke="#1d4ed8" stroke-width="0.8" opacity="0.95"/>
<rect x="1225.0" y="796.25" width="350" height="54.0" fill="#a4b6c4" stroke="#1d4ed8" stroke-width="0.8" opacity="0.95"/>
<line x1="1210.0" y1="650.0" x2="1590.0" y2="650.0" stroke="#1d4ed8" stroke-width="1" stroke-dasharray="5 3" opacity="0.7"/>
<text x="1235.0" y="467.75" font-size="11" fill="#1d4ed8" font-weight="600">B1 chord</text>
<rect x="1199.75" y="230" width="400.5" height="615.25" fill="url(#steel)" stroke="#475569" stroke-width="1.4" opacity="0.9"/>
<circle cx="1400.0" cy="573.5" r="3.5" fill="#1a202c" stroke="black" stroke-width="0.6"/>
<circle cx="1400.0" cy="573.5" r="6" fill="#65a30d" stroke="#365314" stroke-width="1.2"/>
<line x1="1397.0" y1="573.5" x2="1403.0" y2="573.5" stroke="#1a2e0a" stroke-width="0.7"/>
<line x1="1400.0" y1="570.5" x2="1400.0" y2="576.5" stroke="#1a2e0a" stroke-width="0.7"/>
<circle cx="1400.0" cy="650.0" r="3.5" fill="#1a202c" stroke="black" stroke-width="0.6"/>
<circle cx="1400.0" cy="650.0" r="6" fill="#65a30d" stroke="#365314" stroke-width="1.2"/>
<line x1="1397.0" y1="650.0" x2="1403.0" y2="650.0" stroke="#1a2e0a" stroke-width="0.7"/>
<line x1="1400.0" y1="647.0" x2="1400.0" y2="653.0" stroke="#1a2e0a" stroke-width="0.7"/>
<circle cx="1400.0" cy="726.5" r="3.5" fill="#1a202c" stroke="black" stroke-width="0.6"/>
<circle cx="1400.0" cy="726.5" r="6" fill="#65a30d" stroke="#365314" stroke-width="1.2"/>
<line x1="1397.0" y1="726.5" x2="1403.0" y2="726.5" stroke="#1a2e0a" stroke-width="0.7"/>
<line x1="1400.0" y1="723.5" x2="1400.0" y2="729.5" stroke="#1a2e0a" stroke-width="0.7"/>
<text x="1435.0" y="620.0" font-size="11" font-weight="700" fill="#14532d">3 screws driven through</text>
<text x="1435.0" y="634.0" font-size="10" fill="#14532d">middle hole = registration</text>
<text x="1435.0" y="648.0" font-size="10" fill="#14532d">top + bottom = lock angle</text>
<rect x="1150" y="910" width="500" height="80" fill="#dcfce7" stroke="#16a34a" rx="3"/>
<text x="1160" y="930" font-size="12" font-weight="700" fill="#14532d">Result: web sits FLAT on chord</text>
<text x="1160" y="948" font-size="11" fill="#14532d">• Flanges removed in overlap → flat contact</text>
<text x="1160" y="962" font-size="11" fill="#14532d">• Middle screw aligns by design (auto-set-out)</text>
<text x="1160" y="976" font-size="11" fill="#14532d">• 3 screws lock position + angle</text>
</svg>