<svg xmlns="http://www.w3.org/2000/svg" width="1900" height="1180" viewBox="0 0 1900 1180" font-family="Segoe UI, Arial, sans-serif">
<defs>
  <linearGradient id="galv" x1="0" y1="0" x2="0" y2="1">
    <stop offset="0%" stop-color="#dde6ed"/>
    <stop offset="50%" stop-color="#a8b9c7"/>
    <stop offset="100%" stop-color="#7a8b9a"/>
  </linearGradient>
  <linearGradient id="galv-chord" x1="0" y1="0" x2="0" y2="1">
    <stop offset="0%" stop-color="#cfd9e2"/>
    <stop offset="50%" stop-color="#9eaebd"/>
    <stop offset="100%" stop-color="#6e8090"/>
  </linearGradient>
  <linearGradient id="swage-press" x1="0" y1="0" x2="1" y2="0">
    <stop offset="0%" stop-color="#7a8b9a"/>
    <stop offset="20%" stop-color="#566270"/>
    <stop offset="80%" stop-color="#566270"/>
    <stop offset="100%" stop-color="#7a8b9a"/>
  </linearGradient>
  <radialGradient id="hole-deep" cx="0.4" cy="0.4" r="0.6">
    <stop offset="0%" stop-color="#0a0a0a"/>
    <stop offset="70%" stop-color="#3a3a3a"/>
    <stop offset="100%" stop-color="#5a5a5a"/>
  </radialGradient>
  <radialGradient id="hole-rim" cx="0.5" cy="0.5" r="0.5">
    <stop offset="80%" stop-color="white" stop-opacity="0"/>
    <stop offset="95%" stop-color="white" stop-opacity="0.55"/>
    <stop offset="100%" stop-color="white" stop-opacity="0"/>
  </radialGradient>
  <radialGradient id="screw-cap" cx="0.35" cy="0.35" r="0.7">
    <stop offset="0%" stop-color="#a3e635"/>
    <stop offset="50%" stop-color="#65a30d"/>
    <stop offset="100%" stop-color="#365314"/>
  </radialGradient>
  <pattern id="spangle" patternUnits="userSpaceOnUse" width="50" height="50">
    <ellipse cx="10" cy="15" rx="6" ry="3" fill="white" opacity="0.05" transform="rotate(20 10 15)"/>
    <ellipse cx="35" cy="30" rx="8" ry="4" fill="white" opacity="0.04" transform="rotate(-15 35 30)"/>
    <ellipse cx="20" cy="42" rx="5" ry="2.5" fill="white" opacity="0.06" transform="rotate(40 20 42)"/>
  </pattern>
  <linearGradient id="bg" x1="0" y1="0" x2="0" y2="1">
    <stop offset="0" stop-color="#a8a8a8"/>
    <stop offset="1" stop-color="#7a7a7a"/>
  </linearGradient>
  <filter id="blur3"><feGaussianBlur stdDeviation="3"/></filter>
  <filter id="blur5"><feGaussianBlur stdDeviation="5"/></filter>
</defs>
<rect width="1900" height="1180" fill="url(#bg)"/>
<rect x="0" y="0" width="1900" height="105" fill="white" opacity="0.95"/>
<text x="40" y="42" font-size="26" font-weight="700" fill="#1a202c">Truss frame TN2-1 — corrected swage shape</text>
<text x="40" y="68" font-size="14" fill="#4a5568">Swage = rectangular pressed feature (10×30mm) with parallel inner lines · Web Hole = 3 green screws · Lip Cut at member ends</text>
<g opacity="0.55">
<polygon points="1755.0,289.7 1766.3,262.4 1724.8,245.2 1713.5,272.5" fill="black" opacity="0.4" filter="url(#blur5)"/>
<polygon points="1736.8,933.2 1766.3,933.2 1766.3,262.4 1736.8,262.4" fill="black" opacity="0.4" filter="url(#blur5)"/>
<polygon points="1743.2,272.5 1731.9,245.2 145.7,902.2 157.0,929.5" fill="black" opacity="0.4" filter="url(#blur5)"/>
<polygon points="1766.3,324.5 1766.3,294.9 1611.7,294.9 1611.7,324.5" fill="black" opacity="0.4" filter="url(#blur5)"/>
<polygon points="1711.0,937.5 1731.4,916.1 1242.6,447.8 1222.1,469.2" fill="black" opacity="0.4" filter="url(#blur5)"/>
<polygon points="1766.3,934.2 1766.3,904.6 145.7,904.6 145.7,934.2" fill="black" opacity="0.4" filter="url(#blur5)"/>
<polygon points="1186.0,929.4 1215.6,929.4 1215.6,471.2 1186.0,471.2" fill="black" opacity="0.4" filter="url(#blur5)"/>
<polygon points="1161.4,937.1 1175.1,911.0 709.6,666.1 695.8,692.3" fill="black" opacity="0.4" filter="url(#blur5)"/>
<polygon points="658.5,929.4 688.1,929.4 688.1,689.7 658.5,689.7" fill="black" opacity="0.4" filter="url(#blur5)"/>
<polygon points="232.2,929.4 261.8,929.4 261.8,866.3 232.2,866.3" fill="black" opacity="0.4" filter="url(#blur5)"/>
</g>
<polygon points="1749.0,283.7 1760.3,256.4 1718.8,239.2 1707.5,266.5" fill="url(#galv-chord)"/>
<polygon points="1749.0,283.7 1760.3,256.4 1718.8,239.2 1707.5,266.5" fill="url(#spangle)" opacity="0.7"/>
<line x1="1749.0" y1="283.7" x2="1707.5" y2="266.5" stroke="#3a4654" stroke-width="0.6" opacity="0.7"/>
<line x1="1749.4" y1="282.8" x2="1707.9" y2="265.5" stroke="#5a6c7c" stroke-width="0.5" opacity="0.5"/>
<line x1="1760.3" y1="256.4" x2="1718.8" y2="239.2" stroke="#3a4654" stroke-width="0.6" opacity="0.7"/>
<line x1="1760.0" y1="257.3" x2="1718.4" y2="240.1" stroke="#5a6c7c" stroke-width="0.5" opacity="0.5"/>
<polygon points="1749.0,283.7 1760.3,256.4 1718.8,239.2 1707.5,266.5" fill="none" stroke="#1a2329" stroke-width="0.9"/>
<line x1="1749.0" y1="283.7" x2="1760.3" y2="256.4" stroke="#1a2329" stroke-width="0.9"/>
<line x1="1718.8" y1="239.2" x2="1707.5" y2="266.5" stroke="#1a2329" stroke-width="0.9"/>
<polygon points="1737.2,266.5 1725.9,239.2 139.7,896.2 151.0,923.5" fill="url(#galv-chord)"/>
<polygon points="1737.2,266.5 1725.9,239.2 139.7,896.2 151.0,923.5" fill="url(#spangle)" opacity="0.7"/>
<line x1="1737.2" y1="266.5" x2="151.0" y2="923.5" stroke="#3a4654" stroke-width="0.6" opacity="0.7"/>
<line x1="1736.8" y1="265.5" x2="150.6" y2="922.6" stroke="#5a6c7c" stroke-width="0.5" opacity="0.5"/>
<line x1="1725.9" y1="239.2" x2="139.7" y2="896.2" stroke="#3a4654" stroke-width="0.6" opacity="0.7"/>
<line x1="1726.3" y1="240.1" x2="140.0" y2="897.1" stroke="#5a6c7c" stroke-width="0.5" opacity="0.5"/>
<polygon points="1737.2,266.5 1725.9,239.2 139.7,896.2 151.0,923.5" fill="none" stroke="#1a2329" stroke-width="0.9"/>
<line x1="1737.2" y1="266.5" x2="1725.9" y2="239.2" stroke="#1a2329" stroke-width="0.9"/>
<line x1="139.7" y1="896.2" x2="151.0" y2="923.5" stroke="#1a2329" stroke-width="0.9"/>
<polygon points="1760.3,318.5 1760.3,288.9 1605.7,288.9 1605.7,318.5" fill="url(#galv-chord)"/>
<polygon points="1760.3,318.5 1760.3,288.9 1605.7,288.9 1605.7,318.5" fill="url(#spangle)" opacity="0.7"/>
<line x1="1760.3" y1="318.5" x2="1605.7" y2="318.5" stroke="#3a4654" stroke-width="0.6" opacity="0.7"/>
<line x1="1760.3" y1="317.5" x2="1605.7" y2="317.5" stroke="#5a6c7c" stroke-width="0.5" opacity="0.5"/>
<line x1="1760.3" y1="288.9" x2="1605.7" y2="288.9" stroke="#3a4654" stroke-width="0.6" opacity="0.7"/>
<line x1="1760.3" y1="289.9" x2="1605.7" y2="289.9" stroke="#5a6c7c" stroke-width="0.5" opacity="0.5"/>
<polygon points="1760.3,318.5 1760.3,288.9 1605.7,288.9 1605.7,318.5" fill="none" stroke="#1a2329" stroke-width="0.9"/>
<line x1="1760.3" y1="318.5" x2="1760.3" y2="288.9" stroke="#1a2329" stroke-width="0.9"/>
<line x1="1605.7" y1="288.9" x2="1605.7" y2="318.5" stroke="#1a2329" stroke-width="0.9"/>
<polygon points="1760.3,928.2 1760.3,898.6 139.7,898.6 139.7,928.2" fill="url(#galv-chord)"/>
<polygon points="1760.3,928.2 1760.3,898.6 139.7,898.6 139.7,928.2" fill="url(#spangle)" opacity="0.7"/>
<line x1="1760.3" y1="928.2" x2="139.7" y2="928.2" stroke="#3a4654" stroke-width="0.6" opacity="0.7"/>
<line x1="1760.3" y1="927.2" x2="139.7" y2="927.2" stroke="#5a6c7c" stroke-width="0.5" opacity="0.5"/>
<line x1="1760.3" y1="898.6" x2="139.7" y2="898.6" stroke="#3a4654" stroke-width="0.6" opacity="0.7"/>
<line x1="1760.3" y1="899.6" x2="139.7" y2="899.6" stroke="#5a6c7c" stroke-width="0.5" opacity="0.5"/>
<polygon points="1760.3,928.2 1760.3,898.6 139.7,898.6 139.7,928.2" fill="none" stroke="#1a2329" stroke-width="0.9"/>
<line x1="1760.3" y1="928.2" x2="1760.3" y2="898.6" stroke="#1a2329" stroke-width="0.9"/>
<line x1="139.7" y1="898.6" x2="139.7" y2="928.2" stroke="#1a2329" stroke-width="0.9"/>
<polygon points="1730.8,927.2 1760.3,927.2 1760.3,256.4 1730.8,256.4" fill="url(#galv)"/>
<polygon points="1730.8,927.2 1760.3,927.2 1760.3,256.4 1730.8,256.4" fill="url(#spangle)" opacity="0.7"/>
<line x1="1730.8" y1="927.2" x2="1730.8" y2="256.4" stroke="#3a4654" stroke-width="0.6" opacity="0.7"/>
<line x1="1731.8" y1="927.2" x2="1731.8" y2="256.4" stroke="#5a6c7c" stroke-width="0.5" opacity="0.5"/>
<line x1="1760.3" y1="927.2" x2="1760.3" y2="256.4" stroke="#3a4654" stroke-width="0.6" opacity="0.7"/>
<line x1="1759.3" y1="927.2" x2="1759.3" y2="256.4" stroke="#5a6c7c" stroke-width="0.5" opacity="0.5"/>
<polygon points="1730.8,927.2 1760.3,927.2 1760.3,256.4 1730.8,256.4" fill="none" stroke="#1a2329" stroke-width="0.9"/>
<line x1="1730.8" y1="927.2" x2="1760.3" y2="927.2" stroke="#1a2329" stroke-width="0.9"/>
<line x1="1760.3" y1="256.4" x2="1730.8" y2="256.4" stroke="#1a2329" stroke-width="0.9"/>
<polygon points="1705.0,931.5 1725.4,910.1 1236.6,441.8 1216.1,463.2" fill="url(#galv)"/>
<polygon points="1705.0,931.5 1725.4,910.1 1236.6,441.8 1216.1,463.2" fill="url(#spangle)" opacity="0.7"/>
<line x1="1705.0" y1="931.5" x2="1216.1" y2="463.2" stroke="#3a4654" stroke-width="0.6" opacity="0.7"/>
<line x1="1705.6" y1="930.7" x2="1216.8" y2="462.5" stroke="#5a6c7c" stroke-width="0.5" opacity="0.5"/>
<line x1="1725.4" y1="910.1" x2="1236.6" y2="441.8" stroke="#3a4654" stroke-width="0.6" opacity="0.7"/>
<line x1="1724.7" y1="910.8" x2="1235.9" y2="442.5" stroke="#5a6c7c" stroke-width="0.5" opacity="0.5"/>
<polygon points="1705.0,931.5 1725.4,910.1 1236.6,441.8 1216.1,463.2" fill="none" stroke="#1a2329" stroke-width="0.9"/>
<line x1="1705.0" y1="931.5" x2="1725.4" y2="910.1" stroke="#1a2329" stroke-width="0.9"/>
<line x1="1236.6" y1="441.8" x2="1216.1" y2="463.2" stroke="#1a2329" stroke-width="0.9"/>
<polygon points="1180.0,923.4 1209.6,923.4 1209.6,465.2 1180.0,465.2" fill="url(#galv)"/>
<polygon points="1180.0,923.4 1209.6,923.4 1209.6,465.2 1180.0,465.2" fill="url(#spangle)" opacity="0.7"/>
<line x1="1180.0" y1="923.4" x2="1180.0" y2="465.2" stroke="#3a4654" stroke-width="0.6" opacity="0.7"/>
<line x1="1181.0" y1="923.4" x2="1181.0" y2="465.2" stroke="#5a6c7c" stroke-width="0.5" opacity="0.5"/>
<line x1="1209.6" y1="923.4" x2="1209.6" y2="465.2" stroke="#3a4654" stroke-width="0.6" opacity="0.7"/>
<line x1="1208.6" y1="923.4" x2="1208.6" y2="465.2" stroke="#5a6c7c" stroke-width="0.5" opacity="0.5"/>
<polygon points="1180.0,923.4 1209.6,923.4 1209.6,465.2 1180.0,465.2" fill="none" stroke="#1a2329" stroke-width="0.9"/>
<line x1="1180.0" y1="923.4" x2="1209.6" y2="923.4" stroke="#1a2329" stroke-width="0.9"/>
<line x1="1209.6" y1="465.2" x2="1180.0" y2="465.2" stroke="#1a2329" stroke-width="0.9"/>
<polygon points="1155.4,931.1 1169.1,905.0 703.6,660.1 689.8,686.3" fill="url(#galv)"/>
<polygon points="1155.4,931.1 1169.1,905.0 703.6,660.1 689.8,686.3" fill="url(#spangle)" opacity="0.7"/>
<line x1="1155.4" y1="931.1" x2="689.8" y2="686.3" stroke="#3a4654" stroke-width="0.6" opacity="0.7"/>
<line x1="1155.8" y1="930.2" x2="690.3" y2="685.4" stroke="#5a6c7c" stroke-width="0.5" opacity="0.5"/>
<line x1="1169.1" y1="905.0" x2="703.6" y2="660.1" stroke="#3a4654" stroke-width="0.6" opacity="0.7"/>
<line x1="1168.7" y1="905.8" x2="703.1" y2="661.0" stroke="#5a6c7c" stroke-width="0.5" opacity="0.5"/>
<polygon points="1155.4,931.1 1169.1,905.0 703.6,660.1 689.8,686.3" fill="none" stroke="#1a2329" stroke-width="0.9"/>
<line x1="1155.4" y1="931.1" x2="1169.1" y2="905.0" stroke="#1a2329" stroke-width="0.9"/>
<line x1="703.6" y1="660.1" x2="689.8" y2="686.3" stroke="#1a2329" stroke-width="0.9"/>
<polygon points="652.5,923.4 682.1,923.4 682.1,683.7 652.5,683.7" fill="url(#galv)"/>
<polygon points="652.5,923.4 682.1,923.4 682.1,683.7 652.5,683.7" fill="url(#spangle)" opacity="0.7"/>
<line x1="652.5" y1="923.4" x2="652.5" y2="683.7" stroke="#3a4654" stroke-width="0.6" opacity="0.7"/>
<line x1="653.5" y1="923.4" x2="653.5" y2="683.7" stroke="#5a6c7c" stroke-width="0.5" opacity="0.5"/>
<line x1="682.1" y1="923.4" x2="682.1" y2="683.7" stroke="#3a4654" stroke-width="0.6" opacity="0.7"/>
<line x1="681.1" y1="923.4" x2="681.1" y2="683.7" stroke="#5a6c7c" stroke-width="0.5" opacity="0.5"/>
<polygon points="652.5,923.4 682.1,923.4 682.1,683.7 652.5,683.7" fill="none" stroke="#1a2329" stroke-width="0.9"/>
<line x1="652.5" y1="923.4" x2="682.1" y2="923.4" stroke="#1a2329" stroke-width="0.9"/>
<line x1="682.1" y1="683.7" x2="652.5" y2="683.7" stroke="#1a2329" stroke-width="0.9"/>
<polygon points="226.2,923.4 255.8,923.4 255.8,860.3 226.2,860.3" fill="url(#galv)"/>
<polygon points="226.2,923.4 255.8,923.4 255.8,860.3 226.2,860.3" fill="url(#spangle)" opacity="0.7"/>
<line x1="226.2" y1="923.4" x2="226.2" y2="860.3" stroke="#3a4654" stroke-width="0.6" opacity="0.7"/>
<line x1="227.2" y1="923.4" x2="227.2" y2="860.3" stroke="#5a6c7c" stroke-width="0.5" opacity="0.5"/>
<line x1="255.8" y1="923.4" x2="255.8" y2="860.3" stroke="#3a4654" stroke-width="0.6" opacity="0.7"/>
<line x1="254.8" y1="923.4" x2="254.8" y2="860.3" stroke="#5a6c7c" stroke-width="0.5" opacity="0.5"/>
<polygon points="226.2,923.4 255.8,923.4 255.8,860.3 226.2,860.3" fill="none" stroke="#1a2329" stroke-width="0.9"/>
<line x1="226.2" y1="923.4" x2="255.8" y2="923.4" stroke="#1a2329" stroke-width="0.9"/>
<line x1="255.8" y1="860.3" x2="226.2" y2="860.3" stroke="#1a2329" stroke-width="0.9"/>
<polygon points="1740.6,919.7 1740.6,916.4 1750.5,916.4 1750.5,919.7" fill="url(#swage-press)" stroke="#2a3540" stroke-width="0.5" opacity="0.85"/>
<line x1="1740.6" y1="919.1" x2="1750.5" y2="919.1" stroke="white" stroke-width="0.5" opacity="0.5"/>
<line x1="1740.6" y1="917.1" x2="1750.5" y2="917.1" stroke="white" stroke-width="0.5" opacity="0.5"/>
<polygon points="1740.6,901.4 1740.6,898.1 1750.5,898.1 1750.5,901.4" fill="url(#swage-press)" stroke="#2a3540" stroke-width="0.5" opacity="0.85"/>
<line x1="1740.6" y1="900.8" x2="1750.5" y2="900.8" stroke="white" stroke-width="0.5" opacity="0.5"/>
<line x1="1740.6" y1="898.8" x2="1750.5" y2="898.8" stroke="white" stroke-width="0.5" opacity="0.5"/>
<polygon points="1740.6,894.5 1740.6,891.1 1750.5,891.1 1750.5,894.5" fill="url(#swage-press)" stroke="#2a3540" stroke-width="0.5" opacity="0.85"/>
<line x1="1740.6" y1="893.8" x2="1750.5" y2="893.8" stroke="white" stroke-width="0.5" opacity="0.5"/>
<line x1="1740.6" y1="891.8" x2="1750.5" y2="891.8" stroke="white" stroke-width="0.5" opacity="0.5"/>
<polygon points="1740.6,326.0 1740.6,322.6 1750.5,322.6 1750.5,326.0" fill="url(#swage-press)" stroke="#2a3540" stroke-width="0.5" opacity="0.85"/>
<line x1="1740.6" y1="325.3" x2="1750.5" y2="325.3" stroke="white" stroke-width="0.5" opacity="0.5"/>
<line x1="1740.6" y1="323.3" x2="1750.5" y2="323.3" stroke="white" stroke-width="0.5" opacity="0.5"/>
<polygon points="1740.6,307.7 1740.6,304.4 1750.5,304.4 1750.5,307.7" fill="url(#swage-press)" stroke="#2a3540" stroke-width="0.5" opacity="0.85"/>
<line x1="1740.6" y1="307.0" x2="1750.5" y2="307.0" stroke="white" stroke-width="0.5" opacity="0.5"/>
<line x1="1740.6" y1="305.0" x2="1750.5" y2="305.0" stroke="white" stroke-width="0.5" opacity="0.5"/>
<polygon points="1740.6,289.4 1740.6,286.1 1750.5,286.1 1750.5,289.4" fill="url(#swage-press)" stroke="#2a3540" stroke-width="0.5" opacity="0.85"/>
<line x1="1740.6" y1="288.8" x2="1750.5" y2="288.8" stroke="white" stroke-width="0.5" opacity="0.5"/>
<line x1="1740.6" y1="286.8" x2="1750.5" y2="286.8" stroke="white" stroke-width="0.5" opacity="0.5"/>
<polygon points="1740.6,271.1 1740.6,267.8 1750.5,267.8 1750.5,271.1" fill="url(#swage-press)" stroke="#2a3540" stroke-width="0.5" opacity="0.85"/>
<line x1="1740.6" y1="270.5" x2="1750.5" y2="270.5" stroke="white" stroke-width="0.5" opacity="0.5"/>
<line x1="1740.6" y1="268.5" x2="1750.5" y2="268.5" stroke="white" stroke-width="0.5" opacity="0.5"/>
<polygon points="1740.6,267.2 1740.6,263.8 1750.5,263.8 1750.5,267.2" fill="url(#swage-press)" stroke="#2a3540" stroke-width="0.5" opacity="0.85"/>
<line x1="1740.6" y1="266.5" x2="1750.5" y2="266.5" stroke="white" stroke-width="0.5" opacity="0.5"/>
<line x1="1740.6" y1="264.5" x2="1750.5" y2="264.5" stroke="white" stroke-width="0.5" opacity="0.5"/>
<polygon points="1706.3,919.2 1703.9,916.9 1710.8,909.7 1713.2,912.0" fill="url(#swage-press)" stroke="#2a3540" stroke-width="0.5" opacity="0.85"/>
<line x1="1705.9" y1="918.8" x2="1712.7" y2="911.6" stroke="white" stroke-width="0.5" opacity="0.5"/>
<line x1="1704.4" y1="917.4" x2="1711.3" y2="910.2" stroke="white" stroke-width="0.5" opacity="0.5"/>
<polygon points="1693.1,906.6 1690.7,904.3 1697.6,897.1 1700.0,899.4" fill="url(#swage-press)" stroke="#2a3540" stroke-width="0.5" opacity="0.85"/>
<line x1="1692.7" y1="906.1" x2="1699.6" y2="898.9" stroke="white" stroke-width="0.5" opacity="0.5"/>
<line x1="1691.2" y1="904.7" x2="1698.1" y2="897.5" stroke="white" stroke-width="0.5" opacity="0.5"/>
<polygon points="1679.9,893.9 1677.5,891.6 1684.4,884.4 1686.8,886.7" fill="url(#swage-press)" stroke="#2a3540" stroke-width="0.5" opacity="0.85"/>
<line x1="1679.5" y1="893.5" x2="1686.4" y2="886.3" stroke="white" stroke-width="0.5" opacity="0.5"/>
<line x1="1678.0" y1="892.1" x2="1684.9" y2="884.9" stroke="white" stroke-width="0.5" opacity="0.5"/>
<polygon points="1674.4,888.7 1672.0,886.4 1678.9,879.2 1681.3,881.5" fill="url(#swage-press)" stroke="#2a3540" stroke-width="0.5" opacity="0.85"/>
<line x1="1674.0" y1="888.2" x2="1680.9" y2="881.0" stroke="white" stroke-width="0.5" opacity="0.5"/>
<line x1="1672.5" y1="886.8" x2="1679.4" y2="879.6" stroke="white" stroke-width="0.5" opacity="0.5"/>
<polygon points="1251.6,483.6 1249.2,481.3 1256.1,474.1 1258.5,476.4" fill="url(#swage-press)" stroke="#2a3540" stroke-width="0.5" opacity="0.85"/>
<line x1="1251.2" y1="483.2" x2="1258.1" y2="476.0" stroke="white" stroke-width="0.5" opacity="0.5"/>
<line x1="1249.7" y1="481.8" x2="1256.6" y2="474.6" stroke="white" stroke-width="0.5" opacity="0.5"/>
<polygon points="1238.4,471.0 1236.0,468.7 1242.9,461.5 1245.3,463.8" fill="url(#swage-press)" stroke="#2a3540" stroke-width="0.5" opacity="0.85"/>
<line x1="1238.0" y1="470.5" x2="1244.9" y2="463.3" stroke="white" stroke-width="0.5" opacity="0.5"/>
<line x1="1236.5" y1="469.1" x2="1243.4" y2="461.9" stroke="white" stroke-width="0.5" opacity="0.5"/>
<polygon points="1230.7,463.6 1228.3,461.3 1235.2,454.1 1237.6,456.4" fill="url(#swage-press)" stroke="#2a3540" stroke-width="0.5" opacity="0.85"/>
<line x1="1230.2" y1="463.1" x2="1237.1" y2="455.9" stroke="white" stroke-width="0.5" opacity="0.5"/>
<line x1="1228.8" y1="461.7" x2="1235.7" y2="454.5" stroke="white" stroke-width="0.5" opacity="0.5"/>
<polygon points="1189.8,915.9 1189.8,912.6 1199.8,912.6 1199.8,915.9" fill="url(#swage-press)" stroke="#2a3540" stroke-width="0.5" opacity="0.85"/>
<line x1="1189.8" y1="915.2" x2="1199.8" y2="915.2" stroke="white" stroke-width="0.5" opacity="0.5"/>
<line x1="1189.8" y1="913.2" x2="1199.8" y2="913.2" stroke="white" stroke-width="0.5" opacity="0.5"/>
<polygon points="1189.8,897.6 1189.8,894.3 1199.8,894.3 1199.8,897.6" fill="url(#swage-press)" stroke="#2a3540" stroke-width="0.5" opacity="0.85"/>
<line x1="1189.8" y1="897.0" x2="1199.8" y2="897.0" stroke="white" stroke-width="0.5" opacity="0.5"/>
<line x1="1189.8" y1="895.0" x2="1199.8" y2="895.0" stroke="white" stroke-width="0.5" opacity="0.5"/>
<polygon points="1189.8,894.5 1189.8,891.1 1199.8,891.1 1199.8,894.5" fill="url(#swage-press)" stroke="#2a3540" stroke-width="0.5" opacity="0.85"/>
<line x1="1189.8" y1="893.8" x2="1199.8" y2="893.8" stroke="white" stroke-width="0.5" opacity="0.5"/>
<line x1="1189.8" y1="891.8" x2="1199.8" y2="891.8" stroke="white" stroke-width="0.5" opacity="0.5"/>
<polygon points="1189.8,504.7 1189.8,501.4 1199.8,501.4 1199.8,504.7" fill="url(#swage-press)" stroke="#2a3540" stroke-width="0.5" opacity="0.85"/>
<line x1="1189.8" y1="504.1" x2="1199.8" y2="504.1" stroke="white" stroke-width="0.5" opacity="0.5"/>
<line x1="1189.8" y1="502.1" x2="1199.8" y2="502.1" stroke="white" stroke-width="0.5" opacity="0.5"/>
<polygon points="1189.8,486.5 1189.8,483.1 1199.8,483.1 1199.8,486.5" fill="url(#swage-press)" stroke="#2a3540" stroke-width="0.5" opacity="0.85"/>
<line x1="1189.8" y1="485.8" x2="1199.8" y2="485.8" stroke="white" stroke-width="0.5" opacity="0.5"/>
<line x1="1189.8" y1="483.8" x2="1199.8" y2="483.8" stroke="white" stroke-width="0.5" opacity="0.5"/>
<polygon points="1189.8,476.0 1189.8,472.6 1199.8,472.6 1199.8,476.0" fill="url(#swage-press)" stroke="#2a3540" stroke-width="0.5" opacity="0.85"/>
<line x1="1189.8" y1="475.3" x2="1199.8" y2="475.3" stroke="white" stroke-width="0.5" opacity="0.5"/>
<line x1="1189.8" y1="473.3" x2="1199.8" y2="473.3" stroke="white" stroke-width="0.5" opacity="0.5"/>
<polygon points="1153.3,919.0 1150.4,917.4 1155.0,908.6 1157.9,910.2" fill="url(#swage-press)" stroke="#2a3540" stroke-width="0.5" opacity="0.85"/>
<line x1="1152.7" y1="918.7" x2="1157.4" y2="909.8" stroke="white" stroke-width="0.5" opacity="0.5"/>
<line x1="1151.0" y1="917.7" x2="1155.6" y2="908.9" stroke="white" stroke-width="0.5" opacity="0.5"/>
<polygon points="1137.1,910.5 1134.2,908.9 1138.8,900.1 1141.8,901.6" fill="url(#swage-press)" stroke="#2a3540" stroke-width="0.5" opacity="0.85"/>
<line x1="1136.6" y1="910.2" x2="1141.2" y2="901.3" stroke="white" stroke-width="0.5" opacity="0.5"/>
<line x1="1134.8" y1="909.2" x2="1139.4" y2="900.4" stroke="white" stroke-width="0.5" opacity="0.5"/>
<polygon points="1121.0,902.0 1118.0,900.4 1122.7,891.6 1125.6,893.1" fill="url(#swage-press)" stroke="#2a3540" stroke-width="0.5" opacity="0.85"/>
<line x1="1120.4" y1="901.7" x2="1125.0" y2="892.8" stroke="white" stroke-width="0.5" opacity="0.5"/>
<line x1="1118.6" y1="900.7" x2="1123.3" y2="891.9" stroke="white" stroke-width="0.5" opacity="0.5"/>
<polygon points="1104.8,893.5 1101.9,891.9 1106.5,883.1 1109.4,884.6" fill="url(#swage-press)" stroke="#2a3540" stroke-width="0.5" opacity="0.85"/>
<line x1="1104.2" y1="893.1" x2="1108.8" y2="884.3" stroke="white" stroke-width="0.5" opacity="0.5"/>
<line x1="1102.4" y1="892.2" x2="1107.1" y2="883.4" stroke="white" stroke-width="0.5" opacity="0.5"/>
<polygon points="1094.5,888.0 1091.5,886.5 1096.2,877.6 1099.1,879.2" fill="url(#swage-press)" stroke="#2a3540" stroke-width="0.5" opacity="0.85"/>
<line x1="1093.9" y1="887.7" x2="1098.5" y2="878.9" stroke="white" stroke-width="0.5" opacity="0.5"/>
<line x1="1092.1" y1="886.8" x2="1096.7" y2="878.0" stroke="white" stroke-width="0.5" opacity="0.5"/>
<polygon points="737.7,700.4 734.8,698.8 739.4,690.0 742.4,691.6" fill="url(#swage-press)" stroke="#2a3540" stroke-width="0.5" opacity="0.85"/>
<line x1="737.1" y1="700.1" x2="741.8" y2="691.2" stroke="white" stroke-width="0.5" opacity="0.5"/>
<line x1="735.4" y1="699.1" x2="740.0" y2="690.3" stroke="white" stroke-width="0.5" opacity="0.5"/>
<polygon points="721.5,691.9 718.6,690.3 723.2,681.5 726.2,683.0" fill="url(#swage-press)" stroke="#2a3540" stroke-width="0.5" opacity="0.85"/>
<line x1="721.0" y1="691.6" x2="725.6" y2="682.7" stroke="white" stroke-width="0.5" opacity="0.5"/>
<line x1="719.2" y1="690.6" x2="723.8" y2="681.8" stroke="white" stroke-width="0.5" opacity="0.5"/>
<polygon points="705.4,683.4 702.4,681.8 707.1,673.0 710.0,674.5" fill="url(#swage-press)" stroke="#2a3540" stroke-width="0.5" opacity="0.85"/>
<line x1="704.8" y1="683.1" x2="709.4" y2="674.2" stroke="white" stroke-width="0.5" opacity="0.5"/>
<line x1="703.0" y1="682.1" x2="707.7" y2="673.3" stroke="white" stroke-width="0.5" opacity="0.5"/>
<polygon points="703.9,682.6 701.0,681.1 705.6,672.2 708.6,673.8" fill="url(#swage-press)" stroke="#2a3540" stroke-width="0.5" opacity="0.85"/>
<line x1="703.3" y1="682.3" x2="708.0" y2="673.5" stroke="white" stroke-width="0.5" opacity="0.5"/>
<line x1="701.6" y1="681.4" x2="706.2" y2="672.5" stroke="white" stroke-width="0.5" opacity="0.5"/>
<polygon points="662.3,915.9 662.3,912.6 672.3,912.6 672.3,915.9" fill="url(#swage-press)" stroke="#2a3540" stroke-width="0.5" opacity="0.85"/>
<line x1="662.3" y1="915.2" x2="672.3" y2="915.2" stroke="white" stroke-width="0.5" opacity="0.5"/>
<line x1="662.3" y1="913.2" x2="672.3" y2="913.2" stroke="white" stroke-width="0.5" opacity="0.5"/>
<polygon points="662.3,897.6 662.3,894.3 672.3,894.3 672.3,897.6" fill="url(#swage-press)" stroke="#2a3540" stroke-width="0.5" opacity="0.85"/>
<line x1="662.3" y1="897.0" x2="672.3" y2="897.0" stroke="white" stroke-width="0.5" opacity="0.5"/>
<line x1="662.3" y1="895.0" x2="672.3" y2="895.0" stroke="white" stroke-width="0.5" opacity="0.5"/>
<polygon points="662.3,894.5 662.3,891.1 672.3,891.1 672.3,894.5" fill="url(#swage-press)" stroke="#2a3540" stroke-width="0.5" opacity="0.85"/>
<line x1="662.3" y1="893.8" x2="672.3" y2="893.8" stroke="white" stroke-width="0.5" opacity="0.5"/>
<line x1="662.3" y1="891.8" x2="672.3" y2="891.8" stroke="white" stroke-width="0.5" opacity="0.5"/>
<polygon points="662.3,723.2 662.3,719.9 672.3,719.9 672.3,723.2" fill="url(#swage-press)" stroke="#2a3540" stroke-width="0.5" opacity="0.85"/>
<line x1="662.3" y1="722.6" x2="672.3" y2="722.6" stroke="white" stroke-width="0.5" opacity="0.5"/>
<line x1="662.3" y1="720.6" x2="672.3" y2="720.6" stroke="white" stroke-width="0.5" opacity="0.5"/>
<polygon points="662.3,705.0 662.3,701.7 672.3,701.7 672.3,705.0" fill="url(#swage-press)" stroke="#2a3540" stroke-width="0.5" opacity="0.85"/>
<line x1="662.3" y1="704.3" x2="672.3" y2="704.3" stroke="white" stroke-width="0.5" opacity="0.5"/>
<line x1="662.3" y1="702.3" x2="672.3" y2="702.3" stroke="white" stroke-width="0.5" opacity="0.5"/>
<polygon points="662.3,694.5 662.3,691.2 672.3,691.2 672.3,694.5" fill="url(#swage-press)" stroke="#2a3540" stroke-width="0.5" opacity="0.85"/>
<line x1="662.3" y1="693.8" x2="672.3" y2="693.8" stroke="white" stroke-width="0.5" opacity="0.5"/>
<line x1="662.3" y1="691.8" x2="672.3" y2="691.8" stroke="white" stroke-width="0.5" opacity="0.5"/>
<polygon points="236.0,915.9 236.0,912.6 246.0,912.6 246.0,915.9" fill="url(#swage-press)" stroke="#2a3540" stroke-width="0.5" opacity="0.85"/>
<line x1="236.0" y1="915.2" x2="246.0" y2="915.2" stroke="white" stroke-width="0.5" opacity="0.5"/>
<line x1="236.0" y1="913.2" x2="246.0" y2="913.2" stroke="white" stroke-width="0.5" opacity="0.5"/>
<polygon points="236.0,897.6 236.0,894.3 246.0,894.3 246.0,897.6" fill="url(#swage-press)" stroke="#2a3540" stroke-width="0.5" opacity="0.85"/>
<line x1="236.0" y1="897.0" x2="246.0" y2="897.0" stroke="white" stroke-width="0.5" opacity="0.5"/>
<line x1="236.0" y1="895.0" x2="246.0" y2="895.0" stroke="white" stroke-width="0.5" opacity="0.5"/>
<polygon points="236.0,879.4 236.0,876.0 246.0,876.0 246.0,879.4" fill="url(#swage-press)" stroke="#2a3540" stroke-width="0.5" opacity="0.85"/>
<line x1="236.0" y1="878.7" x2="246.0" y2="878.7" stroke="white" stroke-width="0.5" opacity="0.5"/>
<line x1="236.0" y1="876.7" x2="246.0" y2="876.7" stroke="white" stroke-width="0.5" opacity="0.5"/>
<polygon points="236.0,871.0 236.0,867.7 246.0,867.7 246.0,871.0" fill="url(#swage-press)" stroke="#2a3540" stroke-width="0.5" opacity="0.85"/>
<line x1="236.0" y1="870.4" x2="246.0" y2="870.4" stroke="white" stroke-width="0.5" opacity="0.5"/>
<line x1="236.0" y1="868.4" x2="246.0" y2="868.4" stroke="white" stroke-width="0.5" opacity="0.5"/>
<text x="1733.9" y="265.4" font-size="13" font-weight="700" text-anchor="middle" fill="#1a202c" stroke="white" stroke-width="3.5" paint-order="stroke" opacity="0.9">T2</text>
<text x="1745.6" y="595.8" font-size="13" font-weight="700" text-anchor="middle" fill="#1a202c" stroke="white" stroke-width="3.5" paint-order="stroke" opacity="0.9">W5</text>
<text x="938.4" y="585.3" font-size="13" font-weight="700" text-anchor="middle" fill="#1a202c" stroke="white" stroke-width="3.5" paint-order="stroke" opacity="0.9">T3</text>
<text x="1683.0" y="307.7" font-size="13" font-weight="700" text-anchor="middle" fill="#1a202c" stroke="white" stroke-width="3.5" paint-order="stroke" opacity="0.9">C4</text>
<text x="1470.8" y="690.6" font-size="13" font-weight="700" text-anchor="middle" fill="#1a202c" stroke="white" stroke-width="3.5" paint-order="stroke" opacity="0.9">W6</text>
<text x="950.0" y="917.4" font-size="13" font-weight="700" text-anchor="middle" fill="#1a202c" stroke="white" stroke-width="3.5" paint-order="stroke" opacity="0.9">B1</text>
<text x="1194.8" y="698.3" font-size="13" font-weight="700" text-anchor="middle" fill="#1a202c" stroke="white" stroke-width="3.5" paint-order="stroke" opacity="0.9">W7</text>
<text x="929.5" y="799.6" font-size="13" font-weight="700" text-anchor="middle" fill="#1a202c" stroke="white" stroke-width="3.5" paint-order="stroke" opacity="0.9">W8</text>
<text x="667.3" y="807.5" font-size="13" font-weight="700" text-anchor="middle" fill="#1a202c" stroke="white" stroke-width="3.5" paint-order="stroke" opacity="0.9">W9</text>
<text x="241.0" y="895.8" font-size="13" font-weight="700" text-anchor="middle" fill="#1a202c" stroke="white" stroke-width="3.5" paint-order="stroke" opacity="0.9">W10</text>
<circle cx="1735.6" cy="270.4" r="1.66" fill="black" opacity="0.4" filter="url(#blur3)"/>
<circle cx="1734.1" cy="268.4" r="1.66" fill="#365314"/>
<circle cx="1734.1" cy="268.4" r="1.16" fill="url(#screw-cap)"/>
<ellipse cx="1733.8" cy="268.0" rx="0.47" ry="0.29" fill="white" opacity="0.5"/>
<line x1="1733.6" y1="268.4" x2="1734.6" y2="268.4" stroke="#1a2e0a" stroke-width="0.6" opacity="0.7"/>
<line x1="1734.1" y1="267.9" x2="1734.1" y2="268.9" stroke="#1a2e0a" stroke-width="0.6" opacity="0.7"/>
<circle cx="1741.3" cy="270.4" r="1.66" fill="black" opacity="0.4" filter="url(#blur3)"/>
<circle cx="1739.8" cy="268.4" r="1.66" fill="#365314"/>
<circle cx="1739.8" cy="268.4" r="1.16" fill="url(#screw-cap)"/>
<ellipse cx="1739.4" cy="268.0" rx="0.47" ry="0.29" fill="white" opacity="0.5"/>
<line x1="1739.2" y1="268.4" x2="1740.3" y2="268.4" stroke="#1a2e0a" stroke-width="0.6" opacity="0.7"/>
<line x1="1739.8" y1="267.9" x2="1739.8" y2="268.9" stroke="#1a2e0a" stroke-width="0.6" opacity="0.7"/>
<circle cx="1746.9" cy="270.4" r="1.66" fill="black" opacity="0.4" filter="url(#blur3)"/>
<circle cx="1745.4" cy="268.4" r="1.66" fill="#365314"/>
<circle cx="1745.4" cy="268.4" r="1.16" fill="url(#screw-cap)"/>
<ellipse cx="1745.1" cy="268.0" rx="0.47" ry="0.29" fill="white" opacity="0.5"/>
<line x1="1744.9" y1="268.4" x2="1745.9" y2="268.4" stroke="#1a2e0a" stroke-width="0.6" opacity="0.7"/>
<line x1="1745.4" y1="267.9" x2="1745.4" y2="268.9" stroke="#1a2e0a" stroke-width="0.6" opacity="0.7"/>
<circle cx="1728.7" cy="927.6" r="1.66" fill="black" opacity="0.4" filter="url(#blur3)"/>
<circle cx="1727.2" cy="925.6" r="1.66" fill="#365314"/>
<circle cx="1727.2" cy="925.6" r="1.16" fill="url(#screw-cap)"/>
<ellipse cx="1726.9" cy="925.2" rx="0.47" ry="0.29" fill="white" opacity="0.5"/>
<line x1="1726.7" y1="925.6" x2="1727.7" y2="925.6" stroke="#1a2e0a" stroke-width="0.6" opacity="0.7"/>
<line x1="1727.2" y1="925.0" x2="1727.2" y2="926.1" stroke="#1a2e0a" stroke-width="0.6" opacity="0.7"/>
<circle cx="1734.4" cy="927.6" r="1.66" fill="black" opacity="0.4" filter="url(#blur3)"/>
<circle cx="1732.9" cy="925.6" r="1.66" fill="#365314"/>
<circle cx="1732.9" cy="925.6" r="1.16" fill="url(#screw-cap)"/>
<ellipse cx="1732.5" cy="925.2" rx="0.47" ry="0.29" fill="white" opacity="0.5"/>
<line x1="1732.3" y1="925.6" x2="1733.4" y2="925.6" stroke="#1a2e0a" stroke-width="0.6" opacity="0.7"/>
<line x1="1732.9" y1="925.0" x2="1732.9" y2="926.1" stroke="#1a2e0a" stroke-width="0.6" opacity="0.7"/>
<circle cx="1740.0" cy="927.6" r="1.66" fill="black" opacity="0.4" filter="url(#blur3)"/>
<circle cx="1738.5" cy="925.6" r="1.66" fill="#365314"/>
<circle cx="1738.5" cy="925.6" r="1.16" fill="url(#screw-cap)"/>
<ellipse cx="1738.2" cy="925.2" rx="0.47" ry="0.29" fill="white" opacity="0.5"/>
<line x1="1738.0" y1="925.6" x2="1739.0" y2="925.6" stroke="#1a2e0a" stroke-width="0.6" opacity="0.7"/>
<line x1="1738.5" y1="925.0" x2="1738.5" y2="926.1" stroke="#1a2e0a" stroke-width="0.6" opacity="0.7"/>
<circle cx="1610.2" cy="300.1" r="1.66" fill="black" opacity="0.4" filter="url(#blur3)"/>
<circle cx="1608.7" cy="298.1" r="1.66" fill="#365314"/>
<circle cx="1608.7" cy="298.1" r="1.16" fill="url(#screw-cap)"/>
<ellipse cx="1608.3" cy="297.7" rx="0.47" ry="0.29" fill="white" opacity="0.5"/>
<line x1="1608.2" y1="298.1" x2="1609.2" y2="298.1" stroke="#1a2e0a" stroke-width="0.6" opacity="0.7"/>
<line x1="1608.7" y1="297.5" x2="1608.7" y2="298.6" stroke="#1a2e0a" stroke-width="0.6" opacity="0.7"/>
<circle cx="1610.2" cy="305.7" r="1.66" fill="black" opacity="0.4" filter="url(#blur3)"/>
<circle cx="1608.7" cy="303.7" r="1.66" fill="#365314"/>
<circle cx="1608.7" cy="303.7" r="1.16" fill="url(#screw-cap)"/>
<ellipse cx="1608.3" cy="303.4" rx="0.47" ry="0.29" fill="white" opacity="0.5"/>
<line x1="1608.2" y1="303.7" x2="1609.2" y2="303.7" stroke="#1a2e0a" stroke-width="0.6" opacity="0.7"/>
<line x1="1608.7" y1="303.2" x2="1608.7" y2="304.2" stroke="#1a2e0a" stroke-width="0.6" opacity="0.7"/>
<circle cx="1610.2" cy="311.4" r="1.66" fill="black" opacity="0.4" filter="url(#blur3)"/>
<circle cx="1608.7" cy="309.4" r="1.66" fill="#365314"/>
<circle cx="1608.7" cy="309.4" r="1.16" fill="url(#screw-cap)"/>
<ellipse cx="1608.3" cy="309.0" rx="0.47" ry="0.29" fill="white" opacity="0.5"/>
<line x1="1608.2" y1="309.4" x2="1609.2" y2="309.4" stroke="#1a2e0a" stroke-width="0.6" opacity="0.7"/>
<line x1="1608.7" y1="308.8" x2="1608.7" y2="309.9" stroke="#1a2e0a" stroke-width="0.6" opacity="0.7"/>
<circle cx="1205.2" cy="458.3" r="1.66" fill="black" opacity="0.4" filter="url(#blur3)"/>
<circle cx="1203.7" cy="456.3" r="1.66" fill="#365314"/>
<circle cx="1203.7" cy="456.3" r="1.16" fill="url(#screw-cap)"/>
<ellipse cx="1203.4" cy="455.9" rx="0.47" ry="0.29" fill="white" opacity="0.5"/>
<line x1="1203.2" y1="456.3" x2="1204.3" y2="456.3" stroke="#1a2e0a" stroke-width="0.6" opacity="0.7"/>
<line x1="1203.7" y1="455.8" x2="1203.7" y2="456.8" stroke="#1a2e0a" stroke-width="0.6" opacity="0.7"/>
<circle cx="1209.2" cy="454.2" r="1.66" fill="black" opacity="0.4" filter="url(#blur3)"/>
<circle cx="1207.7" cy="452.2" r="1.66" fill="#365314"/>
<circle cx="1207.7" cy="452.2" r="1.16" fill="url(#screw-cap)"/>
<ellipse cx="1207.3" cy="451.8" rx="0.47" ry="0.29" fill="white" opacity="0.5"/>
<line x1="1207.1" y1="452.2" x2="1208.2" y2="452.2" stroke="#1a2e0a" stroke-width="0.6" opacity="0.7"/>
<line x1="1207.7" y1="451.7" x2="1207.7" y2="452.7" stroke="#1a2e0a" stroke-width="0.6" opacity="0.7"/>
<circle cx="1213.1" cy="450.1" r="1.66" fill="black" opacity="0.4" filter="url(#blur3)"/>
<circle cx="1211.6" cy="448.1" r="1.66" fill="#365314"/>
<circle cx="1211.6" cy="448.1" r="1.16" fill="url(#screw-cap)"/>
<ellipse cx="1211.2" cy="447.8" rx="0.47" ry="0.29" fill="white" opacity="0.5"/>
<line x1="1211.0" y1="448.1" x2="1212.1" y2="448.1" stroke="#1a2e0a" stroke-width="0.6" opacity="0.7"/>
<line x1="1211.6" y1="447.6" x2="1211.6" y2="448.6" stroke="#1a2e0a" stroke-width="0.6" opacity="0.7"/>
<circle cx="138.2" cy="909.8" r="1.66" fill="black" opacity="0.4" filter="url(#blur3)"/>
<circle cx="136.7" cy="907.8" r="1.66" fill="#365314"/>
<circle cx="136.7" cy="907.8" r="1.16" fill="url(#screw-cap)"/>
<ellipse cx="136.4" cy="907.4" rx="0.47" ry="0.29" fill="white" opacity="0.5"/>
<line x1="136.2" y1="907.8" x2="137.3" y2="907.8" stroke="#1a2e0a" stroke-width="0.6" opacity="0.7"/>
<line x1="136.7" y1="907.2" x2="136.7" y2="908.3" stroke="#1a2e0a" stroke-width="0.6" opacity="0.7"/>
<circle cx="138.2" cy="915.4" r="1.66" fill="black" opacity="0.4" filter="url(#blur3)"/>
<circle cx="136.7" cy="913.4" r="1.66" fill="#365314"/>
<circle cx="136.7" cy="913.4" r="1.16" fill="url(#screw-cap)"/>
<ellipse cx="136.4" cy="913.1" rx="0.47" ry="0.29" fill="white" opacity="0.5"/>
<line x1="136.2" y1="913.4" x2="137.3" y2="913.4" stroke="#1a2e0a" stroke-width="0.6" opacity="0.7"/>
<line x1="136.7" y1="912.9" x2="136.7" y2="913.9" stroke="#1a2e0a" stroke-width="0.6" opacity="0.7"/>
<circle cx="138.2" cy="921.1" r="1.66" fill="black" opacity="0.4" filter="url(#blur3)"/>
<circle cx="136.7" cy="919.1" r="1.66" fill="#365314"/>
<circle cx="136.7" cy="919.1" r="1.16" fill="url(#screw-cap)"/>
<ellipse cx="136.4" cy="918.7" rx="0.47" ry="0.29" fill="white" opacity="0.5"/>
<line x1="136.2" y1="919.1" x2="137.3" y2="919.1" stroke="#1a2e0a" stroke-width="0.6" opacity="0.7"/>
<line x1="136.7" y1="918.5" x2="136.7" y2="919.6" stroke="#1a2e0a" stroke-width="0.6" opacity="0.7"/>
<circle cx="678.9" cy="683.4" r="1.66" fill="black" opacity="0.4" filter="url(#blur3)"/>
<circle cx="677.4" cy="681.4" r="1.66" fill="#365314"/>
<circle cx="677.4" cy="681.4" r="1.16" fill="url(#screw-cap)"/>
<ellipse cx="677.0" cy="681.0" rx="0.47" ry="0.29" fill="white" opacity="0.5"/>
<line x1="676.9" y1="681.4" x2="677.9" y2="681.4" stroke="#1a2e0a" stroke-width="0.6" opacity="0.7"/>
<line x1="677.4" y1="680.9" x2="677.4" y2="681.9" stroke="#1a2e0a" stroke-width="0.6" opacity="0.7"/>
<circle cx="681.5" cy="678.4" r="1.66" fill="black" opacity="0.4" filter="url(#blur3)"/>
<circle cx="680.0" cy="676.4" r="1.66" fill="#365314"/>
<circle cx="680.0" cy="676.4" r="1.16" fill="url(#screw-cap)"/>
<ellipse cx="679.7" cy="676.0" rx="0.47" ry="0.29" fill="white" opacity="0.5"/>
<line x1="679.5" y1="676.4" x2="680.6" y2="676.4" stroke="#1a2e0a" stroke-width="0.6" opacity="0.7"/>
<line x1="680.0" y1="675.9" x2="680.0" y2="676.9" stroke="#1a2e0a" stroke-width="0.6" opacity="0.7"/>
<circle cx="684.2" cy="673.4" r="1.66" fill="black" opacity="0.4" filter="url(#blur3)"/>
<circle cx="682.7" cy="671.4" r="1.66" fill="#365314"/>
<circle cx="682.7" cy="671.4" r="1.16" fill="url(#screw-cap)"/>
<ellipse cx="682.3" cy="671.0" rx="0.47" ry="0.29" fill="white" opacity="0.5"/>
<line x1="682.1" y1="671.4" x2="683.2" y2="671.4" stroke="#1a2e0a" stroke-width="0.6" opacity="0.7"/>
<line x1="682.7" y1="670.9" x2="682.7" y2="671.9" stroke="#1a2e0a" stroke-width="0.6" opacity="0.7"/>
<circle cx="236.9" cy="893.8" r="1.66" fill="black" opacity="0.4" filter="url(#blur3)"/>
<circle cx="235.4" cy="891.8" r="1.66" fill="#365314"/>
<circle cx="235.4" cy="891.8" r="1.16" fill="url(#screw-cap)"/>
<ellipse cx="235.0" cy="891.5" rx="0.47" ry="0.29" fill="white" opacity="0.5"/>
<line x1="234.8" y1="891.8" x2="235.9" y2="891.8" stroke="#1a2e0a" stroke-width="0.6" opacity="0.7"/>
<line x1="235.4" y1="891.3" x2="235.4" y2="892.3" stroke="#1a2e0a" stroke-width="0.6" opacity="0.7"/>
<circle cx="242.5" cy="893.8" r="1.66" fill="black" opacity="0.4" filter="url(#blur3)"/>
<circle cx="241.0" cy="891.8" r="1.66" fill="#365314"/>
<circle cx="241.0" cy="891.8" r="1.16" fill="url(#screw-cap)"/>
<ellipse cx="240.7" cy="891.5" rx="0.47" ry="0.29" fill="white" opacity="0.5"/>
<line x1="240.5" y1="891.8" x2="241.5" y2="891.8" stroke="#1a2e0a" stroke-width="0.6" opacity="0.7"/>
<line x1="241.0" y1="891.3" x2="241.0" y2="892.3" stroke="#1a2e0a" stroke-width="0.6" opacity="0.7"/>
<circle cx="248.2" cy="893.8" r="1.66" fill="black" opacity="0.4" filter="url(#blur3)"/>
<circle cx="246.7" cy="891.8" r="1.66" fill="#365314"/>
<circle cx="246.7" cy="891.8" r="1.16" fill="url(#screw-cap)"/>
<ellipse cx="246.3" cy="891.5" rx="0.47" ry="0.29" fill="white" opacity="0.5"/>
<line x1="246.1" y1="891.8" x2="247.2" y2="891.8" stroke="#1a2e0a" stroke-width="0.6" opacity="0.7"/>
<line x1="246.7" y1="891.3" x2="246.7" y2="892.3" stroke="#1a2e0a" stroke-width="0.6" opacity="0.7"/>
<circle cx="1176.9" cy="922.7" r="1.66" fill="black" opacity="0.4" filter="url(#blur3)"/>
<circle cx="1175.4" cy="920.7" r="1.66" fill="#365314"/>
<circle cx="1175.4" cy="920.7" r="1.16" fill="url(#screw-cap)"/>
<ellipse cx="1175.0" cy="920.3" rx="0.47" ry="0.29" fill="white" opacity="0.5"/>
<line x1="1174.8" y1="920.7" x2="1175.9" y2="920.7" stroke="#1a2e0a" stroke-width="0.6" opacity="0.7"/>
<line x1="1175.4" y1="920.1" x2="1175.4" y2="921.2" stroke="#1a2e0a" stroke-width="0.6" opacity="0.7"/>
<circle cx="1182.5" cy="922.7" r="1.66" fill="black" opacity="0.4" filter="url(#blur3)"/>
<circle cx="1181.0" cy="920.7" r="1.66" fill="#365314"/>
<circle cx="1181.0" cy="920.7" r="1.16" fill="url(#screw-cap)"/>
<ellipse cx="1180.7" cy="920.3" rx="0.47" ry="0.29" fill="white" opacity="0.5"/>
<line x1="1180.5" y1="920.7" x2="1181.5" y2="920.7" stroke="#1a2e0a" stroke-width="0.6" opacity="0.7"/>
<line x1="1181.0" y1="920.1" x2="1181.0" y2="921.2" stroke="#1a2e0a" stroke-width="0.6" opacity="0.7"/>
<circle cx="1188.2" cy="922.7" r="1.66" fill="black" opacity="0.4" filter="url(#blur3)"/>
<circle cx="1186.7" cy="920.7" r="1.66" fill="#365314"/>
<circle cx="1186.7" cy="920.7" r="1.16" fill="url(#screw-cap)"/>
<ellipse cx="1186.3" cy="920.3" rx="0.47" ry="0.29" fill="white" opacity="0.5"/>
<line x1="1186.1" y1="920.7" x2="1187.2" y2="920.7" stroke="#1a2e0a" stroke-width="0.6" opacity="0.7"/>
<line x1="1186.7" y1="920.1" x2="1186.7" y2="921.2" stroke="#1a2e0a" stroke-width="0.6" opacity="0.7"/>
<circle cx="663.1" cy="915.4" r="1.66" fill="black" opacity="0.4" filter="url(#blur3)"/>
<circle cx="661.6" cy="913.4" r="1.66" fill="#365314"/>
<circle cx="661.6" cy="913.4" r="1.16" fill="url(#screw-cap)"/>
<ellipse cx="661.3" cy="913.1" rx="0.47" ry="0.29" fill="white" opacity="0.5"/>
<line x1="661.1" y1="913.4" x2="662.2" y2="913.4" stroke="#1a2e0a" stroke-width="0.6" opacity="0.7"/>
<line x1="661.6" y1="912.9" x2="661.6" y2="913.9" stroke="#1a2e0a" stroke-width="0.6" opacity="0.7"/>
<circle cx="668.8" cy="915.4" r="1.66" fill="black" opacity="0.4" filter="url(#blur3)"/>
<circle cx="667.3" cy="913.4" r="1.66" fill="#365314"/>
<circle cx="667.3" cy="913.4" r="1.16" fill="url(#screw-cap)"/>
<ellipse cx="666.9" cy="913.1" rx="0.47" ry="0.29" fill="white" opacity="0.5"/>
<line x1="666.8" y1="913.4" x2="667.8" y2="913.4" stroke="#1a2e0a" stroke-width="0.6" opacity="0.7"/>
<line x1="667.3" y1="912.9" x2="667.3" y2="913.9" stroke="#1a2e0a" stroke-width="0.6" opacity="0.7"/>
<circle cx="674.4" cy="915.4" r="1.66" fill="black" opacity="0.4" filter="url(#blur3)"/>
<circle cx="672.9" cy="913.4" r="1.66" fill="#365314"/>
<circle cx="672.9" cy="913.4" r="1.16" fill="url(#screw-cap)"/>
<ellipse cx="672.6" cy="913.1" rx="0.47" ry="0.29" fill="white" opacity="0.5"/>
<line x1="672.4" y1="913.4" x2="673.5" y2="913.4" stroke="#1a2e0a" stroke-width="0.6" opacity="0.7"/>
<line x1="672.9" y1="912.9" x2="672.9" y2="913.9" stroke="#1a2e0a" stroke-width="0.6" opacity="0.7"/>
<rect x="1607" y="133" width="270" height="320" fill="rgba(0,0,0,0.18)" filter="url(#blur5)"/>
<rect x="1610" y="130" width="270" height="320" fill="white" stroke="#cbd5e0" rx="6"/>
<text x="1625" y="154" font-size="14" font-weight="700" fill="#1a202c">Tool shapes (corrected)</text>
<text x="1625" y="180" font-size="11" font-weight="700" fill="#374151">SWAGE (per FrameCAD 3D ref)</text>
<rect x="1645.0" y="199.0" width="50" height="22" fill="url(#swage-press)" stroke="#2a3540" stroke-width="0.6"/>
<line x1="1650.0" y1="200.0" x2="1650.0" y2="220.0" stroke="white" stroke-width="0.4" opacity="0.5"/>
<line x1="1690.0" y1="200.0" x2="1690.0" y2="220.0" stroke="white" stroke-width="0.4" opacity="0.5"/>
<text x="1760" y="206" font-size="10" fill="#374151">~10 × 30 mm</text>
<text x="1760" y="220" font-size="10" fill="#374151">pressed depression</text>
<text x="1625" y="255" font-size="11" font-weight="700" fill="#374151">WEB HOLE = 3 green screws</text>
<circle cx="1670" cy="280" r="4" fill="url(#screw-cap)" stroke="#365314" stroke-width="0.6"/>
<circle cx="1670" cy="295" r="4" fill="url(#screw-cap)" stroke="#365314" stroke-width="0.6"/>
<circle cx="1670" cy="310" r="4" fill="url(#screw-cap)" stroke="#365314" stroke-width="0.6"/>
<text x="1760" y="280" font-size="10" fill="#374151">3 × Ø3.8 mm</text>
<text x="1760" y="294" font-size="10" fill="#374151">17 mm pitch</text>
<text x="1760" y="308" font-size="10" fill="#374151">10g self-drillers</text>
<text x="1625" y="350" font-size="11" font-weight="700" fill="#374151">Stats this frame</text>
<text x="1625" y="370" font-size="10" fill="#4a5568">Members: 10</text>
<text x="1625" y="386" font-size="10" fill="#4a5568">Junction nodes: 9</text>
<text x="1625" y="402" font-size="10" fill="#4a5568">Total screws: 27</text>
<text x="1625" y="418" font-size="10" fill="#4a5568">Total swages: 40</text>
<text x="1625" y="434" font-size="10" fill="#6b7280">vs FrameCAD baseline ~70</text>
</svg>