<svg xmlns="http://www.w3.org/2000/svg" width="1400" height="419" viewBox="0 0 1400 419" font-family="Segoe UI, Arial, sans-serif">
<style>
  .stick-chord { stroke: #2b6cb0; stroke-width: 18; stroke-linecap: butt; fill: none; }
  .stick-web   { stroke: #4a5568; stroke-width: 12; stroke-linecap: butt; fill: none; }
  .centreline-chord { stroke: #2b6cb0; stroke-width: 1; stroke-dasharray: 4 3; opacity: 0.55; fill: none; }
  .centreline-web   { stroke: #4a5568; stroke-width: 1; stroke-dasharray: 4 3; opacity: 0.55; fill: none; }
  .label { font-size: 14px; fill: #2d3748; }
  .label-small { font-size: 11px; fill: #4a5568; }
  .title { font-size: 22px; font-weight: 700; fill: #1a202c; }
  .subtitle { font-size: 14px; fill: #4a5568; }
  .bolt-old { fill: #d53f8c; stroke: #97266d; stroke-width: 1; }
  .bolt-new { fill: #38a169; stroke: #22543d; stroke-width: 1.5; }
  .crossing { fill: none; stroke: #38a169; stroke-width: 1; opacity: 0.6; }
</style>
<rect width="1400" height="419" fill="#fafaf8"/>
<text x="20" y="34" class="title">Truss TN1-1 (89S41 Linear) — bolt-hole placement comparison</text>
<text x="20" y="58" class="subtitle">Frame from your 2603191 ROCKVILLE TH-TYPE-A1-LT job. Each ● is one bolt hole.</text>
<text x="330" y="92" class="label" text-anchor="middle" font-weight="700">CURRENT — multiple holes per junction</text>
<text x="1070" y="92" class="label" text-anchor="middle" font-weight="700" fill="#22543d">PROPOSED — one hole at centreline crossing</text>
<line x1="623.3" y1="278.7" x2="35.6" y2="35.3" class="stick-chord" />
<line x1="625.6" y1="280.2" x2="33.3" y2="280.2" class="stick-chord" />
<line x1="584.9" y1="284.2" x2="584.9" y2="258.9" class="stick-web" />
<line x1="428.1" y1="284.2" x2="428.1" y2="193.9" class="stick-web" />
<line x1="243.8" y1="282.1" x2="416.3" y2="189.7" class="stick-web" />
<line x1="230.7" y1="284.2" x2="230.7" y2="112.1" class="stick-web" />
<line x1="47.1" y1="283.0" x2="218.1" y2="106.9" class="stick-web" />
<line x1="39.2" y1="285.7" x2="39.2" y2="33.3" class="stick-web" />
<line x1="623.3" y1="278.7" x2="35.6" y2="35.3" class="centreline-chord" />
<line x1="625.6" y1="280.2" x2="33.3" y2="280.2" class="centreline-chord" />
<line x1="584.9" y1="284.2" x2="584.9" y2="258.9" class="centreline-web" />
<line x1="428.1" y1="284.2" x2="428.1" y2="193.9" class="centreline-web" />
<line x1="243.8" y1="282.1" x2="416.3" y2="189.7" class="centreline-web" />
<line x1="230.7" y1="284.2" x2="230.7" y2="112.1" class="centreline-web" />
<line x1="47.1" y1="283.0" x2="218.1" y2="106.9" class="centreline-web" />
<line x1="39.2" y1="285.7" x2="39.2" y2="33.3" class="centreline-web" />
<text x="329.4" y="157.0" class="label-small" text-anchor="middle" dy="-12" fill="#1a202c" stroke="#fafaf8" stroke-width="3" paint-order="stroke">T2</text>
<text x="329.4" y="280.2" class="label-small" text-anchor="middle" dy="-12" fill="#1a202c" stroke="#fafaf8" stroke-width="3" paint-order="stroke">B1</text>
<text x="584.9" y="271.5" class="label-small" text-anchor="middle" dy="-12" fill="#1a202c" stroke="#fafaf8" stroke-width="3" paint-order="stroke">W3</text>
<text x="428.1" y="239.0" class="label-small" text-anchor="middle" dy="-12" fill="#1a202c" stroke="#fafaf8" stroke-width="3" paint-order="stroke">W4</text>
<text x="330.0" y="235.9" class="label-small" text-anchor="middle" dy="-12" fill="#1a202c" stroke="#fafaf8" stroke-width="3" paint-order="stroke">W5</text>
<text x="230.7" y="198.1" class="label-small" text-anchor="middle" dy="-12" fill="#1a202c" stroke="#fafaf8" stroke-width="3" paint-order="stroke">W6</text>
<text x="132.6" y="195.0" class="label-small" text-anchor="middle" dy="-12" fill="#1a202c" stroke="#fafaf8" stroke-width="3" paint-order="stroke">W7</text>
<text x="39.2" y="159.5" class="label-small" text-anchor="middle" dy="-12" fill="#1a202c" stroke="#fafaf8" stroke-width="3" paint-order="stroke">W8</text>
<circle cx="584.9" cy="275.2" r="2.4" class="bolt-old"/>
<circle cx="589.3" cy="282.7" r="2.4" class="bolt-old"/>
<circle cx="580.6" cy="282.7" r="2.4" class="bolt-old"/>
<circle cx="584.9" cy="257.9" r="2.4" class="bolt-old"/>
<circle cx="589.3" cy="265.4" r="2.4" class="bolt-old"/>
<circle cx="580.6" cy="265.4" r="2.4" class="bolt-old"/>
<circle cx="39.2" cy="275.2" r="2.4" class="bolt-old"/>
<circle cx="43.6" cy="282.7" r="2.4" class="bolt-old"/>
<circle cx="34.9" cy="282.7" r="2.4" class="bolt-old"/>
<circle cx="39.2" cy="31.8" r="2.4" class="bolt-old"/>
<circle cx="43.6" cy="39.3" r="2.4" class="bolt-old"/>
<circle cx="34.9" cy="39.3" r="2.4" class="bolt-old"/>
<circle cx="428.1" cy="275.2" r="2.4" class="bolt-old"/>
<circle cx="432.5" cy="282.7" r="2.4" class="bolt-old"/>
<circle cx="423.8" cy="282.7" r="2.4" class="bolt-old"/>
<circle cx="428.1" cy="192.9" r="2.4" class="bolt-old"/>
<circle cx="432.5" cy="200.4" r="2.4" class="bolt-old"/>
<circle cx="423.8" cy="200.4" r="2.4" class="bolt-old"/>
<circle cx="230.7" cy="275.2" r="2.4" class="bolt-old"/>
<circle cx="235.0" cy="282.7" r="2.4" class="bolt-old"/>
<circle cx="226.4" cy="282.7" r="2.4" class="bolt-old"/>
<circle cx="230.7" cy="111.1" r="2.4" class="bolt-old"/>
<circle cx="235.0" cy="118.6" r="2.4" class="bolt-old"/>
<circle cx="226.4" cy="118.6" r="2.4" class="bolt-old"/>
<circle cx="247.3" cy="275.2" r="2.4" class="bolt-old"/>
<circle cx="251.6" cy="282.7" r="2.4" class="bolt-old"/>
<circle cx="243.0" cy="282.7" r="2.4" class="bolt-old"/>
<circle cx="412.8" cy="186.6" r="2.4" class="bolt-old"/>
<circle cx="417.1" cy="194.1" r="2.4" class="bolt-old"/>
<circle cx="408.5" cy="194.1" r="2.4" class="bolt-old"/>
<circle cx="49.9" cy="275.2" r="2.4" class="bolt-old"/>
<circle cx="54.2" cy="282.7" r="2.4" class="bolt-old"/>
<circle cx="45.6" cy="282.7" r="2.4" class="bolt-old"/>
<circle cx="215.4" cy="104.8" r="2.4" class="bolt-old"/>
<circle cx="219.7" cy="112.3" r="2.4" class="bolt-old"/>
<circle cx="211.0" cy="112.3" r="2.4" class="bolt-old"/>
<circle cx="626.7" cy="275.2" r="2.4" class="bolt-old"/>
<circle cx="631.5" cy="278.6" r="2.4" class="bolt-old"/>
<circle cx="629.7" cy="284.2" r="2.4" class="bolt-old"/>
<circle cx="623.8" cy="284.2" r="2.4" class="bolt-old"/>
<circle cx="622.0" cy="278.6" r="2.4" class="bolt-old"/>
<line x1="1363.3" y1="278.7" x2="775.5" y2="35.3" class="stick-chord" />
<line x1="1365.5" y1="280.2" x2="773.3" y2="280.2" class="stick-chord" />
<line x1="1324.9" y1="284.2" x2="1324.9" y2="258.9" class="stick-web" />
<line x1="1168.1" y1="284.2" x2="1168.1" y2="193.9" class="stick-web" />
<line x1="983.7" y1="282.1" x2="1156.3" y2="189.7" class="stick-web" />
<line x1="970.6" y1="284.2" x2="970.6" y2="112.1" class="stick-web" />
<line x1="787.1" y1="283.0" x2="958.1" y2="106.9" class="stick-web" />
<line x1="779.2" y1="285.7" x2="779.2" y2="33.3" class="stick-web" />
<line x1="1363.3" y1="278.7" x2="775.5" y2="35.3" class="centreline-chord" />
<line x1="1365.5" y1="280.2" x2="773.3" y2="280.2" class="centreline-chord" />
<line x1="1324.9" y1="284.2" x2="1324.9" y2="258.9" class="centreline-web" />
<line x1="1168.1" y1="284.2" x2="1168.1" y2="193.9" class="centreline-web" />
<line x1="983.7" y1="282.1" x2="1156.3" y2="189.7" class="centreline-web" />
<line x1="970.6" y1="284.2" x2="970.6" y2="112.1" class="centreline-web" />
<line x1="787.1" y1="283.0" x2="958.1" y2="106.9" class="centreline-web" />
<line x1="779.2" y1="285.7" x2="779.2" y2="33.3" class="centreline-web" />
<text x="1069.4" y="157.0" class="label-small" text-anchor="middle" dy="-12" fill="#1a202c" stroke="#fafaf8" stroke-width="3" paint-order="stroke">T2</text>
<text x="1069.4" y="280.2" class="label-small" text-anchor="middle" dy="-12" fill="#1a202c" stroke="#fafaf8" stroke-width="3" paint-order="stroke">B1</text>
<text x="1324.9" y="271.5" class="label-small" text-anchor="middle" dy="-12" fill="#1a202c" stroke="#fafaf8" stroke-width="3" paint-order="stroke">W3</text>
<text x="1168.1" y="239.0" class="label-small" text-anchor="middle" dy="-12" fill="#1a202c" stroke="#fafaf8" stroke-width="3" paint-order="stroke">W4</text>
<text x="1070.0" y="235.9" class="label-small" text-anchor="middle" dy="-12" fill="#1a202c" stroke="#fafaf8" stroke-width="3" paint-order="stroke">W5</text>
<text x="970.6" y="198.1" class="label-small" text-anchor="middle" dy="-12" fill="#1a202c" stroke="#fafaf8" stroke-width="3" paint-order="stroke">W6</text>
<text x="872.6" y="195.0" class="label-small" text-anchor="middle" dy="-12" fill="#1a202c" stroke="#fafaf8" stroke-width="3" paint-order="stroke">W7</text>
<text x="779.2" y="159.5" class="label-small" text-anchor="middle" dy="-12" fill="#1a202c" stroke="#fafaf8" stroke-width="3" paint-order="stroke">W8</text>
<circle cx="1324.9" cy="280.2" r="9" class="crossing"/>
<circle cx="1324.9" cy="280.2" r="3" class="bolt-new"/>
<circle cx="1324.9" cy="262.9" r="9" class="crossing"/>
<circle cx="1324.9" cy="262.9" r="3" class="bolt-new"/>
<circle cx="779.2" cy="280.2" r="9" class="crossing"/>
<circle cx="779.2" cy="280.2" r="3" class="bolt-new"/>
<circle cx="779.2" cy="36.8" r="9" class="crossing"/>
<circle cx="779.2" cy="36.8" r="3" class="bolt-new"/>
<circle cx="1168.1" cy="280.2" r="9" class="crossing"/>
<circle cx="1168.1" cy="280.2" r="3" class="bolt-new"/>
<circle cx="1168.1" cy="197.9" r="9" class="crossing"/>
<circle cx="1168.1" cy="197.9" r="3" class="bolt-new"/>
<circle cx="970.6" cy="280.2" r="9" class="crossing"/>
<circle cx="970.6" cy="280.2" r="3" class="bolt-new"/>
<circle cx="970.6" cy="116.1" r="9" class="crossing"/>
<circle cx="970.6" cy="116.1" r="3" class="bolt-new"/>
<circle cx="987.2" cy="280.2" r="9" class="crossing"/>
<circle cx="987.2" cy="280.2" r="3" class="bolt-new"/>
<circle cx="1152.8" cy="191.6" r="9" class="crossing"/>
<circle cx="1152.8" cy="191.6" r="3" class="bolt-new"/>
<circle cx="789.9" cy="280.2" r="9" class="crossing"/>
<circle cx="789.9" cy="280.2" r="3" class="bolt-new"/>
<circle cx="955.3" cy="109.8" r="9" class="crossing"/>
<circle cx="955.3" cy="109.8" r="3" class="bolt-new"/>
<circle cx="1366.7" cy="280.2" r="9" class="crossing"/>
<circle cx="1366.7" cy="280.2" r="3" class="bolt-new"/>
<text x="330" y="394" class="subtitle" text-anchor="middle">41 bolt holes total (13 junctions × 3 holes avg)</text>
<text x="1070" y="394" class="subtitle" text-anchor="middle" fill="#22543d">13 bolt holes total (1 per junction)</text>
</svg>