<svg xmlns="http://www.w3.org/2000/svg" width="1700" height="1100" viewBox="0 0 1700 1100" font-family="Segoe UI, Arial, sans-serif">
<defs>
      <pattern id="cf" patternUnits="userSpaceOnUse" width="6" height="6" patternTransform="rotate(-45)">
        <rect width="6" height="6" fill="#dbeafe"/><line x1="0" y1="0" x2="0" y2="6" stroke="#93c5fd" stroke-width="0.6"/>
      </pattern>
      <pattern id="wf" patternUnits="userSpaceOnUse" width="6" height="6" patternTransform="rotate(45)">
        <rect width="6" height="6" fill="#e2e8f0"/><line x1="0" y1="0" x2="0" y2="6" stroke="#94a3b8" stroke-width="0.6"/>
      </pattern>
    </defs>
<rect width="1700" height="1100" fill="white"/>
<text x="40" y="44" font-size="26" font-weight="700" fill="#1a202c">Truss frame TN2-1 — mark up where you want bolts</text>
<text x="40" y="72" font-size="15" fill="#4a5568">Complex main truss with collar tie — 10 members at multiple angles.</text>
<text x="40" y="98" font-size="13" fill="#374151">10 members  ·  blue hatched = chord plates  ·  grey hatched = web studs  ·  dashed = centrelines</text>
<line x1="40.0" y1="171.2" x2="40.0" y2="948.8" stroke="#f1f5f9" stroke-width="0.8"/>
<line x1="187.8" y1="171.2" x2="187.8" y2="948.8" stroke="#f1f5f9" stroke-width="0.8"/>
<line x1="335.7" y1="171.2" x2="335.7" y2="948.8" stroke="#f1f5f9" stroke-width="0.8"/>
<line x1="483.5" y1="171.2" x2="483.5" y2="948.8" stroke="#f1f5f9" stroke-width="0.8"/>
<line x1="631.4" y1="171.2" x2="631.4" y2="948.8" stroke="#f1f5f9" stroke-width="0.8"/>
<line x1="779.2" y1="171.2" x2="779.2" y2="948.8" stroke="#f1f5f9" stroke-width="0.8"/>
<line x1="927.1" y1="171.2" x2="927.1" y2="948.8" stroke="#f1f5f9" stroke-width="0.8"/>
<line x1="1074.9" y1="171.2" x2="1074.9" y2="948.8" stroke="#f1f5f9" stroke-width="0.8"/>
<line x1="1222.8" y1="171.2" x2="1222.8" y2="948.8" stroke="#f1f5f9" stroke-width="0.8"/>
<line x1="1370.6" y1="171.2" x2="1370.6" y2="948.8" stroke="#f1f5f9" stroke-width="0.8"/>
<line x1="1518.5" y1="171.2" x2="1518.5" y2="948.8" stroke="#f1f5f9" stroke-width="0.8"/>
<line x1="40.0" y1="948.8" x2="1660.0" y2="948.8" stroke="#f1f5f9" stroke-width="0.8"/>
<line x1="40.0" y1="801.0" x2="1660.0" y2="801.0" stroke="#f1f5f9" stroke-width="0.8"/>
<line x1="40.0" y1="653.1" x2="1660.0" y2="653.1" stroke="#f1f5f9" stroke-width="0.8"/>
<line x1="40.0" y1="505.3" x2="1660.0" y2="505.3" stroke="#f1f5f9" stroke-width="0.8"/>
<line x1="40.0" y1="357.5" x2="1660.0" y2="357.5" stroke="#f1f5f9" stroke-width="0.8"/>
<line x1="40.0" y1="209.6" x2="1660.0" y2="209.6" stroke="#f1f5f9" stroke-width="0.8"/>
<polygon points="1561.2,287.3 1571.3,263.0 1534.3,247.7 1524.2,272.0" fill="url(#cf)" stroke="#1d4ed8" stroke-width="1.6" opacity="0.95"/>
<polygon points="1550.7,272.0 1540.6,247.7 128.7,832.5 138.8,856.9" fill="url(#cf)" stroke="#1d4ed8" stroke-width="1.6" opacity="0.95"/>
<polygon points="1571.3,318.3 1571.3,292.0 1433.7,292.0 1433.7,318.3" fill="url(#cf)" stroke="#1d4ed8" stroke-width="1.6" opacity="0.95"/>
<polygon points="1571.3,861.0 1571.3,834.7 128.7,834.7 128.7,861.0" fill="url(#cf)" stroke="#1d4ed8" stroke-width="1.6" opacity="0.95"/>
<polygon points="1545.0,860.1 1571.3,860.1 1571.3,263.0 1545.0,263.0" fill="url(#wf)" stroke="#475569" stroke-width="1.4" opacity="0.85"/>
<polygon points="1522.0,863.9 1540.2,844.9 1105.1,428.1 1086.9,447.1" fill="url(#wf)" stroke="#475569" stroke-width="1.4" opacity="0.85"/>
<polygon points="1054.8,856.7 1081.1,856.7 1081.1,448.9 1054.8,448.9" fill="url(#wf)" stroke="#475569" stroke-width="1.4" opacity="0.85"/>
<polygon points="1032.8,863.6 1045.0,840.3 630.7,622.4 618.4,645.7" fill="url(#wf)" stroke="#475569" stroke-width="1.4" opacity="0.85"/>
<polygon points="585.2,856.7 611.5,856.7 611.5,643.4 585.2,643.4" fill="url(#wf)" stroke="#475569" stroke-width="1.4" opacity="0.85"/>
<polygon points="205.8,856.7 232.1,856.7 232.1,800.6 205.8,800.6" fill="url(#wf)" stroke="#475569" stroke-width="1.4" opacity="0.85"/>
<line x1="1566.3" y1="275.2" x2="1529.3" y2="259.9" stroke="#1d4ed8" stroke-width="1" stroke-dasharray="5 3" opacity="0.55"/>
<line x1="1558.1" y1="860.1" x2="1558.1" y2="263.0" stroke="#334155" stroke-width="1" stroke-dasharray="5 3" opacity="0.55"/>
<line x1="1545.7" y1="259.9" x2="133.7" y2="844.7" stroke="#1d4ed8" stroke-width="1" stroke-dasharray="5 3" opacity="0.55"/>
<line x1="1571.3" y1="305.2" x2="1433.7" y2="305.2" stroke="#1d4ed8" stroke-width="1" stroke-dasharray="5 3" opacity="0.55"/>
<line x1="1531.1" y1="854.4" x2="1096.0" y2="437.6" stroke="#334155" stroke-width="1" stroke-dasharray="5 3" opacity="0.55"/>
<line x1="1571.3" y1="847.9" x2="128.7" y2="847.9" stroke="#1d4ed8" stroke-width="1" stroke-dasharray="5 3" opacity="0.55"/>
<line x1="1067.9" y1="856.7" x2="1067.9" y2="448.9" stroke="#334155" stroke-width="1" stroke-dasharray="5 3" opacity="0.55"/>
<line x1="1038.9" y1="852.0" x2="624.5" y2="634.0" stroke="#334155" stroke-width="1" stroke-dasharray="5 3" opacity="0.55"/>
<line x1="598.3" y1="856.7" x2="598.3" y2="643.4" stroke="#334155" stroke-width="1" stroke-dasharray="5 3" opacity="0.55"/>
<line x1="218.9" y1="856.7" x2="218.9" y2="800.6" stroke="#334155" stroke-width="1" stroke-dasharray="5 3" opacity="0.55"/>
<text x="1547.8" y="267.5" font-size="14" font-weight="700" text-anchor="middle" fill="#0f172a" stroke="white" stroke-width="3.5" paint-order="stroke">T2</text>
<text x="1558.1" y="561.6" font-size="14" font-weight="700" text-anchor="middle" fill="#0f172a" stroke="white" stroke-width="3.5" paint-order="stroke">W5</text>
<text x="839.7" y="552.3" font-size="14" font-weight="700" text-anchor="middle" fill="#0f172a" stroke="white" stroke-width="3.5" paint-order="stroke">T3</text>
<text x="1502.5" y="305.2" font-size="14" font-weight="700" text-anchor="middle" fill="#0f172a" stroke="white" stroke-width="3.5" paint-order="stroke">C4</text>
<text x="1313.5" y="646.0" font-size="14" font-weight="700" text-anchor="middle" fill="#0f172a" stroke="white" stroke-width="3.5" paint-order="stroke">W6</text>
<text x="850.0" y="847.9" font-size="14" font-weight="700" text-anchor="middle" fill="#0f172a" stroke="white" stroke-width="3.5" paint-order="stroke">B1</text>
<text x="1067.9" y="652.8" font-size="14" font-weight="700" text-anchor="middle" fill="#0f172a" stroke="white" stroke-width="3.5" paint-order="stroke">W7</text>
<text x="831.7" y="743.0" font-size="14" font-weight="700" text-anchor="middle" fill="#0f172a" stroke="white" stroke-width="3.5" paint-order="stroke">W8</text>
<text x="598.3" y="750.1" font-size="14" font-weight="700" text-anchor="middle" fill="#0f172a" stroke="white" stroke-width="3.5" paint-order="stroke">W9</text>
<text x="218.9" y="828.6" font-size="14" font-weight="700" text-anchor="middle" fill="#0f172a" stroke="white" stroke-width="3.5" paint-order="stroke">W10</text>
<rect x="40" y="1053" width="1620" height="38" fill="#fef3c7" stroke="#d97706" rx="3"/>
<text x="60" y="1073" font-size="13" fill="#7c2d12">Mark each bolt position with a dot or X. Mark direction/quantity if it matters. Save and send back.</text>
</svg>