<svg xmlns="http://www.w3.org/2000/svg" width="1900" height="1180" viewBox="0 0 1900 1180" font-family="Segoe UI, Arial, sans-serif">
<defs>
  <linearGradient id="galv" x1="0" y1="0" x2="0" y2="1">
    <stop offset="0%" stop-color="#dde6ed"/>
    <stop offset="50%" stop-color="#a8b9c7"/>
    <stop offset="100%" stop-color="#7a8b9a"/>
  </linearGradient>
  <linearGradient id="galv-chord" x1="0" y1="0" x2="0" y2="1">
    <stop offset="0%" stop-color="#cfd9e2"/>
    <stop offset="50%" stop-color="#9eaebd"/>
    <stop offset="100%" stop-color="#6e8090"/>
  </linearGradient>
  <linearGradient id="swage-press" x1="0" y1="0" x2="1" y2="0">
    <stop offset="0%" stop-color="#7a8b9a"/>
    <stop offset="20%" stop-color="#566270"/>
    <stop offset="80%" stop-color="#566270"/>
    <stop offset="100%" stop-color="#7a8b9a"/>
  </linearGradient>
  <radialGradient id="hole-deep" cx="0.4" cy="0.4" r="0.6">
    <stop offset="0%" stop-color="#0a0a0a"/>
    <stop offset="70%" stop-color="#3a3a3a"/>
    <stop offset="100%" stop-color="#5a5a5a"/>
  </radialGradient>
  <radialGradient id="hole-rim" cx="0.5" cy="0.5" r="0.5">
    <stop offset="80%" stop-color="white" stop-opacity="0"/>
    <stop offset="95%" stop-color="white" stop-opacity="0.55"/>
    <stop offset="100%" stop-color="white" stop-opacity="0"/>
  </radialGradient>
  <pattern id="lip-cut-hatch" patternUnits="userSpaceOnUse" width="3" height="3" patternTransform="rotate(45)">
    <line x1="0" y1="0" x2="0" y2="3" stroke="#dc2626" stroke-width="0.6"/>
  </pattern>
  <pattern id="spangle" patternUnits="userSpaceOnUse" width="50" height="50">
    <ellipse cx="10" cy="15" rx="6" ry="3" fill="white" opacity="0.05" transform="rotate(20 10 15)"/>
    <ellipse cx="35" cy="30" rx="8" ry="4" fill="white" opacity="0.04" transform="rotate(-15 35 30)"/>
    <ellipse cx="20" cy="42" rx="5" ry="2.5" fill="white" opacity="0.06" transform="rotate(40 20 42)"/>
  </pattern>
  <linearGradient id="bg" x1="0" y1="0" x2="0" y2="1">
    <stop offset="0" stop-color="#a8a8a8"/>
    <stop offset="1" stop-color="#7a7a7a"/>
  </linearGradient>
  <filter id="blur3"><feGaussianBlur stdDeviation="3"/></filter>
  <filter id="blur5"><feGaussianBlur stdDeviation="5"/></filter>
</defs>
<rect width="1900" height="1180" fill="url(#bg)"/>
<rect x="0" y="0" width="1900" height="105" fill="white" opacity="0.95"/>
<text x="40" y="42" font-size="26" font-weight="700" fill="#1a202c">Truss frame TN2-1 — V4 (correct holes + lip notches)</text>
<text x="40" y="68" font-size="14" fill="#4a5568">3 × Ø3.8mm drilled holes per F37008 spec · LIP NOTCHES at every CSV position · SWAGE rectangles on web</text>
<g opacity="0.55">
<polygon points="1755.0,289.7 1766.3,262.4 1724.8,245.2 1713.5,272.5" fill="black" opacity="0.4" filter="url(#blur5)"/>
<polygon points="1736.8,933.2 1766.3,933.2 1766.3,262.4 1736.8,262.4" fill="black" opacity="0.4" filter="url(#blur5)"/>
<polygon points="1743.2,272.5 1731.9,245.2 145.7,902.2 157.0,929.5" fill="black" opacity="0.4" filter="url(#blur5)"/>
<polygon points="1766.3,324.5 1766.3,294.9 1611.7,294.9 1611.7,324.5" fill="black" opacity="0.4" filter="url(#blur5)"/>
<polygon points="1711.0,937.5 1731.4,916.1 1242.6,447.8 1222.1,469.2" fill="black" opacity="0.4" filter="url(#blur5)"/>
<polygon points="1766.3,934.2 1766.3,904.6 145.7,904.6 145.7,934.2" fill="black" opacity="0.4" filter="url(#blur5)"/>
<polygon points="1186.0,929.4 1215.6,929.4 1215.6,471.2 1186.0,471.2" fill="black" opacity="0.4" filter="url(#blur5)"/>
<polygon points="1161.4,937.1 1175.1,911.0 709.6,666.1 695.8,692.3" fill="black" opacity="0.4" filter="url(#blur5)"/>
<polygon points="658.5,929.4 688.1,929.4 688.1,689.7 658.5,689.7" fill="black" opacity="0.4" filter="url(#blur5)"/>
<polygon points="232.2,929.4 261.8,929.4 261.8,866.3 232.2,866.3" fill="black" opacity="0.4" filter="url(#blur5)"/>
</g>
<polygon points="1749.0,283.7 1760.3,256.4 1718.8,239.2 1707.5,266.5" fill="url(#galv-chord)"/>
<polygon points="1749.0,283.7 1760.3,256.4 1718.8,239.2 1707.5,266.5" fill="url(#spangle)" opacity="0.7"/>
<line x1="1749.0" y1="283.7" x2="1707.5" y2="266.5" stroke="#3a4654" stroke-width="0.6" opacity="0.7"/>
<line x1="1749.4" y1="282.8" x2="1707.9" y2="265.5" stroke="#5a6c7c" stroke-width="0.5" opacity="0.5"/>
<line x1="1760.3" y1="256.4" x2="1718.8" y2="239.2" stroke="#3a4654" stroke-width="0.6" opacity="0.7"/>
<line x1="1760.0" y1="257.3" x2="1718.4" y2="240.1" stroke="#5a6c7c" stroke-width="0.5" opacity="0.5"/>
<polygon points="1749.0,283.7 1760.3,256.4 1718.8,239.2 1707.5,266.5" fill="none" stroke="#1a2329" stroke-width="0.9"/>
<polygon points="1737.2,266.5 1725.9,239.2 139.7,896.2 151.0,923.5" fill="url(#galv-chord)"/>
<polygon points="1737.2,266.5 1725.9,239.2 139.7,896.2 151.0,923.5" fill="url(#spangle)" opacity="0.7"/>
<line x1="1737.2" y1="266.5" x2="151.0" y2="923.5" stroke="#3a4654" stroke-width="0.6" opacity="0.7"/>
<line x1="1736.8" y1="265.5" x2="150.6" y2="922.6" stroke="#5a6c7c" stroke-width="0.5" opacity="0.5"/>
<line x1="1725.9" y1="239.2" x2="139.7" y2="896.2" stroke="#3a4654" stroke-width="0.6" opacity="0.7"/>
<line x1="1726.3" y1="240.1" x2="140.0" y2="897.1" stroke="#5a6c7c" stroke-width="0.5" opacity="0.5"/>
<polygon points="1737.2,266.5 1725.9,239.2 139.7,896.2 151.0,923.5" fill="none" stroke="#1a2329" stroke-width="0.9"/>
<polygon points="1760.3,318.5 1760.3,288.9 1605.7,288.9 1605.7,318.5" fill="url(#galv-chord)"/>
<polygon points="1760.3,318.5 1760.3,288.9 1605.7,288.9 1605.7,318.5" fill="url(#spangle)" opacity="0.7"/>
<line x1="1760.3" y1="318.5" x2="1605.7" y2="318.5" stroke="#3a4654" stroke-width="0.6" opacity="0.7"/>
<line x1="1760.3" y1="317.5" x2="1605.7" y2="317.5" stroke="#5a6c7c" stroke-width="0.5" opacity="0.5"/>
<line x1="1760.3" y1="288.9" x2="1605.7" y2="288.9" stroke="#3a4654" stroke-width="0.6" opacity="0.7"/>
<line x1="1760.3" y1="289.9" x2="1605.7" y2="289.9" stroke="#5a6c7c" stroke-width="0.5" opacity="0.5"/>
<polygon points="1760.3,318.5 1760.3,288.9 1605.7,288.9 1605.7,318.5" fill="none" stroke="#1a2329" stroke-width="0.9"/>
<polygon points="1760.3,928.2 1760.3,898.6 139.7,898.6 139.7,928.2" fill="url(#galv-chord)"/>
<polygon points="1760.3,928.2 1760.3,898.6 139.7,898.6 139.7,928.2" fill="url(#spangle)" opacity="0.7"/>
<line x1="1760.3" y1="928.2" x2="139.7" y2="928.2" stroke="#3a4654" stroke-width="0.6" opacity="0.7"/>
<line x1="1760.3" y1="927.2" x2="139.7" y2="927.2" stroke="#5a6c7c" stroke-width="0.5" opacity="0.5"/>
<line x1="1760.3" y1="898.6" x2="139.7" y2="898.6" stroke="#3a4654" stroke-width="0.6" opacity="0.7"/>
<line x1="1760.3" y1="899.6" x2="139.7" y2="899.6" stroke="#5a6c7c" stroke-width="0.5" opacity="0.5"/>
<polygon points="1760.3,928.2 1760.3,898.6 139.7,898.6 139.7,928.2" fill="none" stroke="#1a2329" stroke-width="0.9"/>
<polygon points="1730.8,927.2 1760.3,927.2 1760.3,256.4 1730.8,256.4" fill="url(#galv)"/>
<polygon points="1730.8,927.2 1760.3,927.2 1760.3,256.4 1730.8,256.4" fill="url(#spangle)" opacity="0.7"/>
<line x1="1730.8" y1="927.2" x2="1730.8" y2="256.4" stroke="#3a4654" stroke-width="0.6" opacity="0.7"/>
<line x1="1731.8" y1="927.2" x2="1731.8" y2="256.4" stroke="#5a6c7c" stroke-width="0.5" opacity="0.5"/>
<line x1="1760.3" y1="927.2" x2="1760.3" y2="256.4" stroke="#3a4654" stroke-width="0.6" opacity="0.7"/>
<line x1="1759.3" y1="927.2" x2="1759.3" y2="256.4" stroke="#5a6c7c" stroke-width="0.5" opacity="0.5"/>
<polygon points="1730.8,927.2 1760.3,927.2 1760.3,256.4 1730.8,256.4" fill="none" stroke="#1a2329" stroke-width="0.9"/>
<polygon points="1705.0,931.5 1725.4,910.1 1236.6,441.8 1216.1,463.2" fill="url(#galv)"/>
<polygon points="1705.0,931.5 1725.4,910.1 1236.6,441.8 1216.1,463.2" fill="url(#spangle)" opacity="0.7"/>
<line x1="1705.0" y1="931.5" x2="1216.1" y2="463.2" stroke="#3a4654" stroke-width="0.6" opacity="0.7"/>
<line x1="1705.6" y1="930.7" x2="1216.8" y2="462.5" stroke="#5a6c7c" stroke-width="0.5" opacity="0.5"/>
<line x1="1725.4" y1="910.1" x2="1236.6" y2="441.8" stroke="#3a4654" stroke-width="0.6" opacity="0.7"/>
<line x1="1724.7" y1="910.8" x2="1235.9" y2="442.5" stroke="#5a6c7c" stroke-width="0.5" opacity="0.5"/>
<polygon points="1705.0,931.5 1725.4,910.1 1236.6,441.8 1216.1,463.2" fill="none" stroke="#1a2329" stroke-width="0.9"/>
<polygon points="1180.0,923.4 1209.6,923.4 1209.6,465.2 1180.0,465.2" fill="url(#galv)"/>
<polygon points="1180.0,923.4 1209.6,923.4 1209.6,465.2 1180.0,465.2" fill="url(#spangle)" opacity="0.7"/>
<line x1="1180.0" y1="923.4" x2="1180.0" y2="465.2" stroke="#3a4654" stroke-width="0.6" opacity="0.7"/>
<line x1="1181.0" y1="923.4" x2="1181.0" y2="465.2" stroke="#5a6c7c" stroke-width="0.5" opacity="0.5"/>
<line x1="1209.6" y1="923.4" x2="1209.6" y2="465.2" stroke="#3a4654" stroke-width="0.6" opacity="0.7"/>
<line x1="1208.6" y1="923.4" x2="1208.6" y2="465.2" stroke="#5a6c7c" stroke-width="0.5" opacity="0.5"/>
<polygon points="1180.0,923.4 1209.6,923.4 1209.6,465.2 1180.0,465.2" fill="none" stroke="#1a2329" stroke-width="0.9"/>
<polygon points="1155.4,931.1 1169.1,905.0 703.6,660.1 689.8,686.3" fill="url(#galv)"/>
<polygon points="1155.4,931.1 1169.1,905.0 703.6,660.1 689.8,686.3" fill="url(#spangle)" opacity="0.7"/>
<line x1="1155.4" y1="931.1" x2="689.8" y2="686.3" stroke="#3a4654" stroke-width="0.6" opacity="0.7"/>
<line x1="1155.8" y1="930.2" x2="690.3" y2="685.4" stroke="#5a6c7c" stroke-width="0.5" opacity="0.5"/>
<line x1="1169.1" y1="905.0" x2="703.6" y2="660.1" stroke="#3a4654" stroke-width="0.6" opacity="0.7"/>
<line x1="1168.7" y1="905.8" x2="703.1" y2="661.0" stroke="#5a6c7c" stroke-width="0.5" opacity="0.5"/>
<polygon points="1155.4,931.1 1169.1,905.0 703.6,660.1 689.8,686.3" fill="none" stroke="#1a2329" stroke-width="0.9"/>
<polygon points="652.5,923.4 682.1,923.4 682.1,683.7 652.5,683.7" fill="url(#galv)"/>
<polygon points="652.5,923.4 682.1,923.4 682.1,683.7 652.5,683.7" fill="url(#spangle)" opacity="0.7"/>
<line x1="652.5" y1="923.4" x2="652.5" y2="683.7" stroke="#3a4654" stroke-width="0.6" opacity="0.7"/>
<line x1="653.5" y1="923.4" x2="653.5" y2="683.7" stroke="#5a6c7c" stroke-width="0.5" opacity="0.5"/>
<line x1="682.1" y1="923.4" x2="682.1" y2="683.7" stroke="#3a4654" stroke-width="0.6" opacity="0.7"/>
<line x1="681.1" y1="923.4" x2="681.1" y2="683.7" stroke="#5a6c7c" stroke-width="0.5" opacity="0.5"/>
<polygon points="652.5,923.4 682.1,923.4 682.1,683.7 652.5,683.7" fill="none" stroke="#1a2329" stroke-width="0.9"/>
<polygon points="226.2,923.4 255.8,923.4 255.8,860.3 226.2,860.3" fill="url(#galv)"/>
<polygon points="226.2,923.4 255.8,923.4 255.8,860.3 226.2,860.3" fill="url(#spangle)" opacity="0.7"/>
<line x1="226.2" y1="923.4" x2="226.2" y2="860.3" stroke="#3a4654" stroke-width="0.6" opacity="0.7"/>
<line x1="227.2" y1="923.4" x2="227.2" y2="860.3" stroke="#5a6c7c" stroke-width="0.5" opacity="0.5"/>
<line x1="255.8" y1="923.4" x2="255.8" y2="860.3" stroke="#3a4654" stroke-width="0.6" opacity="0.7"/>
<line x1="254.8" y1="923.4" x2="254.8" y2="860.3" stroke="#5a6c7c" stroke-width="0.5" opacity="0.5"/>
<polygon points="226.2,923.4 255.8,923.4 255.8,860.3 226.2,860.3" fill="none" stroke="#1a2329" stroke-width="0.9"/>
<polygon points="1740.6,919.7 1740.6,916.4 1750.5,916.4 1750.5,919.7" fill="url(#swage-press)" stroke="#2a3540" stroke-width="0.5" opacity="0.85"/>
<line x1="1740.6" y1="919.1" x2="1750.5" y2="919.1" stroke="white" stroke-width="0.5" opacity="0.5"/>
<line x1="1740.6" y1="917.1" x2="1750.5" y2="917.1" stroke="white" stroke-width="0.5" opacity="0.5"/>
<polygon points="1740.6,901.4 1740.6,898.1 1750.5,898.1 1750.5,901.4" fill="url(#swage-press)" stroke="#2a3540" stroke-width="0.5" opacity="0.85"/>
<line x1="1740.6" y1="900.8" x2="1750.5" y2="900.8" stroke="white" stroke-width="0.5" opacity="0.5"/>
<line x1="1740.6" y1="898.8" x2="1750.5" y2="898.8" stroke="white" stroke-width="0.5" opacity="0.5"/>
<polygon points="1740.6,894.5 1740.6,891.1 1750.5,891.1 1750.5,894.5" fill="url(#swage-press)" stroke="#2a3540" stroke-width="0.5" opacity="0.85"/>
<line x1="1740.6" y1="893.8" x2="1750.5" y2="893.8" stroke="white" stroke-width="0.5" opacity="0.5"/>
<line x1="1740.6" y1="891.8" x2="1750.5" y2="891.8" stroke="white" stroke-width="0.5" opacity="0.5"/>
<polygon points="1740.6,326.0 1740.6,322.6 1750.5,322.6 1750.5,326.0" fill="url(#swage-press)" stroke="#2a3540" stroke-width="0.5" opacity="0.85"/>
<line x1="1740.6" y1="325.3" x2="1750.5" y2="325.3" stroke="white" stroke-width="0.5" opacity="0.5"/>
<line x1="1740.6" y1="323.3" x2="1750.5" y2="323.3" stroke="white" stroke-width="0.5" opacity="0.5"/>
<polygon points="1740.6,307.7 1740.6,304.4 1750.5,304.4 1750.5,307.7" fill="url(#swage-press)" stroke="#2a3540" stroke-width="0.5" opacity="0.85"/>
<line x1="1740.6" y1="307.0" x2="1750.5" y2="307.0" stroke="white" stroke-width="0.5" opacity="0.5"/>
<line x1="1740.6" y1="305.0" x2="1750.5" y2="305.0" stroke="white" stroke-width="0.5" opacity="0.5"/>
<polygon points="1740.6,289.4 1740.6,286.1 1750.5,286.1 1750.5,289.4" fill="url(#swage-press)" stroke="#2a3540" stroke-width="0.5" opacity="0.85"/>
<line x1="1740.6" y1="288.8" x2="1750.5" y2="288.8" stroke="white" stroke-width="0.5" opacity="0.5"/>
<line x1="1740.6" y1="286.8" x2="1750.5" y2="286.8" stroke="white" stroke-width="0.5" opacity="0.5"/>
<polygon points="1740.6,271.1 1740.6,267.8 1750.5,267.8 1750.5,271.1" fill="url(#swage-press)" stroke="#2a3540" stroke-width="0.5" opacity="0.85"/>
<line x1="1740.6" y1="270.5" x2="1750.5" y2="270.5" stroke="white" stroke-width="0.5" opacity="0.5"/>
<line x1="1740.6" y1="268.5" x2="1750.5" y2="268.5" stroke="white" stroke-width="0.5" opacity="0.5"/>
<polygon points="1740.6,267.2 1740.6,263.8 1750.5,263.8 1750.5,267.2" fill="url(#swage-press)" stroke="#2a3540" stroke-width="0.5" opacity="0.85"/>
<line x1="1740.6" y1="266.5" x2="1750.5" y2="266.5" stroke="white" stroke-width="0.5" opacity="0.5"/>
<line x1="1740.6" y1="264.5" x2="1750.5" y2="264.5" stroke="white" stroke-width="0.5" opacity="0.5"/>
<polygon points="160.2,919.7 156.5,921.2 155.0,917.5 158.7,916.0" fill="url(#bg)" stroke="#dc2626" stroke-width="1"/>
<polygon points="160.2,919.7 156.5,921.2 155.0,917.5 158.7,916.0" fill="url(#lip-cut-hatch)" opacity="0.7"/>
<polygon points="148.9,892.4 145.2,893.9 146.7,897.6 150.4,896.1" fill="url(#bg)" stroke="#dc2626" stroke-width="1"/>
<polygon points="148.9,892.4 145.2,893.9 146.7,897.6 150.4,896.1" fill="url(#lip-cut-hatch)" opacity="0.7"/>
<polygon points="1615.7,318.5 1611.7,318.5 1611.7,314.5 1615.7,314.5" fill="url(#bg)" stroke="#dc2626" stroke-width="1"/>
<polygon points="1615.7,318.5 1611.7,318.5 1611.7,314.5 1615.7,314.5" fill="url(#lip-cut-hatch)" opacity="0.7"/>
<polygon points="1615.7,288.9 1611.7,288.9 1611.7,292.9 1615.7,292.9" fill="url(#bg)" stroke="#dc2626" stroke-width="1"/>
<polygon points="1615.7,288.9 1611.7,288.9 1611.7,292.9 1615.7,292.9" fill="url(#lip-cut-hatch)" opacity="0.7"/>
<polygon points="1706.3,919.2 1703.9,916.9 1710.8,909.7 1713.2,912.0" fill="url(#swage-press)" stroke="#2a3540" stroke-width="0.5" opacity="0.85"/>
<line x1="1705.9" y1="918.8" x2="1712.7" y2="911.6" stroke="white" stroke-width="0.5" opacity="0.5"/>
<line x1="1704.4" y1="917.4" x2="1711.3" y2="910.2" stroke="white" stroke-width="0.5" opacity="0.5"/>
<polygon points="1696.9,923.8 1694.1,921.0 1696.8,918.2 1699.7,920.9" fill="url(#bg)" stroke="#dc2626" stroke-width="1"/>
<polygon points="1696.9,923.8 1694.1,921.0 1696.8,918.2 1699.7,920.9" fill="url(#lip-cut-hatch)" opacity="0.7"/>
<polygon points="1717.4,902.5 1714.5,899.7 1711.8,902.6 1714.6,905.3" fill="url(#bg)" stroke="#dc2626" stroke-width="1"/>
<polygon points="1717.4,902.5 1714.5,899.7 1711.8,902.6 1714.6,905.3" fill="url(#lip-cut-hatch)" opacity="0.7"/>
<polygon points="1693.1,906.6 1690.7,904.3 1697.6,897.1 1700.0,899.4" fill="url(#swage-press)" stroke="#2a3540" stroke-width="0.5" opacity="0.85"/>
<line x1="1692.7" y1="906.1" x2="1699.6" y2="898.9" stroke="white" stroke-width="0.5" opacity="0.5"/>
<line x1="1691.2" y1="904.7" x2="1698.1" y2="897.5" stroke="white" stroke-width="0.5" opacity="0.5"/>
<polygon points="1679.9,893.9 1677.5,891.6 1684.4,884.4 1686.8,886.7" fill="url(#swage-press)" stroke="#2a3540" stroke-width="0.5" opacity="0.85"/>
<line x1="1679.5" y1="893.5" x2="1686.4" y2="886.3" stroke="white" stroke-width="0.5" opacity="0.5"/>
<line x1="1678.0" y1="892.1" x2="1684.9" y2="884.9" stroke="white" stroke-width="0.5" opacity="0.5"/>
<polygon points="1674.4,888.7 1672.0,886.4 1678.9,879.2 1681.3,881.5" fill="url(#swage-press)" stroke="#2a3540" stroke-width="0.5" opacity="0.85"/>
<line x1="1674.0" y1="888.2" x2="1680.9" y2="881.0" stroke="white" stroke-width="0.5" opacity="0.5"/>
<line x1="1672.5" y1="886.8" x2="1679.4" y2="879.6" stroke="white" stroke-width="0.5" opacity="0.5"/>
<polygon points="1251.6,483.6 1249.2,481.3 1256.1,474.1 1258.5,476.4" fill="url(#swage-press)" stroke="#2a3540" stroke-width="0.5" opacity="0.85"/>
<line x1="1251.2" y1="483.2" x2="1258.1" y2="476.0" stroke="white" stroke-width="0.5" opacity="0.5"/>
<line x1="1249.7" y1="481.8" x2="1256.6" y2="474.6" stroke="white" stroke-width="0.5" opacity="0.5"/>
<polygon points="1238.4,471.0 1236.0,468.7 1242.9,461.5 1245.3,463.8" fill="url(#swage-press)" stroke="#2a3540" stroke-width="0.5" opacity="0.85"/>
<line x1="1238.0" y1="470.5" x2="1244.9" y2="463.3" stroke="white" stroke-width="0.5" opacity="0.5"/>
<line x1="1236.5" y1="469.1" x2="1243.4" y2="461.9" stroke="white" stroke-width="0.5" opacity="0.5"/>
<polygon points="1227.3,473.9 1224.5,471.1 1227.2,468.3 1230.1,471.0" fill="url(#bg)" stroke="#dc2626" stroke-width="1"/>
<polygon points="1227.3,473.9 1224.5,471.1 1227.2,468.3 1230.1,471.0" fill="url(#lip-cut-hatch)" opacity="0.7"/>
<polygon points="1247.8,452.6 1244.9,449.8 1242.2,452.7 1245.0,455.4" fill="url(#bg)" stroke="#dc2626" stroke-width="1"/>
<polygon points="1247.8,452.6 1244.9,449.8 1242.2,452.7 1245.0,455.4" fill="url(#lip-cut-hatch)" opacity="0.7"/>
<polygon points="1230.7,463.6 1228.3,461.3 1235.2,454.1 1237.6,456.4" fill="url(#swage-press)" stroke="#2a3540" stroke-width="0.5" opacity="0.85"/>
<line x1="1230.2" y1="463.1" x2="1237.1" y2="455.9" stroke="white" stroke-width="0.5" opacity="0.5"/>
<line x1="1228.8" y1="461.7" x2="1235.7" y2="454.5" stroke="white" stroke-width="0.5" opacity="0.5"/>
<polygon points="1189.8,915.9 1189.8,912.6 1199.8,912.6 1199.8,915.9" fill="url(#swage-press)" stroke="#2a3540" stroke-width="0.5" opacity="0.85"/>
<line x1="1189.8" y1="915.2" x2="1199.8" y2="915.2" stroke="white" stroke-width="0.5" opacity="0.5"/>
<line x1="1189.8" y1="913.2" x2="1199.8" y2="913.2" stroke="white" stroke-width="0.5" opacity="0.5"/>
<polygon points="1189.8,897.6 1189.8,894.3 1199.8,894.3 1199.8,897.6" fill="url(#swage-press)" stroke="#2a3540" stroke-width="0.5" opacity="0.85"/>
<line x1="1189.8" y1="897.0" x2="1199.8" y2="897.0" stroke="white" stroke-width="0.5" opacity="0.5"/>
<line x1="1189.8" y1="895.0" x2="1199.8" y2="895.0" stroke="white" stroke-width="0.5" opacity="0.5"/>
<polygon points="1189.8,894.5 1189.8,891.1 1199.8,891.1 1199.8,894.5" fill="url(#swage-press)" stroke="#2a3540" stroke-width="0.5" opacity="0.85"/>
<line x1="1189.8" y1="893.8" x2="1199.8" y2="893.8" stroke="white" stroke-width="0.5" opacity="0.5"/>
<line x1="1189.8" y1="891.8" x2="1199.8" y2="891.8" stroke="white" stroke-width="0.5" opacity="0.5"/>
<polygon points="1189.8,504.7 1189.8,501.4 1199.8,501.4 1199.8,504.7" fill="url(#swage-press)" stroke="#2a3540" stroke-width="0.5" opacity="0.85"/>
<line x1="1189.8" y1="504.1" x2="1199.8" y2="504.1" stroke="white" stroke-width="0.5" opacity="0.5"/>
<line x1="1189.8" y1="502.1" x2="1199.8" y2="502.1" stroke="white" stroke-width="0.5" opacity="0.5"/>
<polygon points="1189.8,486.5 1189.8,483.1 1199.8,483.1 1199.8,486.5" fill="url(#swage-press)" stroke="#2a3540" stroke-width="0.5" opacity="0.85"/>
<line x1="1189.8" y1="485.8" x2="1199.8" y2="485.8" stroke="white" stroke-width="0.5" opacity="0.5"/>
<line x1="1189.8" y1="483.8" x2="1199.8" y2="483.8" stroke="white" stroke-width="0.5" opacity="0.5"/>
<polygon points="1180.0,481.1 1180.0,477.1 1184.0,477.1 1184.0,481.1" fill="url(#bg)" stroke="#dc2626" stroke-width="1"/>
<polygon points="1180.0,481.1 1180.0,477.1 1184.0,477.1 1184.0,481.1" fill="url(#lip-cut-hatch)" opacity="0.7"/>
<polygon points="1209.6,481.1 1209.6,477.1 1205.6,477.1 1205.6,481.1" fill="url(#bg)" stroke="#dc2626" stroke-width="1"/>
<polygon points="1209.6,481.1 1209.6,477.1 1205.6,477.1 1205.6,481.1" fill="url(#lip-cut-hatch)" opacity="0.7"/>
<polygon points="1189.8,476.0 1189.8,472.6 1199.8,472.6 1199.8,476.0" fill="url(#swage-press)" stroke="#2a3540" stroke-width="0.5" opacity="0.85"/>
<line x1="1189.8" y1="475.3" x2="1199.8" y2="475.3" stroke="white" stroke-width="0.5" opacity="0.5"/>
<line x1="1189.8" y1="473.3" x2="1199.8" y2="473.3" stroke="white" stroke-width="0.5" opacity="0.5"/>
<polygon points="1153.3,919.0 1150.4,917.4 1155.0,908.6 1157.9,910.2" fill="url(#swage-press)" stroke="#2a3540" stroke-width="0.5" opacity="0.85"/>
<line x1="1152.7" y1="918.7" x2="1157.4" y2="909.8" stroke="white" stroke-width="0.5" opacity="0.5"/>
<line x1="1151.0" y1="917.7" x2="1155.6" y2="908.9" stroke="white" stroke-width="0.5" opacity="0.5"/>
<polygon points="1145.3,925.8 1141.7,924.0 1143.6,920.4 1147.1,922.3" fill="url(#bg)" stroke="#dc2626" stroke-width="1"/>
<polygon points="1145.3,925.8 1141.7,924.0 1143.6,920.4 1147.1,922.3" fill="url(#lip-cut-hatch)" opacity="0.7"/>
<polygon points="1159.0,899.7 1155.5,897.8 1153.7,901.3 1157.2,903.2" fill="url(#bg)" stroke="#dc2626" stroke-width="1"/>
<polygon points="1159.0,899.7 1155.5,897.8 1153.7,901.3 1157.2,903.2" fill="url(#lip-cut-hatch)" opacity="0.7"/>
<polygon points="1137.1,910.5 1134.2,908.9 1138.8,900.1 1141.8,901.6" fill="url(#swage-press)" stroke="#2a3540" stroke-width="0.5" opacity="0.85"/>
<line x1="1136.6" y1="910.2" x2="1141.2" y2="901.3" stroke="white" stroke-width="0.5" opacity="0.5"/>
<line x1="1134.8" y1="909.2" x2="1139.4" y2="900.4" stroke="white" stroke-width="0.5" opacity="0.5"/>
<polygon points="1121.0,902.0 1118.0,900.4 1122.7,891.6 1125.6,893.1" fill="url(#swage-press)" stroke="#2a3540" stroke-width="0.5" opacity="0.85"/>
<line x1="1120.4" y1="901.7" x2="1125.0" y2="892.8" stroke="white" stroke-width="0.5" opacity="0.5"/>
<line x1="1118.6" y1="900.7" x2="1123.3" y2="891.9" stroke="white" stroke-width="0.5" opacity="0.5"/>
<polygon points="1104.8,893.5 1101.9,891.9 1106.5,883.1 1109.4,884.6" fill="url(#swage-press)" stroke="#2a3540" stroke-width="0.5" opacity="0.85"/>
<line x1="1104.2" y1="893.1" x2="1108.8" y2="884.3" stroke="white" stroke-width="0.5" opacity="0.5"/>
<line x1="1102.4" y1="892.2" x2="1107.1" y2="883.4" stroke="white" stroke-width="0.5" opacity="0.5"/>
<polygon points="1094.5,888.0 1091.5,886.5 1096.2,877.6 1099.1,879.2" fill="url(#swage-press)" stroke="#2a3540" stroke-width="0.5" opacity="0.85"/>
<line x1="1093.9" y1="887.7" x2="1098.5" y2="878.9" stroke="white" stroke-width="0.5" opacity="0.5"/>
<line x1="1092.1" y1="886.8" x2="1096.7" y2="878.0" stroke="white" stroke-width="0.5" opacity="0.5"/>
<polygon points="737.7,700.4 734.8,698.8 739.4,690.0 742.4,691.6" fill="url(#swage-press)" stroke="#2a3540" stroke-width="0.5" opacity="0.85"/>
<line x1="737.1" y1="700.1" x2="741.8" y2="691.2" stroke="white" stroke-width="0.5" opacity="0.5"/>
<line x1="735.4" y1="699.1" x2="740.0" y2="690.3" stroke="white" stroke-width="0.5" opacity="0.5"/>
<polygon points="721.5,691.9 718.6,690.3 723.2,681.5 726.2,683.0" fill="url(#swage-press)" stroke="#2a3540" stroke-width="0.5" opacity="0.85"/>
<line x1="721.0" y1="691.6" x2="725.6" y2="682.7" stroke="white" stroke-width="0.5" opacity="0.5"/>
<line x1="719.2" y1="690.6" x2="723.8" y2="681.8" stroke="white" stroke-width="0.5" opacity="0.5"/>
<polygon points="702.7,693.0 699.2,691.2 701.0,687.6 704.5,689.5" fill="url(#bg)" stroke="#dc2626" stroke-width="1"/>
<polygon points="702.7,693.0 699.2,691.2 701.0,687.6 704.5,689.5" fill="url(#lip-cut-hatch)" opacity="0.7"/>
<polygon points="716.5,666.9 712.9,665.0 711.1,668.5 714.6,670.4" fill="url(#bg)" stroke="#dc2626" stroke-width="1"/>
<polygon points="716.5,666.9 712.9,665.0 711.1,668.5 714.6,670.4" fill="url(#lip-cut-hatch)" opacity="0.7"/>
<polygon points="705.4,683.4 702.4,681.8 707.1,673.0 710.0,674.5" fill="url(#swage-press)" stroke="#2a3540" stroke-width="0.5" opacity="0.85"/>
<line x1="704.8" y1="683.1" x2="709.4" y2="674.2" stroke="white" stroke-width="0.5" opacity="0.5"/>
<line x1="703.0" y1="682.1" x2="707.7" y2="673.3" stroke="white" stroke-width="0.5" opacity="0.5"/>
<polygon points="703.9,682.6 701.0,681.1 705.6,672.2 708.6,673.8" fill="url(#swage-press)" stroke="#2a3540" stroke-width="0.5" opacity="0.85"/>
<line x1="703.3" y1="682.3" x2="708.0" y2="673.5" stroke="white" stroke-width="0.5" opacity="0.5"/>
<line x1="701.6" y1="681.4" x2="706.2" y2="672.5" stroke="white" stroke-width="0.5" opacity="0.5"/>
<polygon points="662.3,915.9 662.3,912.6 672.3,912.6 672.3,915.9" fill="url(#swage-press)" stroke="#2a3540" stroke-width="0.5" opacity="0.85"/>
<line x1="662.3" y1="915.2" x2="672.3" y2="915.2" stroke="white" stroke-width="0.5" opacity="0.5"/>
<line x1="662.3" y1="913.2" x2="672.3" y2="913.2" stroke="white" stroke-width="0.5" opacity="0.5"/>
<polygon points="662.3,897.6 662.3,894.3 672.3,894.3 672.3,897.6" fill="url(#swage-press)" stroke="#2a3540" stroke-width="0.5" opacity="0.85"/>
<line x1="662.3" y1="897.0" x2="672.3" y2="897.0" stroke="white" stroke-width="0.5" opacity="0.5"/>
<line x1="662.3" y1="895.0" x2="672.3" y2="895.0" stroke="white" stroke-width="0.5" opacity="0.5"/>
<polygon points="662.3,894.5 662.3,891.1 672.3,891.1 672.3,894.5" fill="url(#swage-press)" stroke="#2a3540" stroke-width="0.5" opacity="0.85"/>
<line x1="662.3" y1="893.8" x2="672.3" y2="893.8" stroke="white" stroke-width="0.5" opacity="0.5"/>
<line x1="662.3" y1="891.8" x2="672.3" y2="891.8" stroke="white" stroke-width="0.5" opacity="0.5"/>
<polygon points="662.3,723.2 662.3,719.9 672.3,719.9 672.3,723.2" fill="url(#swage-press)" stroke="#2a3540" stroke-width="0.5" opacity="0.85"/>
<line x1="662.3" y1="722.6" x2="672.3" y2="722.6" stroke="white" stroke-width="0.5" opacity="0.5"/>
<line x1="662.3" y1="720.6" x2="672.3" y2="720.6" stroke="white" stroke-width="0.5" opacity="0.5"/>
<polygon points="662.3,705.0 662.3,701.7 672.3,701.7 672.3,705.0" fill="url(#swage-press)" stroke="#2a3540" stroke-width="0.5" opacity="0.85"/>
<line x1="662.3" y1="704.3" x2="672.3" y2="704.3" stroke="white" stroke-width="0.5" opacity="0.5"/>
<line x1="662.3" y1="702.3" x2="672.3" y2="702.3" stroke="white" stroke-width="0.5" opacity="0.5"/>
<polygon points="652.5,699.6 652.5,695.7 656.5,695.7 656.5,699.6" fill="url(#bg)" stroke="#dc2626" stroke-width="1"/>
<polygon points="652.5,699.6 652.5,695.7 656.5,695.7 656.5,699.6" fill="url(#lip-cut-hatch)" opacity="0.7"/>
<polygon points="682.1,699.6 682.1,695.7 678.1,695.7 678.1,699.6" fill="url(#bg)" stroke="#dc2626" stroke-width="1"/>
<polygon points="682.1,699.6 682.1,695.7 678.1,695.7 678.1,699.6" fill="url(#lip-cut-hatch)" opacity="0.7"/>
<polygon points="662.3,694.5 662.3,691.2 672.3,691.2 672.3,694.5" fill="url(#swage-press)" stroke="#2a3540" stroke-width="0.5" opacity="0.85"/>
<line x1="662.3" y1="693.8" x2="672.3" y2="693.8" stroke="white" stroke-width="0.5" opacity="0.5"/>
<line x1="662.3" y1="691.8" x2="672.3" y2="691.8" stroke="white" stroke-width="0.5" opacity="0.5"/>
<polygon points="236.0,915.9 236.0,912.6 246.0,912.6 246.0,915.9" fill="url(#swage-press)" stroke="#2a3540" stroke-width="0.5" opacity="0.85"/>
<line x1="236.0" y1="915.2" x2="246.0" y2="915.2" stroke="white" stroke-width="0.5" opacity="0.5"/>
<line x1="236.0" y1="913.2" x2="246.0" y2="913.2" stroke="white" stroke-width="0.5" opacity="0.5"/>
<polygon points="236.0,897.6 236.0,894.3 246.0,894.3 246.0,897.6" fill="url(#swage-press)" stroke="#2a3540" stroke-width="0.5" opacity="0.85"/>
<line x1="236.0" y1="897.0" x2="246.0" y2="897.0" stroke="white" stroke-width="0.5" opacity="0.5"/>
<line x1="236.0" y1="895.0" x2="246.0" y2="895.0" stroke="white" stroke-width="0.5" opacity="0.5"/>
<polygon points="236.0,879.4 236.0,876.0 246.0,876.0 246.0,879.4" fill="url(#swage-press)" stroke="#2a3540" stroke-width="0.5" opacity="0.85"/>
<line x1="236.0" y1="878.7" x2="246.0" y2="878.7" stroke="white" stroke-width="0.5" opacity="0.5"/>
<line x1="236.0" y1="876.7" x2="246.0" y2="876.7" stroke="white" stroke-width="0.5" opacity="0.5"/>
<polygon points="226.2,876.2 226.2,872.2 230.2,872.2 230.2,876.2" fill="url(#bg)" stroke="#dc2626" stroke-width="1"/>
<polygon points="226.2,876.2 226.2,872.2 230.2,872.2 230.2,876.2" fill="url(#lip-cut-hatch)" opacity="0.7"/>
<polygon points="255.8,876.2 255.8,872.2 251.8,872.2 251.8,876.2" fill="url(#bg)" stroke="#dc2626" stroke-width="1"/>
<polygon points="255.8,876.2 255.8,872.2 251.8,872.2 251.8,876.2" fill="url(#lip-cut-hatch)" opacity="0.7"/>
<polygon points="236.0,871.0 236.0,867.7 246.0,867.7 246.0,871.0" fill="url(#swage-press)" stroke="#2a3540" stroke-width="0.5" opacity="0.85"/>
<line x1="236.0" y1="870.4" x2="246.0" y2="870.4" stroke="white" stroke-width="0.5" opacity="0.5"/>
<line x1="236.0" y1="868.4" x2="246.0" y2="868.4" stroke="white" stroke-width="0.5" opacity="0.5"/>
<text x="1733.9" y="265.4" font-size="13" font-weight="700" text-anchor="middle" fill="#1a202c" stroke="white" stroke-width="3.5" paint-order="stroke" opacity="0.9">T2</text>
<text x="1745.6" y="595.8" font-size="13" font-weight="700" text-anchor="middle" fill="#1a202c" stroke="white" stroke-width="3.5" paint-order="stroke" opacity="0.9">W5</text>
<text x="938.4" y="585.3" font-size="13" font-weight="700" text-anchor="middle" fill="#1a202c" stroke="white" stroke-width="3.5" paint-order="stroke" opacity="0.9">T3</text>
<text x="1683.0" y="307.7" font-size="13" font-weight="700" text-anchor="middle" fill="#1a202c" stroke="white" stroke-width="3.5" paint-order="stroke" opacity="0.9">C4</text>
<text x="1470.8" y="690.6" font-size="13" font-weight="700" text-anchor="middle" fill="#1a202c" stroke="white" stroke-width="3.5" paint-order="stroke" opacity="0.9">W6</text>
<text x="950.0" y="917.4" font-size="13" font-weight="700" text-anchor="middle" fill="#1a202c" stroke="white" stroke-width="3.5" paint-order="stroke" opacity="0.9">B1</text>
<text x="1194.8" y="698.3" font-size="13" font-weight="700" text-anchor="middle" fill="#1a202c" stroke="white" stroke-width="3.5" paint-order="stroke" opacity="0.9">W7</text>
<text x="929.5" y="799.6" font-size="13" font-weight="700" text-anchor="middle" fill="#1a202c" stroke="white" stroke-width="3.5" paint-order="stroke" opacity="0.9">W8</text>
<text x="667.3" y="807.5" font-size="13" font-weight="700" text-anchor="middle" fill="#1a202c" stroke="white" stroke-width="3.5" paint-order="stroke" opacity="0.9">W9</text>
<text x="241.0" y="895.8" font-size="13" font-weight="700" text-anchor="middle" fill="#1a202c" stroke="white" stroke-width="3.5" paint-order="stroke" opacity="0.9">W10</text>
<circle cx="1734.1" cy="268.4" r="1.23" fill="url(#hole-rim)"/>
<circle cx="1734.1" cy="268.4" r="0.63" fill="url(#hole-deep)"/>
<circle cx="1734.1" cy="268.4" r="0.63" fill="none" stroke="#000" stroke-width="0.4" opacity="0.6"/>
<circle cx="1734.3" cy="268.6" r="0.16" fill="white" opacity="0.55"/>
<circle cx="1739.8" cy="268.4" r="1.23" fill="url(#hole-rim)"/>
<circle cx="1739.8" cy="268.4" r="0.63" fill="url(#hole-deep)"/>
<circle cx="1739.8" cy="268.4" r="0.63" fill="none" stroke="#000" stroke-width="0.4" opacity="0.6"/>
<circle cx="1739.9" cy="268.6" r="0.16" fill="white" opacity="0.55"/>
<circle cx="1745.4" cy="268.4" r="1.23" fill="url(#hole-rim)"/>
<circle cx="1745.4" cy="268.4" r="0.63" fill="url(#hole-deep)"/>
<circle cx="1745.4" cy="268.4" r="0.63" fill="none" stroke="#000" stroke-width="0.4" opacity="0.6"/>
<circle cx="1745.6" cy="268.6" r="0.16" fill="white" opacity="0.55"/>
<circle cx="1727.2" cy="925.6" r="1.23" fill="url(#hole-rim)"/>
<circle cx="1727.2" cy="925.6" r="0.63" fill="url(#hole-deep)"/>
<circle cx="1727.2" cy="925.6" r="0.63" fill="none" stroke="#000" stroke-width="0.4" opacity="0.6"/>
<circle cx="1727.4" cy="925.8" r="0.16" fill="white" opacity="0.55"/>
<circle cx="1732.9" cy="925.6" r="1.23" fill="url(#hole-rim)"/>
<circle cx="1732.9" cy="925.6" r="0.63" fill="url(#hole-deep)"/>
<circle cx="1732.9" cy="925.6" r="0.63" fill="none" stroke="#000" stroke-width="0.4" opacity="0.6"/>
<circle cx="1733.0" cy="925.8" r="0.16" fill="white" opacity="0.55"/>
<circle cx="1738.5" cy="925.6" r="1.23" fill="url(#hole-rim)"/>
<circle cx="1738.5" cy="925.6" r="0.63" fill="url(#hole-deep)"/>
<circle cx="1738.5" cy="925.6" r="0.63" fill="none" stroke="#000" stroke-width="0.4" opacity="0.6"/>
<circle cx="1738.7" cy="925.8" r="0.16" fill="white" opacity="0.55"/>
<circle cx="1608.7" cy="298.1" r="1.23" fill="url(#hole-rim)"/>
<circle cx="1608.7" cy="298.1" r="0.63" fill="url(#hole-deep)"/>
<circle cx="1608.7" cy="298.1" r="0.63" fill="none" stroke="#000" stroke-width="0.4" opacity="0.6"/>
<circle cx="1608.9" cy="298.2" r="0.16" fill="white" opacity="0.55"/>
<circle cx="1608.7" cy="303.7" r="1.23" fill="url(#hole-rim)"/>
<circle cx="1608.7" cy="303.7" r="0.63" fill="url(#hole-deep)"/>
<circle cx="1608.7" cy="303.7" r="0.63" fill="none" stroke="#000" stroke-width="0.4" opacity="0.6"/>
<circle cx="1608.9" cy="303.9" r="0.16" fill="white" opacity="0.55"/>
<circle cx="1608.7" cy="309.4" r="1.23" fill="url(#hole-rim)"/>
<circle cx="1608.7" cy="309.4" r="0.63" fill="url(#hole-deep)"/>
<circle cx="1608.7" cy="309.4" r="0.63" fill="none" stroke="#000" stroke-width="0.4" opacity="0.6"/>
<circle cx="1608.9" cy="309.5" r="0.16" fill="white" opacity="0.55"/>
<circle cx="1203.7" cy="456.3" r="1.23" fill="url(#hole-rim)"/>
<circle cx="1203.7" cy="456.3" r="0.63" fill="url(#hole-deep)"/>
<circle cx="1203.7" cy="456.3" r="0.63" fill="none" stroke="#000" stroke-width="0.4" opacity="0.6"/>
<circle cx="1203.9" cy="456.5" r="0.16" fill="white" opacity="0.55"/>
<circle cx="1207.7" cy="452.2" r="1.23" fill="url(#hole-rim)"/>
<circle cx="1207.7" cy="452.2" r="0.63" fill="url(#hole-deep)"/>
<circle cx="1207.7" cy="452.2" r="0.63" fill="none" stroke="#000" stroke-width="0.4" opacity="0.6"/>
<circle cx="1207.8" cy="452.4" r="0.16" fill="white" opacity="0.55"/>
<circle cx="1211.6" cy="448.1" r="1.23" fill="url(#hole-rim)"/>
<circle cx="1211.6" cy="448.1" r="0.63" fill="url(#hole-deep)"/>
<circle cx="1211.6" cy="448.1" r="0.63" fill="none" stroke="#000" stroke-width="0.4" opacity="0.6"/>
<circle cx="1211.8" cy="448.3" r="0.16" fill="white" opacity="0.55"/>
<circle cx="136.7" cy="907.8" r="1.23" fill="url(#hole-rim)"/>
<circle cx="136.7" cy="907.8" r="0.63" fill="url(#hole-deep)"/>
<circle cx="136.7" cy="907.8" r="0.63" fill="none" stroke="#000" stroke-width="0.4" opacity="0.6"/>
<circle cx="136.9" cy="907.9" r="0.16" fill="white" opacity="0.55"/>
<circle cx="136.7" cy="913.4" r="1.23" fill="url(#hole-rim)"/>
<circle cx="136.7" cy="913.4" r="0.63" fill="url(#hole-deep)"/>
<circle cx="136.7" cy="913.4" r="0.63" fill="none" stroke="#000" stroke-width="0.4" opacity="0.6"/>
<circle cx="136.9" cy="913.6" r="0.16" fill="white" opacity="0.55"/>
<circle cx="136.7" cy="919.1" r="1.23" fill="url(#hole-rim)"/>
<circle cx="136.7" cy="919.1" r="0.63" fill="url(#hole-deep)"/>
<circle cx="136.7" cy="919.1" r="0.63" fill="none" stroke="#000" stroke-width="0.4" opacity="0.6"/>
<circle cx="136.9" cy="919.2" r="0.16" fill="white" opacity="0.55"/>
<circle cx="677.4" cy="681.4" r="1.23" fill="url(#hole-rim)"/>
<circle cx="677.4" cy="681.4" r="0.63" fill="url(#hole-deep)"/>
<circle cx="677.4" cy="681.4" r="0.63" fill="none" stroke="#000" stroke-width="0.4" opacity="0.6"/>
<circle cx="677.6" cy="681.6" r="0.16" fill="white" opacity="0.55"/>
<circle cx="680.0" cy="676.4" r="1.23" fill="url(#hole-rim)"/>
<circle cx="680.0" cy="676.4" r="0.63" fill="url(#hole-deep)"/>
<circle cx="680.0" cy="676.4" r="0.63" fill="none" stroke="#000" stroke-width="0.4" opacity="0.6"/>
<circle cx="680.2" cy="676.6" r="0.16" fill="white" opacity="0.55"/>
<circle cx="682.7" cy="671.4" r="1.23" fill="url(#hole-rim)"/>
<circle cx="682.7" cy="671.4" r="0.63" fill="url(#hole-deep)"/>
<circle cx="682.7" cy="671.4" r="0.63" fill="none" stroke="#000" stroke-width="0.4" opacity="0.6"/>
<circle cx="682.8" cy="671.6" r="0.16" fill="white" opacity="0.55"/>
<circle cx="235.4" cy="891.8" r="1.23" fill="url(#hole-rim)"/>
<circle cx="235.4" cy="891.8" r="0.63" fill="url(#hole-deep)"/>
<circle cx="235.4" cy="891.8" r="0.63" fill="none" stroke="#000" stroke-width="0.4" opacity="0.6"/>
<circle cx="235.5" cy="892.0" r="0.16" fill="white" opacity="0.55"/>
<circle cx="241.0" cy="891.8" r="1.23" fill="url(#hole-rim)"/>
<circle cx="241.0" cy="891.8" r="0.63" fill="url(#hole-deep)"/>
<circle cx="241.0" cy="891.8" r="0.63" fill="none" stroke="#000" stroke-width="0.4" opacity="0.6"/>
<circle cx="241.2" cy="892.0" r="0.16" fill="white" opacity="0.55"/>
<circle cx="246.7" cy="891.8" r="1.23" fill="url(#hole-rim)"/>
<circle cx="246.7" cy="891.8" r="0.63" fill="url(#hole-deep)"/>
<circle cx="246.7" cy="891.8" r="0.63" fill="none" stroke="#000" stroke-width="0.4" opacity="0.6"/>
<circle cx="246.8" cy="892.0" r="0.16" fill="white" opacity="0.55"/>
<circle cx="1175.4" cy="920.7" r="1.23" fill="url(#hole-rim)"/>
<circle cx="1175.4" cy="920.7" r="0.63" fill="url(#hole-deep)"/>
<circle cx="1175.4" cy="920.7" r="0.63" fill="none" stroke="#000" stroke-width="0.4" opacity="0.6"/>
<circle cx="1175.6" cy="920.9" r="0.16" fill="white" opacity="0.55"/>
<circle cx="1181.0" cy="920.7" r="1.23" fill="url(#hole-rim)"/>
<circle cx="1181.0" cy="920.7" r="0.63" fill="url(#hole-deep)"/>
<circle cx="1181.0" cy="920.7" r="0.63" fill="none" stroke="#000" stroke-width="0.4" opacity="0.6"/>
<circle cx="1181.2" cy="920.9" r="0.16" fill="white" opacity="0.55"/>
<circle cx="1186.7" cy="920.7" r="1.23" fill="url(#hole-rim)"/>
<circle cx="1186.7" cy="920.7" r="0.63" fill="url(#hole-deep)"/>
<circle cx="1186.7" cy="920.7" r="0.63" fill="none" stroke="#000" stroke-width="0.4" opacity="0.6"/>
<circle cx="1186.9" cy="920.9" r="0.16" fill="white" opacity="0.55"/>
<circle cx="661.6" cy="913.4" r="1.23" fill="url(#hole-rim)"/>
<circle cx="661.6" cy="913.4" r="0.63" fill="url(#hole-deep)"/>
<circle cx="661.6" cy="913.4" r="0.63" fill="none" stroke="#000" stroke-width="0.4" opacity="0.6"/>
<circle cx="661.8" cy="913.6" r="0.16" fill="white" opacity="0.55"/>
<circle cx="667.3" cy="913.4" r="1.23" fill="url(#hole-rim)"/>
<circle cx="667.3" cy="913.4" r="0.63" fill="url(#hole-deep)"/>
<circle cx="667.3" cy="913.4" r="0.63" fill="none" stroke="#000" stroke-width="0.4" opacity="0.6"/>
<circle cx="667.5" cy="913.6" r="0.16" fill="white" opacity="0.55"/>
<circle cx="672.9" cy="913.4" r="1.23" fill="url(#hole-rim)"/>
<circle cx="672.9" cy="913.4" r="0.63" fill="url(#hole-deep)"/>
<circle cx="672.9" cy="913.4" r="0.63" fill="none" stroke="#000" stroke-width="0.4" opacity="0.6"/>
<circle cx="673.1" cy="913.6" r="0.16" fill="white" opacity="0.55"/>
<rect x="1607" y="133" width="270" height="380" fill="rgba(0,0,0,0.18)" filter="url(#blur5)"/>
<rect x="1610" y="130" width="270" height="380" fill="white" stroke="#cbd5e0" rx="6"/>
<text x="1625" y="154" font-size="14" font-weight="700" fill="#1a202c">Tools shown</text>
<text x="1625" y="180" font-size="11" font-weight="700" fill="#374151">WEB HOLE — drilled</text>
<circle cx="1670" cy="210" r="4" fill="url(#hole-rim)"/>
<circle cx="1670" cy="210" r="3.4" fill="url(#hole-deep)"/>
<circle cx="1670" cy="210" r="3.4" fill="none" stroke="#000" stroke-width="0.4"/>
<circle cx="1670" cy="225" r="4" fill="url(#hole-rim)"/>
<circle cx="1670" cy="225" r="3.4" fill="url(#hole-deep)"/>
<circle cx="1670" cy="225" r="3.4" fill="none" stroke="#000" stroke-width="0.4"/>
<circle cx="1670" cy="240" r="4" fill="url(#hole-rim)"/>
<circle cx="1670" cy="240" r="3.4" fill="url(#hole-deep)"/>
<circle cx="1670" cy="240" r="3.4" fill="none" stroke="#000" stroke-width="0.4"/>
<text x="1760" y="210" font-size="10" fill="#374151">3 × Ø3.8 mm</text>
<text x="1760" y="224" font-size="10" fill="#374151">17 mm pitch</text>
<text x="1760" y="238" font-size="10" fill="#374151">on web ℄</text>
<text x="1625" y="280" font-size="11" font-weight="700" fill="#374151">SWAGE</text>
<rect x="1645.0" y="299.0" width="50" height="22" fill="url(#swage-press)" stroke="#2a3540" stroke-width="0.6"/>
<line x1="1650.0" y1="300.0" x2="1650.0" y2="320.0" stroke="white" stroke-width="0.4" opacity="0.5"/>
<line x1="1690.0" y1="300.0" x2="1690.0" y2="320.0" stroke="white" stroke-width="0.4" opacity="0.5"/>
<text x="1760" y="308" font-size="10" fill="#374151">10 × 30 mm</text>
<text x="1760" y="322" font-size="10" fill="#374151">pressed</text>
<text x="1625" y="360" font-size="11" font-weight="700" fill="#374151">LIP NOTCH</text>
<rect x="1645" y="373" width="50" height="10" fill="url(#bg)" stroke="#dc2626" stroke-width="0.7"/>
<rect x="1645" y="373" width="50" height="10" fill="url(#lip-cut-hatch)" opacity="0.7"/>
<rect x="1645" y="383" width="50" height="24" fill="#cccccc" stroke="#666" stroke-width="0.5" opacity="0.4"/>
<rect x="1645" y="407" width="50" height="10" fill="url(#bg)" stroke="#dc2626" stroke-width="0.7"/>
<rect x="1645" y="407" width="50" height="10" fill="url(#lip-cut-hatch)" opacity="0.7"/>
<text x="1760" y="390" font-size="10" fill="#374151">12 mm long</text>
<text x="1760" y="404" font-size="10" fill="#374151">cuts both lips</text>
<text x="1760" y="418" font-size="10" fill="#374151">at end of web</text>
<text x="1625" y="455" font-size="11" font-weight="700" fill="#374151">Frame stats</text>
<text x="1625" y="475" font-size="10" fill="#4a5568">Members: 10 | Nodes: 9</text>
<text x="1625" y="491" font-size="10" fill="#4a5568">Web holes: 27 (3/node)</text>
<text x="1625" y="507" font-size="10" fill="#4a5568">Swages: 40 | Lip notches: 9</text>
</svg>