<svg xmlns="http://www.w3.org/2000/svg" width="1900" height="1100" viewBox="0 0 1900 1100" font-family="Segoe UI, Arial, sans-serif">
<defs>
      <pattern id="cf" patternUnits="userSpaceOnUse" width="6" height="6" patternTransform="rotate(-45)">
        <rect width="6" height="6" fill="#dbeafe"/><line x1="0" y1="0" x2="0" y2="6" stroke="#93c5fd" stroke-width="0.6"/>
      </pattern>
      <pattern id="wf" patternUnits="userSpaceOnUse" width="6" height="6" patternTransform="rotate(45)">
        <rect width="6" height="6" fill="#e2e8f0"/><line x1="0" y1="0" x2="0" y2="6" stroke="#94a3b8" stroke-width="0.6"/>
      </pattern>
      <pattern id="cut-hatch" patternUnits="userSpaceOnUse" width="4" height="4" patternTransform="rotate(45)">
        <line x1="0" y1="0" x2="0" y2="4" stroke="#dc2626" stroke-width="0.8"/>
      </pattern>
    </defs>
<rect width="1900" height="1100" fill="white"/>
<text x="40" y="44" font-size="26" font-weight="700" fill="#1a202c">Truss frame TN2-1 with REAL FrameCAD tools</text>
<text x="40" y="70" font-size="14" fill="#4a5568">Profile F37008 W089 F41-38 (89×41 lipped C, 0.75mm). WEB HOLE tool (3 × Ø3.8mm) at every centreline crossing.</text>
<text x="40" y="94" font-size="13" fill="#374151">10 members &middot; 21 centreline crossings &rarr; 9 junction nodes &rarr; 27 total Ø3.8mm holes (3 per junction)</text>
<polygon points="1736.5,258.5 1747.6,231.6 1706.7,214.7 1695.6,241.5" fill="url(#cf)" stroke="#1d4ed8" stroke-width="1.4" opacity="0.95"/>
<polygon points="1724.9,241.5 1713.7,214.7 152.4,861.4 163.5,888.3" fill="url(#cf)" stroke="#1d4ed8" stroke-width="1.4" opacity="0.95"/>
<polygon points="1747.6,292.7 1747.6,263.6 1595.5,263.6 1595.5,292.7" fill="url(#cf)" stroke="#1d4ed8" stroke-width="1.4" opacity="0.95"/>
<polygon points="1747.6,892.9 1747.6,863.8 152.4,863.8 152.4,892.9" fill="url(#cf)" stroke="#1d4ed8" stroke-width="1.4" opacity="0.95"/>
<polygon points="1718.5,891.9 1747.6,891.9 1747.6,231.6 1718.5,231.6" fill="url(#wf)" stroke="#475569" stroke-width="1.2" opacity="0.85"/>
<polygon points="1693.1,896.1 1713.2,875.1 1232.1,414.1 1212.0,435.2" fill="url(#wf)" stroke="#475569" stroke-width="1.2" opacity="0.85"/>
<polygon points="1176.4,888.1 1205.5,888.1 1205.5,437.1 1176.4,437.1" fill="url(#wf)" stroke="#475569" stroke-width="1.2" opacity="0.85"/>
<polygon points="1152.1,895.8 1165.7,870.0 707.4,629.0 693.9,654.7" fill="url(#wf)" stroke="#475569" stroke-width="1.2" opacity="0.85"/>
<polygon points="657.2,888.1 686.3,888.1 686.3,652.2 657.2,652.2" fill="url(#wf)" stroke="#475569" stroke-width="1.2" opacity="0.85"/>
<polygon points="237.6,888.1 266.7,888.1 266.7,826.0 237.6,826.0" fill="url(#wf)" stroke="#475569" stroke-width="1.2" opacity="0.85"/>
<line x1="1742.1" y1="245.0" x2="1701.2" y2="228.1" stroke="#1d4ed8" stroke-width="0.8" stroke-dasharray="5 3" opacity="0.5"/>
<line x1="1733.1" y1="891.9" x2="1733.1" y2="231.6" stroke="#334155" stroke-width="0.8" stroke-dasharray="5 3" opacity="0.5"/>
<line x1="1719.3" y1="228.1" x2="157.9" y2="874.8" stroke="#1d4ed8" stroke-width="0.8" stroke-dasharray="5 3" opacity="0.5"/>
<line x1="1747.6" y1="278.2" x2="1595.5" y2="278.2" stroke="#1d4ed8" stroke-width="0.8" stroke-dasharray="5 3" opacity="0.5"/>
<line x1="1703.2" y1="885.6" x2="1222.0" y2="424.7" stroke="#334155" stroke-width="0.8" stroke-dasharray="5 3" opacity="0.5"/>
<line x1="1747.6" y1="878.3" x2="152.4" y2="878.3" stroke="#1d4ed8" stroke-width="0.8" stroke-dasharray="5 3" opacity="0.5"/>
<line x1="1191.0" y1="888.1" x2="1191.0" y2="437.1" stroke="#334155" stroke-width="0.8" stroke-dasharray="5 3" opacity="0.5"/>
<line x1="1158.9" y1="882.9" x2="700.7" y2="641.9" stroke="#334155" stroke-width="0.8" stroke-dasharray="5 3" opacity="0.5"/>
<line x1="671.7" y1="888.1" x2="671.7" y2="652.2" stroke="#334155" stroke-width="0.8" stroke-dasharray="5 3" opacity="0.5"/>
<line x1="252.1" y1="888.1" x2="252.1" y2="826.0" stroke="#334155" stroke-width="0.8" stroke-dasharray="5 3" opacity="0.5"/>
<line x1="1733.1" y1="891.9" x2="1733.1" y2="231.6" stroke="#a855f7" stroke-width="1.6" opacity="0.6"/>
<line x1="1703.2" y1="885.6" x2="1222.0" y2="424.7" stroke="#a855f7" stroke-width="1.6" opacity="0.6"/>
<line x1="1191.0" y1="888.1" x2="1191.0" y2="437.1" stroke="#a855f7" stroke-width="1.6" opacity="0.6"/>
<line x1="1158.9" y1="882.9" x2="700.7" y2="641.9" stroke="#a855f7" stroke-width="1.6" opacity="0.6"/>
<line x1="671.7" y1="888.1" x2="671.7" y2="652.2" stroke="#a855f7" stroke-width="1.6" opacity="0.6"/>
<line x1="252.1" y1="888.1" x2="252.1" y2="826.0" stroke="#a855f7" stroke-width="1.6" opacity="0.6"/>
<text x="1721.6" y="236.6" font-size="13" font-weight="700" text-anchor="middle" fill="#0f172a" stroke="white" stroke-width="3.5" paint-order="stroke">T2</text>
<text x="1733.1" y="561.7" font-size="13" font-weight="700" text-anchor="middle" fill="#0f172a" stroke="white" stroke-width="3.5" paint-order="stroke">W5</text>
<text x="938.6" y="551.5" font-size="13" font-weight="700" text-anchor="middle" fill="#0f172a" stroke="white" stroke-width="3.5" paint-order="stroke">T3</text>
<text x="1671.5" y="278.2" font-size="13" font-weight="700" text-anchor="middle" fill="#0f172a" stroke="white" stroke-width="3.5" paint-order="stroke">C4</text>
<text x="1462.6" y="655.1" font-size="13" font-weight="700" text-anchor="middle" fill="#0f172a" stroke="white" stroke-width="3.5" paint-order="stroke">W6</text>
<text x="950.0" y="878.3" font-size="13" font-weight="700" text-anchor="middle" fill="#0f172a" stroke="white" stroke-width="3.5" paint-order="stroke">B1</text>
<text x="1191.0" y="662.6" font-size="13" font-weight="700" text-anchor="middle" fill="#0f172a" stroke="white" stroke-width="3.5" paint-order="stroke">W7</text>
<text x="929.8" y="762.4" font-size="13" font-weight="700" text-anchor="middle" fill="#0f172a" stroke="white" stroke-width="3.5" paint-order="stroke">W8</text>
<text x="671.7" y="770.2" font-size="13" font-weight="700" text-anchor="middle" fill="#0f172a" stroke="white" stroke-width="3.5" paint-order="stroke">W9</text>
<text x="252.1" y="857.1" font-size="13" font-weight="700" text-anchor="middle" fill="#0f172a" stroke="white" stroke-width="3.5" paint-order="stroke">W10</text>
<rect x="1725.4" y="236.2" width="3.9" height="14.4" transform="rotate(-90.0 1727.4 243.4)" fill="rgba(22,163,74,0.08)" stroke="#16a34a" stroke-width="0.7" stroke-dasharray="2 2" opacity="0.7"/>
<circle cx="1721.8" cy="243.4" r="0.62" fill="white" stroke="#16a34a" stroke-width="1.5"/>
<circle cx="1727.4" cy="243.4" r="0.62" fill="white" stroke="#16a34a" stroke-width="1.5"/>
<circle cx="1732.9" cy="243.4" r="0.62" fill="white" stroke="#16a34a" stroke-width="1.5"/>
<rect x="1718.6" y="883.1" width="3.9" height="14.4" transform="rotate(-90.0 1720.6 890.3)" fill="rgba(22,163,74,0.08)" stroke="#16a34a" stroke-width="0.7" stroke-dasharray="2 2" opacity="0.7"/>
<circle cx="1715.0" cy="890.3" r="0.62" fill="white" stroke="#16a34a" stroke-width="1.5"/>
<circle cx="1720.6" cy="890.3" r="0.62" fill="white" stroke="#16a34a" stroke-width="1.5"/>
<circle cx="1726.1" cy="890.3" r="0.62" fill="white" stroke="#16a34a" stroke-width="1.5"/>
<rect x="1596.4" y="271.0" width="3.9" height="14.4" transform="rotate(0.0 1598.4 278.2)" fill="rgba(22,163,74,0.08)" stroke="#16a34a" stroke-width="0.7" stroke-dasharray="2 2" opacity="0.7"/>
<circle cx="1598.4" cy="272.6" r="0.62" fill="white" stroke="#16a34a" stroke-width="1.5"/>
<circle cx="1598.4" cy="278.2" r="0.62" fill="white" stroke="#16a34a" stroke-width="1.5"/>
<circle cx="1598.4" cy="283.8" r="0.62" fill="white" stroke="#16a34a" stroke-width="1.5"/>
<rect x="1201.7" y="417.2" width="3.9" height="14.4" transform="rotate(-136.2 1203.6 424.4)" fill="rgba(22,163,74,0.08)" stroke="#16a34a" stroke-width="0.7" stroke-dasharray="2 2" opacity="0.7"/>
<circle cx="1199.8" cy="428.4" r="0.62" fill="white" stroke="#16a34a" stroke-width="1.5"/>
<circle cx="1203.6" cy="424.4" r="0.62" fill="white" stroke="#16a34a" stroke-width="1.5"/>
<circle cx="1207.5" cy="420.3" r="0.62" fill="white" stroke="#16a34a" stroke-width="1.5"/>
<rect x="147.5" y="871.1" width="3.9" height="14.4" transform="rotate(0.0 149.5 878.3)" fill="rgba(22,163,74,0.08)" stroke="#16a34a" stroke-width="0.7" stroke-dasharray="2 2" opacity="0.7"/>
<circle cx="149.5" cy="872.8" r="0.62" fill="white" stroke="#16a34a" stroke-width="1.5"/>
<circle cx="149.5" cy="878.3" r="0.62" fill="white" stroke="#16a34a" stroke-width="1.5"/>
<circle cx="149.5" cy="883.9" r="0.62" fill="white" stroke="#16a34a" stroke-width="1.5"/>
<rect x="682.3" y="637.8" width="3.9" height="14.4" transform="rotate(-152.3 684.3 645.0)" fill="rgba(22,163,74,0.08)" stroke="#16a34a" stroke-width="0.7" stroke-dasharray="2 2" opacity="0.7"/>
<circle cx="681.7" cy="649.9" r="0.62" fill="white" stroke="#16a34a" stroke-width="1.5"/>
<circle cx="684.3" cy="645.0" r="0.62" fill="white" stroke="#16a34a" stroke-width="1.5"/>
<circle cx="686.8" cy="640.1" r="0.62" fill="white" stroke="#16a34a" stroke-width="1.5"/>
<rect x="250.2" y="849.9" width="3.9" height="14.4" transform="rotate(-90.0 252.1 857.1)" fill="rgba(22,163,74,0.08)" stroke="#16a34a" stroke-width="0.7" stroke-dasharray="2 2" opacity="0.7"/>
<circle cx="246.6" cy="857.1" r="0.62" fill="white" stroke="#16a34a" stroke-width="1.5"/>
<circle cx="252.1" cy="857.1" r="0.62" fill="white" stroke="#16a34a" stroke-width="1.5"/>
<circle cx="257.7" cy="857.1" r="0.62" fill="white" stroke="#16a34a" stroke-width="1.5"/>
<rect x="1175.4" y="878.3" width="3.9" height="14.4" transform="rotate(-90.0 1177.4 885.5)" fill="rgba(22,163,74,0.08)" stroke="#16a34a" stroke-width="0.7" stroke-dasharray="2 2" opacity="0.7"/>
<circle cx="1171.8" cy="885.5" r="0.62" fill="white" stroke="#16a34a" stroke-width="1.5"/>
<circle cx="1177.4" cy="885.5" r="0.62" fill="white" stroke="#16a34a" stroke-width="1.5"/>
<circle cx="1183.0" cy="885.5" r="0.62" fill="white" stroke="#16a34a" stroke-width="1.5"/>
<rect x="669.8" y="871.1" width="3.9" height="14.4" transform="rotate(-90.0 671.7 878.3)" fill="rgba(22,163,74,0.08)" stroke="#16a34a" stroke-width="0.7" stroke-dasharray="2 2" opacity="0.7"/>
<circle cx="666.2" cy="878.3" r="0.62" fill="white" stroke="#16a34a" stroke-width="1.5"/>
<circle cx="671.7" cy="878.3" r="0.62" fill="white" stroke="#16a34a" stroke-width="1.5"/>
<circle cx="677.3" cy="878.3" r="0.62" fill="white" stroke="#16a34a" stroke-width="1.5"/>
<rect x="1630" y="130" width="240" height="180" fill="#f8fafc" stroke="#e2e8f0" rx="4"/>
<text x="1642" y="152" font-size="13" font-weight="700" fill="#1a202c">Real FrameCAD tools</text>
<text x="1642" y="174" font-size="11" fill="#374151" font-weight="600">WEB HOLE — 3 × Ø3.8mm</text>
<circle cx="1649.8" cy="192" r="2" fill="white" stroke="#16a34a" stroke-width="1.3"/>
<circle cx="1660.0" cy="192" r="2" fill="white" stroke="#16a34a" stroke-width="1.3"/>
<circle cx="1670.2" cy="192" r="2" fill="white" stroke="#16a34a" stroke-width="1.3"/>
<text x="1720" y="196" font-size="10" fill="#374151">at 17mm spacing</text>
<text x="1642" y="222" font-size="11" fill="#374151" font-weight="600">SWAGE — centre crimp</text>
<line x1="1642" y1="238" x2="1710" y2="238" stroke="#a855f7" stroke-width="1.6" opacity="0.6"/>
<text x="1720" y="242" font-size="10" fill="#374151">continuous</text>
<text x="1642" y="268" font-size="11" fill="#374151" font-weight="600">Other tools shown:</text>
<text x="1642" y="284" font-size="10" fill="#6b7280">LIP CUT, FLANGE CUT, SERVICE</text>
<text x="1642" y="298" font-size="10" fill="#6b7280">HOLE (Ø32), DIMPLE (Ø5.1)</text>
</svg>