<svg xmlns="http://www.w3.org/2000/svg" width="1980" height="373" viewBox="0 0 1980 373" font-family="Segoe UI, Arial, sans-serif">
<defs>
<pattern id="chord-fill" patternUnits="userSpaceOnUse" width="6" height="6" patternTransform="rotate(-45)"><rect width="6" height="6" fill="#dbeafe"/><line x1="0" y1="0" x2="0" y2="6" stroke="#93c5fd" stroke-width="0.6"/></pattern>
<pattern id="web-fill" patternUnits="userSpaceOnUse" width="6" height="6" patternTransform="rotate(45)"><rect width="6" height="6" fill="#e2e8f0"/><line x1="0" y1="0" x2="0" y2="6" stroke="#94a3b8" stroke-width="0.6"/></pattern>
</defs>
<rect width="1980" height="373" fill="#fafaf8"/>
<text x="20" y="32" font-size="20" font-weight="700" fill="#1a202c">Frame TT1-1 - plan GF-LIN-89.075</text>
<text x="20" y="54" font-size="12" fill="#4a5568">15 sticks. Same scale, both panels.</text>
<text x="485" y="92" text-anchor="middle" font-size="15" font-weight="700" fill="#7f1d1d">ORIGINAL - FrameCAD CSV BOLT HOLES (red dots)</text>
<text x="1495" y="92" text-anchor="middle" font-size="15" font-weight="700" fill="#14532d">SIMPLIFIED - centreline-intersection 3-hole pattern (green)</text>
<rect x="40" y="110" width="890.7" height="153.4" fill="none" stroke="#cbd5e0" stroke-width="0.8"/>
<rect x="1049.3" y="110" width="890.7" height="153.4" fill="none" stroke="#cbd5e0" stroke-width="0.8"/>
<polygon points="77.1,153.1 77.1,166.3 753.4,166.3 753.4,153.1" fill="url(#chord-fill)" stroke="#1d4ed8" stroke-width="1.4" opacity="0.95"/>
<polygon points="77.1,213.6 77.1,226.8 893.7,226.8 893.7,213.6" fill="url(#chord-fill)" stroke="#1d4ed8" stroke-width="1.4" opacity="0.95"/>
<polygon points="721.0,141.0 715.9,153.1 888.6,224.7 893.7,212.5" fill="url(#chord-fill)" stroke="#1d4ed8" stroke-width="1.4" opacity="0.95"/>
<polygon points="75.1,226.3 88.3,226.3 88.3,155.2 75.1,155.2" fill="url(#web-fill)" stroke="#475569" stroke-width="1.2" opacity="0.85"/>
<polygon points="91.4,216.0 99.1,226.7 187.9,162.5 180.2,151.8" fill="url(#web-fill)" stroke="#475569" stroke-width="1.2" opacity="0.85"/>
<polygon points="190.8,224.6 204.0,224.6 204.0,155.2 190.8,155.2" fill="url(#web-fill)" stroke="#475569" stroke-width="1.2" opacity="0.85"/>
<polygon points="209.0,216.0 216.8,226.7 305.8,162.5 298.0,151.8" fill="url(#web-fill)" stroke="#475569" stroke-width="1.2" opacity="0.85"/>
<polygon points="308.6,224.6 321.8,224.6 321.8,155.2 308.6,155.2" fill="url(#web-fill)" stroke="#475569" stroke-width="1.2" opacity="0.85"/>
<polygon points="326.9,216.0 335.0,226.4 417.3,162.2 409.2,151.8" fill="url(#web-fill)" stroke="#475569" stroke-width="1.2" opacity="0.85"/>
<polygon points="419.8,224.6 433.0,224.6 433.0,155.2 419.8,155.2" fill="url(#web-fill)" stroke="#475569" stroke-width="1.2" opacity="0.85"/>
<polygon points="438.0,216.0 443.6,228.0 583.3,163.8 577.8,151.8" fill="url(#web-fill)" stroke="#475569" stroke-width="1.2" opacity="0.85"/>
<polygon points="588.4,224.6 601.6,224.6 601.6,155.2 588.4,155.2" fill="url(#web-fill)" stroke="#475569" stroke-width="1.2" opacity="0.85"/>
<polygon points="746.4,228.0 751.9,216.0 612.2,151.8 606.7,163.8" fill="url(#web-fill)" stroke="#475569" stroke-width="1.2" opacity="0.85"/>
<polygon points="757.0,224.6 770.2,224.6 770.2,161.3 757.0,161.3" fill="url(#web-fill)" stroke="#475569" stroke-width="1.2" opacity="0.85"/>
<polygon points="841.8,224.6 855.0,224.6 855.0,196.4 841.8,196.4" fill="url(#web-fill)" stroke="#475569" stroke-width="1.2" opacity="0.85"/>
<line x1="77.1" y1="159.7" x2="753.4" y2="159.7" stroke="#1d4ed8" stroke-width="0.6" stroke-dasharray="4 3" opacity="0.55"/>
<line x1="81.7" y1="226.3" x2="81.7" y2="155.2" stroke="#334155" stroke-width="0.6" stroke-dasharray="4 3" opacity="0.55"/>
<line x1="95.2" y1="221.4" x2="184.0" y2="157.2" stroke="#334155" stroke-width="0.6" stroke-dasharray="4 3" opacity="0.55"/>
<line x1="77.1" y1="220.2" x2="893.7" y2="220.2" stroke="#1d4ed8" stroke-width="0.6" stroke-dasharray="4 3" opacity="0.55"/>
<line x1="197.4" y1="224.6" x2="197.4" y2="155.2" stroke="#334155" stroke-width="0.6" stroke-dasharray="4 3" opacity="0.55"/>
<line x1="212.9" y1="221.4" x2="301.9" y2="157.2" stroke="#334155" stroke-width="0.6" stroke-dasharray="4 3" opacity="0.55"/>
<line x1="315.2" y1="224.6" x2="315.2" y2="155.2" stroke="#334155" stroke-width="0.6" stroke-dasharray="4 3" opacity="0.55"/>
<line x1="331.0" y1="221.2" x2="413.2" y2="157.0" stroke="#334155" stroke-width="0.6" stroke-dasharray="4 3" opacity="0.55"/>
<line x1="426.4" y1="224.6" x2="426.4" y2="155.2" stroke="#334155" stroke-width="0.6" stroke-dasharray="4 3" opacity="0.55"/>
<line x1="440.8" y1="222.0" x2="580.6" y2="157.8" stroke="#334155" stroke-width="0.6" stroke-dasharray="4 3" opacity="0.55"/>
<line x1="595.0" y1="224.6" x2="595.0" y2="155.2" stroke="#334155" stroke-width="0.6" stroke-dasharray="4 3" opacity="0.55"/>
<line x1="749.2" y1="222.0" x2="609.4" y2="157.8" stroke="#334155" stroke-width="0.6" stroke-dasharray="4 3" opacity="0.55"/>
<line x1="718.5" y1="147.1" x2="891.1" y2="218.6" stroke="#1d4ed8" stroke-width="0.6" stroke-dasharray="4 3" opacity="0.55"/>
<line x1="763.6" y1="224.6" x2="763.6" y2="161.3" stroke="#334155" stroke-width="0.6" stroke-dasharray="4 3" opacity="0.55"/>
<line x1="848.4" y1="224.6" x2="848.4" y2="196.4" stroke="#334155" stroke-width="0.6" stroke-dasharray="4 3" opacity="0.55"/>
<circle cx="81.7" cy="217.6" r="2.4" fill="#dc2626" stroke="#7f1d1d" stroke-width="0.6"/>
<circle cx="81.7" cy="214.9" r="2.4" fill="#dc2626" stroke="#7f1d1d" stroke-width="0.6"/>
<circle cx="81.7" cy="165.0" r="2.4" fill="#dc2626" stroke="#7f1d1d" stroke-width="0.6"/>
<circle cx="81.7" cy="162.2" r="2.4" fill="#dc2626" stroke="#7f1d1d" stroke-width="0.6"/>
<circle cx="81.7" cy="220.2" r="2.4" fill="#dc2626" stroke="#7f1d1d" stroke-width="0.6"/>
<circle cx="100.4" cy="220.2" r="2.4" fill="#dc2626" stroke="#7f1d1d" stroke-width="0.6"/>
<circle cx="197.4" cy="220.2" r="2.4" fill="#dc2626" stroke="#7f1d1d" stroke-width="0.6"/>
<circle cx="218.1" cy="220.2" r="2.4" fill="#dc2626" stroke="#7f1d1d" stroke-width="0.6"/>
<circle cx="315.2" cy="220.2" r="2.4" fill="#dc2626" stroke="#7f1d1d" stroke-width="0.6"/>
<circle cx="335.5" cy="220.2" r="2.4" fill="#dc2626" stroke="#7f1d1d" stroke-width="0.6"/>
<circle cx="426.4" cy="220.2" r="2.4" fill="#dc2626" stroke="#7f1d1d" stroke-width="0.6"/>
<circle cx="450.3" cy="220.2" r="2.4" fill="#dc2626" stroke="#7f1d1d" stroke-width="0.6"/>
<circle cx="595.0" cy="220.2" r="2.4" fill="#dc2626" stroke="#7f1d1d" stroke-width="0.6"/>
<circle cx="739.7" cy="220.2" r="2.4" fill="#dc2626" stroke="#7f1d1d" stroke-width="0.6"/>
<circle cx="763.6" cy="220.2" r="2.4" fill="#dc2626" stroke="#7f1d1d" stroke-width="0.6"/>
<circle cx="848.4" cy="220.2" r="2.4" fill="#dc2626" stroke="#7f1d1d" stroke-width="0.6"/>
<circle cx="882.3" cy="220.2" r="2.4" fill="#dc2626" stroke="#7f1d1d" stroke-width="0.6"/>
<circle cx="81.7" cy="159.7" r="2.4" fill="#dc2626" stroke="#7f1d1d" stroke-width="0.6"/>
<circle cx="177.1" cy="159.7" r="2.4" fill="#dc2626" stroke="#7f1d1d" stroke-width="0.6"/>
<circle cx="197.4" cy="159.7" r="2.4" fill="#dc2626" stroke="#7f1d1d" stroke-width="0.6"/>
<circle cx="294.9" cy="159.7" r="2.4" fill="#dc2626" stroke="#7f1d1d" stroke-width="0.6"/>
<circle cx="315.2" cy="159.7" r="2.4" fill="#dc2626" stroke="#7f1d1d" stroke-width="0.6"/>
<circle cx="406.6" cy="159.7" r="2.4" fill="#dc2626" stroke="#7f1d1d" stroke-width="0.6"/>
<circle cx="426.4" cy="159.7" r="2.4" fill="#dc2626" stroke="#7f1d1d" stroke-width="0.6"/>
<circle cx="571.0" cy="159.7" r="2.4" fill="#dc2626" stroke="#7f1d1d" stroke-width="0.6"/>
<circle cx="595.0" cy="159.7" r="2.4" fill="#dc2626" stroke="#7f1d1d" stroke-width="0.6"/>
<circle cx="618.9" cy="159.7" r="2.4" fill="#dc2626" stroke="#7f1d1d" stroke-width="0.6"/>
<circle cx="736.3" cy="159.7" r="2.4" fill="#dc2626" stroke="#7f1d1d" stroke-width="0.6"/>
<circle cx="100.4" cy="217.6" r="2.4" fill="#dc2626" stroke="#7f1d1d" stroke-width="0.6"/>
<circle cx="107.0" cy="212.8" r="2.4" fill="#dc2626" stroke="#7f1d1d" stroke-width="0.6"/>
<circle cx="170.6" cy="166.9" r="2.4" fill="#dc2626" stroke="#7f1d1d" stroke-width="0.6"/>
<circle cx="177.2" cy="162.1" r="2.4" fill="#dc2626" stroke="#7f1d1d" stroke-width="0.6"/>
<circle cx="197.4" cy="217.6" r="2.4" fill="#dc2626" stroke="#7f1d1d" stroke-width="0.6"/>
<circle cx="197.4" cy="214.9" r="2.4" fill="#dc2626" stroke="#7f1d1d" stroke-width="0.6"/>
<circle cx="197.4" cy="165.0" r="2.4" fill="#dc2626" stroke="#7f1d1d" stroke-width="0.6"/>
<circle cx="197.4" cy="162.2" r="2.4" fill="#dc2626" stroke="#7f1d1d" stroke-width="0.6"/>
<circle cx="335.5" cy="217.6" r="2.4" fill="#dc2626" stroke="#7f1d1d" stroke-width="0.6"/>
<circle cx="341.6" cy="212.9" r="2.4" fill="#dc2626" stroke="#7f1d1d" stroke-width="0.6"/>
<circle cx="400.6" cy="166.9" r="2.4" fill="#dc2626" stroke="#7f1d1d" stroke-width="0.6"/>
<circle cx="406.6" cy="162.2" r="2.4" fill="#dc2626" stroke="#7f1d1d" stroke-width="0.6"/>
<circle cx="450.3" cy="217.6" r="2.4" fill="#dc2626" stroke="#7f1d1d" stroke-width="0.6"/>
<circle cx="461.3" cy="212.6" r="2.4" fill="#dc2626" stroke="#7f1d1d" stroke-width="0.6"/>
<circle cx="560.1" cy="167.2" r="2.4" fill="#dc2626" stroke="#7f1d1d" stroke-width="0.6"/>
<circle cx="571.0" cy="162.2" r="2.4" fill="#dc2626" stroke="#7f1d1d" stroke-width="0.6"/>
<circle cx="730.6" cy="152.1" r="2.4" fill="#dc2626" stroke="#7f1d1d" stroke-width="0.6"/>
<circle cx="737.3" cy="154.8" r="2.4" fill="#dc2626" stroke="#7f1d1d" stroke-width="0.6"/>
<circle cx="741.9" cy="156.8" r="2.4" fill="#dc2626" stroke="#7f1d1d" stroke-width="0.6"/>
<circle cx="764.6" cy="166.2" r="2.4" fill="#dc2626" stroke="#7f1d1d" stroke-width="0.6"/>
<circle cx="849.4" cy="201.3" r="2.4" fill="#dc2626" stroke="#7f1d1d" stroke-width="0.6"/>
<circle cx="876.6" cy="212.6" r="2.4" fill="#dc2626" stroke="#7f1d1d" stroke-width="0.6"/>
<circle cx="883.3" cy="215.3" r="2.4" fill="#dc2626" stroke="#7f1d1d" stroke-width="0.6"/>
<circle cx="887.9" cy="217.2" r="2.4" fill="#dc2626" stroke="#7f1d1d" stroke-width="0.6"/>
<circle cx="763.6" cy="217.6" r="2.4" fill="#dc2626" stroke="#7f1d1d" stroke-width="0.6"/>
<circle cx="763.6" cy="214.9" r="2.4" fill="#dc2626" stroke="#7f1d1d" stroke-width="0.6"/>
<circle cx="763.6" cy="172.5" r="2.4" fill="#dc2626" stroke="#7f1d1d" stroke-width="0.6"/>
<circle cx="763.6" cy="170.4" r="2.4" fill="#dc2626" stroke="#7f1d1d" stroke-width="0.6"/>
<circle cx="763.6" cy="168.5" r="2.4" fill="#dc2626" stroke="#7f1d1d" stroke-width="0.6"/>
<circle cx="848.4" cy="217.6" r="2.4" fill="#dc2626" stroke="#7f1d1d" stroke-width="0.6"/>
<circle cx="848.4" cy="214.9" r="2.4" fill="#dc2626" stroke="#7f1d1d" stroke-width="0.6"/>
<circle cx="848.4" cy="207.6" r="2.4" fill="#dc2626" stroke="#7f1d1d" stroke-width="0.6"/>
<circle cx="848.4" cy="205.5" r="2.4" fill="#dc2626" stroke="#7f1d1d" stroke-width="0.6"/>
<circle cx="848.4" cy="203.6" r="2.4" fill="#dc2626" stroke="#7f1d1d" stroke-width="0.6"/>
<text x="415.2" y="155.7" font-size="11" font-weight="700" text-anchor="middle" fill="#0f172a" stroke="white" stroke-width="3.2" paint-order="stroke">H3</text>
<text x="415.2" y="168.7" font-size="9" font-weight="600" text-anchor="middle" fill="#7f1d1d" stroke="white" stroke-width="2.6" paint-order="stroke">11 bolts</text>
<text x="81.7" y="186.8" font-size="11" font-weight="700" text-anchor="middle" fill="#0f172a" stroke="white" stroke-width="3.2" paint-order="stroke">W4</text>
<text x="81.7" y="199.8" font-size="9" font-weight="600" text-anchor="middle" fill="#7f1d1d" stroke="white" stroke-width="2.6" paint-order="stroke">4 bolts</text>
<text x="139.6" y="185.3" font-size="11" font-weight="700" text-anchor="middle" fill="#0f172a" stroke="white" stroke-width="3.2" paint-order="stroke">W5</text>
<text x="139.6" y="198.3" font-size="9" font-weight="600" text-anchor="middle" fill="#7f1d1d" stroke="white" stroke-width="2.6" paint-order="stroke">4 bolts</text>
<text x="485.4" y="216.2" font-size="11" font-weight="700" text-anchor="middle" fill="#0f172a" stroke="white" stroke-width="3.2" paint-order="stroke">B1</text>
<text x="485.4" y="229.2" font-size="9" font-weight="600" text-anchor="middle" fill="#7f1d1d" stroke="white" stroke-width="2.6" paint-order="stroke">13 bolts</text>
<text x="197.4" y="185.9" font-size="11" font-weight="700" text-anchor="middle" fill="#0f172a" stroke="white" stroke-width="3.2" paint-order="stroke">W6</text>
<text x="197.4" y="198.9" font-size="9" font-weight="600" text-anchor="middle" fill="#7f1d1d" stroke="white" stroke-width="2.6" paint-order="stroke">4 bolts</text>
<text x="257.4" y="185.3" font-size="11" font-weight="700" text-anchor="middle" fill="#0f172a" stroke="white" stroke-width="3.2" paint-order="stroke">W5</text>
<text x="257.4" y="198.3" font-size="9" font-weight="600" text-anchor="middle" fill="#7f1d1d" stroke="white" stroke-width="2.6" paint-order="stroke">0 bolts</text>
<text x="315.2" y="185.9" font-size="11" font-weight="700" text-anchor="middle" fill="#0f172a" stroke="white" stroke-width="3.2" paint-order="stroke">W6</text>
<text x="315.2" y="198.9" font-size="9" font-weight="600" text-anchor="middle" fill="#7f1d1d" stroke="white" stroke-width="2.6" paint-order="stroke">0 bolts</text>
<text x="372.1" y="185.1" font-size="11" font-weight="700" text-anchor="middle" fill="#0f172a" stroke="white" stroke-width="3.2" paint-order="stroke">W7</text>
<text x="372.1" y="198.1" font-size="9" font-weight="600" text-anchor="middle" fill="#7f1d1d" stroke="white" stroke-width="2.6" paint-order="stroke">4 bolts</text>
<text x="426.4" y="185.9" font-size="11" font-weight="700" text-anchor="middle" fill="#0f172a" stroke="white" stroke-width="3.2" paint-order="stroke">W6</text>
<text x="426.4" y="198.9" font-size="9" font-weight="600" text-anchor="middle" fill="#7f1d1d" stroke="white" stroke-width="2.6" paint-order="stroke">0 bolts</text>
<text x="510.7" y="185.9" font-size="11" font-weight="700" text-anchor="middle" fill="#0f172a" stroke="white" stroke-width="3.2" paint-order="stroke">W8</text>
<text x="510.7" y="198.9" font-size="9" font-weight="600" text-anchor="middle" fill="#7f1d1d" stroke="white" stroke-width="2.6" paint-order="stroke">4 bolts</text>
<text x="595.0" y="185.9" font-size="11" font-weight="700" text-anchor="middle" fill="#0f172a" stroke="white" stroke-width="3.2" paint-order="stroke">W6</text>
<text x="595.0" y="198.9" font-size="9" font-weight="600" text-anchor="middle" fill="#7f1d1d" stroke="white" stroke-width="2.6" paint-order="stroke">0 bolts</text>
<text x="679.3" y="185.9" font-size="11" font-weight="700" text-anchor="middle" fill="#0f172a" stroke="white" stroke-width="3.2" paint-order="stroke">W8</text>
<text x="679.3" y="198.9" font-size="9" font-weight="600" text-anchor="middle" fill="#7f1d1d" stroke="white" stroke-width="2.6" paint-order="stroke">0 bolts</text>
<text x="804.8" y="178.8" font-size="11" font-weight="700" text-anchor="middle" fill="#0f172a" stroke="white" stroke-width="3.2" paint-order="stroke">T2</text>
<text x="804.8" y="191.8" font-size="9" font-weight="600" text-anchor="middle" fill="#7f1d1d" stroke="white" stroke-width="2.6" paint-order="stroke">8 bolts</text>
<text x="763.6" y="189.0" font-size="11" font-weight="700" text-anchor="middle" fill="#0f172a" stroke="white" stroke-width="3.2" paint-order="stroke">W9</text>
<text x="763.6" y="202.0" font-size="9" font-weight="600" text-anchor="middle" fill="#7f1d1d" stroke="white" stroke-width="2.6" paint-order="stroke">5 bolts</text>
<text x="848.4" y="206.5" font-size="11" font-weight="700" text-anchor="middle" fill="#0f172a" stroke="white" stroke-width="3.2" paint-order="stroke">W10</text>
<text x="848.4" y="219.5" font-size="9" font-weight="600" text-anchor="middle" fill="#7f1d1d" stroke="white" stroke-width="2.6" paint-order="stroke">5 bolts</text>
<polygon points="1086.3,153.1 1086.3,166.3 1762.7,166.3 1762.7,153.1" fill="url(#chord-fill)" stroke="#1d4ed8" stroke-width="1.4" opacity="0.95"/>
<polygon points="1086.3,213.6 1086.3,226.8 1902.9,226.8 1902.9,213.6" fill="url(#chord-fill)" stroke="#1d4ed8" stroke-width="1.4" opacity="0.95"/>
<polygon points="1730.3,141.0 1725.2,153.1 1897.9,224.7 1902.9,212.5" fill="url(#chord-fill)" stroke="#1d4ed8" stroke-width="1.4" opacity="0.95"/>
<polygon points="1084.4,226.3 1097.6,226.3 1097.6,155.2 1084.4,155.2" fill="url(#web-fill)" stroke="#475569" stroke-width="1.2" opacity="0.85"/>
<polygon points="1100.6,216.0 1108.4,226.7 1197.2,162.5 1189.5,151.8" fill="url(#web-fill)" stroke="#475569" stroke-width="1.2" opacity="0.85"/>
<polygon points="1200.1,224.6 1213.3,224.6 1213.3,155.2 1200.1,155.2" fill="url(#web-fill)" stroke="#475569" stroke-width="1.2" opacity="0.85"/>
<polygon points="1218.3,216.0 1226.0,226.7 1315.0,162.5 1307.3,151.8" fill="url(#web-fill)" stroke="#475569" stroke-width="1.2" opacity="0.85"/>
<polygon points="1317.9,224.6 1331.1,224.6 1331.1,155.2 1317.9,155.2" fill="url(#web-fill)" stroke="#475569" stroke-width="1.2" opacity="0.85"/>
<polygon points="1336.2,216.0 1344.3,226.4 1426.6,162.2 1418.5,151.8" fill="url(#web-fill)" stroke="#475569" stroke-width="1.2" opacity="0.85"/>
<polygon points="1429.1,224.6 1442.3,224.6 1442.3,155.2 1429.1,155.2" fill="url(#web-fill)" stroke="#475569" stroke-width="1.2" opacity="0.85"/>
<polygon points="1447.3,216.0 1452.8,228.0 1592.6,163.8 1587.1,151.8" fill="url(#web-fill)" stroke="#475569" stroke-width="1.2" opacity="0.85"/>
<polygon points="1597.7,224.6 1610.9,224.6 1610.9,155.2 1597.7,155.2" fill="url(#web-fill)" stroke="#475569" stroke-width="1.2" opacity="0.85"/>
<polygon points="1755.7,228.0 1761.2,216.0 1621.5,151.8 1616.0,163.8" fill="url(#web-fill)" stroke="#475569" stroke-width="1.2" opacity="0.85"/>
<polygon points="1766.3,224.6 1779.5,224.6 1779.5,161.3 1766.3,161.3" fill="url(#web-fill)" stroke="#475569" stroke-width="1.2" opacity="0.85"/>
<polygon points="1851.1,224.6 1864.3,224.6 1864.3,196.4 1851.1,196.4" fill="url(#web-fill)" stroke="#475569" stroke-width="1.2" opacity="0.85"/>
<line x1="1086.3" y1="159.7" x2="1762.7" y2="159.7" stroke="#1d4ed8" stroke-width="0.6" stroke-dasharray="4 3" opacity="0.55"/>
<line x1="1091.0" y1="226.3" x2="1091.0" y2="155.2" stroke="#334155" stroke-width="0.6" stroke-dasharray="4 3" opacity="0.55"/>
<line x1="1104.5" y1="221.4" x2="1193.3" y2="157.2" stroke="#334155" stroke-width="0.6" stroke-dasharray="4 3" opacity="0.55"/>
<line x1="1086.3" y1="220.2" x2="1902.9" y2="220.2" stroke="#1d4ed8" stroke-width="0.6" stroke-dasharray="4 3" opacity="0.55"/>
<line x1="1206.7" y1="224.6" x2="1206.7" y2="155.2" stroke="#334155" stroke-width="0.6" stroke-dasharray="4 3" opacity="0.55"/>
<line x1="1222.2" y1="221.4" x2="1311.2" y2="157.2" stroke="#334155" stroke-width="0.6" stroke-dasharray="4 3" opacity="0.55"/>
<line x1="1324.5" y1="224.6" x2="1324.5" y2="155.2" stroke="#334155" stroke-width="0.6" stroke-dasharray="4 3" opacity="0.55"/>
<line x1="1340.2" y1="221.2" x2="1422.5" y2="157.0" stroke="#334155" stroke-width="0.6" stroke-dasharray="4 3" opacity="0.55"/>
<line x1="1435.7" y1="224.6" x2="1435.7" y2="155.2" stroke="#334155" stroke-width="0.6" stroke-dasharray="4 3" opacity="0.55"/>
<line x1="1450.1" y1="222.0" x2="1589.9" y2="157.8" stroke="#334155" stroke-width="0.6" stroke-dasharray="4 3" opacity="0.55"/>
<line x1="1604.3" y1="224.6" x2="1604.3" y2="155.2" stroke="#334155" stroke-width="0.6" stroke-dasharray="4 3" opacity="0.55"/>
<line x1="1758.5" y1="222.0" x2="1618.7" y2="157.8" stroke="#334155" stroke-width="0.6" stroke-dasharray="4 3" opacity="0.55"/>
<line x1="1727.7" y1="147.1" x2="1900.4" y2="218.6" stroke="#1d4ed8" stroke-width="0.6" stroke-dasharray="4 3" opacity="0.55"/>
<line x1="1772.9" y1="224.6" x2="1772.9" y2="161.3" stroke="#334155" stroke-width="0.6" stroke-dasharray="4 3" opacity="0.55"/>
<line x1="1857.7" y1="224.6" x2="1857.7" y2="196.4" stroke="#334155" stroke-width="0.6" stroke-dasharray="4 3" opacity="0.55"/>
<circle cx="1093.5" cy="220.2" r="2.0" fill="#16a34a" stroke="#14532d" stroke-width="0.7"/>
<circle cx="1091.0" cy="220.2" r="3.6" fill="none" stroke="#16a34a" stroke-width="1.2" opacity="0.5"/>
<circle cx="1091.0" cy="220.2" r="2.3" fill="#16a34a" stroke="#14532d" stroke-width="0.9"/>
<circle cx="1088.5" cy="220.2" r="2.0" fill="#16a34a" stroke="#14532d" stroke-width="0.7"/>
<circle cx="1093.5" cy="159.7" r="2.0" fill="#16a34a" stroke="#14532d" stroke-width="0.7"/>
<circle cx="1091.0" cy="159.7" r="3.6" fill="none" stroke="#16a34a" stroke-width="1.2" opacity="0.5"/>
<circle cx="1091.0" cy="159.7" r="2.3" fill="#16a34a" stroke="#14532d" stroke-width="0.9"/>
<circle cx="1088.5" cy="159.7" r="2.0" fill="#16a34a" stroke="#14532d" stroke-width="0.7"/>
<circle cx="1091.0" cy="222.7" r="2.0" fill="#16a34a" stroke="#14532d" stroke-width="0.7"/>
<circle cx="1091.0" cy="220.2" r="3.6" fill="none" stroke="#16a34a" stroke-width="1.2" opacity="0.5"/>
<circle cx="1091.0" cy="220.2" r="2.3" fill="#16a34a" stroke="#14532d" stroke-width="0.9"/>
<circle cx="1091.0" cy="217.6" r="2.0" fill="#16a34a" stroke="#14532d" stroke-width="0.7"/>
<circle cx="1106.2" cy="222.7" r="2.0" fill="#16a34a" stroke="#14532d" stroke-width="0.7"/>
<circle cx="1106.2" cy="220.2" r="3.6" fill="none" stroke="#16a34a" stroke-width="1.2" opacity="0.5"/>
<circle cx="1106.2" cy="220.2" r="2.3" fill="#16a34a" stroke="#14532d" stroke-width="0.9"/>
<circle cx="1106.2" cy="217.6" r="2.0" fill="#16a34a" stroke="#14532d" stroke-width="0.7"/>
<circle cx="1206.7" cy="222.7" r="2.0" fill="#16a34a" stroke="#14532d" stroke-width="0.7"/>
<circle cx="1206.7" cy="220.2" r="3.6" fill="none" stroke="#16a34a" stroke-width="1.2" opacity="0.5"/>
<circle cx="1206.7" cy="220.2" r="2.3" fill="#16a34a" stroke="#14532d" stroke-width="0.9"/>
<circle cx="1206.7" cy="217.6" r="2.0" fill="#16a34a" stroke="#14532d" stroke-width="0.7"/>
<circle cx="1223.9" cy="222.7" r="2.0" fill="#16a34a" stroke="#14532d" stroke-width="0.7"/>
<circle cx="1223.9" cy="220.2" r="3.6" fill="none" stroke="#16a34a" stroke-width="1.2" opacity="0.5"/>
<circle cx="1223.9" cy="220.2" r="2.3" fill="#16a34a" stroke="#14532d" stroke-width="0.9"/>
<circle cx="1223.9" cy="217.6" r="2.0" fill="#16a34a" stroke="#14532d" stroke-width="0.7"/>
<circle cx="1324.5" cy="222.7" r="2.0" fill="#16a34a" stroke="#14532d" stroke-width="0.7"/>
<circle cx="1324.5" cy="220.2" r="3.6" fill="none" stroke="#16a34a" stroke-width="1.2" opacity="0.5"/>
<circle cx="1324.5" cy="220.2" r="2.3" fill="#16a34a" stroke="#14532d" stroke-width="0.9"/>
<circle cx="1324.5" cy="217.6" r="2.0" fill="#16a34a" stroke="#14532d" stroke-width="0.7"/>
<circle cx="1341.6" cy="222.7" r="2.0" fill="#16a34a" stroke="#14532d" stroke-width="0.7"/>
<circle cx="1341.6" cy="220.2" r="3.6" fill="none" stroke="#16a34a" stroke-width="1.2" opacity="0.5"/>
<circle cx="1341.6" cy="220.2" r="2.3" fill="#16a34a" stroke="#14532d" stroke-width="0.9"/>
<circle cx="1341.6" cy="217.6" r="2.0" fill="#16a34a" stroke="#14532d" stroke-width="0.7"/>
<circle cx="1435.7" cy="222.7" r="2.0" fill="#16a34a" stroke="#14532d" stroke-width="0.7"/>
<circle cx="1435.7" cy="220.2" r="3.6" fill="none" stroke="#16a34a" stroke-width="1.2" opacity="0.5"/>
<circle cx="1435.7" cy="220.2" r="2.3" fill="#16a34a" stroke="#14532d" stroke-width="0.9"/>
<circle cx="1435.7" cy="217.6" r="2.0" fill="#16a34a" stroke="#14532d" stroke-width="0.7"/>
<circle cx="1454.1" cy="222.7" r="2.0" fill="#16a34a" stroke="#14532d" stroke-width="0.7"/>
<circle cx="1454.1" cy="220.2" r="3.6" fill="none" stroke="#16a34a" stroke-width="1.2" opacity="0.5"/>
<circle cx="1454.1" cy="220.2" r="2.3" fill="#16a34a" stroke="#14532d" stroke-width="0.9"/>
<circle cx="1454.1" cy="217.6" r="2.0" fill="#16a34a" stroke="#14532d" stroke-width="0.7"/>
<circle cx="1604.3" cy="222.7" r="2.0" fill="#16a34a" stroke="#14532d" stroke-width="0.7"/>
<circle cx="1604.3" cy="220.2" r="3.6" fill="none" stroke="#16a34a" stroke-width="1.2" opacity="0.5"/>
<circle cx="1604.3" cy="220.2" r="2.3" fill="#16a34a" stroke="#14532d" stroke-width="0.9"/>
<circle cx="1604.3" cy="217.6" r="2.0" fill="#16a34a" stroke="#14532d" stroke-width="0.7"/>
<circle cx="1754.4" cy="222.7" r="2.0" fill="#16a34a" stroke="#14532d" stroke-width="0.7"/>
<circle cx="1754.4" cy="220.2" r="3.6" fill="none" stroke="#16a34a" stroke-width="1.2" opacity="0.5"/>
<circle cx="1754.4" cy="220.2" r="2.3" fill="#16a34a" stroke="#14532d" stroke-width="0.9"/>
<circle cx="1754.4" cy="217.6" r="2.0" fill="#16a34a" stroke="#14532d" stroke-width="0.7"/>
<circle cx="1772.9" cy="222.7" r="2.0" fill="#16a34a" stroke="#14532d" stroke-width="0.7"/>
<circle cx="1772.9" cy="220.2" r="3.6" fill="none" stroke="#16a34a" stroke-width="1.2" opacity="0.5"/>
<circle cx="1772.9" cy="220.2" r="2.3" fill="#16a34a" stroke="#14532d" stroke-width="0.9"/>
<circle cx="1772.9" cy="217.6" r="2.0" fill="#16a34a" stroke="#14532d" stroke-width="0.7"/>
<circle cx="1857.7" cy="222.7" r="2.0" fill="#16a34a" stroke="#14532d" stroke-width="0.7"/>
<circle cx="1857.7" cy="220.2" r="3.6" fill="none" stroke="#16a34a" stroke-width="1.2" opacity="0.5"/>
<circle cx="1857.7" cy="220.2" r="2.3" fill="#16a34a" stroke="#14532d" stroke-width="0.9"/>
<circle cx="1857.7" cy="217.6" r="2.0" fill="#16a34a" stroke="#14532d" stroke-width="0.7"/>
<circle cx="1091.0" cy="162.2" r="2.0" fill="#16a34a" stroke="#14532d" stroke-width="0.7"/>
<circle cx="1091.0" cy="159.7" r="3.6" fill="none" stroke="#16a34a" stroke-width="1.2" opacity="0.5"/>
<circle cx="1091.0" cy="159.7" r="2.3" fill="#16a34a" stroke="#14532d" stroke-width="0.9"/>
<circle cx="1091.0" cy="157.2" r="2.0" fill="#16a34a" stroke="#14532d" stroke-width="0.7"/>
<circle cx="1189.9" cy="162.2" r="2.0" fill="#16a34a" stroke="#14532d" stroke-width="0.7"/>
<circle cx="1189.9" cy="159.7" r="3.6" fill="none" stroke="#16a34a" stroke-width="1.2" opacity="0.5"/>
<circle cx="1189.9" cy="159.7" r="2.3" fill="#16a34a" stroke="#14532d" stroke-width="0.9"/>
<circle cx="1189.9" cy="157.2" r="2.0" fill="#16a34a" stroke="#14532d" stroke-width="0.7"/>
<circle cx="1206.7" cy="162.2" r="2.0" fill="#16a34a" stroke="#14532d" stroke-width="0.7"/>
<circle cx="1206.7" cy="159.7" r="3.6" fill="none" stroke="#16a34a" stroke-width="1.2" opacity="0.5"/>
<circle cx="1206.7" cy="159.7" r="2.3" fill="#16a34a" stroke="#14532d" stroke-width="0.9"/>
<circle cx="1206.7" cy="157.2" r="2.0" fill="#16a34a" stroke="#14532d" stroke-width="0.7"/>
<circle cx="1307.7" cy="162.2" r="2.0" fill="#16a34a" stroke="#14532d" stroke-width="0.7"/>
<circle cx="1307.7" cy="159.7" r="3.6" fill="none" stroke="#16a34a" stroke-width="1.2" opacity="0.5"/>
<circle cx="1307.7" cy="159.7" r="2.3" fill="#16a34a" stroke="#14532d" stroke-width="0.9"/>
<circle cx="1307.7" cy="157.2" r="2.0" fill="#16a34a" stroke="#14532d" stroke-width="0.7"/>
<circle cx="1324.5" cy="162.2" r="2.0" fill="#16a34a" stroke="#14532d" stroke-width="0.7"/>
<circle cx="1324.5" cy="159.7" r="3.6" fill="none" stroke="#16a34a" stroke-width="1.2" opacity="0.5"/>
<circle cx="1324.5" cy="159.7" r="2.3" fill="#16a34a" stroke="#14532d" stroke-width="0.9"/>
<circle cx="1324.5" cy="157.2" r="2.0" fill="#16a34a" stroke="#14532d" stroke-width="0.7"/>
<circle cx="1419.1" cy="162.2" r="2.0" fill="#16a34a" stroke="#14532d" stroke-width="0.7"/>
<circle cx="1419.1" cy="159.7" r="3.6" fill="none" stroke="#16a34a" stroke-width="1.2" opacity="0.5"/>
<circle cx="1419.1" cy="159.7" r="2.3" fill="#16a34a" stroke="#14532d" stroke-width="0.9"/>
<circle cx="1419.1" cy="157.2" r="2.0" fill="#16a34a" stroke="#14532d" stroke-width="0.7"/>
<circle cx="1435.7" cy="162.2" r="2.0" fill="#16a34a" stroke="#14532d" stroke-width="0.7"/>
<circle cx="1435.7" cy="159.7" r="3.6" fill="none" stroke="#16a34a" stroke-width="1.2" opacity="0.5"/>
<circle cx="1435.7" cy="159.7" r="2.3" fill="#16a34a" stroke="#14532d" stroke-width="0.9"/>
<circle cx="1435.7" cy="157.2" r="2.0" fill="#16a34a" stroke="#14532d" stroke-width="0.7"/>
<circle cx="1585.8" cy="162.2" r="2.0" fill="#16a34a" stroke="#14532d" stroke-width="0.7"/>
<circle cx="1585.8" cy="159.7" r="3.6" fill="none" stroke="#16a34a" stroke-width="1.2" opacity="0.5"/>
<circle cx="1585.8" cy="159.7" r="2.3" fill="#16a34a" stroke="#14532d" stroke-width="0.9"/>
<circle cx="1585.8" cy="157.2" r="2.0" fill="#16a34a" stroke="#14532d" stroke-width="0.7"/>
<circle cx="1604.3" cy="162.2" r="2.0" fill="#16a34a" stroke="#14532d" stroke-width="0.7"/>
<circle cx="1604.3" cy="159.7" r="3.6" fill="none" stroke="#16a34a" stroke-width="1.2" opacity="0.5"/>
<circle cx="1604.3" cy="159.7" r="2.3" fill="#16a34a" stroke="#14532d" stroke-width="0.9"/>
<circle cx="1604.3" cy="157.2" r="2.0" fill="#16a34a" stroke="#14532d" stroke-width="0.7"/>
<circle cx="1622.7" cy="162.2" r="2.0" fill="#16a34a" stroke="#14532d" stroke-width="0.7"/>
<circle cx="1622.7" cy="159.7" r="3.6" fill="none" stroke="#16a34a" stroke-width="1.2" opacity="0.5"/>
<circle cx="1622.7" cy="159.7" r="2.3" fill="#16a34a" stroke="#14532d" stroke-width="0.9"/>
<circle cx="1622.7" cy="157.2" r="2.0" fill="#16a34a" stroke="#14532d" stroke-width="0.7"/>
<circle cx="1758.2" cy="162.2" r="2.0" fill="#16a34a" stroke="#14532d" stroke-width="0.7"/>
<circle cx="1758.2" cy="159.7" r="3.6" fill="none" stroke="#16a34a" stroke-width="1.2" opacity="0.5"/>
<circle cx="1758.2" cy="159.7" r="2.3" fill="#16a34a" stroke="#14532d" stroke-width="0.9"/>
<circle cx="1758.2" cy="157.2" r="2.0" fill="#16a34a" stroke="#14532d" stroke-width="0.7"/>
<circle cx="1107.7" cy="222.2" r="2.0" fill="#16a34a" stroke="#14532d" stroke-width="0.7"/>
<circle cx="1106.2" cy="220.2" r="3.6" fill="none" stroke="#16a34a" stroke-width="1.2" opacity="0.5"/>
<circle cx="1106.2" cy="220.2" r="2.3" fill="#16a34a" stroke="#14532d" stroke-width="0.9"/>
<circle cx="1104.7" cy="218.1" r="2.0" fill="#16a34a" stroke="#14532d" stroke-width="0.7"/>
<circle cx="1191.3" cy="161.7" r="2.0" fill="#16a34a" stroke="#14532d" stroke-width="0.7"/>
<circle cx="1189.9" cy="159.7" r="3.6" fill="none" stroke="#16a34a" stroke-width="1.2" opacity="0.5"/>
<circle cx="1189.9" cy="159.7" r="2.3" fill="#16a34a" stroke="#14532d" stroke-width="0.9"/>
<circle cx="1188.4" cy="157.6" r="2.0" fill="#16a34a" stroke="#14532d" stroke-width="0.7"/>
<circle cx="1209.2" cy="220.2" r="2.0" fill="#16a34a" stroke="#14532d" stroke-width="0.7"/>
<circle cx="1206.7" cy="220.2" r="3.6" fill="none" stroke="#16a34a" stroke-width="1.2" opacity="0.5"/>
<circle cx="1206.7" cy="220.2" r="2.3" fill="#16a34a" stroke="#14532d" stroke-width="0.9"/>
<circle cx="1204.1" cy="220.2" r="2.0" fill="#16a34a" stroke="#14532d" stroke-width="0.7"/>
<circle cx="1209.2" cy="159.7" r="2.0" fill="#16a34a" stroke="#14532d" stroke-width="0.7"/>
<circle cx="1206.7" cy="159.7" r="3.6" fill="none" stroke="#16a34a" stroke-width="1.2" opacity="0.5"/>
<circle cx="1206.7" cy="159.7" r="2.3" fill="#16a34a" stroke="#14532d" stroke-width="0.9"/>
<circle cx="1204.1" cy="159.7" r="2.0" fill="#16a34a" stroke="#14532d" stroke-width="0.7"/>
<circle cx="1343.2" cy="222.1" r="2.0" fill="#16a34a" stroke="#14532d" stroke-width="0.7"/>
<circle cx="1341.6" cy="220.2" r="3.6" fill="none" stroke="#16a34a" stroke-width="1.2" opacity="0.5"/>
<circle cx="1341.6" cy="220.2" r="2.3" fill="#16a34a" stroke="#14532d" stroke-width="0.9"/>
<circle cx="1340.1" cy="218.2" r="2.0" fill="#16a34a" stroke="#14532d" stroke-width="0.7"/>
<circle cx="1420.7" cy="161.7" r="2.0" fill="#16a34a" stroke="#14532d" stroke-width="0.7"/>
<circle cx="1419.1" cy="159.7" r="3.6" fill="none" stroke="#16a34a" stroke-width="1.2" opacity="0.5"/>
<circle cx="1419.1" cy="159.7" r="2.3" fill="#16a34a" stroke="#14532d" stroke-width="0.9"/>
<circle cx="1417.6" cy="157.7" r="2.0" fill="#16a34a" stroke="#14532d" stroke-width="0.7"/>
<circle cx="1455.2" cy="222.5" r="2.0" fill="#16a34a" stroke="#14532d" stroke-width="0.7"/>
<circle cx="1454.1" cy="220.2" r="3.6" fill="none" stroke="#16a34a" stroke-width="1.2" opacity="0.5"/>
<circle cx="1454.1" cy="220.2" r="2.3" fill="#16a34a" stroke="#14532d" stroke-width="0.9"/>
<circle cx="1453.1" cy="217.9" r="2.0" fill="#16a34a" stroke="#14532d" stroke-width="0.7"/>
<circle cx="1586.9" cy="162.0" r="2.0" fill="#16a34a" stroke="#14532d" stroke-width="0.7"/>
<circle cx="1585.8" cy="159.7" r="3.6" fill="none" stroke="#16a34a" stroke-width="1.2" opacity="0.5"/>
<circle cx="1585.8" cy="159.7" r="2.3" fill="#16a34a" stroke="#14532d" stroke-width="0.9"/>
<circle cx="1584.8" cy="157.4" r="2.0" fill="#16a34a" stroke="#14532d" stroke-width="0.7"/>
<circle cx="1757.3" cy="162.0" r="2.0" fill="#16a34a" stroke="#14532d" stroke-width="0.7"/>
<circle cx="1758.2" cy="159.7" r="3.6" fill="none" stroke="#16a34a" stroke-width="1.2" opacity="0.5"/>
<circle cx="1758.2" cy="159.7" r="2.3" fill="#16a34a" stroke="#14532d" stroke-width="0.9"/>
<circle cx="1759.2" cy="157.4" r="2.0" fill="#16a34a" stroke="#14532d" stroke-width="0.7"/>
<circle cx="1771.9" cy="168.1" r="2.0" fill="#16a34a" stroke="#14532d" stroke-width="0.7"/>
<circle cx="1772.9" cy="165.8" r="3.6" fill="none" stroke="#16a34a" stroke-width="1.2" opacity="0.5"/>
<circle cx="1772.9" cy="165.8" r="2.3" fill="#16a34a" stroke="#14532d" stroke-width="0.9"/>
<circle cx="1773.9" cy="163.4" r="2.0" fill="#16a34a" stroke="#14532d" stroke-width="0.7"/>
<circle cx="1856.8" cy="203.2" r="2.0" fill="#16a34a" stroke="#14532d" stroke-width="0.7"/>
<circle cx="1857.7" cy="200.9" r="3.6" fill="none" stroke="#16a34a" stroke-width="1.2" opacity="0.5"/>
<circle cx="1857.7" cy="200.9" r="2.3" fill="#16a34a" stroke="#14532d" stroke-width="0.9"/>
<circle cx="1858.7" cy="198.6" r="2.0" fill="#16a34a" stroke="#14532d" stroke-width="0.7"/>
<circle cx="1775.4" cy="220.2" r="2.0" fill="#16a34a" stroke="#14532d" stroke-width="0.7"/>
<circle cx="1772.9" cy="220.2" r="3.6" fill="none" stroke="#16a34a" stroke-width="1.2" opacity="0.5"/>
<circle cx="1772.9" cy="220.2" r="2.3" fill="#16a34a" stroke="#14532d" stroke-width="0.9"/>
<circle cx="1770.4" cy="220.2" r="2.0" fill="#16a34a" stroke="#14532d" stroke-width="0.7"/>
<circle cx="1775.4" cy="165.8" r="2.0" fill="#16a34a" stroke="#14532d" stroke-width="0.7"/>
<circle cx="1772.9" cy="165.8" r="3.6" fill="none" stroke="#16a34a" stroke-width="1.2" opacity="0.5"/>
<circle cx="1772.9" cy="165.8" r="2.3" fill="#16a34a" stroke="#14532d" stroke-width="0.9"/>
<circle cx="1770.4" cy="165.8" r="2.0" fill="#16a34a" stroke="#14532d" stroke-width="0.7"/>
<circle cx="1860.2" cy="220.2" r="2.0" fill="#16a34a" stroke="#14532d" stroke-width="0.7"/>
<circle cx="1857.7" cy="220.2" r="3.6" fill="none" stroke="#16a34a" stroke-width="1.2" opacity="0.5"/>
<circle cx="1857.7" cy="220.2" r="2.3" fill="#16a34a" stroke="#14532d" stroke-width="0.9"/>
<circle cx="1855.2" cy="220.2" r="2.0" fill="#16a34a" stroke="#14532d" stroke-width="0.7"/>
<circle cx="1860.2" cy="200.9" r="2.0" fill="#16a34a" stroke="#14532d" stroke-width="0.7"/>
<circle cx="1857.7" cy="200.9" r="3.6" fill="none" stroke="#16a34a" stroke-width="1.2" opacity="0.5"/>
<circle cx="1857.7" cy="200.9" r="2.3" fill="#16a34a" stroke="#14532d" stroke-width="0.9"/>
<circle cx="1855.2" cy="200.9" r="2.0" fill="#16a34a" stroke="#14532d" stroke-width="0.7"/>
<text x="1424.5" y="155.7" font-size="11" font-weight="700" text-anchor="middle" fill="#0f172a" stroke="white" stroke-width="3.2" paint-order="stroke">H3</text>
<text x="1424.5" y="168.7" font-size="9" font-weight="600" text-anchor="middle" fill="#14532d" stroke="white" stroke-width="2.6" paint-order="stroke">11 bolts</text>
<text x="1091.0" y="186.8" font-size="11" font-weight="700" text-anchor="middle" fill="#0f172a" stroke="white" stroke-width="3.2" paint-order="stroke">W4</text>
<text x="1091.0" y="199.8" font-size="9" font-weight="600" text-anchor="middle" fill="#14532d" stroke="white" stroke-width="2.6" paint-order="stroke">2 bolts</text>
<text x="1148.9" y="185.3" font-size="11" font-weight="700" text-anchor="middle" fill="#0f172a" stroke="white" stroke-width="3.2" paint-order="stroke">W5</text>
<text x="1148.9" y="198.3" font-size="9" font-weight="600" text-anchor="middle" fill="#14532d" stroke="white" stroke-width="2.6" paint-order="stroke">2 bolts</text>
<text x="1494.6" y="216.2" font-size="11" font-weight="700" text-anchor="middle" fill="#0f172a" stroke="white" stroke-width="3.2" paint-order="stroke">B1</text>
<text x="1494.6" y="229.2" font-size="9" font-weight="600" text-anchor="middle" fill="#14532d" stroke="white" stroke-width="2.6" paint-order="stroke">12 bolts</text>
<text x="1206.7" y="185.9" font-size="11" font-weight="700" text-anchor="middle" fill="#0f172a" stroke="white" stroke-width="3.2" paint-order="stroke">W6</text>
<text x="1206.7" y="198.9" font-size="9" font-weight="600" text-anchor="middle" fill="#14532d" stroke="white" stroke-width="2.6" paint-order="stroke">2 bolts</text>
<text x="1266.7" y="185.3" font-size="11" font-weight="700" text-anchor="middle" fill="#0f172a" stroke="white" stroke-width="3.2" paint-order="stroke">W5</text>
<text x="1266.7" y="198.3" font-size="9" font-weight="600" text-anchor="middle" fill="#14532d" stroke="white" stroke-width="2.6" paint-order="stroke">0 bolts</text>
<text x="1324.5" y="185.9" font-size="11" font-weight="700" text-anchor="middle" fill="#0f172a" stroke="white" stroke-width="3.2" paint-order="stroke">W6</text>
<text x="1324.5" y="198.9" font-size="9" font-weight="600" text-anchor="middle" fill="#14532d" stroke="white" stroke-width="2.6" paint-order="stroke">0 bolts</text>
<text x="1381.4" y="185.1" font-size="11" font-weight="700" text-anchor="middle" fill="#0f172a" stroke="white" stroke-width="3.2" paint-order="stroke">W7</text>
<text x="1381.4" y="198.1" font-size="9" font-weight="600" text-anchor="middle" fill="#14532d" stroke="white" stroke-width="2.6" paint-order="stroke">2 bolts</text>
<text x="1435.7" y="185.9" font-size="11" font-weight="700" text-anchor="middle" fill="#0f172a" stroke="white" stroke-width="3.2" paint-order="stroke">W6</text>
<text x="1435.7" y="198.9" font-size="9" font-weight="600" text-anchor="middle" fill="#14532d" stroke="white" stroke-width="2.6" paint-order="stroke">0 bolts</text>
<text x="1520.0" y="185.9" font-size="11" font-weight="700" text-anchor="middle" fill="#0f172a" stroke="white" stroke-width="3.2" paint-order="stroke">W8</text>
<text x="1520.0" y="198.9" font-size="9" font-weight="600" text-anchor="middle" fill="#14532d" stroke="white" stroke-width="2.6" paint-order="stroke">2 bolts</text>
<text x="1604.3" y="185.9" font-size="11" font-weight="700" text-anchor="middle" fill="#0f172a" stroke="white" stroke-width="3.2" paint-order="stroke">W6</text>
<text x="1604.3" y="198.9" font-size="9" font-weight="600" text-anchor="middle" fill="#14532d" stroke="white" stroke-width="2.6" paint-order="stroke">0 bolts</text>
<text x="1688.6" y="185.9" font-size="11" font-weight="700" text-anchor="middle" fill="#0f172a" stroke="white" stroke-width="3.2" paint-order="stroke">W8</text>
<text x="1688.6" y="198.9" font-size="9" font-weight="600" text-anchor="middle" fill="#14532d" stroke="white" stroke-width="2.6" paint-order="stroke">0 bolts</text>
<text x="1814.1" y="178.8" font-size="11" font-weight="700" text-anchor="middle" fill="#0f172a" stroke="white" stroke-width="3.2" paint-order="stroke">T2</text>
<text x="1814.1" y="191.8" font-size="9" font-weight="600" text-anchor="middle" fill="#14532d" stroke="white" stroke-width="2.6" paint-order="stroke">3 bolts</text>
<text x="1772.9" y="189.0" font-size="11" font-weight="700" text-anchor="middle" fill="#0f172a" stroke="white" stroke-width="3.2" paint-order="stroke">W9</text>
<text x="1772.9" y="202.0" font-size="9" font-weight="600" text-anchor="middle" fill="#14532d" stroke="white" stroke-width="2.6" paint-order="stroke">2 bolts</text>
<text x="1857.7" y="206.5" font-size="11" font-weight="700" text-anchor="middle" fill="#0f172a" stroke="white" stroke-width="3.2" paint-order="stroke">W10</text>
<text x="1857.7" y="219.5" font-size="9" font-weight="600" text-anchor="middle" fill="#14532d" stroke="white" stroke-width="2.6" paint-order="stroke">2 bolts</text>
<rect x="40" y="273.3698687844227" width="1900" height="60" fill="#f1f5f9" stroke="#cbd5e0" rx="4"/>
<text x="990" y="299.3698687844227" text-anchor="middle" font-size="16" font-weight="700" fill="#1a202c">Original 62 bolts -> Simplified 40 bolts (35% reduction)</text>
<text x="990" y="321.3698687844227" text-anchor="middle" font-size="11" fill="#4a5568">Per-stick counts shown beneath each member name. Each green dot in the right panel = a 3-hole pattern (3 x diam.3.8mm at 17mm pitch).</text>
</svg>