<svg xmlns="http://www.w3.org/2000/svg" width="1980" height="376" viewBox="0 0 1980 376" font-family="Segoe UI, Arial, sans-serif">
<defs>
<pattern id="chord-fill" patternUnits="userSpaceOnUse" width="6" height="6" patternTransform="rotate(-45)"><rect width="6" height="6" fill="#dbeafe"/><line x1="0" y1="0" x2="0" y2="6" stroke="#93c5fd" stroke-width="0.6"/></pattern>
<pattern id="web-fill" patternUnits="userSpaceOnUse" width="6" height="6" patternTransform="rotate(45)"><rect width="6" height="6" fill="#e2e8f0"/><line x1="0" y1="0" x2="0" y2="6" stroke="#94a3b8" stroke-width="0.6"/></pattern>
</defs>
<rect width="1980" height="376" fill="#fafaf8"/>
<text x="20" y="32" font-size="20" font-weight="700" fill="#1a202c">Frame TT3-1 - plan GF-LIN-89.075</text>
<text x="20" y="54" font-size="12" fill="#4a5568">18 sticks. Same scale, both panels.</text>
<text x="494" y="92" text-anchor="middle" font-size="15" font-weight="700" fill="#7f1d1d">ORIGINAL - FrameCAD CSV BOLT HOLES (red dots)</text>
<text x="1486" y="92" text-anchor="middle" font-size="15" font-weight="700" fill="#14532d">SIMPLIFIED - centreline-intersection 3-hole pattern (green)</text>
<rect x="40" y="110" width="908.1" height="156.0" fill="none" stroke="#cbd5e0" stroke-width="0.8"/>
<rect x="1031.9" y="110" width="908.1" height="156.0" fill="none" stroke="#cbd5e0" stroke-width="0.8"/>
<polygon points="66.2,230.0 69.8,238.7 306.7,140.5 303.2,131.9" fill="url(#chord-fill)" stroke="#1d4ed8" stroke-width="1.4" opacity="0.95"/>
<polygon points="66.2,230.8 66.2,240.1 921.9,240.1 921.9,230.8" fill="url(#chord-fill)" stroke="#1d4ed8" stroke-width="1.4" opacity="0.95"/>
<polygon points="280.2,140.5 280.2,149.8 921.9,149.8 921.9,140.5" fill="url(#chord-fill)" stroke="#1d4ed8" stroke-width="1.4" opacity="0.95"/>
<polygon points="446.1,230.8 446.1,240.1 477.5,240.1 477.5,230.8" fill="url(#chord-fill)" stroke="#1d4ed8" stroke-width="1.4" opacity="0.95"/>
<polygon points="93.6,238.6 102.9,238.6 102.9,218.7 93.6,218.7" fill="url(#web-fill)" stroke="#475569" stroke-width="1.2" opacity="0.85"/>
<polygon points="268.4,238.6 277.7,238.6 277.7,146.3 268.4,146.3" fill="url(#web-fill)" stroke="#475569" stroke-width="1.2" opacity="0.85"/>
<polygon points="280.5,235.2 287.9,240.8 360.0,145.4 352.5,139.8" fill="url(#web-fill)" stroke="#475569" stroke-width="1.2" opacity="0.85"/>
<polygon points="362.7,238.6 372.1,238.6 372.1,142.0 362.7,142.0" fill="url(#web-fill)" stroke="#475569" stroke-width="1.2" opacity="0.85"/>
<polygon points="374.9,235.2 382.3,240.8 454.4,145.4 446.9,139.8" fill="url(#web-fill)" stroke="#475569" stroke-width="1.2" opacity="0.85"/>
<polygon points="457.1,239.8 466.5,239.8 466.5,140.8 457.1,140.8" fill="url(#web-fill)" stroke="#475569" stroke-width="1.2" opacity="0.85"/>
<polygon points="470.3,233.5 477.1,239.9 565.8,147.1 559.1,140.7" fill="url(#web-fill)" stroke="#475569" stroke-width="1.2" opacity="0.85"/>
<polygon points="569.7,238.6 579.0,238.6 579.0,142.0 569.7,142.0" fill="url(#web-fill)" stroke="#475569" stroke-width="1.2" opacity="0.85"/>
<polygon points="672.6,241.0 679.4,234.5 588.6,139.6 581.9,146.1" fill="url(#web-fill)" stroke="#475569" stroke-width="1.2" opacity="0.85"/>
<polygon points="682.2,238.6 691.6,238.6 691.6,142.0 682.2,142.0" fill="url(#web-fill)" stroke="#475569" stroke-width="1.2" opacity="0.85"/>
<polygon points="785.2,241.0 791.9,234.5 701.1,139.6 694.4,146.1" fill="url(#web-fill)" stroke="#475569" stroke-width="1.2" opacity="0.85"/>
<polygon points="794.8,238.6 804.1,238.6 804.1,142.0 794.8,142.0" fill="url(#web-fill)" stroke="#475569" stroke-width="1.2" opacity="0.85"/>
<polygon points="903.6,241.2 910.2,234.5 813.7,139.6 807.1,146.3" fill="url(#web-fill)" stroke="#475569" stroke-width="1.2" opacity="0.85"/>
<polygon points="912.6,239.8 921.9,239.8 921.9,140.8 912.6,140.8" fill="url(#web-fill)" stroke="#475569" stroke-width="1.2" opacity="0.85"/>
<line x1="68.0" y1="234.3" x2="304.9" y2="136.2" stroke="#1d4ed8" stroke-width="0.6" stroke-dasharray="4 3" opacity="0.55"/>
<line x1="66.2" y1="235.5" x2="921.9" y2="235.5" stroke="#1d4ed8" stroke-width="0.6" stroke-dasharray="4 3" opacity="0.55"/>
<line x1="98.2" y1="238.6" x2="98.2" y2="218.7" stroke="#334155" stroke-width="0.6" stroke-dasharray="4 3" opacity="0.55"/>
<line x1="273.0" y1="238.6" x2="273.0" y2="146.3" stroke="#334155" stroke-width="0.6" stroke-dasharray="4 3" opacity="0.55"/>
<line x1="284.2" y1="238.0" x2="356.2" y2="142.6" stroke="#334155" stroke-width="0.6" stroke-dasharray="4 3" opacity="0.55"/>
<line x1="280.2" y1="145.1" x2="921.9" y2="145.1" stroke="#1d4ed8" stroke-width="0.6" stroke-dasharray="4 3" opacity="0.55"/>
<line x1="367.4" y1="238.6" x2="367.4" y2="142.0" stroke="#334155" stroke-width="0.6" stroke-dasharray="4 3" opacity="0.55"/>
<line x1="378.6" y1="238.0" x2="450.6" y2="142.6" stroke="#334155" stroke-width="0.6" stroke-dasharray="4 3" opacity="0.55"/>
<line x1="461.8" y1="239.8" x2="461.8" y2="140.8" stroke="#334155" stroke-width="0.6" stroke-dasharray="4 3" opacity="0.55"/>
<line x1="473.7" y1="236.7" x2="562.5" y2="143.9" stroke="#334155" stroke-width="0.6" stroke-dasharray="4 3" opacity="0.55"/>
<line x1="446.1" y1="235.5" x2="477.5" y2="235.5" stroke="#1d4ed8" stroke-width="0.6" stroke-dasharray="4 3" opacity="0.55"/>
<line x1="574.4" y1="238.6" x2="574.4" y2="142.0" stroke="#334155" stroke-width="0.6" stroke-dasharray="4 3" opacity="0.55"/>
<line x1="676.0" y1="237.7" x2="585.2" y2="142.9" stroke="#334155" stroke-width="0.6" stroke-dasharray="4 3" opacity="0.55"/>
<line x1="686.9" y1="238.6" x2="686.9" y2="142.0" stroke="#334155" stroke-width="0.6" stroke-dasharray="4 3" opacity="0.55"/>
<line x1="788.5" y1="237.7" x2="697.8" y2="142.9" stroke="#334155" stroke-width="0.6" stroke-dasharray="4 3" opacity="0.55"/>
<line x1="799.4" y1="238.6" x2="799.4" y2="142.0" stroke="#334155" stroke-width="0.6" stroke-dasharray="4 3" opacity="0.55"/>
<line x1="906.9" y1="237.8" x2="810.4" y2="143.0" stroke="#334155" stroke-width="0.6" stroke-dasharray="4 3" opacity="0.55"/>
<line x1="917.2" y1="239.8" x2="917.2" y2="140.8" stroke="#334155" stroke-width="0.6" stroke-dasharray="4 3" opacity="0.55"/>
<circle cx="74.2" cy="235.5" r="2.4" fill="#dc2626" stroke="#7f1d1d" stroke-width="0.6"/>
<circle cx="98.2" cy="235.5" r="2.4" fill="#dc2626" stroke="#7f1d1d" stroke-width="0.6"/>
<circle cx="273.0" cy="235.5" r="2.4" fill="#dc2626" stroke="#7f1d1d" stroke-width="0.6"/>
<circle cx="287.4" cy="235.5" r="2.4" fill="#dc2626" stroke="#7f1d1d" stroke-width="0.6"/>
<circle cx="367.4" cy="235.5" r="2.4" fill="#dc2626" stroke="#7f1d1d" stroke-width="0.6"/>
<circle cx="381.8" cy="235.5" r="2.4" fill="#dc2626" stroke="#7f1d1d" stroke-width="0.6"/>
<circle cx="461.8" cy="235.5" r="2.4" fill="#dc2626" stroke="#7f1d1d" stroke-width="0.6"/>
<circle cx="476.6" cy="235.5" r="2.4" fill="#dc2626" stroke="#7f1d1d" stroke-width="0.6"/>
<circle cx="574.4" cy="235.5" r="2.4" fill="#dc2626" stroke="#7f1d1d" stroke-width="0.6"/>
<circle cx="672.1" cy="235.5" r="2.4" fill="#dc2626" stroke="#7f1d1d" stroke-width="0.6"/>
<circle cx="686.9" cy="235.5" r="2.4" fill="#dc2626" stroke="#7f1d1d" stroke-width="0.6"/>
<circle cx="784.7" cy="235.5" r="2.4" fill="#dc2626" stroke="#7f1d1d" stroke-width="0.6"/>
<circle cx="799.4" cy="235.5" r="2.4" fill="#dc2626" stroke="#7f1d1d" stroke-width="0.6"/>
<circle cx="902.7" cy="235.5" r="2.4" fill="#dc2626" stroke="#7f1d1d" stroke-width="0.6"/>
<circle cx="917.2" cy="235.5" r="2.4" fill="#dc2626" stroke="#7f1d1d" stroke-width="0.6"/>
<circle cx="70.3" cy="233.4" r="2.4" fill="#dc2626" stroke="#7f1d1d" stroke-width="0.6"/>
<circle cx="73.6" cy="232.0" r="2.4" fill="#dc2626" stroke="#7f1d1d" stroke-width="0.6"/>
<circle cx="78.2" cy="230.1" r="2.4" fill="#dc2626" stroke="#7f1d1d" stroke-width="0.6"/>
<circle cx="97.6" cy="222.1" r="2.4" fill="#dc2626" stroke="#7f1d1d" stroke-width="0.6"/>
<circle cx="272.3" cy="149.7" r="2.4" fill="#dc2626" stroke="#7f1d1d" stroke-width="0.6"/>
<circle cx="288.4" cy="143.1" r="2.4" fill="#dc2626" stroke="#7f1d1d" stroke-width="0.6"/>
<circle cx="291.6" cy="141.7" r="2.4" fill="#dc2626" stroke="#7f1d1d" stroke-width="0.6"/>
<circle cx="296.3" cy="139.8" r="2.4" fill="#dc2626" stroke="#7f1d1d" stroke-width="0.6"/>
<circle cx="98.2" cy="233.7" r="2.4" fill="#dc2626" stroke="#7f1d1d" stroke-width="0.6"/>
<circle cx="98.2" cy="231.7" r="2.4" fill="#dc2626" stroke="#7f1d1d" stroke-width="0.6"/>
<circle cx="98.2" cy="226.6" r="2.4" fill="#dc2626" stroke="#7f1d1d" stroke-width="0.6"/>
<circle cx="98.2" cy="225.1" r="2.4" fill="#dc2626" stroke="#7f1d1d" stroke-width="0.6"/>
<circle cx="98.2" cy="223.7" r="2.4" fill="#dc2626" stroke="#7f1d1d" stroke-width="0.6"/>
<circle cx="273.0" cy="233.7" r="2.4" fill="#dc2626" stroke="#7f1d1d" stroke-width="0.6"/>
<circle cx="273.0" cy="231.7" r="2.4" fill="#dc2626" stroke="#7f1d1d" stroke-width="0.6"/>
<circle cx="273.0" cy="154.2" r="2.4" fill="#dc2626" stroke="#7f1d1d" stroke-width="0.6"/>
<circle cx="273.0" cy="152.7" r="2.4" fill="#dc2626" stroke="#7f1d1d" stroke-width="0.6"/>
<circle cx="273.0" cy="151.4" r="2.4" fill="#dc2626" stroke="#7f1d1d" stroke-width="0.6"/>
<circle cx="292.3" cy="145.1" r="2.4" fill="#dc2626" stroke="#7f1d1d" stroke-width="0.6"/>
<circle cx="353.0" cy="145.1" r="2.4" fill="#dc2626" stroke="#7f1d1d" stroke-width="0.6"/>
<circle cx="367.4" cy="145.1" r="2.4" fill="#dc2626" stroke="#7f1d1d" stroke-width="0.6"/>
<circle cx="447.4" cy="145.1" r="2.4" fill="#dc2626" stroke="#7f1d1d" stroke-width="0.6"/>
<circle cx="461.8" cy="145.1" r="2.4" fill="#dc2626" stroke="#7f1d1d" stroke-width="0.6"/>
<circle cx="559.6" cy="145.1" r="2.4" fill="#dc2626" stroke="#7f1d1d" stroke-width="0.6"/>
<circle cx="574.4" cy="145.1" r="2.4" fill="#dc2626" stroke="#7f1d1d" stroke-width="0.6"/>
<circle cx="589.1" cy="145.1" r="2.4" fill="#dc2626" stroke="#7f1d1d" stroke-width="0.6"/>
<circle cx="686.9" cy="145.1" r="2.4" fill="#dc2626" stroke="#7f1d1d" stroke-width="0.6"/>
<circle cx="701.7" cy="145.1" r="2.4" fill="#dc2626" stroke="#7f1d1d" stroke-width="0.6"/>
<circle cx="799.4" cy="145.1" r="2.4" fill="#dc2626" stroke="#7f1d1d" stroke-width="0.6"/>
<circle cx="814.4" cy="145.1" r="2.4" fill="#dc2626" stroke="#7f1d1d" stroke-width="0.6"/>
<circle cx="917.2" cy="145.1" r="2.4" fill="#dc2626" stroke="#7f1d1d" stroke-width="0.6"/>
<circle cx="287.4" cy="233.7" r="2.4" fill="#dc2626" stroke="#7f1d1d" stroke-width="0.6"/>
<circle cx="288.1" cy="232.8" r="2.4" fill="#dc2626" stroke="#7f1d1d" stroke-width="0.6"/>
<circle cx="289.7" cy="230.7" r="2.4" fill="#dc2626" stroke="#7f1d1d" stroke-width="0.6"/>
<circle cx="350.7" cy="149.9" r="2.4" fill="#dc2626" stroke="#7f1d1d" stroke-width="0.6"/>
<circle cx="352.4" cy="147.8" r="2.4" fill="#dc2626" stroke="#7f1d1d" stroke-width="0.6"/>
<circle cx="353.0" cy="146.9" r="2.4" fill="#dc2626" stroke="#7f1d1d" stroke-width="0.6"/>
<circle cx="367.4" cy="233.7" r="2.4" fill="#dc2626" stroke="#7f1d1d" stroke-width="0.6"/>
<circle cx="367.4" cy="231.7" r="2.4" fill="#dc2626" stroke="#7f1d1d" stroke-width="0.6"/>
<circle cx="367.4" cy="148.9" r="2.4" fill="#dc2626" stroke="#7f1d1d" stroke-width="0.6"/>
<circle cx="367.4" cy="146.9" r="2.4" fill="#dc2626" stroke="#7f1d1d" stroke-width="0.6"/>
<circle cx="461.8" cy="233.7" r="2.4" fill="#dc2626" stroke="#7f1d1d" stroke-width="0.6"/>
<circle cx="461.8" cy="231.7" r="2.4" fill="#dc2626" stroke="#7f1d1d" stroke-width="0.6"/>
<circle cx="461.8" cy="148.9" r="2.4" fill="#dc2626" stroke="#7f1d1d" stroke-width="0.6"/>
<circle cx="461.8" cy="146.9" r="2.4" fill="#dc2626" stroke="#7f1d1d" stroke-width="0.6"/>
<circle cx="476.6" cy="233.7" r="2.4" fill="#dc2626" stroke="#7f1d1d" stroke-width="0.6"/>
<circle cx="477.2" cy="233.0" r="2.4" fill="#dc2626" stroke="#7f1d1d" stroke-width="0.6"/>
<circle cx="479.6" cy="230.5" r="2.4" fill="#dc2626" stroke="#7f1d1d" stroke-width="0.6"/>
<circle cx="556.6" cy="150.1" r="2.4" fill="#dc2626" stroke="#7f1d1d" stroke-width="0.6"/>
<circle cx="558.9" cy="147.6" r="2.4" fill="#dc2626" stroke="#7f1d1d" stroke-width="0.6"/>
<circle cx="559.6" cy="146.9" r="2.4" fill="#dc2626" stroke="#7f1d1d" stroke-width="0.6"/>
<circle cx="672.1" cy="233.7" r="2.4" fill="#dc2626" stroke="#7f1d1d" stroke-width="0.6"/>
<circle cx="671.5" cy="233.0" r="2.4" fill="#dc2626" stroke="#7f1d1d" stroke-width="0.6"/>
<circle cx="669.1" cy="230.5" r="2.4" fill="#dc2626" stroke="#7f1d1d" stroke-width="0.6"/>
<circle cx="592.1" cy="150.1" r="2.4" fill="#dc2626" stroke="#7f1d1d" stroke-width="0.6"/>
<circle cx="589.8" cy="147.6" r="2.4" fill="#dc2626" stroke="#7f1d1d" stroke-width="0.6"/>
<circle cx="589.1" cy="146.9" r="2.4" fill="#dc2626" stroke="#7f1d1d" stroke-width="0.6"/>
<circle cx="902.7" cy="233.7" r="2.4" fill="#dc2626" stroke="#7f1d1d" stroke-width="0.6"/>
<circle cx="902.0" cy="233.0" r="2.4" fill="#dc2626" stroke="#7f1d1d" stroke-width="0.6"/>
<circle cx="899.4" cy="230.5" r="2.4" fill="#dc2626" stroke="#7f1d1d" stroke-width="0.6"/>
<circle cx="817.7" cy="150.1" r="2.4" fill="#dc2626" stroke="#7f1d1d" stroke-width="0.6"/>
<circle cx="815.1" cy="147.6" r="2.4" fill="#dc2626" stroke="#7f1d1d" stroke-width="0.6"/>
<circle cx="814.4" cy="146.9" r="2.4" fill="#dc2626" stroke="#7f1d1d" stroke-width="0.6"/>
<text x="186.5" y="181.3" font-size="11" font-weight="700" text-anchor="middle" fill="#0f172a" stroke="white" stroke-width="3.2" paint-order="stroke">T3</text>
<text x="186.5" y="194.3" font-size="9" font-weight="600" text-anchor="middle" fill="#7f1d1d" stroke="white" stroke-width="2.6" paint-order="stroke">8 bolts</text>
<text x="494.0" y="231.5" font-size="11" font-weight="700" text-anchor="middle" fill="#0f172a" stroke="white" stroke-width="3.2" paint-order="stroke">B1</text>
<text x="494.0" y="244.5" font-size="9" font-weight="600" text-anchor="middle" fill="#7f1d1d" stroke="white" stroke-width="2.6" paint-order="stroke">15 bolts</text>
<text x="98.2" y="224.6" font-size="11" font-weight="700" text-anchor="middle" fill="#0f172a" stroke="white" stroke-width="3.2" paint-order="stroke">W5</text>
<text x="98.2" y="237.6" font-size="9" font-weight="600" text-anchor="middle" fill="#7f1d1d" stroke="white" stroke-width="2.6" paint-order="stroke">5 bolts</text>
<text x="273.0" y="188.4" font-size="11" font-weight="700" text-anchor="middle" fill="#0f172a" stroke="white" stroke-width="3.2" paint-order="stroke">W6</text>
<text x="273.0" y="201.4" font-size="9" font-weight="600" text-anchor="middle" fill="#7f1d1d" stroke="white" stroke-width="2.6" paint-order="stroke">5 bolts</text>
<text x="320.2" y="186.3" font-size="11" font-weight="700" text-anchor="middle" fill="#0f172a" stroke="white" stroke-width="3.2" paint-order="stroke">W7</text>
<text x="320.2" y="199.3" font-size="9" font-weight="600" text-anchor="middle" fill="#7f1d1d" stroke="white" stroke-width="2.6" paint-order="stroke">6 bolts</text>
<text x="601.1" y="141.1" font-size="11" font-weight="700" text-anchor="middle" fill="#0f172a" stroke="white" stroke-width="3.2" paint-order="stroke">H4</text>
<text x="601.1" y="154.1" font-size="9" font-weight="600" text-anchor="middle" fill="#7f1d1d" stroke="white" stroke-width="2.6" paint-order="stroke">13 bolts</text>
<text x="367.4" y="186.3" font-size="11" font-weight="700" text-anchor="middle" fill="#0f172a" stroke="white" stroke-width="3.2" paint-order="stroke">W8</text>
<text x="367.4" y="199.3" font-size="9" font-weight="600" text-anchor="middle" fill="#7f1d1d" stroke="white" stroke-width="2.6" paint-order="stroke">4 bolts</text>
<text x="414.6" y="186.3" font-size="11" font-weight="700" text-anchor="middle" fill="#0f172a" stroke="white" stroke-width="3.2" paint-order="stroke">W7</text>
<text x="414.6" y="199.3" font-size="9" font-weight="600" text-anchor="middle" fill="#7f1d1d" stroke="white" stroke-width="2.6" paint-order="stroke">0 bolts</text>
<text x="461.8" y="186.3" font-size="11" font-weight="700" text-anchor="middle" fill="#0f172a" stroke="white" stroke-width="3.2" paint-order="stroke">W9</text>
<text x="461.8" y="199.3" font-size="9" font-weight="600" text-anchor="middle" fill="#7f1d1d" stroke="white" stroke-width="2.6" paint-order="stroke">4 bolts</text>
<text x="518.1" y="186.3" font-size="11" font-weight="700" text-anchor="middle" fill="#0f172a" stroke="white" stroke-width="3.2" paint-order="stroke">W10</text>
<text x="518.1" y="199.3" font-size="9" font-weight="600" text-anchor="middle" fill="#7f1d1d" stroke="white" stroke-width="2.6" paint-order="stroke">6 bolts</text>
<text x="461.8" y="231.5" font-size="11" font-weight="700" text-anchor="middle" fill="#0f172a" stroke="white" stroke-width="3.2" paint-order="stroke">B2</text>
<text x="461.8" y="244.5" font-size="9" font-weight="600" text-anchor="middle" fill="#7f1d1d" stroke="white" stroke-width="2.6" paint-order="stroke">0 bolts</text>
<text x="574.4" y="186.3" font-size="11" font-weight="700" text-anchor="middle" fill="#0f172a" stroke="white" stroke-width="3.2" paint-order="stroke">W8</text>
<text x="574.4" y="199.3" font-size="9" font-weight="600" text-anchor="middle" fill="#7f1d1d" stroke="white" stroke-width="2.6" paint-order="stroke">0 bolts</text>
<text x="630.6" y="186.3" font-size="11" font-weight="700" text-anchor="middle" fill="#0f172a" stroke="white" stroke-width="3.2" paint-order="stroke">W11</text>
<text x="630.6" y="199.3" font-size="9" font-weight="600" text-anchor="middle" fill="#7f1d1d" stroke="white" stroke-width="2.6" paint-order="stroke">6 bolts</text>
<text x="686.9" y="186.3" font-size="11" font-weight="700" text-anchor="middle" fill="#0f172a" stroke="white" stroke-width="3.2" paint-order="stroke">W8</text>
<text x="686.9" y="199.3" font-size="9" font-weight="600" text-anchor="middle" fill="#7f1d1d" stroke="white" stroke-width="2.6" paint-order="stroke">0 bolts</text>
<text x="743.2" y="186.3" font-size="11" font-weight="700" text-anchor="middle" fill="#0f172a" stroke="white" stroke-width="3.2" paint-order="stroke">W11</text>
<text x="743.2" y="199.3" font-size="9" font-weight="600" text-anchor="middle" fill="#7f1d1d" stroke="white" stroke-width="2.6" paint-order="stroke">0 bolts</text>
<text x="799.4" y="186.3" font-size="11" font-weight="700" text-anchor="middle" fill="#0f172a" stroke="white" stroke-width="3.2" paint-order="stroke">W8</text>
<text x="799.4" y="199.3" font-size="9" font-weight="600" text-anchor="middle" fill="#7f1d1d" stroke="white" stroke-width="2.6" paint-order="stroke">0 bolts</text>
<text x="858.7" y="186.4" font-size="11" font-weight="700" text-anchor="middle" fill="#0f172a" stroke="white" stroke-width="3.2" paint-order="stroke">W12</text>
<text x="858.7" y="199.4" font-size="9" font-weight="600" text-anchor="middle" fill="#7f1d1d" stroke="white" stroke-width="2.6" paint-order="stroke">6 bolts</text>
<text x="917.2" y="186.3" font-size="11" font-weight="700" text-anchor="middle" fill="#0f172a" stroke="white" stroke-width="3.2" paint-order="stroke">W9</text>
<text x="917.2" y="199.3" font-size="9" font-weight="600" text-anchor="middle" fill="#7f1d1d" stroke="white" stroke-width="2.6" paint-order="stroke">0 bolts</text>
<polygon points="1058.1,230.0 1061.7,238.7 1298.6,140.5 1295.1,131.9" fill="url(#chord-fill)" stroke="#1d4ed8" stroke-width="1.4" opacity="0.95"/>
<polygon points="1058.1,230.8 1058.1,240.1 1913.8,240.1 1913.8,230.8" fill="url(#chord-fill)" stroke="#1d4ed8" stroke-width="1.4" opacity="0.95"/>
<polygon points="1272.2,140.5 1272.2,149.8 1913.8,149.8 1913.8,140.5" fill="url(#chord-fill)" stroke="#1d4ed8" stroke-width="1.4" opacity="0.95"/>
<polygon points="1438.0,230.8 1438.0,240.1 1469.4,240.1 1469.4,230.8" fill="url(#chord-fill)" stroke="#1d4ed8" stroke-width="1.4" opacity="0.95"/>
<polygon points="1085.5,238.6 1094.8,238.6 1094.8,218.7 1085.5,218.7" fill="url(#web-fill)" stroke="#475569" stroke-width="1.2" opacity="0.85"/>
<polygon points="1260.3,238.6 1269.6,238.6 1269.6,146.3 1260.3,146.3" fill="url(#web-fill)" stroke="#475569" stroke-width="1.2" opacity="0.85"/>
<polygon points="1272.4,235.2 1279.8,240.8 1351.9,145.4 1344.4,139.8" fill="url(#web-fill)" stroke="#475569" stroke-width="1.2" opacity="0.85"/>
<polygon points="1354.7,238.6 1364.0,238.6 1364.0,142.0 1354.7,142.0" fill="url(#web-fill)" stroke="#475569" stroke-width="1.2" opacity="0.85"/>
<polygon points="1366.8,235.2 1374.2,240.8 1446.3,145.4 1438.8,139.8" fill="url(#web-fill)" stroke="#475569" stroke-width="1.2" opacity="0.85"/>
<polygon points="1449.1,239.8 1458.4,239.8 1458.4,140.8 1449.1,140.8" fill="url(#web-fill)" stroke="#475569" stroke-width="1.2" opacity="0.85"/>
<polygon points="1462.3,233.5 1469.0,239.9 1557.7,147.1 1551.0,140.7" fill="url(#web-fill)" stroke="#475569" stroke-width="1.2" opacity="0.85"/>
<polygon points="1561.6,238.6 1570.9,238.6 1570.9,142.0 1561.6,142.0" fill="url(#web-fill)" stroke="#475569" stroke-width="1.2" opacity="0.85"/>
<polygon points="1664.6,241.0 1671.3,234.5 1580.5,139.6 1573.8,146.1" fill="url(#web-fill)" stroke="#475569" stroke-width="1.2" opacity="0.85"/>
<polygon points="1674.1,238.6 1683.5,238.6 1683.5,142.0 1674.1,142.0" fill="url(#web-fill)" stroke="#475569" stroke-width="1.2" opacity="0.85"/>
<polygon points="1777.1,241.0 1783.8,234.5 1693.1,139.6 1686.3,146.1" fill="url(#web-fill)" stroke="#475569" stroke-width="1.2" opacity="0.85"/>
<polygon points="1786.7,238.6 1796.0,238.6 1796.0,142.0 1786.7,142.0" fill="url(#web-fill)" stroke="#475569" stroke-width="1.2" opacity="0.85"/>
<polygon points="1895.5,241.2 1902.1,234.5 1805.6,139.6 1799.1,146.3" fill="url(#web-fill)" stroke="#475569" stroke-width="1.2" opacity="0.85"/>
<polygon points="1904.5,239.8 1913.8,239.8 1913.8,140.8 1904.5,140.8" fill="url(#web-fill)" stroke="#475569" stroke-width="1.2" opacity="0.85"/>
<line x1="1059.9" y1="234.3" x2="1296.9" y2="136.2" stroke="#1d4ed8" stroke-width="0.6" stroke-dasharray="4 3" opacity="0.55"/>
<line x1="1058.1" y1="235.5" x2="1913.8" y2="235.5" stroke="#1d4ed8" stroke-width="0.6" stroke-dasharray="4 3" opacity="0.55"/>
<line x1="1090.2" y1="238.6" x2="1090.2" y2="218.7" stroke="#334155" stroke-width="0.6" stroke-dasharray="4 3" opacity="0.55"/>
<line x1="1264.9" y1="238.6" x2="1264.9" y2="146.3" stroke="#334155" stroke-width="0.6" stroke-dasharray="4 3" opacity="0.55"/>
<line x1="1276.1" y1="238.0" x2="1348.2" y2="142.6" stroke="#334155" stroke-width="0.6" stroke-dasharray="4 3" opacity="0.55"/>
<line x1="1272.2" y1="145.1" x2="1913.8" y2="145.1" stroke="#1d4ed8" stroke-width="0.6" stroke-dasharray="4 3" opacity="0.55"/>
<line x1="1359.3" y1="238.6" x2="1359.3" y2="142.0" stroke="#334155" stroke-width="0.6" stroke-dasharray="4 3" opacity="0.55"/>
<line x1="1370.5" y1="238.0" x2="1442.6" y2="142.6" stroke="#334155" stroke-width="0.6" stroke-dasharray="4 3" opacity="0.55"/>
<line x1="1453.7" y1="239.8" x2="1453.7" y2="140.8" stroke="#334155" stroke-width="0.6" stroke-dasharray="4 3" opacity="0.55"/>
<line x1="1465.6" y1="236.7" x2="1554.4" y2="143.9" stroke="#334155" stroke-width="0.6" stroke-dasharray="4 3" opacity="0.55"/>
<line x1="1438.0" y1="235.5" x2="1469.4" y2="235.5" stroke="#1d4ed8" stroke-width="0.6" stroke-dasharray="4 3" opacity="0.55"/>
<line x1="1566.3" y1="238.6" x2="1566.3" y2="142.0" stroke="#334155" stroke-width="0.6" stroke-dasharray="4 3" opacity="0.55"/>
<line x1="1667.9" y1="237.7" x2="1577.2" y2="142.9" stroke="#334155" stroke-width="0.6" stroke-dasharray="4 3" opacity="0.55"/>
<line x1="1678.8" y1="238.6" x2="1678.8" y2="142.0" stroke="#334155" stroke-width="0.6" stroke-dasharray="4 3" opacity="0.55"/>
<line x1="1780.5" y1="237.7" x2="1689.7" y2="142.9" stroke="#334155" stroke-width="0.6" stroke-dasharray="4 3" opacity="0.55"/>
<line x1="1791.4" y1="238.6" x2="1791.4" y2="142.0" stroke="#334155" stroke-width="0.6" stroke-dasharray="4 3" opacity="0.55"/>
<line x1="1898.8" y1="237.8" x2="1802.3" y2="143.0" stroke="#334155" stroke-width="0.6" stroke-dasharray="4 3" opacity="0.55"/>
<line x1="1909.1" y1="239.8" x2="1909.1" y2="140.8" stroke="#334155" stroke-width="0.6" stroke-dasharray="4 3" opacity="0.55"/>
<circle cx="1090.2" cy="237.3" r="2.0" fill="#16a34a" stroke="#14532d" stroke-width="0.7"/>
<circle cx="1090.2" cy="235.5" r="3.6" fill="none" stroke="#16a34a" stroke-width="1.2" opacity="0.5"/>
<circle cx="1090.2" cy="235.5" r="2.3" fill="#16a34a" stroke="#14532d" stroke-width="0.9"/>
<circle cx="1090.2" cy="233.7" r="2.0" fill="#16a34a" stroke="#14532d" stroke-width="0.7"/>
<circle cx="1264.9" cy="237.3" r="2.0" fill="#16a34a" stroke="#14532d" stroke-width="0.7"/>
<circle cx="1264.9" cy="235.5" r="3.6" fill="none" stroke="#16a34a" stroke-width="1.2" opacity="0.5"/>
<circle cx="1264.9" cy="235.5" r="2.3" fill="#16a34a" stroke="#14532d" stroke-width="0.9"/>
<circle cx="1264.9" cy="233.7" r="2.0" fill="#16a34a" stroke="#14532d" stroke-width="0.7"/>
<circle cx="1278.0" cy="237.3" r="2.0" fill="#16a34a" stroke="#14532d" stroke-width="0.7"/>
<circle cx="1278.0" cy="235.5" r="3.6" fill="none" stroke="#16a34a" stroke-width="1.2" opacity="0.5"/>
<circle cx="1278.0" cy="235.5" r="2.3" fill="#16a34a" stroke="#14532d" stroke-width="0.9"/>
<circle cx="1278.0" cy="233.7" r="2.0" fill="#16a34a" stroke="#14532d" stroke-width="0.7"/>
<circle cx="1359.3" cy="237.3" r="2.0" fill="#16a34a" stroke="#14532d" stroke-width="0.7"/>
<circle cx="1359.3" cy="235.5" r="3.6" fill="none" stroke="#16a34a" stroke-width="1.2" opacity="0.5"/>
<circle cx="1359.3" cy="235.5" r="2.3" fill="#16a34a" stroke="#14532d" stroke-width="0.9"/>
<circle cx="1359.3" cy="233.7" r="2.0" fill="#16a34a" stroke="#14532d" stroke-width="0.7"/>
<circle cx="1372.4" cy="237.3" r="2.0" fill="#16a34a" stroke="#14532d" stroke-width="0.7"/>
<circle cx="1372.4" cy="235.5" r="3.6" fill="none" stroke="#16a34a" stroke-width="1.2" opacity="0.5"/>
<circle cx="1372.4" cy="235.5" r="2.3" fill="#16a34a" stroke="#14532d" stroke-width="0.9"/>
<circle cx="1372.4" cy="233.7" r="2.0" fill="#16a34a" stroke="#14532d" stroke-width="0.7"/>
<circle cx="1453.7" cy="237.3" r="2.0" fill="#16a34a" stroke="#14532d" stroke-width="0.7"/>
<circle cx="1453.7" cy="235.5" r="3.6" fill="none" stroke="#16a34a" stroke-width="1.2" opacity="0.5"/>
<circle cx="1453.7" cy="235.5" r="2.3" fill="#16a34a" stroke="#14532d" stroke-width="0.9"/>
<circle cx="1453.7" cy="233.7" r="2.0" fill="#16a34a" stroke="#14532d" stroke-width="0.7"/>
<circle cx="1466.8" cy="237.3" r="2.0" fill="#16a34a" stroke="#14532d" stroke-width="0.7"/>
<circle cx="1466.8" cy="235.5" r="3.6" fill="none" stroke="#16a34a" stroke-width="1.2" opacity="0.5"/>
<circle cx="1466.8" cy="235.5" r="2.3" fill="#16a34a" stroke="#14532d" stroke-width="0.9"/>
<circle cx="1466.8" cy="233.7" r="2.0" fill="#16a34a" stroke="#14532d" stroke-width="0.7"/>
<circle cx="1566.3" cy="237.3" r="2.0" fill="#16a34a" stroke="#14532d" stroke-width="0.7"/>
<circle cx="1566.3" cy="235.5" r="3.6" fill="none" stroke="#16a34a" stroke-width="1.2" opacity="0.5"/>
<circle cx="1566.3" cy="235.5" r="2.3" fill="#16a34a" stroke="#14532d" stroke-width="0.9"/>
<circle cx="1566.3" cy="233.7" r="2.0" fill="#16a34a" stroke="#14532d" stroke-width="0.7"/>
<circle cx="1665.8" cy="237.3" r="2.0" fill="#16a34a" stroke="#14532d" stroke-width="0.7"/>
<circle cx="1665.8" cy="235.5" r="3.6" fill="none" stroke="#16a34a" stroke-width="1.2" opacity="0.5"/>
<circle cx="1665.8" cy="235.5" r="2.3" fill="#16a34a" stroke="#14532d" stroke-width="0.9"/>
<circle cx="1665.8" cy="233.7" r="2.0" fill="#16a34a" stroke="#14532d" stroke-width="0.7"/>
<circle cx="1678.8" cy="237.3" r="2.0" fill="#16a34a" stroke="#14532d" stroke-width="0.7"/>
<circle cx="1678.8" cy="235.5" r="3.6" fill="none" stroke="#16a34a" stroke-width="1.2" opacity="0.5"/>
<circle cx="1678.8" cy="235.5" r="2.3" fill="#16a34a" stroke="#14532d" stroke-width="0.9"/>
<circle cx="1678.8" cy="233.7" r="2.0" fill="#16a34a" stroke="#14532d" stroke-width="0.7"/>
<circle cx="1778.3" cy="237.3" r="2.0" fill="#16a34a" stroke="#14532d" stroke-width="0.7"/>
<circle cx="1778.3" cy="235.5" r="3.6" fill="none" stroke="#16a34a" stroke-width="1.2" opacity="0.5"/>
<circle cx="1778.3" cy="235.5" r="2.3" fill="#16a34a" stroke="#14532d" stroke-width="0.9"/>
<circle cx="1778.3" cy="233.7" r="2.0" fill="#16a34a" stroke="#14532d" stroke-width="0.7"/>
<circle cx="1791.4" cy="237.3" r="2.0" fill="#16a34a" stroke="#14532d" stroke-width="0.7"/>
<circle cx="1791.4" cy="235.5" r="3.6" fill="none" stroke="#16a34a" stroke-width="1.2" opacity="0.5"/>
<circle cx="1791.4" cy="235.5" r="2.3" fill="#16a34a" stroke="#14532d" stroke-width="0.9"/>
<circle cx="1791.4" cy="233.7" r="2.0" fill="#16a34a" stroke="#14532d" stroke-width="0.7"/>
<circle cx="1896.4" cy="237.3" r="2.0" fill="#16a34a" stroke="#14532d" stroke-width="0.7"/>
<circle cx="1896.4" cy="235.5" r="3.6" fill="none" stroke="#16a34a" stroke-width="1.2" opacity="0.5"/>
<circle cx="1896.4" cy="235.5" r="2.3" fill="#16a34a" stroke="#14532d" stroke-width="0.9"/>
<circle cx="1896.4" cy="233.7" r="2.0" fill="#16a34a" stroke="#14532d" stroke-width="0.7"/>
<circle cx="1909.1" cy="237.3" r="2.0" fill="#16a34a" stroke="#14532d" stroke-width="0.7"/>
<circle cx="1909.1" cy="235.5" r="3.6" fill="none" stroke="#16a34a" stroke-width="1.2" opacity="0.5"/>
<circle cx="1909.1" cy="235.5" r="2.3" fill="#16a34a" stroke="#14532d" stroke-width="0.9"/>
<circle cx="1909.1" cy="233.7" r="2.0" fill="#16a34a" stroke="#14532d" stroke-width="0.7"/>
<circle cx="1453.7" cy="237.3" r="2.0" fill="#16a34a" stroke="#14532d" stroke-width="0.7"/>
<circle cx="1453.7" cy="235.5" r="3.6" fill="none" stroke="#16a34a" stroke-width="1.2" opacity="0.5"/>
<circle cx="1453.7" cy="235.5" r="2.3" fill="#16a34a" stroke="#14532d" stroke-width="0.9"/>
<circle cx="1453.7" cy="233.7" r="2.0" fill="#16a34a" stroke="#14532d" stroke-width="0.7"/>
<circle cx="1466.8" cy="237.3" r="2.0" fill="#16a34a" stroke="#14532d" stroke-width="0.7"/>
<circle cx="1466.8" cy="235.5" r="3.6" fill="none" stroke="#16a34a" stroke-width="1.2" opacity="0.5"/>
<circle cx="1466.8" cy="235.5" r="2.3" fill="#16a34a" stroke="#14532d" stroke-width="0.9"/>
<circle cx="1466.8" cy="233.7" r="2.0" fill="#16a34a" stroke="#14532d" stroke-width="0.7"/>
<circle cx="1090.8" cy="223.5" r="2.0" fill="#16a34a" stroke="#14532d" stroke-width="0.7"/>
<circle cx="1090.2" cy="221.8" r="3.6" fill="none" stroke="#16a34a" stroke-width="1.2" opacity="0.5"/>
<circle cx="1090.2" cy="221.8" r="2.3" fill="#16a34a" stroke="#14532d" stroke-width="0.9"/>
<circle cx="1089.5" cy="220.2" r="2.0" fill="#16a34a" stroke="#14532d" stroke-width="0.7"/>
<circle cx="1265.6" cy="151.1" r="2.0" fill="#16a34a" stroke="#14532d" stroke-width="0.7"/>
<circle cx="1264.9" cy="149.4" r="3.6" fill="none" stroke="#16a34a" stroke-width="1.2" opacity="0.5"/>
<circle cx="1264.9" cy="149.4" r="2.3" fill="#16a34a" stroke="#14532d" stroke-width="0.9"/>
<circle cx="1264.3" cy="147.8" r="2.0" fill="#16a34a" stroke="#14532d" stroke-width="0.7"/>
<circle cx="1276.0" cy="146.8" r="2.0" fill="#16a34a" stroke="#14532d" stroke-width="0.7"/>
<circle cx="1275.3" cy="145.1" r="3.6" fill="none" stroke="#16a34a" stroke-width="1.2" opacity="0.5"/>
<circle cx="1275.3" cy="145.1" r="2.3" fill="#16a34a" stroke="#14532d" stroke-width="0.9"/>
<circle cx="1274.6" cy="143.5" r="2.0" fill="#16a34a" stroke="#14532d" stroke-width="0.7"/>
<circle cx="1091.9" cy="235.5" r="2.0" fill="#16a34a" stroke="#14532d" stroke-width="0.7"/>
<circle cx="1090.2" cy="235.5" r="3.6" fill="none" stroke="#16a34a" stroke-width="1.2" opacity="0.5"/>
<circle cx="1090.2" cy="235.5" r="2.3" fill="#16a34a" stroke="#14532d" stroke-width="0.9"/>
<circle cx="1088.4" cy="235.5" r="2.0" fill="#16a34a" stroke="#14532d" stroke-width="0.7"/>
<circle cx="1091.9" cy="221.8" r="2.0" fill="#16a34a" stroke="#14532d" stroke-width="0.7"/>
<circle cx="1090.2" cy="221.8" r="3.6" fill="none" stroke="#16a34a" stroke-width="1.2" opacity="0.5"/>
<circle cx="1090.2" cy="221.8" r="2.3" fill="#16a34a" stroke="#14532d" stroke-width="0.9"/>
<circle cx="1088.4" cy="221.8" r="2.0" fill="#16a34a" stroke="#14532d" stroke-width="0.7"/>
<circle cx="1266.7" cy="235.5" r="2.0" fill="#16a34a" stroke="#14532d" stroke-width="0.7"/>
<circle cx="1264.9" cy="235.5" r="3.6" fill="none" stroke="#16a34a" stroke-width="1.2" opacity="0.5"/>
<circle cx="1264.9" cy="235.5" r="2.3" fill="#16a34a" stroke="#14532d" stroke-width="0.9"/>
<circle cx="1263.2" cy="235.5" r="2.0" fill="#16a34a" stroke="#14532d" stroke-width="0.7"/>
<circle cx="1266.7" cy="149.4" r="2.0" fill="#16a34a" stroke="#14532d" stroke-width="0.7"/>
<circle cx="1264.9" cy="149.4" r="3.6" fill="none" stroke="#16a34a" stroke-width="1.2" opacity="0.5"/>
<circle cx="1264.9" cy="149.4" r="2.3" fill="#16a34a" stroke="#14532d" stroke-width="0.9"/>
<circle cx="1263.2" cy="149.4" r="2.0" fill="#16a34a" stroke="#14532d" stroke-width="0.7"/>
<circle cx="1275.3" cy="146.9" r="2.0" fill="#16a34a" stroke="#14532d" stroke-width="0.7"/>
<circle cx="1275.3" cy="145.1" r="3.6" fill="none" stroke="#16a34a" stroke-width="1.2" opacity="0.5"/>
<circle cx="1275.3" cy="145.1" r="2.3" fill="#16a34a" stroke="#14532d" stroke-width="0.9"/>
<circle cx="1275.3" cy="143.4" r="2.0" fill="#16a34a" stroke="#14532d" stroke-width="0.7"/>
<circle cx="1346.3" cy="146.9" r="2.0" fill="#16a34a" stroke="#14532d" stroke-width="0.7"/>
<circle cx="1346.3" cy="145.1" r="3.6" fill="none" stroke="#16a34a" stroke-width="1.2" opacity="0.5"/>
<circle cx="1346.3" cy="145.1" r="2.3" fill="#16a34a" stroke="#14532d" stroke-width="0.9"/>
<circle cx="1346.3" cy="143.4" r="2.0" fill="#16a34a" stroke="#14532d" stroke-width="0.7"/>
<circle cx="1359.3" cy="146.9" r="2.0" fill="#16a34a" stroke="#14532d" stroke-width="0.7"/>
<circle cx="1359.3" cy="145.1" r="3.6" fill="none" stroke="#16a34a" stroke-width="1.2" opacity="0.5"/>
<circle cx="1359.3" cy="145.1" r="2.3" fill="#16a34a" stroke="#14532d" stroke-width="0.9"/>
<circle cx="1359.3" cy="143.4" r="2.0" fill="#16a34a" stroke="#14532d" stroke-width="0.7"/>
<circle cx="1440.7" cy="146.9" r="2.0" fill="#16a34a" stroke="#14532d" stroke-width="0.7"/>
<circle cx="1440.7" cy="145.1" r="3.6" fill="none" stroke="#16a34a" stroke-width="1.2" opacity="0.5"/>
<circle cx="1440.7" cy="145.1" r="2.3" fill="#16a34a" stroke="#14532d" stroke-width="0.9"/>
<circle cx="1440.7" cy="143.4" r="2.0" fill="#16a34a" stroke="#14532d" stroke-width="0.7"/>
<circle cx="1453.7" cy="146.9" r="2.0" fill="#16a34a" stroke="#14532d" stroke-width="0.7"/>
<circle cx="1453.7" cy="145.1" r="3.6" fill="none" stroke="#16a34a" stroke-width="1.2" opacity="0.5"/>
<circle cx="1453.7" cy="145.1" r="2.3" fill="#16a34a" stroke="#14532d" stroke-width="0.9"/>
<circle cx="1453.7" cy="143.4" r="2.0" fill="#16a34a" stroke="#14532d" stroke-width="0.7"/>
<circle cx="1553.2" cy="146.9" r="2.0" fill="#16a34a" stroke="#14532d" stroke-width="0.7"/>
<circle cx="1553.2" cy="145.1" r="3.6" fill="none" stroke="#16a34a" stroke-width="1.2" opacity="0.5"/>
<circle cx="1553.2" cy="145.1" r="2.3" fill="#16a34a" stroke="#14532d" stroke-width="0.9"/>
<circle cx="1553.2" cy="143.4" r="2.0" fill="#16a34a" stroke="#14532d" stroke-width="0.7"/>
<circle cx="1566.3" cy="146.9" r="2.0" fill="#16a34a" stroke="#14532d" stroke-width="0.7"/>
<circle cx="1566.3" cy="145.1" r="3.6" fill="none" stroke="#16a34a" stroke-width="1.2" opacity="0.5"/>
<circle cx="1566.3" cy="145.1" r="2.3" fill="#16a34a" stroke="#14532d" stroke-width="0.9"/>
<circle cx="1566.3" cy="143.4" r="2.0" fill="#16a34a" stroke="#14532d" stroke-width="0.7"/>
<circle cx="1579.3" cy="146.9" r="2.0" fill="#16a34a" stroke="#14532d" stroke-width="0.7"/>
<circle cx="1579.3" cy="145.1" r="3.6" fill="none" stroke="#16a34a" stroke-width="1.2" opacity="0.5"/>
<circle cx="1579.3" cy="145.1" r="2.3" fill="#16a34a" stroke="#14532d" stroke-width="0.9"/>
<circle cx="1579.3" cy="143.4" r="2.0" fill="#16a34a" stroke="#14532d" stroke-width="0.7"/>
<circle cx="1678.8" cy="146.9" r="2.0" fill="#16a34a" stroke="#14532d" stroke-width="0.7"/>
<circle cx="1678.8" cy="145.1" r="3.6" fill="none" stroke="#16a34a" stroke-width="1.2" opacity="0.5"/>
<circle cx="1678.8" cy="145.1" r="2.3" fill="#16a34a" stroke="#14532d" stroke-width="0.9"/>
<circle cx="1678.8" cy="143.4" r="2.0" fill="#16a34a" stroke="#14532d" stroke-width="0.7"/>
<circle cx="1691.9" cy="146.9" r="2.0" fill="#16a34a" stroke="#14532d" stroke-width="0.7"/>
<circle cx="1691.9" cy="145.1" r="3.6" fill="none" stroke="#16a34a" stroke-width="1.2" opacity="0.5"/>
<circle cx="1691.9" cy="145.1" r="2.3" fill="#16a34a" stroke="#14532d" stroke-width="0.9"/>
<circle cx="1691.9" cy="143.4" r="2.0" fill="#16a34a" stroke="#14532d" stroke-width="0.7"/>
<circle cx="1791.4" cy="146.9" r="2.0" fill="#16a34a" stroke="#14532d" stroke-width="0.7"/>
<circle cx="1791.4" cy="145.1" r="3.6" fill="none" stroke="#16a34a" stroke-width="1.2" opacity="0.5"/>
<circle cx="1791.4" cy="145.1" r="2.3" fill="#16a34a" stroke="#14532d" stroke-width="0.9"/>
<circle cx="1791.4" cy="143.4" r="2.0" fill="#16a34a" stroke="#14532d" stroke-width="0.7"/>
<circle cx="1804.5" cy="146.9" r="2.0" fill="#16a34a" stroke="#14532d" stroke-width="0.7"/>
<circle cx="1804.5" cy="145.1" r="3.6" fill="none" stroke="#16a34a" stroke-width="1.2" opacity="0.5"/>
<circle cx="1804.5" cy="145.1" r="2.3" fill="#16a34a" stroke="#14532d" stroke-width="0.9"/>
<circle cx="1804.5" cy="143.4" r="2.0" fill="#16a34a" stroke="#14532d" stroke-width="0.7"/>
<circle cx="1909.1" cy="146.9" r="2.0" fill="#16a34a" stroke="#14532d" stroke-width="0.7"/>
<circle cx="1909.1" cy="145.1" r="3.6" fill="none" stroke="#16a34a" stroke-width="1.2" opacity="0.5"/>
<circle cx="1909.1" cy="145.1" r="2.3" fill="#16a34a" stroke="#14532d" stroke-width="0.9"/>
<circle cx="1909.1" cy="143.4" r="2.0" fill="#16a34a" stroke="#14532d" stroke-width="0.7"/>
<circle cx="1279.4" cy="236.5" r="2.0" fill="#16a34a" stroke="#14532d" stroke-width="0.7"/>
<circle cx="1278.0" cy="235.5" r="3.6" fill="none" stroke="#16a34a" stroke-width="1.2" opacity="0.5"/>
<circle cx="1278.0" cy="235.5" r="2.3" fill="#16a34a" stroke="#14532d" stroke-width="0.9"/>
<circle cx="1276.6" cy="234.4" r="2.0" fill="#16a34a" stroke="#14532d" stroke-width="0.7"/>
<circle cx="1347.7" cy="146.2" r="2.0" fill="#16a34a" stroke="#14532d" stroke-width="0.7"/>
<circle cx="1346.3" cy="145.1" r="3.6" fill="none" stroke="#16a34a" stroke-width="1.2" opacity="0.5"/>
<circle cx="1346.3" cy="145.1" r="2.3" fill="#16a34a" stroke="#14532d" stroke-width="0.9"/>
<circle cx="1344.9" cy="144.1" r="2.0" fill="#16a34a" stroke="#14532d" stroke-width="0.7"/>
<circle cx="1361.1" cy="235.5" r="2.0" fill="#16a34a" stroke="#14532d" stroke-width="0.7"/>
<circle cx="1359.3" cy="235.5" r="3.6" fill="none" stroke="#16a34a" stroke-width="1.2" opacity="0.5"/>
<circle cx="1359.3" cy="235.5" r="2.3" fill="#16a34a" stroke="#14532d" stroke-width="0.9"/>
<circle cx="1357.6" cy="235.5" r="2.0" fill="#16a34a" stroke="#14532d" stroke-width="0.7"/>
<circle cx="1361.1" cy="145.1" r="2.0" fill="#16a34a" stroke="#14532d" stroke-width="0.7"/>
<circle cx="1359.3" cy="145.1" r="3.6" fill="none" stroke="#16a34a" stroke-width="1.2" opacity="0.5"/>
<circle cx="1359.3" cy="145.1" r="2.3" fill="#16a34a" stroke="#14532d" stroke-width="0.9"/>
<circle cx="1357.6" cy="145.1" r="2.0" fill="#16a34a" stroke="#14532d" stroke-width="0.7"/>
<circle cx="1455.5" cy="235.5" r="2.0" fill="#16a34a" stroke="#14532d" stroke-width="0.7"/>
<circle cx="1453.7" cy="235.5" r="3.6" fill="none" stroke="#16a34a" stroke-width="1.2" opacity="0.5"/>
<circle cx="1453.7" cy="235.5" r="2.3" fill="#16a34a" stroke="#14532d" stroke-width="0.9"/>
<circle cx="1451.9" cy="235.5" r="2.0" fill="#16a34a" stroke="#14532d" stroke-width="0.7"/>
<circle cx="1455.5" cy="145.1" r="2.0" fill="#16a34a" stroke="#14532d" stroke-width="0.7"/>
<circle cx="1453.7" cy="145.1" r="3.6" fill="none" stroke="#16a34a" stroke-width="1.2" opacity="0.5"/>
<circle cx="1453.7" cy="145.1" r="2.3" fill="#16a34a" stroke="#14532d" stroke-width="0.9"/>
<circle cx="1451.9" cy="145.1" r="2.0" fill="#16a34a" stroke="#14532d" stroke-width="0.7"/>
<circle cx="1468.1" cy="236.7" r="2.0" fill="#16a34a" stroke="#14532d" stroke-width="0.7"/>
<circle cx="1466.8" cy="235.5" r="3.6" fill="none" stroke="#16a34a" stroke-width="1.2" opacity="0.5"/>
<circle cx="1466.8" cy="235.5" r="2.3" fill="#16a34a" stroke="#14532d" stroke-width="0.9"/>
<circle cx="1465.5" cy="234.2" r="2.0" fill="#16a34a" stroke="#14532d" stroke-width="0.7"/>
<circle cx="1554.5" cy="146.4" r="2.0" fill="#16a34a" stroke="#14532d" stroke-width="0.7"/>
<circle cx="1553.2" cy="145.1" r="3.6" fill="none" stroke="#16a34a" stroke-width="1.2" opacity="0.5"/>
<circle cx="1553.2" cy="145.1" r="2.3" fill="#16a34a" stroke="#14532d" stroke-width="0.9"/>
<circle cx="1551.9" cy="143.9" r="2.0" fill="#16a34a" stroke="#14532d" stroke-width="0.7"/>
<circle cx="1667.0" cy="234.2" r="2.0" fill="#16a34a" stroke="#14532d" stroke-width="0.7"/>
<circle cx="1665.8" cy="235.5" r="3.6" fill="none" stroke="#16a34a" stroke-width="1.2" opacity="0.5"/>
<circle cx="1665.8" cy="235.5" r="2.3" fill="#16a34a" stroke="#14532d" stroke-width="0.9"/>
<circle cx="1664.5" cy="236.7" r="2.0" fill="#16a34a" stroke="#14532d" stroke-width="0.7"/>
<circle cx="1580.6" cy="143.9" r="2.0" fill="#16a34a" stroke="#14532d" stroke-width="0.7"/>
<circle cx="1579.3" cy="145.1" r="3.6" fill="none" stroke="#16a34a" stroke-width="1.2" opacity="0.5"/>
<circle cx="1579.3" cy="145.1" r="2.3" fill="#16a34a" stroke="#14532d" stroke-width="0.9"/>
<circle cx="1578.0" cy="146.4" r="2.0" fill="#16a34a" stroke="#14532d" stroke-width="0.7"/>
<circle cx="1897.7" cy="234.2" r="2.0" fill="#16a34a" stroke="#14532d" stroke-width="0.7"/>
<circle cx="1896.4" cy="235.5" r="3.6" fill="none" stroke="#16a34a" stroke-width="1.2" opacity="0.5"/>
<circle cx="1896.4" cy="235.5" r="2.3" fill="#16a34a" stroke="#14532d" stroke-width="0.9"/>
<circle cx="1895.2" cy="236.7" r="2.0" fill="#16a34a" stroke="#14532d" stroke-width="0.7"/>
<circle cx="1805.8" cy="143.9" r="2.0" fill="#16a34a" stroke="#14532d" stroke-width="0.7"/>
<circle cx="1804.5" cy="145.1" r="3.6" fill="none" stroke="#16a34a" stroke-width="1.2" opacity="0.5"/>
<circle cx="1804.5" cy="145.1" r="2.3" fill="#16a34a" stroke="#14532d" stroke-width="0.9"/>
<circle cx="1803.3" cy="146.4" r="2.0" fill="#16a34a" stroke="#14532d" stroke-width="0.7"/>
<text x="1178.4" y="181.3" font-size="11" font-weight="700" text-anchor="middle" fill="#0f172a" stroke="white" stroke-width="3.2" paint-order="stroke">T3</text>
<text x="1178.4" y="194.3" font-size="9" font-weight="600" text-anchor="middle" fill="#14532d" stroke="white" stroke-width="2.6" paint-order="stroke">3 bolts</text>
<text x="1486.0" y="231.5" font-size="11" font-weight="700" text-anchor="middle" fill="#0f172a" stroke="white" stroke-width="3.2" paint-order="stroke">B1</text>
<text x="1486.0" y="244.5" font-size="9" font-weight="600" text-anchor="middle" fill="#14532d" stroke="white" stroke-width="2.6" paint-order="stroke">14 bolts</text>
<text x="1090.2" y="224.6" font-size="11" font-weight="700" text-anchor="middle" fill="#0f172a" stroke="white" stroke-width="3.2" paint-order="stroke">W5</text>
<text x="1090.2" y="237.6" font-size="9" font-weight="600" text-anchor="middle" fill="#14532d" stroke="white" stroke-width="2.6" paint-order="stroke">2 bolts</text>
<text x="1264.9" y="188.4" font-size="11" font-weight="700" text-anchor="middle" fill="#0f172a" stroke="white" stroke-width="3.2" paint-order="stroke">W6</text>
<text x="1264.9" y="201.4" font-size="9" font-weight="600" text-anchor="middle" fill="#14532d" stroke="white" stroke-width="2.6" paint-order="stroke">2 bolts</text>
<text x="1312.1" y="186.3" font-size="11" font-weight="700" text-anchor="middle" fill="#0f172a" stroke="white" stroke-width="3.2" paint-order="stroke">W7</text>
<text x="1312.1" y="199.3" font-size="9" font-weight="600" text-anchor="middle" fill="#14532d" stroke="white" stroke-width="2.6" paint-order="stroke">2 bolts</text>
<text x="1593.0" y="141.1" font-size="11" font-weight="700" text-anchor="middle" fill="#0f172a" stroke="white" stroke-width="3.2" paint-order="stroke">H4</text>
<text x="1593.0" y="154.1" font-size="9" font-weight="600" text-anchor="middle" fill="#14532d" stroke="white" stroke-width="2.6" paint-order="stroke">13 bolts</text>
<text x="1359.3" y="186.3" font-size="11" font-weight="700" text-anchor="middle" fill="#0f172a" stroke="white" stroke-width="3.2" paint-order="stroke">W8</text>
<text x="1359.3" y="199.3" font-size="9" font-weight="600" text-anchor="middle" fill="#14532d" stroke="white" stroke-width="2.6" paint-order="stroke">2 bolts</text>
<text x="1406.5" y="186.3" font-size="11" font-weight="700" text-anchor="middle" fill="#0f172a" stroke="white" stroke-width="3.2" paint-order="stroke">W7</text>
<text x="1406.5" y="199.3" font-size="9" font-weight="600" text-anchor="middle" fill="#14532d" stroke="white" stroke-width="2.6" paint-order="stroke">0 bolts</text>
<text x="1453.7" y="186.3" font-size="11" font-weight="700" text-anchor="middle" fill="#0f172a" stroke="white" stroke-width="3.2" paint-order="stroke">W9</text>
<text x="1453.7" y="199.3" font-size="9" font-weight="600" text-anchor="middle" fill="#14532d" stroke="white" stroke-width="2.6" paint-order="stroke">2 bolts</text>
<text x="1510.0" y="186.3" font-size="11" font-weight="700" text-anchor="middle" fill="#0f172a" stroke="white" stroke-width="3.2" paint-order="stroke">W10</text>
<text x="1510.0" y="199.3" font-size="9" font-weight="600" text-anchor="middle" fill="#14532d" stroke="white" stroke-width="2.6" paint-order="stroke">2 bolts</text>
<text x="1453.7" y="231.5" font-size="11" font-weight="700" text-anchor="middle" fill="#0f172a" stroke="white" stroke-width="3.2" paint-order="stroke">B2</text>
<text x="1453.7" y="244.5" font-size="9" font-weight="600" text-anchor="middle" fill="#14532d" stroke="white" stroke-width="2.6" paint-order="stroke">2 bolts</text>
<text x="1566.3" y="186.3" font-size="11" font-weight="700" text-anchor="middle" fill="#0f172a" stroke="white" stroke-width="3.2" paint-order="stroke">W8</text>
<text x="1566.3" y="199.3" font-size="9" font-weight="600" text-anchor="middle" fill="#14532d" stroke="white" stroke-width="2.6" paint-order="stroke">0 bolts</text>
<text x="1622.5" y="186.3" font-size="11" font-weight="700" text-anchor="middle" fill="#0f172a" stroke="white" stroke-width="3.2" paint-order="stroke">W11</text>
<text x="1622.5" y="199.3" font-size="9" font-weight="600" text-anchor="middle" fill="#14532d" stroke="white" stroke-width="2.6" paint-order="stroke">2 bolts</text>
<text x="1678.8" y="186.3" font-size="11" font-weight="700" text-anchor="middle" fill="#0f172a" stroke="white" stroke-width="3.2" paint-order="stroke">W8</text>
<text x="1678.8" y="199.3" font-size="9" font-weight="600" text-anchor="middle" fill="#14532d" stroke="white" stroke-width="2.6" paint-order="stroke">0 bolts</text>
<text x="1735.1" y="186.3" font-size="11" font-weight="700" text-anchor="middle" fill="#0f172a" stroke="white" stroke-width="3.2" paint-order="stroke">W11</text>
<text x="1735.1" y="199.3" font-size="9" font-weight="600" text-anchor="middle" fill="#14532d" stroke="white" stroke-width="2.6" paint-order="stroke">0 bolts</text>
<text x="1791.4" y="186.3" font-size="11" font-weight="700" text-anchor="middle" fill="#0f172a" stroke="white" stroke-width="3.2" paint-order="stroke">W8</text>
<text x="1791.4" y="199.3" font-size="9" font-weight="600" text-anchor="middle" fill="#14532d" stroke="white" stroke-width="2.6" paint-order="stroke">0 bolts</text>
<text x="1850.6" y="186.4" font-size="11" font-weight="700" text-anchor="middle" fill="#0f172a" stroke="white" stroke-width="3.2" paint-order="stroke">W12</text>
<text x="1850.6" y="199.4" font-size="9" font-weight="600" text-anchor="middle" fill="#14532d" stroke="white" stroke-width="2.6" paint-order="stroke">2 bolts</text>
<text x="1909.1" y="186.3" font-size="11" font-weight="700" text-anchor="middle" fill="#0f172a" stroke="white" stroke-width="3.2" paint-order="stroke">W9</text>
<text x="1909.1" y="199.3" font-size="9" font-weight="600" text-anchor="middle" fill="#14532d" stroke="white" stroke-width="2.6" paint-order="stroke">0 bolts</text>
<rect x="40" y="276.01865437015306" width="1900" height="60" fill="#f1f5f9" stroke="#cbd5e0" rx="4"/>
<text x="990" y="302.01865437015306" text-anchor="middle" font-size="16" font-weight="700" fill="#1a202c">Original 78 bolts -> Simplified 48 bolts (38% reduction)</text>
<text x="990" y="324.01865437015306" text-anchor="middle" font-size="11" fill="#4a5568">Per-stick counts shown beneath each member name. Each green dot in the right panel = a 3-hole pattern (3 x diam.3.8mm at 17mm pitch).</text>
</svg>