<svg xmlns="http://www.w3.org/2000/svg" width="1980" height="416" viewBox="0 0 1980 416" font-family="Segoe UI, Arial, sans-serif">
<defs>
<pattern id="chord-fill" patternUnits="userSpaceOnUse" width="6" height="6" patternTransform="rotate(-45)"><rect width="6" height="6" fill="#dbeafe"/><line x1="0" y1="0" x2="0" y2="6" stroke="#93c5fd" stroke-width="0.6"/></pattern>
<pattern id="web-fill" patternUnits="userSpaceOnUse" width="6" height="6" patternTransform="rotate(45)"><rect width="6" height="6" fill="#e2e8f0"/><line x1="0" y1="0" x2="0" y2="6" stroke="#94a3b8" stroke-width="0.6"/></pattern>
</defs>
<rect width="1980" height="416" fill="#fafaf8"/>
<text x="20" y="32" font-size="20" font-weight="700" fill="#1a202c">Frame TT4-1 - plan GF-LIN-89.075</text>
<text x="20" y="54" font-size="12" fill="#4a5568">16 sticks. Same scale, both panels.</text>
<text x="494" y="92" text-anchor="middle" font-size="15" font-weight="700" fill="#7f1d1d">ORIGINAL - FrameCAD CSV BOLT HOLES (red dots)</text>
<text x="1486" y="92" text-anchor="middle" font-size="15" font-weight="700" fill="#14532d">SIMPLIFIED - centreline-intersection 3-hole pattern (green)</text>
<rect x="40" y="110" width="908.0" height="196.6" fill="none" stroke="#cbd5e0" stroke-width="0.8"/>
<rect x="1032.0" y="110" width="908.0" height="196.6" fill="none" stroke="#cbd5e0" stroke-width="0.8"/>
<polygon points="66.2,270.6 69.8,279.2 404.7,140.6 401.1,131.9" fill="url(#chord-fill)" stroke="#1d4ed8" stroke-width="1.4" opacity="0.95"/>
<polygon points="66.2,271.4 66.2,280.7 921.8,280.7 921.8,271.4" fill="url(#chord-fill)" stroke="#1d4ed8" stroke-width="1.4" opacity="0.95"/>
<polygon points="378.1,140.5 378.1,149.9 921.8,149.9 921.8,140.5" fill="url(#chord-fill)" stroke="#1d4ed8" stroke-width="1.4" opacity="0.95"/>
<polygon points="446.7,271.4 446.7,280.7 478.2,280.7 478.2,271.4" fill="url(#chord-fill)" stroke="#1d4ed8" stroke-width="1.4" opacity="0.95"/>
<polygon points="93.7,279.2 103.1,279.2 103.1,259.2 93.7,259.2" fill="url(#web-fill)" stroke="#475569" stroke-width="1.2" opacity="0.85"/>
<polygon points="213.9,279.2 223.2,279.2 223.2,209.4 213.9,209.4" fill="url(#web-fill)" stroke="#475569" stroke-width="1.2" opacity="0.85"/>
<polygon points="358.4,281.7 362.8,273.4 230.1,202.0 225.7,210.2" fill="url(#web-fill)" stroke="#475569" stroke-width="1.2" opacity="0.85"/>
<polygon points="366.2,279.2 375.6,279.2 375.6,146.3 366.2,146.3" fill="url(#web-fill)" stroke="#475569" stroke-width="1.2" opacity="0.85"/>
<polygon points="378.4,276.8 386.7,281.0 454.9,144.5 446.6,140.3" fill="url(#web-fill)" stroke="#475569" stroke-width="1.2" opacity="0.85"/>
<polygon points="457.7,280.4 467.1,280.4 467.1,142.0 457.7,142.0" fill="url(#web-fill)" stroke="#475569" stroke-width="1.2" opacity="0.85"/>
<polygon points="469.9,275.1 476.7,281.6 605.2,146.1 598.4,139.7" fill="url(#web-fill)" stroke="#475569" stroke-width="1.2" opacity="0.85"/>
<polygon points="608.0,279.2 617.4,279.2 617.4,142.0 608.0,142.0" fill="url(#web-fill)" stroke="#475569" stroke-width="1.2" opacity="0.85"/>
<polygon points="748.7,281.6 755.4,275.1 627.0,139.7 620.2,146.1" fill="url(#web-fill)" stroke="#475569" stroke-width="1.2" opacity="0.85"/>
<polygon points="758.3,279.2 767.6,279.2 767.6,142.0 758.3,142.0" fill="url(#web-fill)" stroke="#475569" stroke-width="1.2" opacity="0.85"/>
<polygon points="904.3,281.6 910.9,275.0 777.1,139.7 770.5,146.2" fill="url(#web-fill)" stroke="#475569" stroke-width="1.2" opacity="0.85"/>
<polygon points="913.8,280.4 923.1,280.4 923.1,142.0 913.8,142.0" fill="url(#web-fill)" stroke="#475569" stroke-width="1.2" opacity="0.85"/>
<line x1="68.0" y1="274.9" x2="402.9" y2="136.2" stroke="#1d4ed8" stroke-width="0.6" stroke-dasharray="4 3" opacity="0.55"/>
<line x1="66.2" y1="276.1" x2="921.8" y2="276.1" stroke="#1d4ed8" stroke-width="0.6" stroke-dasharray="4 3" opacity="0.55"/>
<line x1="98.4" y1="279.2" x2="98.4" y2="259.2" stroke="#334155" stroke-width="0.6" stroke-dasharray="4 3" opacity="0.55"/>
<line x1="218.6" y1="279.2" x2="218.6" y2="209.4" stroke="#334155" stroke-width="0.6" stroke-dasharray="4 3" opacity="0.55"/>
<line x1="360.6" y1="277.5" x2="227.9" y2="206.1" stroke="#334155" stroke-width="0.6" stroke-dasharray="4 3" opacity="0.55"/>
<line x1="370.9" y1="279.2" x2="370.9" y2="146.3" stroke="#334155" stroke-width="0.6" stroke-dasharray="4 3" opacity="0.55"/>
<line x1="378.1" y1="145.2" x2="921.8" y2="145.2" stroke="#1d4ed8" stroke-width="0.6" stroke-dasharray="4 3" opacity="0.55"/>
<line x1="382.6" y1="278.9" x2="450.7" y2="142.4" stroke="#334155" stroke-width="0.6" stroke-dasharray="4 3" opacity="0.55"/>
<line x1="462.4" y1="280.4" x2="462.4" y2="142.0" stroke="#334155" stroke-width="0.6" stroke-dasharray="4 3" opacity="0.55"/>
<line x1="473.3" y1="278.3" x2="601.8" y2="142.9" stroke="#334155" stroke-width="0.6" stroke-dasharray="4 3" opacity="0.55"/>
<line x1="446.7" y1="276.1" x2="478.2" y2="276.1" stroke="#1d4ed8" stroke-width="0.6" stroke-dasharray="4 3" opacity="0.55"/>
<line x1="612.7" y1="279.2" x2="612.7" y2="142.0" stroke="#334155" stroke-width="0.6" stroke-dasharray="4 3" opacity="0.55"/>
<line x1="752.0" y1="278.3" x2="623.6" y2="142.9" stroke="#334155" stroke-width="0.6" stroke-dasharray="4 3" opacity="0.55"/>
<line x1="763.0" y1="279.2" x2="763.0" y2="142.0" stroke="#334155" stroke-width="0.6" stroke-dasharray="4 3" opacity="0.55"/>
<line x1="907.6" y1="278.3" x2="773.8" y2="142.9" stroke="#334155" stroke-width="0.6" stroke-dasharray="4 3" opacity="0.55"/>
<line x1="918.5" y1="280.4" x2="918.5" y2="142.0" stroke="#334155" stroke-width="0.6" stroke-dasharray="4 3" opacity="0.55"/>
<circle cx="74.3" cy="276.1" r="2.4" fill="#dc2626" stroke="#7f1d1d" stroke-width="0.6"/>
<circle cx="98.4" cy="276.1" r="2.4" fill="#dc2626" stroke="#7f1d1d" stroke-width="0.6"/>
<circle cx="218.6" cy="276.1" r="2.4" fill="#dc2626" stroke="#7f1d1d" stroke-width="0.6"/>
<circle cx="354.5" cy="276.1" r="2.4" fill="#dc2626" stroke="#7f1d1d" stroke-width="0.6"/>
<circle cx="370.9" cy="276.1" r="2.4" fill="#dc2626" stroke="#7f1d1d" stroke-width="0.6"/>
<circle cx="384.9" cy="276.1" r="2.4" fill="#dc2626" stroke="#7f1d1d" stroke-width="0.6"/>
<circle cx="462.4" cy="276.1" r="2.4" fill="#dc2626" stroke="#7f1d1d" stroke-width="0.6"/>
<circle cx="477.2" cy="276.1" r="2.4" fill="#dc2626" stroke="#7f1d1d" stroke-width="0.6"/>
<circle cx="612.7" cy="276.1" r="2.4" fill="#dc2626" stroke="#7f1d1d" stroke-width="0.6"/>
<circle cx="748.2" cy="276.1" r="2.4" fill="#dc2626" stroke="#7f1d1d" stroke-width="0.6"/>
<circle cx="763.0" cy="276.1" r="2.4" fill="#dc2626" stroke="#7f1d1d" stroke-width="0.6"/>
<circle cx="903.6" cy="276.1" r="2.4" fill="#dc2626" stroke="#7f1d1d" stroke-width="0.6"/>
<circle cx="918.5" cy="276.1" r="2.4" fill="#dc2626" stroke="#7f1d1d" stroke-width="0.6"/>
<circle cx="70.3" cy="274.0" r="2.4" fill="#dc2626" stroke="#7f1d1d" stroke-width="0.6"/>
<circle cx="73.6" cy="272.6" r="2.4" fill="#dc2626" stroke="#7f1d1d" stroke-width="0.6"/>
<circle cx="78.3" cy="270.7" r="2.4" fill="#dc2626" stroke="#7f1d1d" stroke-width="0.6"/>
<circle cx="97.7" cy="262.6" r="2.4" fill="#dc2626" stroke="#7f1d1d" stroke-width="0.6"/>
<circle cx="217.9" cy="212.9" r="2.4" fill="#dc2626" stroke="#7f1d1d" stroke-width="0.6"/>
<circle cx="232.0" cy="207.0" r="2.4" fill="#dc2626" stroke="#7f1d1d" stroke-width="0.6"/>
<circle cx="370.2" cy="149.8" r="2.4" fill="#dc2626" stroke="#7f1d1d" stroke-width="0.6"/>
<circle cx="386.3" cy="143.1" r="2.4" fill="#dc2626" stroke="#7f1d1d" stroke-width="0.6"/>
<circle cx="389.6" cy="141.7" r="2.4" fill="#dc2626" stroke="#7f1d1d" stroke-width="0.6"/>
<circle cx="394.2" cy="139.8" r="2.4" fill="#dc2626" stroke="#7f1d1d" stroke-width="0.6"/>
<circle cx="98.4" cy="274.3" r="2.4" fill="#dc2626" stroke="#7f1d1d" stroke-width="0.6"/>
<circle cx="98.4" cy="272.3" r="2.4" fill="#dc2626" stroke="#7f1d1d" stroke-width="0.6"/>
<circle cx="98.4" cy="267.1" r="2.4" fill="#dc2626" stroke="#7f1d1d" stroke-width="0.6"/>
<circle cx="98.4" cy="265.6" r="2.4" fill="#dc2626" stroke="#7f1d1d" stroke-width="0.6"/>
<circle cx="98.4" cy="264.3" r="2.4" fill="#dc2626" stroke="#7f1d1d" stroke-width="0.6"/>
<circle cx="218.6" cy="274.3" r="2.4" fill="#dc2626" stroke="#7f1d1d" stroke-width="0.6"/>
<circle cx="218.6" cy="272.3" r="2.4" fill="#dc2626" stroke="#7f1d1d" stroke-width="0.6"/>
<circle cx="218.6" cy="217.3" r="2.4" fill="#dc2626" stroke="#7f1d1d" stroke-width="0.6"/>
<circle cx="218.6" cy="215.9" r="2.4" fill="#dc2626" stroke="#7f1d1d" stroke-width="0.6"/>
<circle cx="218.6" cy="214.5" r="2.4" fill="#dc2626" stroke="#7f1d1d" stroke-width="0.6"/>
<circle cx="354.5" cy="274.3" r="2.4" fill="#dc2626" stroke="#7f1d1d" stroke-width="0.6"/>
<circle cx="348.0" cy="270.8" r="2.4" fill="#dc2626" stroke="#7f1d1d" stroke-width="0.6"/>
<circle cx="236.2" cy="210.5" r="2.4" fill="#dc2626" stroke="#7f1d1d" stroke-width="0.6"/>
<circle cx="233.6" cy="209.2" r="2.4" fill="#dc2626" stroke="#7f1d1d" stroke-width="0.6"/>
<circle cx="232.7" cy="208.7" r="2.4" fill="#dc2626" stroke="#7f1d1d" stroke-width="0.6"/>
<circle cx="370.9" cy="274.3" r="2.4" fill="#dc2626" stroke="#7f1d1d" stroke-width="0.6"/>
<circle cx="370.9" cy="272.3" r="2.4" fill="#dc2626" stroke="#7f1d1d" stroke-width="0.6"/>
<circle cx="370.9" cy="154.3" r="2.4" fill="#dc2626" stroke="#7f1d1d" stroke-width="0.6"/>
<circle cx="370.9" cy="152.8" r="2.4" fill="#dc2626" stroke="#7f1d1d" stroke-width="0.6"/>
<circle cx="370.9" cy="151.4" r="2.4" fill="#dc2626" stroke="#7f1d1d" stroke-width="0.6"/>
<circle cx="390.2" cy="145.2" r="2.4" fill="#dc2626" stroke="#7f1d1d" stroke-width="0.6"/>
<circle cx="448.4" cy="145.2" r="2.4" fill="#dc2626" stroke="#7f1d1d" stroke-width="0.6"/>
<circle cx="462.4" cy="145.2" r="2.4" fill="#dc2626" stroke="#7f1d1d" stroke-width="0.6"/>
<circle cx="597.9" cy="145.2" r="2.4" fill="#dc2626" stroke="#7f1d1d" stroke-width="0.6"/>
<circle cx="612.7" cy="145.2" r="2.4" fill="#dc2626" stroke="#7f1d1d" stroke-width="0.6"/>
<circle cx="627.5" cy="145.2" r="2.4" fill="#dc2626" stroke="#7f1d1d" stroke-width="0.6"/>
<circle cx="763.0" cy="145.2" r="2.4" fill="#dc2626" stroke="#7f1d1d" stroke-width="0.6"/>
<circle cx="777.8" cy="145.2" r="2.4" fill="#dc2626" stroke="#7f1d1d" stroke-width="0.6"/>
<circle cx="918.5" cy="145.2" r="2.4" fill="#dc2626" stroke="#7f1d1d" stroke-width="0.6"/>
<circle cx="384.9" cy="274.3" r="2.4" fill="#dc2626" stroke="#7f1d1d" stroke-width="0.6"/>
<circle cx="385.4" cy="273.1" r="2.4" fill="#dc2626" stroke="#7f1d1d" stroke-width="0.6"/>
<circle cx="386.2" cy="271.5" r="2.4" fill="#dc2626" stroke="#7f1d1d" stroke-width="0.6"/>
<circle cx="447.1" cy="149.7" r="2.4" fill="#dc2626" stroke="#7f1d1d" stroke-width="0.6"/>
<circle cx="447.9" cy="148.1" r="2.4" fill="#dc2626" stroke="#7f1d1d" stroke-width="0.6"/>
<circle cx="448.4" cy="147.0" r="2.4" fill="#dc2626" stroke="#7f1d1d" stroke-width="0.6"/>
<circle cx="462.4" cy="274.3" r="2.4" fill="#dc2626" stroke="#7f1d1d" stroke-width="0.6"/>
<circle cx="462.4" cy="272.3" r="2.4" fill="#dc2626" stroke="#7f1d1d" stroke-width="0.6"/>
<circle cx="462.4" cy="148.9" r="2.4" fill="#dc2626" stroke="#7f1d1d" stroke-width="0.6"/>
<circle cx="462.4" cy="147.0" r="2.4" fill="#dc2626" stroke="#7f1d1d" stroke-width="0.6"/>
<circle cx="477.2" cy="274.3" r="2.4" fill="#dc2626" stroke="#7f1d1d" stroke-width="0.6"/>
<circle cx="477.9" cy="273.6" r="2.4" fill="#dc2626" stroke="#7f1d1d" stroke-width="0.6"/>
<circle cx="480.2" cy="271.1" r="2.4" fill="#dc2626" stroke="#7f1d1d" stroke-width="0.6"/>
<circle cx="594.9" cy="150.1" r="2.4" fill="#dc2626" stroke="#7f1d1d" stroke-width="0.6"/>
<circle cx="597.2" cy="147.7" r="2.4" fill="#dc2626" stroke="#7f1d1d" stroke-width="0.6"/>
<circle cx="597.9" cy="147.0" r="2.4" fill="#dc2626" stroke="#7f1d1d" stroke-width="0.6"/>
<circle cx="612.7" cy="274.3" r="2.4" fill="#dc2626" stroke="#7f1d1d" stroke-width="0.6"/>
<circle cx="612.7" cy="272.3" r="2.4" fill="#dc2626" stroke="#7f1d1d" stroke-width="0.6"/>
<circle cx="612.7" cy="148.9" r="2.4" fill="#dc2626" stroke="#7f1d1d" stroke-width="0.6"/>
<circle cx="612.7" cy="147.0" r="2.4" fill="#dc2626" stroke="#7f1d1d" stroke-width="0.6"/>
<circle cx="903.6" cy="274.3" r="2.4" fill="#dc2626" stroke="#7f1d1d" stroke-width="0.6"/>
<circle cx="903.0" cy="273.6" r="2.4" fill="#dc2626" stroke="#7f1d1d" stroke-width="0.6"/>
<circle cx="900.5" cy="271.1" r="2.4" fill="#dc2626" stroke="#7f1d1d" stroke-width="0.6"/>
<circle cx="781.0" cy="150.2" r="2.4" fill="#dc2626" stroke="#7f1d1d" stroke-width="0.6"/>
<circle cx="778.5" cy="147.7" r="2.4" fill="#dc2626" stroke="#7f1d1d" stroke-width="0.6"/>
<circle cx="777.8" cy="147.0" r="2.4" fill="#dc2626" stroke="#7f1d1d" stroke-width="0.6"/>
<text x="235.4" y="201.6" font-size="11" font-weight="700" text-anchor="middle" fill="#0f172a" stroke="white" stroke-width="3.2" paint-order="stroke">T3</text>
<text x="235.4" y="214.6" font-size="9" font-weight="600" text-anchor="middle" fill="#7f1d1d" stroke="white" stroke-width="2.6" paint-order="stroke">10 bolts</text>
<text x="494.0" y="272.1" font-size="11" font-weight="700" text-anchor="middle" fill="#0f172a" stroke="white" stroke-width="3.2" paint-order="stroke">B1</text>
<text x="494.0" y="285.1" font-size="9" font-weight="600" text-anchor="middle" fill="#7f1d1d" stroke="white" stroke-width="2.6" paint-order="stroke">13 bolts</text>
<text x="98.4" y="265.2" font-size="11" font-weight="700" text-anchor="middle" fill="#0f172a" stroke="white" stroke-width="3.2" paint-order="stroke">W5</text>
<text x="98.4" y="278.2" font-size="9" font-weight="600" text-anchor="middle" fill="#7f1d1d" stroke="white" stroke-width="2.6" paint-order="stroke">5 bolts</text>
<text x="218.6" y="240.3" font-size="11" font-weight="700" text-anchor="middle" fill="#0f172a" stroke="white" stroke-width="3.2" paint-order="stroke">W6</text>
<text x="218.6" y="253.3" font-size="9" font-weight="600" text-anchor="middle" fill="#7f1d1d" stroke="white" stroke-width="2.6" paint-order="stroke">5 bolts</text>
<text x="294.2" y="237.8" font-size="11" font-weight="700" text-anchor="middle" fill="#0f172a" stroke="white" stroke-width="3.2" paint-order="stroke">W7</text>
<text x="294.2" y="250.8" font-size="9" font-weight="600" text-anchor="middle" fill="#7f1d1d" stroke="white" stroke-width="2.6" paint-order="stroke">5 bolts</text>
<text x="370.9" y="208.8" font-size="11" font-weight="700" text-anchor="middle" fill="#0f172a" stroke="white" stroke-width="3.2" paint-order="stroke">W8</text>
<text x="370.9" y="221.8" font-size="9" font-weight="600" text-anchor="middle" fill="#7f1d1d" stroke="white" stroke-width="2.6" paint-order="stroke">5 bolts</text>
<text x="650.0" y="141.2" font-size="11" font-weight="700" text-anchor="middle" fill="#0f172a" stroke="white" stroke-width="3.2" paint-order="stroke">H4</text>
<text x="650.0" y="154.2" font-size="9" font-weight="600" text-anchor="middle" fill="#7f1d1d" stroke="white" stroke-width="2.6" paint-order="stroke">9 bolts</text>
<text x="416.7" y="206.6" font-size="11" font-weight="700" text-anchor="middle" fill="#0f172a" stroke="white" stroke-width="3.2" paint-order="stroke">W9</text>
<text x="416.7" y="219.6" font-size="9" font-weight="600" text-anchor="middle" fill="#7f1d1d" stroke="white" stroke-width="2.6" paint-order="stroke">6 bolts</text>
<text x="462.4" y="207.2" font-size="11" font-weight="700" text-anchor="middle" fill="#0f172a" stroke="white" stroke-width="3.2" paint-order="stroke">W10</text>
<text x="462.4" y="220.2" font-size="9" font-weight="600" text-anchor="middle" fill="#7f1d1d" stroke="white" stroke-width="2.6" paint-order="stroke">4 bolts</text>
<text x="537.6" y="206.6" font-size="11" font-weight="700" text-anchor="middle" fill="#0f172a" stroke="white" stroke-width="3.2" paint-order="stroke">W11</text>
<text x="537.6" y="219.6" font-size="9" font-weight="600" text-anchor="middle" fill="#7f1d1d" stroke="white" stroke-width="2.6" paint-order="stroke">6 bolts</text>
<text x="462.4" y="272.1" font-size="11" font-weight="700" text-anchor="middle" fill="#0f172a" stroke="white" stroke-width="3.2" paint-order="stroke">B2</text>
<text x="462.4" y="285.1" font-size="9" font-weight="600" text-anchor="middle" fill="#7f1d1d" stroke="white" stroke-width="2.6" paint-order="stroke">0 bolts</text>
<text x="612.7" y="206.6" font-size="11" font-weight="700" text-anchor="middle" fill="#0f172a" stroke="white" stroke-width="3.2" paint-order="stroke">W12</text>
<text x="612.7" y="219.6" font-size="9" font-weight="600" text-anchor="middle" fill="#7f1d1d" stroke="white" stroke-width="2.6" paint-order="stroke">4 bolts</text>
<text x="687.8" y="206.6" font-size="11" font-weight="700" text-anchor="middle" fill="#0f172a" stroke="white" stroke-width="3.2" paint-order="stroke">W11</text>
<text x="687.8" y="219.6" font-size="9" font-weight="600" text-anchor="middle" fill="#7f1d1d" stroke="white" stroke-width="2.6" paint-order="stroke">0 bolts</text>
<text x="763.0" y="206.6" font-size="11" font-weight="700" text-anchor="middle" fill="#0f172a" stroke="white" stroke-width="3.2" paint-order="stroke">W12</text>
<text x="763.0" y="219.6" font-size="9" font-weight="600" text-anchor="middle" fill="#7f1d1d" stroke="white" stroke-width="2.6" paint-order="stroke">0 bolts</text>
<text x="840.7" y="206.6" font-size="11" font-weight="700" text-anchor="middle" fill="#0f172a" stroke="white" stroke-width="3.2" paint-order="stroke">W13</text>
<text x="840.7" y="219.6" font-size="9" font-weight="600" text-anchor="middle" fill="#7f1d1d" stroke="white" stroke-width="2.6" paint-order="stroke">6 bolts</text>
<text x="918.5" y="207.2" font-size="11" font-weight="700" text-anchor="middle" fill="#0f172a" stroke="white" stroke-width="3.2" paint-order="stroke">W10</text>
<text x="918.5" y="220.2" font-size="9" font-weight="600" text-anchor="middle" fill="#7f1d1d" stroke="white" stroke-width="2.6" paint-order="stroke">0 bolts</text>
<polygon points="1058.2,270.6 1061.8,279.2 1396.6,140.6 1393.1,131.9" fill="url(#chord-fill)" stroke="#1d4ed8" stroke-width="1.4" opacity="0.95"/>
<polygon points="1058.2,271.4 1058.2,280.7 1913.8,280.7 1913.8,271.4" fill="url(#chord-fill)" stroke="#1d4ed8" stroke-width="1.4" opacity="0.95"/>
<polygon points="1370.1,140.5 1370.1,149.9 1913.8,149.9 1913.8,140.5" fill="url(#chord-fill)" stroke="#1d4ed8" stroke-width="1.4" opacity="0.95"/>
<polygon points="1438.7,271.4 1438.7,280.7 1470.1,280.7 1470.1,271.4" fill="url(#chord-fill)" stroke="#1d4ed8" stroke-width="1.4" opacity="0.95"/>
<polygon points="1085.7,279.2 1095.1,279.2 1095.1,259.2 1085.7,259.2" fill="url(#web-fill)" stroke="#475569" stroke-width="1.2" opacity="0.85"/>
<polygon points="1205.9,279.2 1215.2,279.2 1215.2,209.4 1205.9,209.4" fill="url(#web-fill)" stroke="#475569" stroke-width="1.2" opacity="0.85"/>
<polygon points="1350.4,281.7 1354.8,273.4 1222.1,202.0 1217.6,210.2" fill="url(#web-fill)" stroke="#475569" stroke-width="1.2" opacity="0.85"/>
<polygon points="1358.2,279.2 1367.5,279.2 1367.5,146.3 1358.2,146.3" fill="url(#web-fill)" stroke="#475569" stroke-width="1.2" opacity="0.85"/>
<polygon points="1370.4,276.8 1378.7,281.0 1446.9,144.5 1438.5,140.3" fill="url(#web-fill)" stroke="#475569" stroke-width="1.2" opacity="0.85"/>
<polygon points="1449.7,280.4 1459.1,280.4 1459.1,142.0 1449.7,142.0" fill="url(#web-fill)" stroke="#475569" stroke-width="1.2" opacity="0.85"/>
<polygon points="1461.9,275.1 1468.7,281.6 1597.1,146.1 1590.4,139.7" fill="url(#web-fill)" stroke="#475569" stroke-width="1.2" opacity="0.85"/>
<polygon points="1600.0,279.2 1609.3,279.2 1609.3,142.0 1600.0,142.0" fill="url(#web-fill)" stroke="#475569" stroke-width="1.2" opacity="0.85"/>
<polygon points="1740.6,281.6 1747.4,275.1 1619.0,139.7 1612.2,146.1" fill="url(#web-fill)" stroke="#475569" stroke-width="1.2" opacity="0.85"/>
<polygon points="1750.3,279.2 1759.6,279.2 1759.6,142.0 1750.3,142.0" fill="url(#web-fill)" stroke="#475569" stroke-width="1.2" opacity="0.85"/>
<polygon points="1896.3,281.6 1902.9,275.0 1769.1,139.7 1762.5,146.2" fill="url(#web-fill)" stroke="#475569" stroke-width="1.2" opacity="0.85"/>
<polygon points="1905.8,280.4 1915.1,280.4 1915.1,142.0 1905.8,142.0" fill="url(#web-fill)" stroke="#475569" stroke-width="1.2" opacity="0.85"/>
<line x1="1060.0" y1="274.9" x2="1394.8" y2="136.2" stroke="#1d4ed8" stroke-width="0.6" stroke-dasharray="4 3" opacity="0.55"/>
<line x1="1058.2" y1="276.1" x2="1913.8" y2="276.1" stroke="#1d4ed8" stroke-width="0.6" stroke-dasharray="4 3" opacity="0.55"/>
<line x1="1090.4" y1="279.2" x2="1090.4" y2="259.2" stroke="#334155" stroke-width="0.6" stroke-dasharray="4 3" opacity="0.55"/>
<line x1="1210.5" y1="279.2" x2="1210.5" y2="209.4" stroke="#334155" stroke-width="0.6" stroke-dasharray="4 3" opacity="0.55"/>
<line x1="1352.6" y1="277.5" x2="1219.9" y2="206.1" stroke="#334155" stroke-width="0.6" stroke-dasharray="4 3" opacity="0.55"/>
<line x1="1362.9" y1="279.2" x2="1362.9" y2="146.3" stroke="#334155" stroke-width="0.6" stroke-dasharray="4 3" opacity="0.55"/>
<line x1="1370.1" y1="145.2" x2="1913.8" y2="145.2" stroke="#1d4ed8" stroke-width="0.6" stroke-dasharray="4 3" opacity="0.55"/>
<line x1="1374.5" y1="278.9" x2="1442.7" y2="142.4" stroke="#334155" stroke-width="0.6" stroke-dasharray="4 3" opacity="0.55"/>
<line x1="1454.4" y1="280.4" x2="1454.4" y2="142.0" stroke="#334155" stroke-width="0.6" stroke-dasharray="4 3" opacity="0.55"/>
<line x1="1465.3" y1="278.3" x2="1593.8" y2="142.9" stroke="#334155" stroke-width="0.6" stroke-dasharray="4 3" opacity="0.55"/>
<line x1="1438.7" y1="276.1" x2="1470.1" y2="276.1" stroke="#1d4ed8" stroke-width="0.6" stroke-dasharray="4 3" opacity="0.55"/>
<line x1="1604.7" y1="279.2" x2="1604.7" y2="142.0" stroke="#334155" stroke-width="0.6" stroke-dasharray="4 3" opacity="0.55"/>
<line x1="1744.0" y1="278.3" x2="1615.6" y2="142.9" stroke="#334155" stroke-width="0.6" stroke-dasharray="4 3" opacity="0.55"/>
<line x1="1754.9" y1="279.2" x2="1754.9" y2="142.0" stroke="#334155" stroke-width="0.6" stroke-dasharray="4 3" opacity="0.55"/>
<line x1="1899.6" y1="278.3" x2="1765.8" y2="142.9" stroke="#334155" stroke-width="0.6" stroke-dasharray="4 3" opacity="0.55"/>
<line x1="1910.5" y1="280.4" x2="1910.5" y2="142.0" stroke="#334155" stroke-width="0.6" stroke-dasharray="4 3" opacity="0.55"/>
<circle cx="1090.4" cy="277.8" r="2.0" fill="#16a34a" stroke="#14532d" stroke-width="0.7"/>
<circle cx="1090.4" cy="276.1" r="3.6" fill="none" stroke="#16a34a" stroke-width="1.2" opacity="0.5"/>
<circle cx="1090.4" cy="276.1" r="2.3" fill="#16a34a" stroke="#14532d" stroke-width="0.9"/>
<circle cx="1090.4" cy="274.3" r="2.0" fill="#16a34a" stroke="#14532d" stroke-width="0.7"/>
<circle cx="1210.5" cy="277.8" r="2.0" fill="#16a34a" stroke="#14532d" stroke-width="0.7"/>
<circle cx="1210.5" cy="276.1" r="3.6" fill="none" stroke="#16a34a" stroke-width="1.2" opacity="0.5"/>
<circle cx="1210.5" cy="276.1" r="2.3" fill="#16a34a" stroke="#14532d" stroke-width="0.9"/>
<circle cx="1210.5" cy="274.3" r="2.0" fill="#16a34a" stroke="#14532d" stroke-width="0.7"/>
<circle cx="1349.8" cy="277.8" r="2.0" fill="#16a34a" stroke="#14532d" stroke-width="0.7"/>
<circle cx="1349.8" cy="276.1" r="3.6" fill="none" stroke="#16a34a" stroke-width="1.2" opacity="0.5"/>
<circle cx="1349.8" cy="276.1" r="2.3" fill="#16a34a" stroke="#14532d" stroke-width="0.9"/>
<circle cx="1349.8" cy="274.3" r="2.0" fill="#16a34a" stroke="#14532d" stroke-width="0.7"/>
<circle cx="1362.9" cy="277.8" r="2.0" fill="#16a34a" stroke="#14532d" stroke-width="0.7"/>
<circle cx="1362.9" cy="276.1" r="3.6" fill="none" stroke="#16a34a" stroke-width="1.2" opacity="0.5"/>
<circle cx="1362.9" cy="276.1" r="2.3" fill="#16a34a" stroke="#14532d" stroke-width="0.9"/>
<circle cx="1362.9" cy="274.3" r="2.0" fill="#16a34a" stroke="#14532d" stroke-width="0.7"/>
<circle cx="1376.0" cy="277.8" r="2.0" fill="#16a34a" stroke="#14532d" stroke-width="0.7"/>
<circle cx="1376.0" cy="276.1" r="3.6" fill="none" stroke="#16a34a" stroke-width="1.2" opacity="0.5"/>
<circle cx="1376.0" cy="276.1" r="2.3" fill="#16a34a" stroke="#14532d" stroke-width="0.9"/>
<circle cx="1376.0" cy="274.3" r="2.0" fill="#16a34a" stroke="#14532d" stroke-width="0.7"/>
<circle cx="1454.4" cy="277.8" r="2.0" fill="#16a34a" stroke="#14532d" stroke-width="0.7"/>
<circle cx="1454.4" cy="276.1" r="3.6" fill="none" stroke="#16a34a" stroke-width="1.2" opacity="0.5"/>
<circle cx="1454.4" cy="276.1" r="2.3" fill="#16a34a" stroke="#14532d" stroke-width="0.9"/>
<circle cx="1454.4" cy="274.3" r="2.0" fill="#16a34a" stroke="#14532d" stroke-width="0.7"/>
<circle cx="1467.5" cy="277.8" r="2.0" fill="#16a34a" stroke="#14532d" stroke-width="0.7"/>
<circle cx="1467.5" cy="276.1" r="3.6" fill="none" stroke="#16a34a" stroke-width="1.2" opacity="0.5"/>
<circle cx="1467.5" cy="276.1" r="2.3" fill="#16a34a" stroke="#14532d" stroke-width="0.9"/>
<circle cx="1467.5" cy="274.3" r="2.0" fill="#16a34a" stroke="#14532d" stroke-width="0.7"/>
<circle cx="1604.7" cy="277.8" r="2.0" fill="#16a34a" stroke="#14532d" stroke-width="0.7"/>
<circle cx="1604.7" cy="276.1" r="3.6" fill="none" stroke="#16a34a" stroke-width="1.2" opacity="0.5"/>
<circle cx="1604.7" cy="276.1" r="2.3" fill="#16a34a" stroke="#14532d" stroke-width="0.9"/>
<circle cx="1604.7" cy="274.3" r="2.0" fill="#16a34a" stroke="#14532d" stroke-width="0.7"/>
<circle cx="1741.9" cy="277.8" r="2.0" fill="#16a34a" stroke="#14532d" stroke-width="0.7"/>
<circle cx="1741.9" cy="276.1" r="3.6" fill="none" stroke="#16a34a" stroke-width="1.2" opacity="0.5"/>
<circle cx="1741.9" cy="276.1" r="2.3" fill="#16a34a" stroke="#14532d" stroke-width="0.9"/>
<circle cx="1741.9" cy="274.3" r="2.0" fill="#16a34a" stroke="#14532d" stroke-width="0.7"/>
<circle cx="1754.9" cy="277.8" r="2.0" fill="#16a34a" stroke="#14532d" stroke-width="0.7"/>
<circle cx="1754.9" cy="276.1" r="3.6" fill="none" stroke="#16a34a" stroke-width="1.2" opacity="0.5"/>
<circle cx="1754.9" cy="276.1" r="2.3" fill="#16a34a" stroke="#14532d" stroke-width="0.9"/>
<circle cx="1754.9" cy="274.3" r="2.0" fill="#16a34a" stroke="#14532d" stroke-width="0.7"/>
<circle cx="1897.4" cy="277.8" r="2.0" fill="#16a34a" stroke="#14532d" stroke-width="0.7"/>
<circle cx="1897.4" cy="276.1" r="3.6" fill="none" stroke="#16a34a" stroke-width="1.2" opacity="0.5"/>
<circle cx="1897.4" cy="276.1" r="2.3" fill="#16a34a" stroke="#14532d" stroke-width="0.9"/>
<circle cx="1897.4" cy="274.3" r="2.0" fill="#16a34a" stroke="#14532d" stroke-width="0.7"/>
<circle cx="1910.5" cy="277.8" r="2.0" fill="#16a34a" stroke="#14532d" stroke-width="0.7"/>
<circle cx="1910.5" cy="276.1" r="3.6" fill="none" stroke="#16a34a" stroke-width="1.2" opacity="0.5"/>
<circle cx="1910.5" cy="276.1" r="2.3" fill="#16a34a" stroke="#14532d" stroke-width="0.9"/>
<circle cx="1910.5" cy="274.3" r="2.0" fill="#16a34a" stroke="#14532d" stroke-width="0.7"/>
<circle cx="1454.4" cy="277.8" r="2.0" fill="#16a34a" stroke="#14532d" stroke-width="0.7"/>
<circle cx="1454.4" cy="276.1" r="3.6" fill="none" stroke="#16a34a" stroke-width="1.2" opacity="0.5"/>
<circle cx="1454.4" cy="276.1" r="2.3" fill="#16a34a" stroke="#14532d" stroke-width="0.9"/>
<circle cx="1454.4" cy="274.3" r="2.0" fill="#16a34a" stroke="#14532d" stroke-width="0.7"/>
<circle cx="1467.5" cy="277.8" r="2.0" fill="#16a34a" stroke="#14532d" stroke-width="0.7"/>
<circle cx="1467.5" cy="276.1" r="3.6" fill="none" stroke="#16a34a" stroke-width="1.2" opacity="0.5"/>
<circle cx="1467.5" cy="276.1" r="2.3" fill="#16a34a" stroke="#14532d" stroke-width="0.9"/>
<circle cx="1467.5" cy="274.3" r="2.0" fill="#16a34a" stroke="#14532d" stroke-width="0.7"/>
<circle cx="1091.1" cy="264.0" r="2.0" fill="#16a34a" stroke="#14532d" stroke-width="0.7"/>
<circle cx="1090.4" cy="262.4" r="3.6" fill="none" stroke="#16a34a" stroke-width="1.2" opacity="0.5"/>
<circle cx="1090.4" cy="262.4" r="2.3" fill="#16a34a" stroke="#14532d" stroke-width="0.9"/>
<circle cx="1089.7" cy="260.7" r="2.0" fill="#16a34a" stroke="#14532d" stroke-width="0.7"/>
<circle cx="1211.2" cy="214.2" r="2.0" fill="#16a34a" stroke="#14532d" stroke-width="0.7"/>
<circle cx="1210.5" cy="212.6" r="3.6" fill="none" stroke="#16a34a" stroke-width="1.2" opacity="0.5"/>
<circle cx="1210.5" cy="212.6" r="2.3" fill="#16a34a" stroke="#14532d" stroke-width="0.9"/>
<circle cx="1209.9" cy="210.9" r="2.0" fill="#16a34a" stroke="#14532d" stroke-width="0.7"/>
<circle cx="1223.3" cy="209.2" r="2.0" fill="#16a34a" stroke="#14532d" stroke-width="0.7"/>
<circle cx="1222.6" cy="207.6" r="3.6" fill="none" stroke="#16a34a" stroke-width="1.2" opacity="0.5"/>
<circle cx="1222.6" cy="207.6" r="2.3" fill="#16a34a" stroke="#14532d" stroke-width="0.9"/>
<circle cx="1221.9" cy="205.9" r="2.0" fill="#16a34a" stroke="#14532d" stroke-width="0.7"/>
<circle cx="1363.6" cy="151.1" r="2.0" fill="#16a34a" stroke="#14532d" stroke-width="0.7"/>
<circle cx="1362.9" cy="149.5" r="3.6" fill="none" stroke="#16a34a" stroke-width="1.2" opacity="0.5"/>
<circle cx="1362.9" cy="149.5" r="2.3" fill="#16a34a" stroke="#14532d" stroke-width="0.9"/>
<circle cx="1362.2" cy="147.8" r="2.0" fill="#16a34a" stroke="#14532d" stroke-width="0.7"/>
<circle cx="1373.9" cy="146.8" r="2.0" fill="#16a34a" stroke="#14532d" stroke-width="0.7"/>
<circle cx="1373.3" cy="145.2" r="3.6" fill="none" stroke="#16a34a" stroke-width="1.2" opacity="0.5"/>
<circle cx="1373.3" cy="145.2" r="2.3" fill="#16a34a" stroke="#14532d" stroke-width="0.9"/>
<circle cx="1372.6" cy="143.5" r="2.0" fill="#16a34a" stroke="#14532d" stroke-width="0.7"/>
<circle cx="1092.2" cy="276.1" r="2.0" fill="#16a34a" stroke="#14532d" stroke-width="0.7"/>
<circle cx="1090.4" cy="276.1" r="3.6" fill="none" stroke="#16a34a" stroke-width="1.2" opacity="0.5"/>
<circle cx="1090.4" cy="276.1" r="2.3" fill="#16a34a" stroke="#14532d" stroke-width="0.9"/>
<circle cx="1088.6" cy="276.1" r="2.0" fill="#16a34a" stroke="#14532d" stroke-width="0.7"/>
<circle cx="1092.2" cy="262.4" r="2.0" fill="#16a34a" stroke="#14532d" stroke-width="0.7"/>
<circle cx="1090.4" cy="262.4" r="3.6" fill="none" stroke="#16a34a" stroke-width="1.2" opacity="0.5"/>
<circle cx="1090.4" cy="262.4" r="2.3" fill="#16a34a" stroke="#14532d" stroke-width="0.9"/>
<circle cx="1088.6" cy="262.4" r="2.0" fill="#16a34a" stroke="#14532d" stroke-width="0.7"/>
<circle cx="1212.3" cy="276.1" r="2.0" fill="#16a34a" stroke="#14532d" stroke-width="0.7"/>
<circle cx="1210.5" cy="276.1" r="3.6" fill="none" stroke="#16a34a" stroke-width="1.2" opacity="0.5"/>
<circle cx="1210.5" cy="276.1" r="2.3" fill="#16a34a" stroke="#14532d" stroke-width="0.9"/>
<circle cx="1208.8" cy="276.1" r="2.0" fill="#16a34a" stroke="#14532d" stroke-width="0.7"/>
<circle cx="1212.3" cy="212.6" r="2.0" fill="#16a34a" stroke="#14532d" stroke-width="0.7"/>
<circle cx="1210.5" cy="212.6" r="3.6" fill="none" stroke="#16a34a" stroke-width="1.2" opacity="0.5"/>
<circle cx="1210.5" cy="212.6" r="2.3" fill="#16a34a" stroke="#14532d" stroke-width="0.9"/>
<circle cx="1208.8" cy="212.6" r="2.0" fill="#16a34a" stroke="#14532d" stroke-width="0.7"/>
<circle cx="1350.6" cy="274.5" r="2.0" fill="#16a34a" stroke="#14532d" stroke-width="0.7"/>
<circle cx="1349.8" cy="276.1" r="3.6" fill="none" stroke="#16a34a" stroke-width="1.2" opacity="0.5"/>
<circle cx="1349.8" cy="276.1" r="2.3" fill="#16a34a" stroke="#14532d" stroke-width="0.9"/>
<circle cx="1349.0" cy="277.6" r="2.0" fill="#16a34a" stroke="#14532d" stroke-width="0.7"/>
<circle cx="1223.5" cy="206.0" r="2.0" fill="#16a34a" stroke="#14532d" stroke-width="0.7"/>
<circle cx="1222.6" cy="207.6" r="3.6" fill="none" stroke="#16a34a" stroke-width="1.2" opacity="0.5"/>
<circle cx="1222.6" cy="207.6" r="2.3" fill="#16a34a" stroke="#14532d" stroke-width="0.9"/>
<circle cx="1221.8" cy="209.1" r="2.0" fill="#16a34a" stroke="#14532d" stroke-width="0.7"/>
<circle cx="1364.7" cy="276.1" r="2.0" fill="#16a34a" stroke="#14532d" stroke-width="0.7"/>
<circle cx="1362.9" cy="276.1" r="3.6" fill="none" stroke="#16a34a" stroke-width="1.2" opacity="0.5"/>
<circle cx="1362.9" cy="276.1" r="2.3" fill="#16a34a" stroke="#14532d" stroke-width="0.9"/>
<circle cx="1361.1" cy="276.1" r="2.0" fill="#16a34a" stroke="#14532d" stroke-width="0.7"/>
<circle cx="1364.7" cy="149.5" r="2.0" fill="#16a34a" stroke="#14532d" stroke-width="0.7"/>
<circle cx="1362.9" cy="149.5" r="3.6" fill="none" stroke="#16a34a" stroke-width="1.2" opacity="0.5"/>
<circle cx="1362.9" cy="149.5" r="2.3" fill="#16a34a" stroke="#14532d" stroke-width="0.9"/>
<circle cx="1361.1" cy="149.5" r="2.0" fill="#16a34a" stroke="#14532d" stroke-width="0.7"/>
<circle cx="1373.3" cy="147.0" r="2.0" fill="#16a34a" stroke="#14532d" stroke-width="0.7"/>
<circle cx="1373.3" cy="145.2" r="3.6" fill="none" stroke="#16a34a" stroke-width="1.2" opacity="0.5"/>
<circle cx="1373.3" cy="145.2" r="2.3" fill="#16a34a" stroke="#14532d" stroke-width="0.9"/>
<circle cx="1373.3" cy="143.4" r="2.0" fill="#16a34a" stroke="#14532d" stroke-width="0.7"/>
<circle cx="1441.3" cy="147.0" r="2.0" fill="#16a34a" stroke="#14532d" stroke-width="0.7"/>
<circle cx="1441.3" cy="145.2" r="3.6" fill="none" stroke="#16a34a" stroke-width="1.2" opacity="0.5"/>
<circle cx="1441.3" cy="145.2" r="2.3" fill="#16a34a" stroke="#14532d" stroke-width="0.9"/>
<circle cx="1441.3" cy="143.4" r="2.0" fill="#16a34a" stroke="#14532d" stroke-width="0.7"/>
<circle cx="1454.4" cy="147.0" r="2.0" fill="#16a34a" stroke="#14532d" stroke-width="0.7"/>
<circle cx="1454.4" cy="145.2" r="3.6" fill="none" stroke="#16a34a" stroke-width="1.2" opacity="0.5"/>
<circle cx="1454.4" cy="145.2" r="2.3" fill="#16a34a" stroke="#14532d" stroke-width="0.9"/>
<circle cx="1454.4" cy="143.4" r="2.0" fill="#16a34a" stroke="#14532d" stroke-width="0.7"/>
<circle cx="1591.6" cy="147.0" r="2.0" fill="#16a34a" stroke="#14532d" stroke-width="0.7"/>
<circle cx="1591.6" cy="145.2" r="3.6" fill="none" stroke="#16a34a" stroke-width="1.2" opacity="0.5"/>
<circle cx="1591.6" cy="145.2" r="2.3" fill="#16a34a" stroke="#14532d" stroke-width="0.9"/>
<circle cx="1591.6" cy="143.4" r="2.0" fill="#16a34a" stroke="#14532d" stroke-width="0.7"/>
<circle cx="1604.7" cy="147.0" r="2.0" fill="#16a34a" stroke="#14532d" stroke-width="0.7"/>
<circle cx="1604.7" cy="145.2" r="3.6" fill="none" stroke="#16a34a" stroke-width="1.2" opacity="0.5"/>
<circle cx="1604.7" cy="145.2" r="2.3" fill="#16a34a" stroke="#14532d" stroke-width="0.9"/>
<circle cx="1604.7" cy="143.4" r="2.0" fill="#16a34a" stroke="#14532d" stroke-width="0.7"/>
<circle cx="1617.7" cy="147.0" r="2.0" fill="#16a34a" stroke="#14532d" stroke-width="0.7"/>
<circle cx="1617.7" cy="145.2" r="3.6" fill="none" stroke="#16a34a" stroke-width="1.2" opacity="0.5"/>
<circle cx="1617.7" cy="145.2" r="2.3" fill="#16a34a" stroke="#14532d" stroke-width="0.9"/>
<circle cx="1617.7" cy="143.4" r="2.0" fill="#16a34a" stroke="#14532d" stroke-width="0.7"/>
<circle cx="1754.9" cy="147.0" r="2.0" fill="#16a34a" stroke="#14532d" stroke-width="0.7"/>
<circle cx="1754.9" cy="145.2" r="3.6" fill="none" stroke="#16a34a" stroke-width="1.2" opacity="0.5"/>
<circle cx="1754.9" cy="145.2" r="2.3" fill="#16a34a" stroke="#14532d" stroke-width="0.9"/>
<circle cx="1754.9" cy="143.4" r="2.0" fill="#16a34a" stroke="#14532d" stroke-width="0.7"/>
<circle cx="1768.0" cy="147.0" r="2.0" fill="#16a34a" stroke="#14532d" stroke-width="0.7"/>
<circle cx="1768.0" cy="145.2" r="3.6" fill="none" stroke="#16a34a" stroke-width="1.2" opacity="0.5"/>
<circle cx="1768.0" cy="145.2" r="2.3" fill="#16a34a" stroke="#14532d" stroke-width="0.9"/>
<circle cx="1768.0" cy="143.4" r="2.0" fill="#16a34a" stroke="#14532d" stroke-width="0.7"/>
<circle cx="1910.5" cy="147.0" r="2.0" fill="#16a34a" stroke="#14532d" stroke-width="0.7"/>
<circle cx="1910.5" cy="145.2" r="3.6" fill="none" stroke="#16a34a" stroke-width="1.2" opacity="0.5"/>
<circle cx="1910.5" cy="145.2" r="2.3" fill="#16a34a" stroke="#14532d" stroke-width="0.9"/>
<circle cx="1910.5" cy="143.4" r="2.0" fill="#16a34a" stroke="#14532d" stroke-width="0.7"/>
<circle cx="1377.6" cy="276.9" r="2.0" fill="#16a34a" stroke="#14532d" stroke-width="0.7"/>
<circle cx="1376.0" cy="276.1" r="3.6" fill="none" stroke="#16a34a" stroke-width="1.2" opacity="0.5"/>
<circle cx="1376.0" cy="276.1" r="2.3" fill="#16a34a" stroke="#14532d" stroke-width="0.9"/>
<circle cx="1374.4" cy="275.3" r="2.0" fill="#16a34a" stroke="#14532d" stroke-width="0.7"/>
<circle cx="1442.9" cy="146.0" r="2.0" fill="#16a34a" stroke="#14532d" stroke-width="0.7"/>
<circle cx="1441.3" cy="145.2" r="3.6" fill="none" stroke="#16a34a" stroke-width="1.2" opacity="0.5"/>
<circle cx="1441.3" cy="145.2" r="2.3" fill="#16a34a" stroke="#14532d" stroke-width="0.9"/>
<circle cx="1439.7" cy="144.4" r="2.0" fill="#16a34a" stroke="#14532d" stroke-width="0.7"/>
<circle cx="1456.2" cy="276.1" r="2.0" fill="#16a34a" stroke="#14532d" stroke-width="0.7"/>
<circle cx="1454.4" cy="276.1" r="3.6" fill="none" stroke="#16a34a" stroke-width="1.2" opacity="0.5"/>
<circle cx="1454.4" cy="276.1" r="2.3" fill="#16a34a" stroke="#14532d" stroke-width="0.9"/>
<circle cx="1452.6" cy="276.1" r="2.0" fill="#16a34a" stroke="#14532d" stroke-width="0.7"/>
<circle cx="1456.2" cy="145.2" r="2.0" fill="#16a34a" stroke="#14532d" stroke-width="0.7"/>
<circle cx="1454.4" cy="145.2" r="3.6" fill="none" stroke="#16a34a" stroke-width="1.2" opacity="0.5"/>
<circle cx="1454.4" cy="145.2" r="2.3" fill="#16a34a" stroke="#14532d" stroke-width="0.9"/>
<circle cx="1452.6" cy="145.2" r="2.0" fill="#16a34a" stroke="#14532d" stroke-width="0.7"/>
<circle cx="1468.8" cy="277.3" r="2.0" fill="#16a34a" stroke="#14532d" stroke-width="0.7"/>
<circle cx="1467.5" cy="276.1" r="3.6" fill="none" stroke="#16a34a" stroke-width="1.2" opacity="0.5"/>
<circle cx="1467.5" cy="276.1" r="2.3" fill="#16a34a" stroke="#14532d" stroke-width="0.9"/>
<circle cx="1466.2" cy="274.8" r="2.0" fill="#16a34a" stroke="#14532d" stroke-width="0.7"/>
<circle cx="1592.9" cy="146.4" r="2.0" fill="#16a34a" stroke="#14532d" stroke-width="0.7"/>
<circle cx="1591.6" cy="145.2" r="3.6" fill="none" stroke="#16a34a" stroke-width="1.2" opacity="0.5"/>
<circle cx="1591.6" cy="145.2" r="2.3" fill="#16a34a" stroke="#14532d" stroke-width="0.9"/>
<circle cx="1590.3" cy="144.0" r="2.0" fill="#16a34a" stroke="#14532d" stroke-width="0.7"/>
<circle cx="1606.5" cy="276.1" r="2.0" fill="#16a34a" stroke="#14532d" stroke-width="0.7"/>
<circle cx="1604.7" cy="276.1" r="3.6" fill="none" stroke="#16a34a" stroke-width="1.2" opacity="0.5"/>
<circle cx="1604.7" cy="276.1" r="2.3" fill="#16a34a" stroke="#14532d" stroke-width="0.9"/>
<circle cx="1602.9" cy="276.1" r="2.0" fill="#16a34a" stroke="#14532d" stroke-width="0.7"/>
<circle cx="1606.5" cy="145.2" r="2.0" fill="#16a34a" stroke="#14532d" stroke-width="0.7"/>
<circle cx="1604.7" cy="145.2" r="3.6" fill="none" stroke="#16a34a" stroke-width="1.2" opacity="0.5"/>
<circle cx="1604.7" cy="145.2" r="2.3" fill="#16a34a" stroke="#14532d" stroke-width="0.9"/>
<circle cx="1602.9" cy="145.2" r="2.0" fill="#16a34a" stroke="#14532d" stroke-width="0.7"/>
<circle cx="1898.6" cy="274.8" r="2.0" fill="#16a34a" stroke="#14532d" stroke-width="0.7"/>
<circle cx="1897.4" cy="276.1" r="3.6" fill="none" stroke="#16a34a" stroke-width="1.2" opacity="0.5"/>
<circle cx="1897.4" cy="276.1" r="2.3" fill="#16a34a" stroke="#14532d" stroke-width="0.9"/>
<circle cx="1896.1" cy="277.3" r="2.0" fill="#16a34a" stroke="#14532d" stroke-width="0.7"/>
<circle cx="1769.3" cy="143.9" r="2.0" fill="#16a34a" stroke="#14532d" stroke-width="0.7"/>
<circle cx="1768.0" cy="145.2" r="3.6" fill="none" stroke="#16a34a" stroke-width="1.2" opacity="0.5"/>
<circle cx="1768.0" cy="145.2" r="2.3" fill="#16a34a" stroke="#14532d" stroke-width="0.9"/>
<circle cx="1766.7" cy="146.4" r="2.0" fill="#16a34a" stroke="#14532d" stroke-width="0.7"/>
<text x="1227.4" y="201.6" font-size="11" font-weight="700" text-anchor="middle" fill="#0f172a" stroke="white" stroke-width="3.2" paint-order="stroke">T3</text>
<text x="1227.4" y="214.6" font-size="9" font-weight="600" text-anchor="middle" fill="#14532d" stroke="white" stroke-width="2.6" paint-order="stroke">5 bolts</text>
<text x="1486.0" y="272.1" font-size="11" font-weight="700" text-anchor="middle" fill="#0f172a" stroke="white" stroke-width="3.2" paint-order="stroke">B1</text>
<text x="1486.0" y="285.1" font-size="9" font-weight="600" text-anchor="middle" fill="#14532d" stroke="white" stroke-width="2.6" paint-order="stroke">12 bolts</text>
<text x="1090.4" y="265.2" font-size="11" font-weight="700" text-anchor="middle" fill="#0f172a" stroke="white" stroke-width="3.2" paint-order="stroke">W5</text>
<text x="1090.4" y="278.2" font-size="9" font-weight="600" text-anchor="middle" fill="#14532d" stroke="white" stroke-width="2.6" paint-order="stroke">2 bolts</text>
<text x="1210.5" y="240.3" font-size="11" font-weight="700" text-anchor="middle" fill="#0f172a" stroke="white" stroke-width="3.2" paint-order="stroke">W6</text>
<text x="1210.5" y="253.3" font-size="9" font-weight="600" text-anchor="middle" fill="#14532d" stroke="white" stroke-width="2.6" paint-order="stroke">2 bolts</text>
<text x="1286.2" y="237.8" font-size="11" font-weight="700" text-anchor="middle" fill="#0f172a" stroke="white" stroke-width="3.2" paint-order="stroke">W7</text>
<text x="1286.2" y="250.8" font-size="9" font-weight="600" text-anchor="middle" fill="#14532d" stroke="white" stroke-width="2.6" paint-order="stroke">2 bolts</text>
<text x="1362.9" y="208.8" font-size="11" font-weight="700" text-anchor="middle" fill="#0f172a" stroke="white" stroke-width="3.2" paint-order="stroke">W8</text>
<text x="1362.9" y="221.8" font-size="9" font-weight="600" text-anchor="middle" fill="#14532d" stroke="white" stroke-width="2.6" paint-order="stroke">2 bolts</text>
<text x="1641.9" y="141.2" font-size="11" font-weight="700" text-anchor="middle" fill="#0f172a" stroke="white" stroke-width="3.2" paint-order="stroke">H4</text>
<text x="1641.9" y="154.2" font-size="9" font-weight="600" text-anchor="middle" fill="#14532d" stroke="white" stroke-width="2.6" paint-order="stroke">9 bolts</text>
<text x="1408.6" y="206.6" font-size="11" font-weight="700" text-anchor="middle" fill="#0f172a" stroke="white" stroke-width="3.2" paint-order="stroke">W9</text>
<text x="1408.6" y="219.6" font-size="9" font-weight="600" text-anchor="middle" fill="#14532d" stroke="white" stroke-width="2.6" paint-order="stroke">2 bolts</text>
<text x="1454.4" y="207.2" font-size="11" font-weight="700" text-anchor="middle" fill="#0f172a" stroke="white" stroke-width="3.2" paint-order="stroke">W10</text>
<text x="1454.4" y="220.2" font-size="9" font-weight="600" text-anchor="middle" fill="#14532d" stroke="white" stroke-width="2.6" paint-order="stroke">2 bolts</text>
<text x="1529.5" y="206.6" font-size="11" font-weight="700" text-anchor="middle" fill="#0f172a" stroke="white" stroke-width="3.2" paint-order="stroke">W11</text>
<text x="1529.5" y="219.6" font-size="9" font-weight="600" text-anchor="middle" fill="#14532d" stroke="white" stroke-width="2.6" paint-order="stroke">2 bolts</text>
<text x="1454.4" y="272.1" font-size="11" font-weight="700" text-anchor="middle" fill="#0f172a" stroke="white" stroke-width="3.2" paint-order="stroke">B2</text>
<text x="1454.4" y="285.1" font-size="9" font-weight="600" text-anchor="middle" fill="#14532d" stroke="white" stroke-width="2.6" paint-order="stroke">2 bolts</text>
<text x="1604.7" y="206.6" font-size="11" font-weight="700" text-anchor="middle" fill="#0f172a" stroke="white" stroke-width="3.2" paint-order="stroke">W12</text>
<text x="1604.7" y="219.6" font-size="9" font-weight="600" text-anchor="middle" fill="#14532d" stroke="white" stroke-width="2.6" paint-order="stroke">2 bolts</text>
<text x="1679.8" y="206.6" font-size="11" font-weight="700" text-anchor="middle" fill="#0f172a" stroke="white" stroke-width="3.2" paint-order="stroke">W11</text>
<text x="1679.8" y="219.6" font-size="9" font-weight="600" text-anchor="middle" fill="#14532d" stroke="white" stroke-width="2.6" paint-order="stroke">0 bolts</text>
<text x="1754.9" y="206.6" font-size="11" font-weight="700" text-anchor="middle" fill="#0f172a" stroke="white" stroke-width="3.2" paint-order="stroke">W12</text>
<text x="1754.9" y="219.6" font-size="9" font-weight="600" text-anchor="middle" fill="#14532d" stroke="white" stroke-width="2.6" paint-order="stroke">0 bolts</text>
<text x="1832.7" y="206.6" font-size="11" font-weight="700" text-anchor="middle" fill="#0f172a" stroke="white" stroke-width="3.2" paint-order="stroke">W13</text>
<text x="1832.7" y="219.6" font-size="9" font-weight="600" text-anchor="middle" fill="#14532d" stroke="white" stroke-width="2.6" paint-order="stroke">2 bolts</text>
<text x="1910.5" y="207.2" font-size="11" font-weight="700" text-anchor="middle" fill="#0f172a" stroke="white" stroke-width="3.2" paint-order="stroke">W10</text>
<text x="1910.5" y="220.2" font-size="9" font-weight="600" text-anchor="middle" fill="#14532d" stroke="white" stroke-width="2.6" paint-order="stroke">0 bolts</text>
<rect x="40" y="316.64860416045246" width="1900" height="60" fill="#f1f5f9" stroke="#cbd5e0" rx="4"/>
<text x="990" y="342.64860416045246" text-anchor="middle" font-size="16" font-weight="700" fill="#1a202c">Original 78 bolts -> Simplified 46 bolts (41% reduction)</text>
<text x="990" y="364.64860416045246" text-anchor="middle" font-size="11" fill="#4a5568">Per-stick counts shown beneath each member name. Each green dot in the right panel = a 3-hole pattern (3 x diam.3.8mm at 17mm pitch).</text>
</svg>