<svg xmlns="http://www.w3.org/2000/svg" width="1980" height="440" viewBox="0 0 1980 440" font-family="Segoe UI, Arial, sans-serif">
<defs>
<pattern id="chord-fill" patternUnits="userSpaceOnUse" width="6" height="6" patternTransform="rotate(-45)"><rect width="6" height="6" fill="#dbeafe"/><line x1="0" y1="0" x2="0" y2="6" stroke="#93c5fd" stroke-width="0.6"/></pattern>
<pattern id="web-fill" patternUnits="userSpaceOnUse" width="6" height="6" patternTransform="rotate(45)"><rect width="6" height="6" fill="#e2e8f0"/><line x1="0" y1="0" x2="0" y2="6" stroke="#94a3b8" stroke-width="0.6"/></pattern>
</defs>
<rect width="1980" height="440" fill="#fafaf8"/>
<text x="20" y="32" font-size="20" font-weight="700" fill="#1a202c">Frame U4-1 - plan GF-LIN-89.075</text>
<text x="20" y="54" font-size="12" fill="#4a5568">15 sticks. Same scale, both panels.</text>
<text x="485" y="92" text-anchor="middle" font-size="15" font-weight="700" fill="#7f1d1d">ORIGINAL - FrameCAD CSV BOLT HOLES (red dots)</text>
<text x="1495" y="92" text-anchor="middle" font-size="15" font-weight="700" fill="#14532d">SIMPLIFIED - centreline-intersection 3-hole pattern (green)</text>
<rect x="40" y="110" width="890.8" height="220.3" fill="none" stroke="#cbd5e0" stroke-width="0.8"/>
<rect x="1049.2" y="110" width="890.8" height="220.3" fill="none" stroke="#cbd5e0" stroke-width="0.8"/>
<polygon points="77.0,153.0 77.0,166.2 395.1,166.2 395.1,153.0" fill="url(#chord-fill)" stroke="#1d4ed8" stroke-width="1.4" opacity="0.95"/>
<polygon points="77.0,280.6 77.0,293.7 893.9,293.7 893.9,280.6" fill="url(#chord-fill)" stroke="#1d4ed8" stroke-width="1.4" opacity="0.95"/>
<polygon points="362.8,140.9 357.7,153.1 437.5,186.1 442.6,174.0" fill="url(#chord-fill)" stroke="#1d4ed8" stroke-width="1.4" opacity="0.95"/>
<polygon points="431.5,171.8 431.5,184.9 636.9,184.9 636.9,171.8" fill="url(#chord-fill)" stroke="#1d4ed8" stroke-width="1.4" opacity="0.95"/>
<polygon points="459.3,293.7 459.3,280.6 350.1,280.6 350.1,293.7" fill="url(#chord-fill)" stroke="#1d4ed8" stroke-width="1.4" opacity="0.95"/>
<polygon points="604.6,159.7 599.5,171.8 888.8,291.6 893.9,279.5" fill="url(#chord-fill)" stroke="#1d4ed8" stroke-width="1.4" opacity="0.95"/>
<polygon points="84.4,293.3 97.5,293.3 97.5,153.4 84.4,153.4" fill="url(#web-fill)" stroke="#475569" stroke-width="1.2" opacity="0.85"/>
<polygon points="101.5,286.3 111.5,294.8 225.3,160.5 215.3,151.9" fill="url(#web-fill)" stroke="#475569" stroke-width="1.2" opacity="0.85"/>
<polygon points="227.9,291.6 241.1,291.6 241.1,155.2 227.9,155.2" fill="url(#web-fill)" stroke="#475569" stroke-width="1.2" opacity="0.85"/>
<polygon points="384.2,295.0 393.3,285.4 252.8,151.8 243.8,161.3" fill="url(#web-fill)" stroke="#475569" stroke-width="1.2" opacity="0.85"/>
<polygon points="397.4,291.6 410.6,291.6 410.6,160.7 397.4,160.7" fill="url(#web-fill)" stroke="#475569" stroke-width="1.2" opacity="0.85"/>
<polygon points="429.4,291.6 442.5,291.6 442.5,173.9 429.4,173.9" fill="url(#web-fill)" stroke="#475569" stroke-width="1.2" opacity="0.85"/>
<polygon points="627.7,295.1 634.6,283.9 452.7,170.4 445.7,181.6" fill="url(#web-fill)" stroke="#475569" stroke-width="1.2" opacity="0.85"/>
<polygon points="639.2,291.6 652.4,291.6 652.4,179.4 639.2,179.4" fill="url(#web-fill)" stroke="#475569" stroke-width="1.2" opacity="0.85"/>
<polygon points="843.0,291.6 856.2,291.6 856.2,263.8 843.0,263.8" fill="url(#web-fill)" stroke="#475569" stroke-width="1.2" opacity="0.85"/>
<line x1="77.0" y1="159.6" x2="395.1" y2="159.6" stroke="#1d4ed8" stroke-width="0.6" stroke-dasharray="4 3" opacity="0.55"/>
<line x1="91.0" y1="293.3" x2="91.0" y2="153.4" stroke="#334155" stroke-width="0.6" stroke-dasharray="4 3" opacity="0.55"/>
<line x1="106.5" y1="290.5" x2="220.3" y2="156.2" stroke="#334155" stroke-width="0.6" stroke-dasharray="4 3" opacity="0.55"/>
<line x1="77.0" y1="287.1" x2="893.9" y2="287.1" stroke="#1d4ed8" stroke-width="0.6" stroke-dasharray="4 3" opacity="0.55"/>
<line x1="234.5" y1="291.6" x2="234.5" y2="155.2" stroke="#334155" stroke-width="0.6" stroke-dasharray="4 3" opacity="0.55"/>
<line x1="388.8" y1="290.2" x2="248.3" y2="156.5" stroke="#334155" stroke-width="0.6" stroke-dasharray="4 3" opacity="0.55"/>
<line x1="360.2" y1="147.0" x2="440.0" y2="180.0" stroke="#1d4ed8" stroke-width="0.6" stroke-dasharray="4 3" opacity="0.55"/>
<line x1="404.0" y1="291.6" x2="404.0" y2="160.7" stroke="#334155" stroke-width="0.6" stroke-dasharray="4 3" opacity="0.55"/>
<line x1="436.0" y1="291.6" x2="436.0" y2="173.9" stroke="#334155" stroke-width="0.6" stroke-dasharray="4 3" opacity="0.55"/>
<line x1="431.5" y1="178.3" x2="636.9" y2="178.3" stroke="#1d4ed8" stroke-width="0.6" stroke-dasharray="4 3" opacity="0.55"/>
<line x1="631.2" y1="289.5" x2="449.2" y2="176.0" stroke="#334155" stroke-width="0.6" stroke-dasharray="4 3" opacity="0.55"/>
<line x1="459.3" y1="287.1" x2="350.1" y2="287.1" stroke="#1d4ed8" stroke-width="0.6" stroke-dasharray="4 3" opacity="0.55"/>
<line x1="602.1" y1="165.7" x2="891.3" y2="285.6" stroke="#1d4ed8" stroke-width="0.6" stroke-dasharray="4 3" opacity="0.55"/>
<line x1="645.8" y1="291.6" x2="645.8" y2="179.4" stroke="#334155" stroke-width="0.6" stroke-dasharray="4 3" opacity="0.55"/>
<line x1="849.6" y1="291.6" x2="849.6" y2="263.8" stroke="#334155" stroke-width="0.6" stroke-dasharray="4 3" opacity="0.55"/>
<circle cx="91.0" cy="287.1" r="2.4" fill="#dc2626" stroke="#7f1d1d" stroke-width="0.6"/>
<circle cx="111.5" cy="287.1" r="2.4" fill="#dc2626" stroke="#7f1d1d" stroke-width="0.6"/>
<circle cx="234.5" cy="287.1" r="2.4" fill="#dc2626" stroke="#7f1d1d" stroke-width="0.6"/>
<circle cx="382.9" cy="287.1" r="2.4" fill="#dc2626" stroke="#7f1d1d" stroke-width="0.6"/>
<circle cx="404.0" cy="287.1" r="2.4" fill="#dc2626" stroke="#7f1d1d" stroke-width="0.6"/>
<circle cx="436.0" cy="287.1" r="2.4" fill="#dc2626" stroke="#7f1d1d" stroke-width="0.6"/>
<circle cx="623.4" cy="287.1" r="2.4" fill="#dc2626" stroke="#7f1d1d" stroke-width="0.6"/>
<circle cx="645.8" cy="287.1" r="2.4" fill="#dc2626" stroke="#7f1d1d" stroke-width="0.6"/>
<circle cx="849.6" cy="287.1" r="2.4" fill="#dc2626" stroke="#7f1d1d" stroke-width="0.6"/>
<circle cx="882.5" cy="287.1" r="2.4" fill="#dc2626" stroke="#7f1d1d" stroke-width="0.6"/>
<circle cx="91.0" cy="159.6" r="2.4" fill="#dc2626" stroke="#7f1d1d" stroke-width="0.6"/>
<circle cx="215.3" cy="159.6" r="2.4" fill="#dc2626" stroke="#7f1d1d" stroke-width="0.6"/>
<circle cx="234.5" cy="159.6" r="2.4" fill="#dc2626" stroke="#7f1d1d" stroke-width="0.6"/>
<circle cx="254.2" cy="159.6" r="2.4" fill="#dc2626" stroke="#7f1d1d" stroke-width="0.6"/>
<circle cx="378.0" cy="159.6" r="2.4" fill="#dc2626" stroke="#7f1d1d" stroke-width="0.6"/>
<circle cx="91.0" cy="284.6" r="2.4" fill="#dc2626" stroke="#7f1d1d" stroke-width="0.6"/>
<circle cx="91.0" cy="281.9" r="2.4" fill="#dc2626" stroke="#7f1d1d" stroke-width="0.6"/>
<circle cx="91.0" cy="164.8" r="2.4" fill="#dc2626" stroke="#7f1d1d" stroke-width="0.6"/>
<circle cx="91.0" cy="162.1" r="2.4" fill="#dc2626" stroke="#7f1d1d" stroke-width="0.6"/>
<circle cx="111.5" cy="284.6" r="2.4" fill="#dc2626" stroke="#7f1d1d" stroke-width="0.6"/>
<circle cx="112.5" cy="283.5" r="2.4" fill="#dc2626" stroke="#7f1d1d" stroke-width="0.6"/>
<circle cx="115.2" cy="280.3" r="2.4" fill="#dc2626" stroke="#7f1d1d" stroke-width="0.6"/>
<circle cx="211.6" cy="166.5" r="2.4" fill="#dc2626" stroke="#7f1d1d" stroke-width="0.6"/>
<circle cx="214.4" cy="163.2" r="2.4" fill="#dc2626" stroke="#7f1d1d" stroke-width="0.6"/>
<circle cx="215.3" cy="162.1" r="2.4" fill="#dc2626" stroke="#7f1d1d" stroke-width="0.6"/>
<circle cx="234.5" cy="284.6" r="2.4" fill="#dc2626" stroke="#7f1d1d" stroke-width="0.6"/>
<circle cx="234.5" cy="281.9" r="2.4" fill="#dc2626" stroke="#7f1d1d" stroke-width="0.6"/>
<circle cx="234.5" cy="164.8" r="2.4" fill="#dc2626" stroke="#7f1d1d" stroke-width="0.6"/>
<circle cx="234.5" cy="162.1" r="2.4" fill="#dc2626" stroke="#7f1d1d" stroke-width="0.6"/>
<circle cx="372.4" cy="152.0" r="2.4" fill="#dc2626" stroke="#7f1d1d" stroke-width="0.6"/>
<circle cx="379.0" cy="154.7" r="2.4" fill="#dc2626" stroke="#7f1d1d" stroke-width="0.6"/>
<circle cx="383.6" cy="156.7" r="2.4" fill="#dc2626" stroke="#7f1d1d" stroke-width="0.6"/>
<circle cx="404.9" cy="165.5" r="2.4" fill="#dc2626" stroke="#7f1d1d" stroke-width="0.6"/>
<circle cx="435.5" cy="178.2" r="2.4" fill="#dc2626" stroke="#7f1d1d" stroke-width="0.6"/>
<circle cx="436.9" cy="178.7" r="2.4" fill="#dc2626" stroke="#7f1d1d" stroke-width="0.6"/>
<circle cx="382.9" cy="284.6" r="2.4" fill="#dc2626" stroke="#7f1d1d" stroke-width="0.6"/>
<circle cx="378.1" cy="280.1" r="2.4" fill="#dc2626" stroke="#7f1d1d" stroke-width="0.6"/>
<circle cx="258.9" cy="166.7" r="2.4" fill="#dc2626" stroke="#7f1d1d" stroke-width="0.6"/>
<circle cx="254.2" cy="162.1" r="2.4" fill="#dc2626" stroke="#7f1d1d" stroke-width="0.6"/>
<circle cx="404.0" cy="284.6" r="2.4" fill="#dc2626" stroke="#7f1d1d" stroke-width="0.6"/>
<circle cx="404.0" cy="281.9" r="2.4" fill="#dc2626" stroke="#7f1d1d" stroke-width="0.6"/>
<circle cx="404.0" cy="171.8" r="2.4" fill="#dc2626" stroke="#7f1d1d" stroke-width="0.6"/>
<circle cx="404.0" cy="169.7" r="2.4" fill="#dc2626" stroke="#7f1d1d" stroke-width="0.6"/>
<circle cx="404.0" cy="167.8" r="2.4" fill="#dc2626" stroke="#7f1d1d" stroke-width="0.6"/>
<circle cx="436.0" cy="284.6" r="2.4" fill="#dc2626" stroke="#7f1d1d" stroke-width="0.6"/>
<circle cx="436.0" cy="281.9" r="2.4" fill="#dc2626" stroke="#7f1d1d" stroke-width="0.6"/>
<circle cx="436.0" cy="183.0" r="2.4" fill="#dc2626" stroke="#7f1d1d" stroke-width="0.6"/>
<circle cx="436.0" cy="181.1" r="2.4" fill="#dc2626" stroke="#7f1d1d" stroke-width="0.6"/>
<circle cx="436.0" cy="180.9" r="2.4" fill="#dc2626" stroke="#7f1d1d" stroke-width="0.6"/>
<circle cx="436.0" cy="178.3" r="2.4" fill="#dc2626" stroke="#7f1d1d" stroke-width="0.6"/>
<circle cx="436.5" cy="178.3" r="2.4" fill="#dc2626" stroke="#7f1d1d" stroke-width="0.6"/>
<circle cx="457.0" cy="178.3" r="2.4" fill="#dc2626" stroke="#7f1d1d" stroke-width="0.6"/>
<circle cx="619.9" cy="178.3" r="2.4" fill="#dc2626" stroke="#7f1d1d" stroke-width="0.6"/>
<circle cx="614.2" cy="170.8" r="2.4" fill="#dc2626" stroke="#7f1d1d" stroke-width="0.6"/>
<circle cx="620.8" cy="173.5" r="2.4" fill="#dc2626" stroke="#7f1d1d" stroke-width="0.6"/>
<circle cx="625.4" cy="175.4" r="2.4" fill="#dc2626" stroke="#7f1d1d" stroke-width="0.6"/>
<circle cx="646.8" cy="184.3" r="2.4" fill="#dc2626" stroke="#7f1d1d" stroke-width="0.6"/>
<circle cx="850.6" cy="268.7" r="2.4" fill="#dc2626" stroke="#7f1d1d" stroke-width="0.6"/>
<circle cx="876.9" cy="279.6" r="2.4" fill="#dc2626" stroke="#7f1d1d" stroke-width="0.6"/>
<circle cx="883.5" cy="282.3" r="2.4" fill="#dc2626" stroke="#7f1d1d" stroke-width="0.6"/>
<circle cx="888.1" cy="284.2" r="2.4" fill="#dc2626" stroke="#7f1d1d" stroke-width="0.6"/>
<circle cx="623.4" cy="284.6" r="2.4" fill="#dc2626" stroke="#7f1d1d" stroke-width="0.6"/>
<circle cx="615.5" cy="279.7" r="2.4" fill="#dc2626" stroke="#7f1d1d" stroke-width="0.6"/>
<circle cx="464.8" cy="185.7" r="2.4" fill="#dc2626" stroke="#7f1d1d" stroke-width="0.6"/>
<circle cx="457.0" cy="180.9" r="2.4" fill="#dc2626" stroke="#7f1d1d" stroke-width="0.6"/>
<circle cx="645.8" cy="284.6" r="2.4" fill="#dc2626" stroke="#7f1d1d" stroke-width="0.6"/>
<circle cx="645.8" cy="281.9" r="2.4" fill="#dc2626" stroke="#7f1d1d" stroke-width="0.6"/>
<circle cx="645.8" cy="190.6" r="2.4" fill="#dc2626" stroke="#7f1d1d" stroke-width="0.6"/>
<circle cx="645.8" cy="188.5" r="2.4" fill="#dc2626" stroke="#7f1d1d" stroke-width="0.6"/>
<circle cx="645.8" cy="186.6" r="2.4" fill="#dc2626" stroke="#7f1d1d" stroke-width="0.6"/>
<circle cx="849.6" cy="284.6" r="2.4" fill="#dc2626" stroke="#7f1d1d" stroke-width="0.6"/>
<circle cx="849.6" cy="281.9" r="2.4" fill="#dc2626" stroke="#7f1d1d" stroke-width="0.6"/>
<circle cx="849.6" cy="275.0" r="2.4" fill="#dc2626" stroke="#7f1d1d" stroke-width="0.6"/>
<circle cx="849.6" cy="272.9" r="2.4" fill="#dc2626" stroke="#7f1d1d" stroke-width="0.6"/>
<circle cx="849.6" cy="271.0" r="2.4" fill="#dc2626" stroke="#7f1d1d" stroke-width="0.6"/>
<text x="236.0" y="155.6" font-size="11" font-weight="700" text-anchor="middle" fill="#0f172a" stroke="white" stroke-width="3.2" paint-order="stroke">H5</text>
<text x="236.0" y="168.6" font-size="9" font-weight="600" text-anchor="middle" fill="#7f1d1d" stroke="white" stroke-width="2.6" paint-order="stroke">5 bolts</text>
<text x="91.0" y="219.4" font-size="11" font-weight="700" text-anchor="middle" fill="#0f172a" stroke="white" stroke-width="3.2" paint-order="stroke">W7</text>
<text x="91.0" y="232.4" font-size="9" font-weight="600" text-anchor="middle" fill="#7f1d1d" stroke="white" stroke-width="2.6" paint-order="stroke">4 bolts</text>
<text x="163.4" y="219.4" font-size="11" font-weight="700" text-anchor="middle" fill="#0f172a" stroke="white" stroke-width="3.2" paint-order="stroke">W8</text>
<text x="163.4" y="232.4" font-size="9" font-weight="600" text-anchor="middle" fill="#7f1d1d" stroke="white" stroke-width="2.6" paint-order="stroke">6 bolts</text>
<text x="485.4" y="283.1" font-size="11" font-weight="700" text-anchor="middle" fill="#0f172a" stroke="white" stroke-width="3.2" paint-order="stroke">B1</text>
<text x="485.4" y="296.1" font-size="9" font-weight="600" text-anchor="middle" fill="#7f1d1d" stroke="white" stroke-width="2.6" paint-order="stroke">10 bolts</text>
<text x="234.5" y="219.4" font-size="11" font-weight="700" text-anchor="middle" fill="#0f172a" stroke="white" stroke-width="3.2" paint-order="stroke">W9</text>
<text x="234.5" y="232.4" font-size="9" font-weight="600" text-anchor="middle" fill="#7f1d1d" stroke="white" stroke-width="2.6" paint-order="stroke">4 bolts</text>
<text x="318.5" y="219.4" font-size="11" font-weight="700" text-anchor="middle" fill="#0f172a" stroke="white" stroke-width="3.2" paint-order="stroke">W10</text>
<text x="318.5" y="232.4" font-size="9" font-weight="600" text-anchor="middle" fill="#7f1d1d" stroke="white" stroke-width="2.6" paint-order="stroke">4 bolts</text>
<text x="400.1" y="159.5" font-size="11" font-weight="700" text-anchor="middle" fill="#0f172a" stroke="white" stroke-width="3.2" paint-order="stroke">T3</text>
<text x="400.1" y="172.5" font-size="9" font-weight="600" text-anchor="middle" fill="#7f1d1d" stroke="white" stroke-width="2.6" paint-order="stroke">6 bolts</text>
<text x="404.0" y="222.1" font-size="11" font-weight="700" text-anchor="middle" fill="#0f172a" stroke="white" stroke-width="3.2" paint-order="stroke">W11</text>
<text x="404.0" y="235.1" font-size="9" font-weight="600" text-anchor="middle" fill="#7f1d1d" stroke="white" stroke-width="2.6" paint-order="stroke">5 bolts</text>
<text x="436.0" y="228.7" font-size="11" font-weight="700" text-anchor="middle" fill="#0f172a" stroke="white" stroke-width="3.2" paint-order="stroke">W12</text>
<text x="436.0" y="241.7" font-size="9" font-weight="600" text-anchor="middle" fill="#7f1d1d" stroke="white" stroke-width="2.6" paint-order="stroke">5 bolts</text>
<text x="534.2" y="174.3" font-size="11" font-weight="700" text-anchor="middle" fill="#0f172a" stroke="white" stroke-width="3.2" paint-order="stroke">H6</text>
<text x="534.2" y="187.3" font-size="9" font-weight="600" text-anchor="middle" fill="#7f1d1d" stroke="white" stroke-width="2.6" paint-order="stroke">4 bolts</text>
<text x="540.2" y="228.7" font-size="11" font-weight="700" text-anchor="middle" fill="#0f172a" stroke="white" stroke-width="3.2" paint-order="stroke">W13</text>
<text x="540.2" y="241.7" font-size="9" font-weight="600" text-anchor="middle" fill="#7f1d1d" stroke="white" stroke-width="2.6" paint-order="stroke">4 bolts</text>
<text x="404.7" y="283.1" font-size="11" font-weight="700" text-anchor="middle" fill="#0f172a" stroke="white" stroke-width="3.2" paint-order="stroke">B2</text>
<text x="404.7" y="296.1" font-size="9" font-weight="600" text-anchor="middle" fill="#7f1d1d" stroke="white" stroke-width="2.6" paint-order="stroke">0 bolts</text>
<text x="746.7" y="221.6" font-size="11" font-weight="700" text-anchor="middle" fill="#0f172a" stroke="white" stroke-width="3.2" paint-order="stroke">T4</text>
<text x="746.7" y="234.6" font-size="9" font-weight="600" text-anchor="middle" fill="#7f1d1d" stroke="white" stroke-width="2.6" paint-order="stroke">8 bolts</text>
<text x="645.8" y="231.5" font-size="11" font-weight="700" text-anchor="middle" fill="#0f172a" stroke="white" stroke-width="3.2" paint-order="stroke">W14</text>
<text x="645.8" y="244.5" font-size="9" font-weight="600" text-anchor="middle" fill="#7f1d1d" stroke="white" stroke-width="2.6" paint-order="stroke">5 bolts</text>
<text x="849.6" y="273.7" font-size="11" font-weight="700" text-anchor="middle" fill="#0f172a" stroke="white" stroke-width="3.2" paint-order="stroke">W15</text>
<text x="849.6" y="286.7" font-size="9" font-weight="600" text-anchor="middle" fill="#7f1d1d" stroke="white" stroke-width="2.6" paint-order="stroke">5 bolts</text>
<polygon points="1086.1,153.0 1086.1,166.2 1404.3,166.2 1404.3,153.0" fill="url(#chord-fill)" stroke="#1d4ed8" stroke-width="1.4" opacity="0.95"/>
<polygon points="1086.1,280.6 1086.1,293.7 1903.0,293.7 1903.0,280.6" fill="url(#chord-fill)" stroke="#1d4ed8" stroke-width="1.4" opacity="0.95"/>
<polygon points="1371.9,140.9 1366.9,153.1 1446.7,186.1 1451.7,174.0" fill="url(#chord-fill)" stroke="#1d4ed8" stroke-width="1.4" opacity="0.95"/>
<polygon points="1440.7,171.8 1440.7,184.9 1646.1,184.9 1646.1,171.8" fill="url(#chord-fill)" stroke="#1d4ed8" stroke-width="1.4" opacity="0.95"/>
<polygon points="1468.4,293.7 1468.4,280.6 1359.3,280.6 1359.3,293.7" fill="url(#chord-fill)" stroke="#1d4ed8" stroke-width="1.4" opacity="0.95"/>
<polygon points="1613.8,159.7 1608.7,171.8 1898.0,291.6 1903.0,279.5" fill="url(#chord-fill)" stroke="#1d4ed8" stroke-width="1.4" opacity="0.95"/>
<polygon points="1093.5,293.3 1106.7,293.3 1106.7,153.4 1093.5,153.4" fill="url(#web-fill)" stroke="#475569" stroke-width="1.2" opacity="0.85"/>
<polygon points="1110.7,286.3 1120.7,294.8 1234.5,160.5 1224.5,151.9" fill="url(#web-fill)" stroke="#475569" stroke-width="1.2" opacity="0.85"/>
<polygon points="1237.1,291.6 1250.2,291.6 1250.2,155.2 1237.1,155.2" fill="url(#web-fill)" stroke="#475569" stroke-width="1.2" opacity="0.85"/>
<polygon points="1393.4,295.0 1402.5,285.4 1262.0,151.8 1252.9,161.3" fill="url(#web-fill)" stroke="#475569" stroke-width="1.2" opacity="0.85"/>
<polygon points="1406.6,291.6 1419.7,291.6 1419.7,160.7 1406.6,160.7" fill="url(#web-fill)" stroke="#475569" stroke-width="1.2" opacity="0.85"/>
<polygon points="1438.5,291.6 1451.7,291.6 1451.7,173.9 1438.5,173.9" fill="url(#web-fill)" stroke="#475569" stroke-width="1.2" opacity="0.85"/>
<polygon points="1636.8,295.1 1643.8,283.9 1461.9,170.4 1454.9,181.6" fill="url(#web-fill)" stroke="#475569" stroke-width="1.2" opacity="0.85"/>
<polygon points="1648.4,291.6 1661.6,291.6 1661.6,179.4 1648.4,179.4" fill="url(#web-fill)" stroke="#475569" stroke-width="1.2" opacity="0.85"/>
<polygon points="1852.2,291.6 1865.4,291.6 1865.4,263.8 1852.2,263.8" fill="url(#web-fill)" stroke="#475569" stroke-width="1.2" opacity="0.85"/>
<line x1="1086.1" y1="159.6" x2="1404.3" y2="159.6" stroke="#1d4ed8" stroke-width="0.6" stroke-dasharray="4 3" opacity="0.55"/>
<line x1="1100.1" y1="293.3" x2="1100.1" y2="153.4" stroke="#334155" stroke-width="0.6" stroke-dasharray="4 3" opacity="0.55"/>
<line x1="1115.7" y1="290.5" x2="1229.5" y2="156.2" stroke="#334155" stroke-width="0.6" stroke-dasharray="4 3" opacity="0.55"/>
<line x1="1086.1" y1="287.1" x2="1903.0" y2="287.1" stroke="#1d4ed8" stroke-width="0.6" stroke-dasharray="4 3" opacity="0.55"/>
<line x1="1243.6" y1="291.6" x2="1243.6" y2="155.2" stroke="#334155" stroke-width="0.6" stroke-dasharray="4 3" opacity="0.55"/>
<line x1="1397.9" y1="290.2" x2="1257.5" y2="156.5" stroke="#334155" stroke-width="0.6" stroke-dasharray="4 3" opacity="0.55"/>
<line x1="1369.4" y1="147.0" x2="1449.2" y2="180.0" stroke="#1d4ed8" stroke-width="0.6" stroke-dasharray="4 3" opacity="0.55"/>
<line x1="1413.2" y1="291.6" x2="1413.2" y2="160.7" stroke="#334155" stroke-width="0.6" stroke-dasharray="4 3" opacity="0.55"/>
<line x1="1445.1" y1="291.6" x2="1445.1" y2="173.9" stroke="#334155" stroke-width="0.6" stroke-dasharray="4 3" opacity="0.55"/>
<line x1="1440.7" y1="178.3" x2="1646.1" y2="178.3" stroke="#1d4ed8" stroke-width="0.6" stroke-dasharray="4 3" opacity="0.55"/>
<line x1="1640.3" y1="289.5" x2="1458.4" y2="176.0" stroke="#334155" stroke-width="0.6" stroke-dasharray="4 3" opacity="0.55"/>
<line x1="1468.4" y1="287.1" x2="1359.3" y2="287.1" stroke="#1d4ed8" stroke-width="0.6" stroke-dasharray="4 3" opacity="0.55"/>
<line x1="1611.2" y1="165.7" x2="1900.5" y2="285.6" stroke="#1d4ed8" stroke-width="0.6" stroke-dasharray="4 3" opacity="0.55"/>
<line x1="1655.0" y1="291.6" x2="1655.0" y2="179.4" stroke="#334155" stroke-width="0.6" stroke-dasharray="4 3" opacity="0.55"/>
<line x1="1858.8" y1="291.6" x2="1858.8" y2="263.8" stroke="#334155" stroke-width="0.6" stroke-dasharray="4 3" opacity="0.55"/>
<circle cx="1100.1" cy="289.6" r="2.0" fill="#16a34a" stroke="#14532d" stroke-width="0.7"/>
<circle cx="1100.1" cy="287.1" r="3.6" fill="none" stroke="#16a34a" stroke-width="1.2" opacity="0.5"/>
<circle cx="1100.1" cy="287.1" r="2.3" fill="#16a34a" stroke="#14532d" stroke-width="0.9"/>
<circle cx="1100.1" cy="284.6" r="2.0" fill="#16a34a" stroke="#14532d" stroke-width="0.7"/>
<circle cx="1118.6" cy="289.6" r="2.0" fill="#16a34a" stroke="#14532d" stroke-width="0.7"/>
<circle cx="1118.6" cy="287.1" r="3.6" fill="none" stroke="#16a34a" stroke-width="1.2" opacity="0.5"/>
<circle cx="1118.6" cy="287.1" r="2.3" fill="#16a34a" stroke="#14532d" stroke-width="0.9"/>
<circle cx="1118.6" cy="284.6" r="2.0" fill="#16a34a" stroke="#14532d" stroke-width="0.7"/>
<circle cx="1243.6" cy="289.6" r="2.0" fill="#16a34a" stroke="#14532d" stroke-width="0.7"/>
<circle cx="1243.6" cy="287.1" r="3.6" fill="none" stroke="#16a34a" stroke-width="1.2" opacity="0.5"/>
<circle cx="1243.6" cy="287.1" r="2.3" fill="#16a34a" stroke="#14532d" stroke-width="0.9"/>
<circle cx="1243.6" cy="284.6" r="2.0" fill="#16a34a" stroke="#14532d" stroke-width="0.7"/>
<circle cx="1394.7" cy="289.6" r="2.0" fill="#16a34a" stroke="#14532d" stroke-width="0.7"/>
<circle cx="1394.7" cy="287.1" r="3.6" fill="none" stroke="#16a34a" stroke-width="1.2" opacity="0.5"/>
<circle cx="1394.7" cy="287.1" r="2.3" fill="#16a34a" stroke="#14532d" stroke-width="0.9"/>
<circle cx="1394.7" cy="284.6" r="2.0" fill="#16a34a" stroke="#14532d" stroke-width="0.7"/>
<circle cx="1413.2" cy="289.6" r="2.0" fill="#16a34a" stroke="#14532d" stroke-width="0.7"/>
<circle cx="1413.2" cy="287.1" r="3.6" fill="none" stroke="#16a34a" stroke-width="1.2" opacity="0.5"/>
<circle cx="1413.2" cy="287.1" r="2.3" fill="#16a34a" stroke="#14532d" stroke-width="0.9"/>
<circle cx="1413.2" cy="284.6" r="2.0" fill="#16a34a" stroke="#14532d" stroke-width="0.7"/>
<circle cx="1445.1" cy="289.6" r="2.0" fill="#16a34a" stroke="#14532d" stroke-width="0.7"/>
<circle cx="1445.1" cy="287.1" r="3.6" fill="none" stroke="#16a34a" stroke-width="1.2" opacity="0.5"/>
<circle cx="1445.1" cy="287.1" r="2.3" fill="#16a34a" stroke="#14532d" stroke-width="0.9"/>
<circle cx="1445.1" cy="284.6" r="2.0" fill="#16a34a" stroke="#14532d" stroke-width="0.7"/>
<circle cx="1636.6" cy="289.6" r="2.0" fill="#16a34a" stroke="#14532d" stroke-width="0.7"/>
<circle cx="1636.6" cy="287.1" r="3.6" fill="none" stroke="#16a34a" stroke-width="1.2" opacity="0.5"/>
<circle cx="1636.6" cy="287.1" r="2.3" fill="#16a34a" stroke="#14532d" stroke-width="0.9"/>
<circle cx="1636.6" cy="284.6" r="2.0" fill="#16a34a" stroke="#14532d" stroke-width="0.7"/>
<circle cx="1655.0" cy="289.6" r="2.0" fill="#16a34a" stroke="#14532d" stroke-width="0.7"/>
<circle cx="1655.0" cy="287.1" r="3.6" fill="none" stroke="#16a34a" stroke-width="1.2" opacity="0.5"/>
<circle cx="1655.0" cy="287.1" r="2.3" fill="#16a34a" stroke="#14532d" stroke-width="0.9"/>
<circle cx="1655.0" cy="284.6" r="2.0" fill="#16a34a" stroke="#14532d" stroke-width="0.7"/>
<circle cx="1858.8" cy="289.6" r="2.0" fill="#16a34a" stroke="#14532d" stroke-width="0.7"/>
<circle cx="1858.8" cy="287.1" r="3.6" fill="none" stroke="#16a34a" stroke-width="1.2" opacity="0.5"/>
<circle cx="1858.8" cy="287.1" r="2.3" fill="#16a34a" stroke="#14532d" stroke-width="0.9"/>
<circle cx="1858.8" cy="284.6" r="2.0" fill="#16a34a" stroke="#14532d" stroke-width="0.7"/>
<circle cx="1445.1" cy="284.6" r="2.0" fill="#16a34a" stroke="#14532d" stroke-width="0.7"/>
<circle cx="1445.1" cy="287.1" r="3.6" fill="none" stroke="#16a34a" stroke-width="1.2" opacity="0.5"/>
<circle cx="1445.1" cy="287.1" r="2.3" fill="#16a34a" stroke="#14532d" stroke-width="0.9"/>
<circle cx="1445.1" cy="289.6" r="2.0" fill="#16a34a" stroke="#14532d" stroke-width="0.7"/>
<circle cx="1413.2" cy="284.6" r="2.0" fill="#16a34a" stroke="#14532d" stroke-width="0.7"/>
<circle cx="1413.2" cy="287.1" r="3.6" fill="none" stroke="#16a34a" stroke-width="1.2" opacity="0.5"/>
<circle cx="1413.2" cy="287.1" r="2.3" fill="#16a34a" stroke="#14532d" stroke-width="0.9"/>
<circle cx="1413.2" cy="289.6" r="2.0" fill="#16a34a" stroke="#14532d" stroke-width="0.7"/>
<circle cx="1394.7" cy="284.6" r="2.0" fill="#16a34a" stroke="#14532d" stroke-width="0.7"/>
<circle cx="1394.7" cy="287.1" r="3.6" fill="none" stroke="#16a34a" stroke-width="1.2" opacity="0.5"/>
<circle cx="1394.7" cy="287.1" r="2.3" fill="#16a34a" stroke="#14532d" stroke-width="0.9"/>
<circle cx="1394.7" cy="289.6" r="2.0" fill="#16a34a" stroke="#14532d" stroke-width="0.7"/>
<circle cx="1100.1" cy="162.1" r="2.0" fill="#16a34a" stroke="#14532d" stroke-width="0.7"/>
<circle cx="1100.1" cy="159.6" r="3.6" fill="none" stroke="#16a34a" stroke-width="1.2" opacity="0.5"/>
<circle cx="1100.1" cy="159.6" r="2.3" fill="#16a34a" stroke="#14532d" stroke-width="0.9"/>
<circle cx="1100.1" cy="157.1" r="2.0" fill="#16a34a" stroke="#14532d" stroke-width="0.7"/>
<circle cx="1226.6" cy="162.1" r="2.0" fill="#16a34a" stroke="#14532d" stroke-width="0.7"/>
<circle cx="1226.6" cy="159.6" r="3.6" fill="none" stroke="#16a34a" stroke-width="1.2" opacity="0.5"/>
<circle cx="1226.6" cy="159.6" r="2.3" fill="#16a34a" stroke="#14532d" stroke-width="0.9"/>
<circle cx="1226.6" cy="157.1" r="2.0" fill="#16a34a" stroke="#14532d" stroke-width="0.7"/>
<circle cx="1243.6" cy="162.1" r="2.0" fill="#16a34a" stroke="#14532d" stroke-width="0.7"/>
<circle cx="1243.6" cy="159.6" r="3.6" fill="none" stroke="#16a34a" stroke-width="1.2" opacity="0.5"/>
<circle cx="1243.6" cy="159.6" r="2.3" fill="#16a34a" stroke="#14532d" stroke-width="0.9"/>
<circle cx="1243.6" cy="157.1" r="2.0" fill="#16a34a" stroke="#14532d" stroke-width="0.7"/>
<circle cx="1260.7" cy="162.1" r="2.0" fill="#16a34a" stroke="#14532d" stroke-width="0.7"/>
<circle cx="1260.7" cy="159.6" r="3.6" fill="none" stroke="#16a34a" stroke-width="1.2" opacity="0.5"/>
<circle cx="1260.7" cy="159.6" r="2.3" fill="#16a34a" stroke="#14532d" stroke-width="0.9"/>
<circle cx="1260.7" cy="157.1" r="2.0" fill="#16a34a" stroke="#14532d" stroke-width="0.7"/>
<circle cx="1399.8" cy="162.1" r="2.0" fill="#16a34a" stroke="#14532d" stroke-width="0.7"/>
<circle cx="1399.8" cy="159.6" r="3.6" fill="none" stroke="#16a34a" stroke-width="1.2" opacity="0.5"/>
<circle cx="1399.8" cy="159.6" r="2.3" fill="#16a34a" stroke="#14532d" stroke-width="0.9"/>
<circle cx="1399.8" cy="157.1" r="2.0" fill="#16a34a" stroke="#14532d" stroke-width="0.7"/>
<circle cx="1102.6" cy="287.1" r="2.0" fill="#16a34a" stroke="#14532d" stroke-width="0.7"/>
<circle cx="1100.1" cy="287.1" r="3.6" fill="none" stroke="#16a34a" stroke-width="1.2" opacity="0.5"/>
<circle cx="1100.1" cy="287.1" r="2.3" fill="#16a34a" stroke="#14532d" stroke-width="0.9"/>
<circle cx="1097.6" cy="287.1" r="2.0" fill="#16a34a" stroke="#14532d" stroke-width="0.7"/>
<circle cx="1102.6" cy="159.6" r="2.0" fill="#16a34a" stroke="#14532d" stroke-width="0.7"/>
<circle cx="1100.1" cy="159.6" r="3.6" fill="none" stroke="#16a34a" stroke-width="1.2" opacity="0.5"/>
<circle cx="1100.1" cy="159.6" r="2.3" fill="#16a34a" stroke="#14532d" stroke-width="0.9"/>
<circle cx="1097.6" cy="159.6" r="2.0" fill="#16a34a" stroke="#14532d" stroke-width="0.7"/>
<circle cx="1120.5" cy="288.8" r="2.0" fill="#16a34a" stroke="#14532d" stroke-width="0.7"/>
<circle cx="1118.6" cy="287.1" r="3.6" fill="none" stroke="#16a34a" stroke-width="1.2" opacity="0.5"/>
<circle cx="1118.6" cy="287.1" r="2.3" fill="#16a34a" stroke="#14532d" stroke-width="0.9"/>
<circle cx="1116.6" cy="285.5" r="2.0" fill="#16a34a" stroke="#14532d" stroke-width="0.7"/>
<circle cx="1228.5" cy="161.2" r="2.0" fill="#16a34a" stroke="#14532d" stroke-width="0.7"/>
<circle cx="1226.6" cy="159.6" r="3.6" fill="none" stroke="#16a34a" stroke-width="1.2" opacity="0.5"/>
<circle cx="1226.6" cy="159.6" r="2.3" fill="#16a34a" stroke="#14532d" stroke-width="0.9"/>
<circle cx="1224.7" cy="158.0" r="2.0" fill="#16a34a" stroke="#14532d" stroke-width="0.7"/>
<circle cx="1246.2" cy="287.1" r="2.0" fill="#16a34a" stroke="#14532d" stroke-width="0.7"/>
<circle cx="1243.6" cy="287.1" r="3.6" fill="none" stroke="#16a34a" stroke-width="1.2" opacity="0.5"/>
<circle cx="1243.6" cy="287.1" r="2.3" fill="#16a34a" stroke="#14532d" stroke-width="0.9"/>
<circle cx="1241.1" cy="287.1" r="2.0" fill="#16a34a" stroke="#14532d" stroke-width="0.7"/>
<circle cx="1246.2" cy="159.6" r="2.0" fill="#16a34a" stroke="#14532d" stroke-width="0.7"/>
<circle cx="1243.6" cy="159.6" r="3.6" fill="none" stroke="#16a34a" stroke-width="1.2" opacity="0.5"/>
<circle cx="1243.6" cy="159.6" r="2.3" fill="#16a34a" stroke="#14532d" stroke-width="0.9"/>
<circle cx="1241.1" cy="159.6" r="2.0" fill="#16a34a" stroke="#14532d" stroke-width="0.7"/>
<circle cx="1398.9" cy="161.9" r="2.0" fill="#16a34a" stroke="#14532d" stroke-width="0.7"/>
<circle cx="1399.8" cy="159.6" r="3.6" fill="none" stroke="#16a34a" stroke-width="1.2" opacity="0.5"/>
<circle cx="1399.8" cy="159.6" r="2.3" fill="#16a34a" stroke="#14532d" stroke-width="0.9"/>
<circle cx="1400.8" cy="157.3" r="2.0" fill="#16a34a" stroke="#14532d" stroke-width="0.7"/>
<circle cx="1412.2" cy="167.4" r="2.0" fill="#16a34a" stroke="#14532d" stroke-width="0.7"/>
<circle cx="1413.2" cy="165.1" r="3.6" fill="none" stroke="#16a34a" stroke-width="1.2" opacity="0.5"/>
<circle cx="1413.2" cy="165.1" r="2.3" fill="#16a34a" stroke="#14532d" stroke-width="0.9"/>
<circle cx="1414.1" cy="162.8" r="2.0" fill="#16a34a" stroke="#14532d" stroke-width="0.7"/>
<circle cx="1444.2" cy="180.7" r="2.0" fill="#16a34a" stroke="#14532d" stroke-width="0.7"/>
<circle cx="1445.1" cy="178.3" r="3.6" fill="none" stroke="#16a34a" stroke-width="1.2" opacity="0.5"/>
<circle cx="1445.1" cy="178.3" r="2.3" fill="#16a34a" stroke="#14532d" stroke-width="0.9"/>
<circle cx="1446.1" cy="176.0" r="2.0" fill="#16a34a" stroke="#14532d" stroke-width="0.7"/>
<circle cx="1396.5" cy="285.3" r="2.0" fill="#16a34a" stroke="#14532d" stroke-width="0.7"/>
<circle cx="1394.7" cy="287.1" r="3.6" fill="none" stroke="#16a34a" stroke-width="1.2" opacity="0.5"/>
<circle cx="1394.7" cy="287.1" r="2.3" fill="#16a34a" stroke="#14532d" stroke-width="0.9"/>
<circle cx="1393.0" cy="289.0" r="2.0" fill="#16a34a" stroke="#14532d" stroke-width="0.7"/>
<circle cx="1262.4" cy="157.8" r="2.0" fill="#16a34a" stroke="#14532d" stroke-width="0.7"/>
<circle cx="1260.7" cy="159.6" r="3.6" fill="none" stroke="#16a34a" stroke-width="1.2" opacity="0.5"/>
<circle cx="1260.7" cy="159.6" r="2.3" fill="#16a34a" stroke="#14532d" stroke-width="0.9"/>
<circle cx="1258.9" cy="161.4" r="2.0" fill="#16a34a" stroke="#14532d" stroke-width="0.7"/>
<circle cx="1415.7" cy="287.1" r="2.0" fill="#16a34a" stroke="#14532d" stroke-width="0.7"/>
<circle cx="1413.2" cy="287.1" r="3.6" fill="none" stroke="#16a34a" stroke-width="1.2" opacity="0.5"/>
<circle cx="1413.2" cy="287.1" r="2.3" fill="#16a34a" stroke="#14532d" stroke-width="0.9"/>
<circle cx="1410.6" cy="287.1" r="2.0" fill="#16a34a" stroke="#14532d" stroke-width="0.7"/>
<circle cx="1415.7" cy="165.1" r="2.0" fill="#16a34a" stroke="#14532d" stroke-width="0.7"/>
<circle cx="1413.2" cy="165.1" r="3.6" fill="none" stroke="#16a34a" stroke-width="1.2" opacity="0.5"/>
<circle cx="1413.2" cy="165.1" r="2.3" fill="#16a34a" stroke="#14532d" stroke-width="0.9"/>
<circle cx="1410.6" cy="165.1" r="2.0" fill="#16a34a" stroke="#14532d" stroke-width="0.7"/>
<circle cx="1447.6" cy="287.1" r="2.0" fill="#16a34a" stroke="#14532d" stroke-width="0.7"/>
<circle cx="1445.1" cy="287.1" r="3.6" fill="none" stroke="#16a34a" stroke-width="1.2" opacity="0.5"/>
<circle cx="1445.1" cy="287.1" r="2.3" fill="#16a34a" stroke="#14532d" stroke-width="0.9"/>
<circle cx="1442.6" cy="287.1" r="2.0" fill="#16a34a" stroke="#14532d" stroke-width="0.7"/>
<circle cx="1447.6" cy="178.3" r="2.0" fill="#16a34a" stroke="#14532d" stroke-width="0.7"/>
<circle cx="1445.1" cy="178.3" r="3.6" fill="none" stroke="#16a34a" stroke-width="1.2" opacity="0.5"/>
<circle cx="1445.1" cy="178.3" r="2.3" fill="#16a34a" stroke="#14532d" stroke-width="0.9"/>
<circle cx="1442.6" cy="178.3" r="2.0" fill="#16a34a" stroke="#14532d" stroke-width="0.7"/>
<circle cx="1445.1" cy="180.9" r="2.0" fill="#16a34a" stroke="#14532d" stroke-width="0.7"/>
<circle cx="1445.1" cy="178.3" r="3.6" fill="none" stroke="#16a34a" stroke-width="1.2" opacity="0.5"/>
<circle cx="1445.1" cy="178.3" r="2.3" fill="#16a34a" stroke="#14532d" stroke-width="0.9"/>
<circle cx="1445.1" cy="175.8" r="2.0" fill="#16a34a" stroke="#14532d" stroke-width="0.7"/>
<circle cx="1462.1" cy="180.9" r="2.0" fill="#16a34a" stroke="#14532d" stroke-width="0.7"/>
<circle cx="1462.1" cy="178.3" r="3.6" fill="none" stroke="#16a34a" stroke-width="1.2" opacity="0.5"/>
<circle cx="1462.1" cy="178.3" r="2.3" fill="#16a34a" stroke="#14532d" stroke-width="0.9"/>
<circle cx="1462.1" cy="175.8" r="2.0" fill="#16a34a" stroke="#14532d" stroke-width="0.7"/>
<circle cx="1641.7" cy="180.9" r="2.0" fill="#16a34a" stroke="#14532d" stroke-width="0.7"/>
<circle cx="1641.7" cy="178.3" r="3.6" fill="none" stroke="#16a34a" stroke-width="1.2" opacity="0.5"/>
<circle cx="1641.7" cy="178.3" r="2.3" fill="#16a34a" stroke="#14532d" stroke-width="0.9"/>
<circle cx="1641.7" cy="175.8" r="2.0" fill="#16a34a" stroke="#14532d" stroke-width="0.7"/>
<circle cx="1640.7" cy="180.7" r="2.0" fill="#16a34a" stroke="#14532d" stroke-width="0.7"/>
<circle cx="1641.7" cy="178.3" r="3.6" fill="none" stroke="#16a34a" stroke-width="1.2" opacity="0.5"/>
<circle cx="1641.7" cy="178.3" r="2.3" fill="#16a34a" stroke="#14532d" stroke-width="0.9"/>
<circle cx="1642.6" cy="176.0" r="2.0" fill="#16a34a" stroke="#14532d" stroke-width="0.7"/>
<circle cx="1654.0" cy="186.2" r="2.0" fill="#16a34a" stroke="#14532d" stroke-width="0.7"/>
<circle cx="1655.0" cy="183.9" r="3.6" fill="none" stroke="#16a34a" stroke-width="1.2" opacity="0.5"/>
<circle cx="1655.0" cy="183.9" r="2.3" fill="#16a34a" stroke="#14532d" stroke-width="0.9"/>
<circle cx="1655.9" cy="181.5" r="2.0" fill="#16a34a" stroke="#14532d" stroke-width="0.7"/>
<circle cx="1857.8" cy="270.6" r="2.0" fill="#16a34a" stroke="#14532d" stroke-width="0.7"/>
<circle cx="1858.8" cy="268.3" r="3.6" fill="none" stroke="#16a34a" stroke-width="1.2" opacity="0.5"/>
<circle cx="1858.8" cy="268.3" r="2.3" fill="#16a34a" stroke="#14532d" stroke-width="0.9"/>
<circle cx="1859.7" cy="265.9" r="2.0" fill="#16a34a" stroke="#14532d" stroke-width="0.7"/>
<circle cx="1637.9" cy="285.0" r="2.0" fill="#16a34a" stroke="#14532d" stroke-width="0.7"/>
<circle cx="1636.6" cy="287.1" r="3.6" fill="none" stroke="#16a34a" stroke-width="1.2" opacity="0.5"/>
<circle cx="1636.6" cy="287.1" r="2.3" fill="#16a34a" stroke="#14532d" stroke-width="0.9"/>
<circle cx="1635.2" cy="289.3" r="2.0" fill="#16a34a" stroke="#14532d" stroke-width="0.7"/>
<circle cx="1463.5" cy="176.2" r="2.0" fill="#16a34a" stroke="#14532d" stroke-width="0.7"/>
<circle cx="1462.1" cy="178.3" r="3.6" fill="none" stroke="#16a34a" stroke-width="1.2" opacity="0.5"/>
<circle cx="1462.1" cy="178.3" r="2.3" fill="#16a34a" stroke="#14532d" stroke-width="0.9"/>
<circle cx="1460.8" cy="180.5" r="2.0" fill="#16a34a" stroke="#14532d" stroke-width="0.7"/>
<circle cx="1657.5" cy="287.1" r="2.0" fill="#16a34a" stroke="#14532d" stroke-width="0.7"/>
<circle cx="1655.0" cy="287.1" r="3.6" fill="none" stroke="#16a34a" stroke-width="1.2" opacity="0.5"/>
<circle cx="1655.0" cy="287.1" r="2.3" fill="#16a34a" stroke="#14532d" stroke-width="0.9"/>
<circle cx="1652.5" cy="287.1" r="2.0" fill="#16a34a" stroke="#14532d" stroke-width="0.7"/>
<circle cx="1657.5" cy="183.9" r="2.0" fill="#16a34a" stroke="#14532d" stroke-width="0.7"/>
<circle cx="1655.0" cy="183.9" r="3.6" fill="none" stroke="#16a34a" stroke-width="1.2" opacity="0.5"/>
<circle cx="1655.0" cy="183.9" r="2.3" fill="#16a34a" stroke="#14532d" stroke-width="0.9"/>
<circle cx="1652.5" cy="183.9" r="2.0" fill="#16a34a" stroke="#14532d" stroke-width="0.7"/>
<circle cx="1861.3" cy="287.1" r="2.0" fill="#16a34a" stroke="#14532d" stroke-width="0.7"/>
<circle cx="1858.8" cy="287.1" r="3.6" fill="none" stroke="#16a34a" stroke-width="1.2" opacity="0.5"/>
<circle cx="1858.8" cy="287.1" r="2.3" fill="#16a34a" stroke="#14532d" stroke-width="0.9"/>
<circle cx="1856.3" cy="287.1" r="2.0" fill="#16a34a" stroke="#14532d" stroke-width="0.7"/>
<circle cx="1861.3" cy="268.3" r="2.0" fill="#16a34a" stroke="#14532d" stroke-width="0.7"/>
<circle cx="1858.8" cy="268.3" r="3.6" fill="none" stroke="#16a34a" stroke-width="1.2" opacity="0.5"/>
<circle cx="1858.8" cy="268.3" r="2.3" fill="#16a34a" stroke="#14532d" stroke-width="0.9"/>
<circle cx="1856.3" cy="268.3" r="2.0" fill="#16a34a" stroke="#14532d" stroke-width="0.7"/>
<text x="1245.2" y="155.6" font-size="11" font-weight="700" text-anchor="middle" fill="#0f172a" stroke="white" stroke-width="3.2" paint-order="stroke">H5</text>
<text x="1245.2" y="168.6" font-size="9" font-weight="600" text-anchor="middle" fill="#14532d" stroke="white" stroke-width="2.6" paint-order="stroke">5 bolts</text>
<text x="1100.1" y="219.4" font-size="11" font-weight="700" text-anchor="middle" fill="#0f172a" stroke="white" stroke-width="3.2" paint-order="stroke">W7</text>
<text x="1100.1" y="232.4" font-size="9" font-weight="600" text-anchor="middle" fill="#14532d" stroke="white" stroke-width="2.6" paint-order="stroke">2 bolts</text>
<text x="1172.6" y="219.4" font-size="11" font-weight="700" text-anchor="middle" fill="#0f172a" stroke="white" stroke-width="3.2" paint-order="stroke">W8</text>
<text x="1172.6" y="232.4" font-size="9" font-weight="600" text-anchor="middle" fill="#14532d" stroke="white" stroke-width="2.6" paint-order="stroke">2 bolts</text>
<text x="1494.6" y="283.1" font-size="11" font-weight="700" text-anchor="middle" fill="#0f172a" stroke="white" stroke-width="3.2" paint-order="stroke">B1</text>
<text x="1494.6" y="296.1" font-size="9" font-weight="600" text-anchor="middle" fill="#14532d" stroke="white" stroke-width="2.6" paint-order="stroke">9 bolts</text>
<text x="1243.6" y="219.4" font-size="11" font-weight="700" text-anchor="middle" fill="#0f172a" stroke="white" stroke-width="3.2" paint-order="stroke">W9</text>
<text x="1243.6" y="232.4" font-size="9" font-weight="600" text-anchor="middle" fill="#14532d" stroke="white" stroke-width="2.6" paint-order="stroke">2 bolts</text>
<text x="1327.7" y="219.4" font-size="11" font-weight="700" text-anchor="middle" fill="#0f172a" stroke="white" stroke-width="3.2" paint-order="stroke">W10</text>
<text x="1327.7" y="232.4" font-size="9" font-weight="600" text-anchor="middle" fill="#14532d" stroke="white" stroke-width="2.6" paint-order="stroke">2 bolts</text>
<text x="1409.3" y="159.5" font-size="11" font-weight="700" text-anchor="middle" fill="#0f172a" stroke="white" stroke-width="3.2" paint-order="stroke">T3</text>
<text x="1409.3" y="172.5" font-size="9" font-weight="600" text-anchor="middle" fill="#14532d" stroke="white" stroke-width="2.6" paint-order="stroke">3 bolts</text>
<text x="1413.2" y="222.1" font-size="11" font-weight="700" text-anchor="middle" fill="#0f172a" stroke="white" stroke-width="3.2" paint-order="stroke">W11</text>
<text x="1413.2" y="235.1" font-size="9" font-weight="600" text-anchor="middle" fill="#14532d" stroke="white" stroke-width="2.6" paint-order="stroke">2 bolts</text>
<text x="1445.1" y="228.7" font-size="11" font-weight="700" text-anchor="middle" fill="#0f172a" stroke="white" stroke-width="3.2" paint-order="stroke">W12</text>
<text x="1445.1" y="241.7" font-size="9" font-weight="600" text-anchor="middle" fill="#14532d" stroke="white" stroke-width="2.6" paint-order="stroke">2 bolts</text>
<text x="1543.4" y="174.3" font-size="11" font-weight="700" text-anchor="middle" fill="#0f172a" stroke="white" stroke-width="3.2" paint-order="stroke">H6</text>
<text x="1543.4" y="187.3" font-size="9" font-weight="600" text-anchor="middle" fill="#14532d" stroke="white" stroke-width="2.6" paint-order="stroke">3 bolts</text>
<text x="1549.4" y="228.7" font-size="11" font-weight="700" text-anchor="middle" fill="#0f172a" stroke="white" stroke-width="3.2" paint-order="stroke">W13</text>
<text x="1549.4" y="241.7" font-size="9" font-weight="600" text-anchor="middle" fill="#14532d" stroke="white" stroke-width="2.6" paint-order="stroke">2 bolts</text>
<text x="1413.9" y="283.1" font-size="11" font-weight="700" text-anchor="middle" fill="#0f172a" stroke="white" stroke-width="3.2" paint-order="stroke">B2</text>
<text x="1413.9" y="296.1" font-size="9" font-weight="600" text-anchor="middle" fill="#14532d" stroke="white" stroke-width="2.6" paint-order="stroke">3 bolts</text>
<text x="1755.9" y="221.6" font-size="11" font-weight="700" text-anchor="middle" fill="#0f172a" stroke="white" stroke-width="3.2" paint-order="stroke">T4</text>
<text x="1755.9" y="234.6" font-size="9" font-weight="600" text-anchor="middle" fill="#14532d" stroke="white" stroke-width="2.6" paint-order="stroke">3 bolts</text>
<text x="1655.0" y="231.5" font-size="11" font-weight="700" text-anchor="middle" fill="#0f172a" stroke="white" stroke-width="3.2" paint-order="stroke">W14</text>
<text x="1655.0" y="244.5" font-size="9" font-weight="600" text-anchor="middle" fill="#14532d" stroke="white" stroke-width="2.6" paint-order="stroke">2 bolts</text>
<text x="1858.8" y="273.7" font-size="11" font-weight="700" text-anchor="middle" fill="#0f172a" stroke="white" stroke-width="3.2" paint-order="stroke">W15</text>
<text x="1858.8" y="286.7" font-size="9" font-weight="600" text-anchor="middle" fill="#14532d" stroke="white" stroke-width="2.6" paint-order="stroke">2 bolts</text>
<rect x="40" y="340.25302461734896" width="1900" height="60" fill="#f1f5f9" stroke="#cbd5e0" rx="4"/>
<text x="990" y="366.25302461734896" text-anchor="middle" font-size="16" font-weight="700" fill="#1a202c">Original 75 bolts -> Simplified 44 bolts (41% reduction)</text>
<text x="990" y="388.25302461734896" text-anchor="middle" font-size="11" fill="#4a5568">Per-stick counts shown beneath each member name. Each green dot in the right panel = a 3-hole pattern (3 x diam.3.8mm at 17mm pitch).</text>
</svg>